<?xml version="1.0" encoding="utf-8"?>
<!-- Generator: Adobe Illustrator 16.0.3, SVG Export Plug-In . SVG Version: 6.00 Build 0)  -->
<!DOCTYPE svg PUBLIC "-//W3C//DTD SVG 1.1//EN" "http://www.w3.org/Graphics/SVG/1.1/DTD/svg11.dtd">
<svg version="1.1" xmlns="http://www.w3.org/2000/svg" xmlns:xlink="http://www.w3.org/1999/xlink" x="0px" y="0px"
	 width="19.076px" height="15.745px" viewBox="0 0 19.076 15.745" enable-background="new 0 0 19.076 15.745" xml:space="preserve">
<g id="Camada_1">
</g>
<g id="Camada_2">
</g>
<g id="Camada_3">
</g>
<g id="Camada_4">
	<path fill="#3ECCA7" d="M10.851,2.155L10.813,6.43l-0.622,0c-1.273,0-2.369-0.121-3.344-0.314c-0.407-0.081-0.79-0.173-1.149-0.279
		C5.284,5.714,4.904,5.575,4.549,5.422C0.709,3.777,0.108,0.626,0.03,0c0.001,0.52-0.47,5.126,2.238,8.299
		c0.639,0.744,1.401,1.359,2.28,1.85c0.363,0.203,0.746,0.382,1.148,0.542c0.366,0.144,0.75,0.268,1.149,0.376
		c1.018,0.277,2.137,0.444,3.363,0.484l0.603,0.019l0.035,4.175c0.002,0,0.003,0,0.004,0l8.225-6.756L10.851,2.155z"/>
</g>
</svg>
