<?xml version="1.0" encoding="utf-8"?>
<!-- Generator: Adobe Illustrator 16.0.3, SVG Export Plug-In . SVG Version: 6.00 Build 0)  -->
<!DOCTYPE svg PUBLIC "-//W3C//DTD SVG 1.1//EN" "http://www.w3.org/Graphics/SVG/1.1/DTD/svg11.dtd">
<svg version="1.1" id="Camada_1" xmlns="http://www.w3.org/2000/svg" xmlns:xlink="http://www.w3.org/1999/xlink" x="0px" y="0px"
	 width="83.183px" height="48.523px" viewBox="0 0 83.183 48.523" enable-background="new 0 0 83.183 48.523" xml:space="preserve">
<g>
	<g>
		<defs>
			<rect id="SVGID_1_" width="83.183" height="48.523"/>
		</defs>
		<clipPath id="SVGID_2_">
			<use xlink:href="#SVGID_1_"  overflow="visible"/>
		</clipPath>
		<rect clip-path="url(#SVGID_2_)" fill="#3C8A41" width="83.184" height="48.523"/>
		<polygon clip-path="url(#SVGID_2_)" fill="#E3BB32" points="12.825,24.26 41.591,42.631 70.359,24.26 41.591,5.893 		"/>
		<g clip-path="url(#SVGID_2_)">
			<defs>
				<rect id="SVGID_3_" width="83.184" height="48.523"/>
			</defs>
			<clipPath id="SVGID_4_">
				<use xlink:href="#SVGID_3_"  overflow="visible"/>
			</clipPath>
			<path clip-path="url(#SVGID_4_)" fill="#2F2167" d="M53.723,24.26c0,6.697-5.435,12.131-12.132,12.131
				c-6.695,0-12.129-5.434-12.129-12.131c0-6.693,5.434-12.129,12.129-12.129C48.288,12.131,53.723,17.566,53.723,24.26"/>
			<path clip-path="url(#SVGID_4_)" fill="#FFFFFF" d="M34.661,19.063c-1.415,0-2.806,0.102-4.167,0.293
				c-0.262,0.596-0.479,1.217-0.646,1.855c1.563-0.271,3.171-0.416,4.813-0.416c7.114,0,13.602,2.682,18.512,7.086
				c0.194-0.619,0.338-1.262,0.432-1.918C48.481,21.656,41.874,19.063,34.661,19.063"/>
			<path clip-path="url(#SVGID_4_)" fill-rule="evenodd" clip-rule="evenodd" fill="#3C8A41" d="M31.245,20.715
				c0.285-0.035,0.485-0.318,0.446-0.637c-0.039-0.316-0.301-0.545-0.586-0.51c-0.285,0.033-0.485,0.32-0.446,0.637
				C30.699,20.521,30.961,20.75,31.245,20.715 M31.221,20.502c0.167-0.021,0.282-0.199,0.258-0.396
				c-0.024-0.201-0.18-0.346-0.348-0.324c-0.169,0.021-0.284,0.197-0.259,0.396C30.896,20.377,31.054,20.521,31.221,20.502"/>
			<path clip-path="url(#SVGID_4_)" fill-rule="evenodd" clip-rule="evenodd" fill="#3C8A41" d="M32.187,20.611l0.214-0.016
				l-0.028-0.428l0.46-0.033c0.2-0.014,0.351-0.188,0.337-0.389c-0.014-0.199-0.187-0.35-0.388-0.336l-0.658,0.047L32.187,20.611z
				 M32.356,19.953l0.445-0.031c0.08-0.004,0.142-0.076,0.137-0.158c-0.007-0.082-0.076-0.145-0.158-0.137l-0.445,0.029
				L32.356,19.953z"/>
			<path clip-path="url(#SVGID_4_)" fill="#3C8A41" d="M33.166,20.543c-0.011-0.166-0.037-0.529-0.282-0.51l-0.313,0.021
				c0.36-0.025,0.386,0.336,0.397,0.5"/>
			<path clip-path="url(#SVGID_4_)" fill-rule="evenodd" clip-rule="evenodd" fill="#3C8A41" d="M33.651,20.52l0.545-0.012
				c0.274-0.002,0.491-0.227,0.486-0.502l-0.004-0.166c-0.005-0.271-0.229-0.49-0.503-0.486l-0.545,0.01L33.651,20.52z
				 M33.862,20.303l0.313-0.008c0.174-0.004,0.311-0.146,0.307-0.318l-0.001-0.1c-0.003-0.172-0.145-0.311-0.319-0.307l-0.313,0.004
				L33.862,20.303z"/>
			<polygon clip-path="url(#SVGID_4_)" fill="#3C8A41" points="35.118,20.504 36.158,20.541 36.165,20.326 35.324,20.297 35.334,20 
				35.995,20.023 36.002,19.824 35.341,19.803 35.349,19.572 36.143,19.6 36.147,19.383 35.158,19.35 			"/>
			<polygon clip-path="url(#SVGID_4_)" fill="#3C8A41" points="36.585,20.568 36.782,20.584 36.851,19.795 37.011,20.604 
				37.193,20.621 37.492,19.852 37.423,20.641 37.62,20.658 37.719,19.508 37.433,19.48 37.133,20.252 36.973,19.441 36.686,19.416 
							"/>
			<polygon clip-path="url(#SVGID_4_)" fill="#3C8A41" points="38.978,20.836 39.832,20.982 39.866,20.789 39.206,20.676 
				39.251,20.414 39.788,20.508 39.821,20.311 39.285,20.221 39.315,20.041 39.952,20.152 39.988,19.955 39.153,19.811 			"/>
			<path clip-path="url(#SVGID_4_)" fill-rule="evenodd" clip-rule="evenodd" fill="#3C8A41" d="M41.171,21.268l0.208,0.053
				l0.107-0.414l0.447,0.115c0.194,0.051,0.394-0.066,0.444-0.26c0.049-0.193-0.067-0.393-0.262-0.443l-0.639-0.166L41.171,21.268z
				 M41.541,20.697l0.432,0.113c0.078,0.02,0.16-0.027,0.18-0.107c0.021-0.08-0.025-0.16-0.106-0.182l-0.431-0.111L41.541,20.697z"
				/>
			<path clip-path="url(#SVGID_4_)" fill-rule="evenodd" clip-rule="evenodd" fill="#3C8A41" d="M42.59,21.645l0.203,0.066
				l0.129-0.41l0.441,0.139c0.19,0.061,0.396-0.045,0.457-0.236c0.059-0.191-0.047-0.395-0.237-0.455l-0.632-0.199L42.59,21.645z
				 M42.987,21.098l0.424,0.133c0.079,0.025,0.162-0.018,0.188-0.096c0.025-0.08-0.019-0.162-0.097-0.188l-0.425-0.135
				L42.987,21.098z"/>
			<path clip-path="url(#SVGID_4_)" fill="#3C8A41" d="M43.525,21.941c0.051-0.156,0.159-0.502-0.076-0.578l-0.3-0.094
				c0.347,0.109,0.237,0.455,0.187,0.611"/>
			<path clip-path="url(#SVGID_4_)" fill-rule="evenodd" clip-rule="evenodd" fill="#3C8A41" d="M44.472,22.279
				c0.27,0.102,0.578-0.061,0.689-0.357c0.111-0.299-0.017-0.623-0.285-0.725c-0.269-0.1-0.577,0.061-0.688,0.359
				C44.075,21.855,44.202,22.18,44.472,22.279 M44.547,22.078c0.157,0.061,0.343-0.045,0.413-0.232c0.069-0.188,0-0.387-0.158-0.447
				c-0.158-0.059-0.344,0.045-0.413,0.234C44.317,21.82,44.39,22.021,44.547,22.078"/>
			<path clip-path="url(#SVGID_4_)" fill-rule="evenodd" clip-rule="evenodd" fill="#3C8A41" d="M45.832,22.83
				c0.263,0.115,0.581-0.031,0.707-0.324c0.127-0.293,0.018-0.621-0.247-0.736c-0.263-0.113-0.58,0.029-0.707,0.322
				S45.568,22.715,45.832,22.83 M45.918,22.633c0.153,0.068,0.344-0.027,0.424-0.211c0.081-0.184,0.021-0.389-0.135-0.455
				c-0.153-0.066-0.345,0.027-0.426,0.211C45.702,22.361,45.763,22.564,45.918,22.633"/>
			
				<rect x="46.087" y="22.412" transform="matrix(-0.9176 -0.3974 0.3974 -0.9176 79.8575 61.5402)" clip-path="url(#SVGID_4_)" fill="#3C8A41" width="0.437" height="0.166"/>
			
				<rect x="46.266" y="22.45" transform="matrix(-0.9201 -0.3918 0.3918 -0.9201 80.0829 61.8186)" clip-path="url(#SVGID_4_)" fill="#3C8A41" width="0.165" height="0.579"/>
			<path clip-path="url(#SVGID_4_)" fill-rule="evenodd" clip-rule="evenodd" fill="#3C8A41" d="M46.694,23.217l0.193,0.096
				l0.191-0.383l0.413,0.205c0.181,0.092,0.398,0.018,0.488-0.162c0.088-0.18,0.017-0.396-0.164-0.488l-0.59-0.293L46.694,23.217z
				 M47.175,22.738l0.399,0.197c0.073,0.037,0.162,0.008,0.199-0.066c0.036-0.074,0.007-0.162-0.066-0.199l-0.398-0.199
				L47.175,22.738z"/>
			<path clip-path="url(#SVGID_4_)" fill="#3C8A41" d="M47.574,23.654c0.073-0.146,0.235-0.471,0.015-0.582l-0.28-0.141
				c0.324,0.162,0.162,0.488,0.089,0.635"/>
			<polygon clip-path="url(#SVGID_4_)" fill="#3C8A41" points="48.004,23.883 48.908,24.395 49.014,24.207 48.281,23.791 
				48.428,23.535 49.002,23.859 49.101,23.688 48.525,23.363 48.639,23.16 49.33,23.551 49.435,23.363 48.572,22.877 			"/>
			<path clip-path="url(#SVGID_4_)" fill="#3C8A41" d="M49.689,24.447c-0.063,0.098,0.001,0.207,0.14,0.295s0.234,0.084,0.274,0.023
				c0.127-0.199-0.604-0.488-0.379-0.834c0.193-0.297,0.525-0.066,0.651,0.014s0.326,0.287,0.17,0.523l-0.212-0.135
				c0.067-0.104-0.007-0.205-0.119-0.273c-0.105-0.072-0.195-0.102-0.259,0c-0.108,0.162,0.608,0.465,0.388,0.811
				c-0.159,0.254-0.442,0.143-0.63,0.023c-0.161-0.104-0.399-0.344-0.244-0.586L49.689,24.447z"/>
			<path clip-path="url(#SVGID_4_)" fill="#3C8A41" d="M50.93,25.266c-0.068,0.096-0.011,0.205,0.123,0.303
				c0.134,0.096,0.229,0.098,0.272,0.037c0.138-0.189-0.578-0.518-0.334-0.852c0.209-0.287,0.528-0.039,0.65,0.047
				c0.12,0.088,0.311,0.303,0.142,0.533l-0.205-0.146c0.071-0.1,0.005-0.203-0.104-0.281c-0.103-0.074-0.188-0.109-0.259-0.012
				c-0.115,0.154,0.584,0.496,0.346,0.828c-0.175,0.246-0.451,0.121-0.631-0.008c-0.154-0.111-0.381-0.363-0.213-0.6L50.93,25.266z"
				/>
			<path clip-path="url(#SVGID_4_)" fill-rule="evenodd" clip-rule="evenodd" fill="#3C8A41" d="M52.102,26.596
				c0.224,0.18,0.566,0.121,0.766-0.127c0.198-0.25,0.177-0.596-0.047-0.775c-0.225-0.18-0.568-0.123-0.768,0.127
				C51.855,26.07,51.876,26.418,52.102,26.596 M52.235,26.428c0.132,0.105,0.339,0.064,0.464-0.094
				c0.126-0.156,0.119-0.369-0.014-0.475c-0.131-0.105-0.339-0.063-0.464,0.094C52.096,26.111,52.103,26.322,52.235,26.428"/>
			<polygon clip-path="url(#SVGID_4_)" fill="#FFFFFF" points="31.69,21.563 31.528,22.057 31.774,22.137 			"/>
			<polygon clip-path="url(#SVGID_4_)" fill="#FFFFFF" points="31.69,21.563 31.851,22.057 31.604,22.137 			"/>
			<polygon clip-path="url(#SVGID_4_)" fill="#FFFFFF" points="32.184,21.922 31.663,21.922 31.663,22.18 			"/>
			<polygon clip-path="url(#SVGID_4_)" fill="#FFFFFF" points="32.184,21.922 31.764,22.227 31.609,22.018 			"/>
			<polygon clip-path="url(#SVGID_4_)" fill="#FFFFFF" points="31.195,21.922 31.615,22.227 31.768,22.018 			"/>
			<polygon clip-path="url(#SVGID_4_)" fill="#FFFFFF" points="31.195,21.922 31.716,21.922 31.716,22.18 			"/>
			<polygon clip-path="url(#SVGID_4_)" fill="#FFFFFF" points="31.994,22.504 31.834,22.008 31.587,22.09 			"/>
			<polygon clip-path="url(#SVGID_4_)" fill="#FFFFFF" points="31.994,22.504 31.575,22.197 31.727,21.986 			"/>
			<polygon clip-path="url(#SVGID_4_)" fill="#FFFFFF" points="31.385,22.504 31.806,22.197 31.651,21.986 			"/>
			<polygon clip-path="url(#SVGID_4_)" fill="#FFFFFF" points="31.385,22.504 31.544,22.008 31.792,22.09 			"/>
			<polygon clip-path="url(#SVGID_4_)" fill="#FFFFFF" points="32.762,26.662 32.602,27.156 32.849,27.236 			"/>
			<polygon clip-path="url(#SVGID_4_)" fill="#FFFFFF" points="32.762,26.662 32.922,27.156 32.677,27.236 			"/>
			<polygon clip-path="url(#SVGID_4_)" fill="#FFFFFF" points="33.256,27.021 32.737,27.021 32.737,27.281 			"/>
			<polygon clip-path="url(#SVGID_4_)" fill="#FFFFFF" points="33.256,27.021 32.835,27.326 32.684,27.117 			"/>
			<polygon clip-path="url(#SVGID_4_)" fill="#FFFFFF" points="32.267,27.021 32.688,27.326 32.842,27.117 			"/>
			<polygon clip-path="url(#SVGID_4_)" fill="#FFFFFF" points="32.267,27.021 32.788,27.021 32.788,27.281 			"/>
			<polygon clip-path="url(#SVGID_4_)" fill="#FFFFFF" points="33.067,27.602 32.907,27.109 32.659,27.189 			"/>
			<polygon clip-path="url(#SVGID_4_)" fill="#FFFFFF" points="33.067,27.602 32.647,27.297 32.8,27.088 			"/>
			<polygon clip-path="url(#SVGID_4_)" fill="#FFFFFF" points="32.457,27.602 32.877,27.297 32.725,27.088 			"/>
			<polygon clip-path="url(#SVGID_4_)" fill="#FFFFFF" points="32.457,27.602 32.618,27.109 32.866,27.189 			"/>
			<polygon clip-path="url(#SVGID_4_)" fill="#FFFFFF" points="31.277,27.924 31.17,28.254 31.334,28.307 			"/>
			<polygon clip-path="url(#SVGID_4_)" fill="#FFFFFF" points="31.277,27.924 31.385,28.254 31.219,28.307 			"/>
			<polygon clip-path="url(#SVGID_4_)" fill="#FFFFFF" points="31.605,28.164 31.26,28.164 31.26,28.338 			"/>
			<polygon clip-path="url(#SVGID_4_)" fill="#FFFFFF" points="31.605,28.164 31.325,28.367 31.224,28.227 			"/>
			<polygon clip-path="url(#SVGID_4_)" fill="#FFFFFF" points="30.947,28.164 31.227,28.367 31.328,28.227 			"/>
			<polygon clip-path="url(#SVGID_4_)" fill="#FFFFFF" points="30.947,28.164 31.293,28.164 31.293,28.338 			"/>
			<polygon clip-path="url(#SVGID_4_)" fill="#FFFFFF" points="31.481,28.551 31.374,28.223 31.209,28.275 			"/>
			<polygon clip-path="url(#SVGID_4_)" fill="#FFFFFF" points="31.481,28.551 31.199,28.348 31.303,28.207 			"/>
			<polygon clip-path="url(#SVGID_4_)" fill="#FFFFFF" points="31.073,28.551 31.354,28.348 31.252,28.207 			"/>
			<polygon clip-path="url(#SVGID_4_)" fill="#FFFFFF" points="31.073,28.551 31.181,28.223 31.344,28.275 			"/>
			<polygon clip-path="url(#SVGID_4_)" fill="#FFFFFF" points="33.95,26.191 33.875,26.426 33.992,26.465 			"/>
			<polygon clip-path="url(#SVGID_4_)" fill="#FFFFFF" points="33.95,26.191 34.027,26.426 33.91,26.465 			"/>
			<polygon clip-path="url(#SVGID_4_)" fill="#FFFFFF" points="34.187,26.363 33.938,26.363 33.938,26.486 			"/>
			<polygon clip-path="url(#SVGID_4_)" fill="#FFFFFF" points="34.187,26.363 33.985,26.51 33.913,26.408 			"/>
			<polygon clip-path="url(#SVGID_4_)" fill="#FFFFFF" points="33.715,26.363 33.914,26.51 33.988,26.408 			"/>
			<polygon clip-path="url(#SVGID_4_)" fill="#FFFFFF" points="33.715,26.363 33.961,26.363 33.961,26.486 			"/>
			<polygon clip-path="url(#SVGID_4_)" fill="#FFFFFF" points="34.096,26.639 34.019,26.402 33.902,26.441 			"/>
			<polygon clip-path="url(#SVGID_4_)" fill="#FFFFFF" points="34.096,26.639 33.896,26.494 33.968,26.395 			"/>
			<polygon clip-path="url(#SVGID_4_)" fill="#FFFFFF" points="33.805,26.639 34.005,26.494 33.932,26.395 			"/>
			<polygon clip-path="url(#SVGID_4_)" fill="#FFFFFF" points="33.805,26.639 33.882,26.402 33.999,26.441 			"/>
			<polygon clip-path="url(#SVGID_4_)" fill="#FFFFFF" points="35.287,27.953 35.154,28.365 35.359,28.434 			"/>
			<polygon clip-path="url(#SVGID_4_)" fill="#FFFFFF" points="35.287,27.953 35.421,28.365 35.216,28.434 			"/>
			<polygon clip-path="url(#SVGID_4_)" fill="#FFFFFF" points="35.698,28.252 35.266,28.252 35.266,28.469 			"/>
			<polygon clip-path="url(#SVGID_4_)" fill="#FFFFFF" points="35.698,28.252 35.349,28.508 35.223,28.332 			"/>
			<polygon clip-path="url(#SVGID_4_)" fill="#FFFFFF" points="34.874,28.252 35.226,28.508 35.353,28.332 			"/>
			<polygon clip-path="url(#SVGID_4_)" fill="#FFFFFF" points="34.874,28.252 35.309,28.252 35.309,28.469 			"/>
			<polygon clip-path="url(#SVGID_4_)" fill="#FFFFFF" points="35.542,28.736 35.408,28.326 35.202,28.393 			"/>
			<polygon clip-path="url(#SVGID_4_)" fill="#FFFFFF" points="35.542,28.736 35.192,28.482 35.319,28.307 			"/>
			<polygon clip-path="url(#SVGID_4_)" fill="#FFFFFF" points="35.033,28.736 35.383,28.482 35.256,28.307 			"/>
			<polygon clip-path="url(#SVGID_4_)" fill="#FFFFFF" points="35.033,28.736 35.168,28.326 35.373,28.393 			"/>
			<polygon clip-path="url(#SVGID_4_)" fill="#FFFFFF" points="34.925,29.158 34.791,29.57 34.996,29.639 			"/>
			<polygon clip-path="url(#SVGID_4_)" fill="#FFFFFF" points="34.925,29.158 35.058,29.57 34.852,29.639 			"/>
			<polygon clip-path="url(#SVGID_4_)" fill="#FFFFFF" points="35.337,29.457 34.902,29.457 34.902,29.674 			"/>
			<polygon clip-path="url(#SVGID_4_)" fill="#FFFFFF" points="35.337,29.457 34.985,29.713 34.858,29.537 			"/>
			<polygon clip-path="url(#SVGID_4_)" fill="#FFFFFF" points="34.512,29.457 34.863,29.713 34.989,29.537 			"/>
			<polygon clip-path="url(#SVGID_4_)" fill="#FFFFFF" points="34.512,29.457 34.945,29.457 34.945,29.674 			"/>
			<polygon clip-path="url(#SVGID_4_)" fill="#FFFFFF" points="35.179,29.943 35.046,29.529 34.84,29.596 			"/>
			<polygon clip-path="url(#SVGID_4_)" fill="#FFFFFF" points="35.179,29.943 34.827,29.688 34.955,29.512 			"/>
			<polygon clip-path="url(#SVGID_4_)" fill="#FFFFFF" points="34.669,29.943 35.021,29.688 34.893,29.512 			"/>
			<polygon clip-path="url(#SVGID_4_)" fill="#FFFFFF" points="34.669,29.943 34.805,29.529 35.01,29.596 			"/>
			<polygon clip-path="url(#SVGID_4_)" fill="#FFFFFF" points="45.356,19.977 45.194,20.473 45.441,20.553 			"/>
			<polygon clip-path="url(#SVGID_4_)" fill="#FFFFFF" points="45.356,19.977 45.517,20.473 45.27,20.553 			"/>
			<polygon clip-path="url(#SVGID_4_)" fill="#FFFFFF" points="45.849,20.336 45.33,20.336 45.33,20.598 			"/>
			<polygon clip-path="url(#SVGID_4_)" fill="#FFFFFF" points="45.849,20.336 45.429,20.643 45.276,20.432 			"/>
			<polygon clip-path="url(#SVGID_4_)" fill="#FFFFFF" points="44.86,20.336 45.28,20.643 45.435,20.432 			"/>
			<polygon clip-path="url(#SVGID_4_)" fill="#FFFFFF" points="44.86,20.336 45.381,20.336 45.381,20.598 			"/>
			<polygon clip-path="url(#SVGID_4_)" fill="#FFFFFF" points="45.661,20.918 45.5,20.424 45.252,20.504 			"/>
			<polygon clip-path="url(#SVGID_4_)" fill="#FFFFFF" points="45.661,20.918 45.24,20.613 45.393,20.402 			"/>
			<polygon clip-path="url(#SVGID_4_)" fill="#FFFFFF" points="45.05,20.918 45.47,20.613 45.317,20.402 			"/>
			<polygon clip-path="url(#SVGID_4_)" fill="#FFFFFF" points="45.05,20.918 45.211,20.424 45.458,20.504 			"/>
			<polygon clip-path="url(#SVGID_4_)" fill="#FFFFFF" points="50.092,28 49.931,28.494 50.179,28.574 			"/>
			<polygon clip-path="url(#SVGID_4_)" fill="#FFFFFF" points="50.092,28 50.253,28.494 50.005,28.574 			"/>
			<polygon clip-path="url(#SVGID_4_)" fill="#FFFFFF" points="50.586,28.357 50.066,28.357 50.066,28.617 			"/>
			<polygon clip-path="url(#SVGID_4_)" fill="#FFFFFF" points="50.586,28.357 50.165,28.664 50.013,28.453 			"/>
			<polygon clip-path="url(#SVGID_4_)" fill="#FFFFFF" points="49.597,28.357 50.018,28.664 50.171,28.453 			"/>
			<polygon clip-path="url(#SVGID_4_)" fill="#FFFFFF" points="49.597,28.357 50.117,28.357 50.117,28.617 			"/>
			<polygon clip-path="url(#SVGID_4_)" fill="#FFFFFF" points="50.397,28.939 50.236,28.445 49.99,28.523 			"/>
			<polygon clip-path="url(#SVGID_4_)" fill="#FFFFFF" points="50.397,28.939 49.977,28.633 50.131,28.422 			"/>
			<polygon clip-path="url(#SVGID_4_)" fill="#FFFFFF" points="49.786,28.939 50.207,28.633 50.053,28.422 			"/>
			<polygon clip-path="url(#SVGID_4_)" fill="#FFFFFF" points="49.786,28.939 49.945,28.445 50.193,28.523 			"/>
			<polygon clip-path="url(#SVGID_4_)" fill="#FFFFFF" points="51.775,28.287 51.668,28.617 51.833,28.67 			"/>
			<polygon clip-path="url(#SVGID_4_)" fill="#FFFFFF" points="51.775,28.287 51.883,28.617 51.718,28.67 			"/>
			<polygon clip-path="url(#SVGID_4_)" fill="#FFFFFF" points="52.104,28.527 51.758,28.527 51.758,28.699 			"/>
			<polygon clip-path="url(#SVGID_4_)" fill="#FFFFFF" points="52.104,28.527 51.825,28.73 51.724,28.592 			"/>
			<polygon clip-path="url(#SVGID_4_)" fill="#FFFFFF" points="51.445,28.527 51.728,28.73 51.829,28.592 			"/>
			<polygon clip-path="url(#SVGID_4_)" fill="#FFFFFF" points="51.445,28.527 51.792,28.527 51.792,28.699 			"/>
			<polygon clip-path="url(#SVGID_4_)" fill="#FFFFFF" points="51.979,28.914 51.872,28.584 51.707,28.639 			"/>
			<polygon clip-path="url(#SVGID_4_)" fill="#FFFFFF" points="51.979,28.914 51.698,28.711 51.8,28.57 			"/>
			<polygon clip-path="url(#SVGID_4_)" fill="#FFFFFF" points="51.571,28.914 51.852,28.711 51.75,28.57 			"/>
			<polygon clip-path="url(#SVGID_4_)" fill="#FFFFFF" points="51.571,28.914 51.678,28.584 51.844,28.639 			"/>
			<polygon clip-path="url(#SVGID_4_)" fill="#FFFFFF" points="50.586,29.158 50.452,29.57 50.659,29.639 			"/>
			<polygon clip-path="url(#SVGID_4_)" fill="#FFFFFF" points="50.586,29.158 50.721,29.57 50.516,29.639 			"/>
			<polygon clip-path="url(#SVGID_4_)" fill="#FFFFFF" points="50.999,29.457 50.566,29.457 50.566,29.674 			"/>
			<polygon clip-path="url(#SVGID_4_)" fill="#FFFFFF" points="50.999,29.457 50.648,29.713 50.521,29.537 			"/>
			<polygon clip-path="url(#SVGID_4_)" fill="#FFFFFF" points="50.175,29.457 50.524,29.713 50.653,29.537 			"/>
			<polygon clip-path="url(#SVGID_4_)" fill="#FFFFFF" points="50.175,29.457 50.608,29.457 50.608,29.674 			"/>
			<polygon clip-path="url(#SVGID_4_)" fill="#FFFFFF" points="50.843,29.943 50.708,29.529 50.502,29.596 			"/>
			<polygon clip-path="url(#SVGID_4_)" fill="#FFFFFF" points="50.843,29.943 50.491,29.688 50.618,29.512 			"/>
			<polygon clip-path="url(#SVGID_4_)" fill="#FFFFFF" points="50.333,29.943 50.683,29.688 50.555,29.512 			"/>
			<polygon clip-path="url(#SVGID_4_)" fill="#FFFFFF" points="50.333,29.943 50.466,29.529 50.672,29.596 			"/>
			<polygon clip-path="url(#SVGID_4_)" fill="#FFFFFF" points="47.666,31.699 47.532,32.111 47.737,32.18 			"/>
			<polygon clip-path="url(#SVGID_4_)" fill="#FFFFFF" points="47.666,31.699 47.801,32.111 47.594,32.18 			"/>
			<polygon clip-path="url(#SVGID_4_)" fill="#FFFFFF" points="48.078,32 47.645,32 47.645,32.217 			"/>
			<polygon clip-path="url(#SVGID_4_)" fill="#FFFFFF" points="48.078,32 47.729,32.254 47.6,32.078 			"/>
			<polygon clip-path="url(#SVGID_4_)" fill="#FFFFFF" points="47.254,32 47.604,32.254 47.73,32.078 			"/>
			<polygon clip-path="url(#SVGID_4_)" fill="#FFFFFF" points="47.254,32 47.687,32 47.687,32.217 			"/>
			<polygon clip-path="url(#SVGID_4_)" fill="#FFFFFF" points="47.92,32.482 47.787,32.072 47.581,32.139 			"/>
			<polygon clip-path="url(#SVGID_4_)" fill="#FFFFFF" points="47.92,32.482 47.568,32.229 47.697,32.055 			"/>
			<polygon clip-path="url(#SVGID_4_)" fill="#FFFFFF" points="47.41,32.482 47.762,32.229 47.635,32.055 			"/>
			<polygon clip-path="url(#SVGID_4_)" fill="#FFFFFF" points="47.41,32.482 47.546,32.072 47.751,32.139 			"/>
			<polygon clip-path="url(#SVGID_4_)" fill="#FFFFFF" points="47.649,33.008 47.543,33.338 47.707,33.391 			"/>
			<polygon clip-path="url(#SVGID_4_)" fill="#FFFFFF" points="47.649,33.008 47.756,33.338 47.591,33.391 			"/>
			<polygon clip-path="url(#SVGID_4_)" fill="#FFFFFF" points="47.979,33.248 47.633,33.248 47.633,33.422 			"/>
			<polygon clip-path="url(#SVGID_4_)" fill="#FFFFFF" points="47.979,33.248 47.697,33.451 47.596,33.311 			"/>
			<polygon clip-path="url(#SVGID_4_)" fill="#FFFFFF" points="47.32,33.248 47.6,33.451 47.701,33.311 			"/>
			<polygon clip-path="url(#SVGID_4_)" fill="#FFFFFF" points="47.32,33.248 47.666,33.248 47.666,33.422 			"/>
			<polygon clip-path="url(#SVGID_4_)" fill="#FFFFFF" points="47.853,33.635 47.747,33.307 47.581,33.359 			"/>
			<polygon clip-path="url(#SVGID_4_)" fill="#FFFFFF" points="47.853,33.635 47.572,33.432 47.675,33.291 			"/>
			<polygon clip-path="url(#SVGID_4_)" fill="#FFFFFF" points="47.445,33.635 47.727,33.432 47.625,33.291 			"/>
			<polygon clip-path="url(#SVGID_4_)" fill="#FFFFFF" points="47.445,33.635 47.553,33.307 47.719,33.359 			"/>
			<polygon clip-path="url(#SVGID_4_)" fill="#FFFFFF" points="48.87,30.83 48.763,31.16 48.928,31.213 			"/>
			<polygon clip-path="url(#SVGID_4_)" fill="#FFFFFF" points="48.87,30.83 48.977,31.16 48.813,31.213 			"/>
			<polygon clip-path="url(#SVGID_4_)" fill="#FFFFFF" points="49.2,31.068 48.853,31.068 48.853,31.242 			"/>
			<polygon clip-path="url(#SVGID_4_)" fill="#FFFFFF" points="49.2,31.068 48.92,31.273 48.818,31.133 			"/>
			<polygon clip-path="url(#SVGID_4_)" fill="#FFFFFF" points="48.541,31.068 48.822,31.273 48.924,31.133 			"/>
			<polygon clip-path="url(#SVGID_4_)" fill="#FFFFFF" points="48.541,31.068 48.888,31.068 48.888,31.242 			"/>
			<polygon clip-path="url(#SVGID_4_)" fill="#FFFFFF" points="49.074,31.457 48.967,31.127 48.804,31.182 			"/>
			<polygon clip-path="url(#SVGID_4_)" fill="#FFFFFF" points="49.074,31.457 48.794,31.252 48.897,31.113 			"/>
			<polygon clip-path="url(#SVGID_4_)" fill="#FFFFFF" points="48.668,31.457 48.947,31.252 48.845,31.113 			"/>
			<polygon clip-path="url(#SVGID_4_)" fill="#FFFFFF" points="48.668,31.457 48.775,31.127 48.938,31.182 			"/>
			<polygon clip-path="url(#SVGID_4_)" fill="#FFFFFF" points="49.844,30.133 49.711,30.545 49.916,30.611 			"/>
			<polygon clip-path="url(#SVGID_4_)" fill="#FFFFFF" points="49.844,30.133 49.978,30.545 49.772,30.611 			"/>
			<polygon clip-path="url(#SVGID_4_)" fill="#FFFFFF" points="50.255,30.432 49.822,30.432 49.822,30.648 			"/>
			<polygon clip-path="url(#SVGID_4_)" fill="#FFFFFF" points="50.255,30.432 49.906,30.686 49.779,30.512 			"/>
			<polygon clip-path="url(#SVGID_4_)" fill="#FFFFFF" points="49.432,30.432 49.782,30.686 49.909,30.512 			"/>
			<polygon clip-path="url(#SVGID_4_)" fill="#FFFFFF" points="49.432,30.432 49.866,30.432 49.866,30.648 			"/>
			<polygon clip-path="url(#SVGID_4_)" fill="#FFFFFF" points="50.099,30.914 49.965,30.504 49.759,30.57 			"/>
			<polygon clip-path="url(#SVGID_4_)" fill="#FFFFFF" points="50.099,30.914 49.75,30.66 49.876,30.486 			"/>
			<polygon clip-path="url(#SVGID_4_)" fill="#FFFFFF" points="49.59,30.914 49.94,30.66 49.813,30.486 			"/>
			<polygon clip-path="url(#SVGID_4_)" fill="#FFFFFF" points="49.59,30.914 49.725,30.504 49.93,30.57 			"/>
			<polygon clip-path="url(#SVGID_4_)" fill="#FFFFFF" points="47.615,30.6 47.51,30.928 47.675,30.982 			"/>
			<polygon clip-path="url(#SVGID_4_)" fill="#FFFFFF" points="47.615,30.6 47.723,30.928 47.56,30.982 			"/>
			<polygon clip-path="url(#SVGID_4_)" fill="#FFFFFF" points="47.945,30.838 47.6,30.838 47.6,31.012 			"/>
			<polygon clip-path="url(#SVGID_4_)" fill="#FFFFFF" points="47.945,30.838 47.666,31.041 47.564,30.9 			"/>
			<polygon clip-path="url(#SVGID_4_)" fill="#FFFFFF" points="47.287,30.838 47.567,31.041 47.669,30.9 			"/>
			<polygon clip-path="url(#SVGID_4_)" fill="#FFFFFF" points="47.287,30.838 47.633,30.838 47.633,31.012 			"/>
			<polygon clip-path="url(#SVGID_4_)" fill="#FFFFFF" points="47.82,31.227 47.713,30.896 47.547,30.947 			"/>
			<polygon clip-path="url(#SVGID_4_)" fill="#FFFFFF" points="47.82,31.227 47.539,31.021 47.641,30.883 			"/>
			<polygon clip-path="url(#SVGID_4_)" fill="#FFFFFF" points="47.412,31.227 47.693,31.021 47.591,30.883 			"/>
			<polygon clip-path="url(#SVGID_4_)" fill="#FFFFFF" points="47.412,31.227 47.519,30.896 47.686,30.947 			"/>
			<polygon clip-path="url(#SVGID_4_)" fill="#FFFFFF" points="36.971,24.322 36.837,24.734 37.043,24.801 			"/>
			<polygon clip-path="url(#SVGID_4_)" fill="#FFFFFF" points="36.971,24.322 37.104,24.734 36.898,24.801 			"/>
			<polygon clip-path="url(#SVGID_4_)" fill="#FFFFFF" points="37.383,24.621 36.949,24.621 36.949,24.838 			"/>
			<polygon clip-path="url(#SVGID_4_)" fill="#FFFFFF" points="37.383,24.621 37.032,24.877 36.905,24.701 			"/>
			<polygon clip-path="url(#SVGID_4_)" fill="#FFFFFF" points="36.56,24.621 36.909,24.877 37.035,24.701 			"/>
			<polygon clip-path="url(#SVGID_4_)" fill="#FFFFFF" points="36.56,24.621 36.992,24.621 36.992,24.838 			"/>
			<polygon clip-path="url(#SVGID_4_)" fill="#FFFFFF" points="37.225,25.105 37.092,24.695 36.885,24.762 			"/>
			<polygon clip-path="url(#SVGID_4_)" fill="#FFFFFF" points="37.225,25.105 36.876,24.852 37.003,24.676 			"/>
			<polygon clip-path="url(#SVGID_4_)" fill="#FFFFFF" points="36.716,25.105 37.066,24.852 36.938,24.676 			"/>
			<polygon clip-path="url(#SVGID_4_)" fill="#FFFFFF" points="36.716,25.105 36.851,24.695 37.057,24.762 			"/>
			<polygon clip-path="url(#SVGID_4_)" fill="#FFFFFF" points="44.893,23.305 44.785,23.633 44.951,23.688 			"/>
			<polygon clip-path="url(#SVGID_4_)" fill="#FFFFFF" points="44.893,23.305 45,23.633 44.836,23.688 			"/>
			<polygon clip-path="url(#SVGID_4_)" fill="#FFFFFF" points="45.223,23.543 44.876,23.543 44.876,23.717 			"/>
			<polygon clip-path="url(#SVGID_4_)" fill="#FFFFFF" points="45.223,23.543 44.943,23.748 44.842,23.607 			"/>
			<polygon clip-path="url(#SVGID_4_)" fill="#FFFFFF" points="44.564,23.543 44.845,23.748 44.945,23.607 			"/>
			<polygon clip-path="url(#SVGID_4_)" fill="#FFFFFF" points="44.564,23.543 44.91,23.543 44.91,23.717 			"/>
			<polygon clip-path="url(#SVGID_4_)" fill="#FFFFFF" points="45.097,23.932 44.989,23.602 44.824,23.654 			"/>
			<polygon clip-path="url(#SVGID_4_)" fill="#FFFFFF" points="45.097,23.932 44.816,23.727 44.918,23.586 			"/>
			<polygon clip-path="url(#SVGID_4_)" fill="#FFFFFF" points="44.688,23.932 44.971,23.727 44.867,23.586 			"/>
			<polygon clip-path="url(#SVGID_4_)" fill="#FFFFFF" points="44.688,23.932 44.796,23.602 44.961,23.654 			"/>
			<polygon clip-path="url(#SVGID_4_)" fill="#FFFFFF" points="41.591,29.186 41.431,29.682 41.678,29.762 			"/>
			<polygon clip-path="url(#SVGID_4_)" fill="#FFFFFF" points="41.591,29.186 41.753,29.682 41.506,29.762 			"/>
			<polygon clip-path="url(#SVGID_4_)" fill="#FFFFFF" points="42.087,29.545 41.566,29.545 41.566,29.807 			"/>
			<polygon clip-path="url(#SVGID_4_)" fill="#FFFFFF" points="42.087,29.545 41.667,29.852 41.513,29.641 			"/>
			<polygon clip-path="url(#SVGID_4_)" fill="#FFFFFF" points="41.099,29.545 41.519,29.852 41.671,29.641 			"/>
			<polygon clip-path="url(#SVGID_4_)" fill="#FFFFFF" points="41.099,29.545 41.619,29.545 41.619,29.807 			"/>
			<polygon clip-path="url(#SVGID_4_)" fill="#FFFFFF" points="41.897,30.127 41.737,29.633 41.489,29.713 			"/>
			<polygon clip-path="url(#SVGID_4_)" fill="#FFFFFF" points="41.897,30.127 41.478,29.822 41.63,29.611 			"/>
			<polygon clip-path="url(#SVGID_4_)" fill="#FFFFFF" points="41.286,30.127 41.706,29.822 41.555,29.611 			"/>
			<polygon clip-path="url(#SVGID_4_)" fill="#FFFFFF" points="41.286,30.127 41.447,29.633 41.695,29.713 			"/>
			<polygon clip-path="url(#SVGID_4_)" fill="#FFFFFF" points="42.996,26.865 42.861,27.275 43.068,27.344 			"/>
			<polygon clip-path="url(#SVGID_4_)" fill="#FFFFFF" points="42.996,26.865 43.13,27.275 42.922,27.344 			"/>
			<polygon clip-path="url(#SVGID_4_)" fill="#FFFFFF" points="43.407,27.164 42.975,27.164 42.975,27.379 			"/>
			<polygon clip-path="url(#SVGID_4_)" fill="#FFFFFF" points="43.407,27.164 43.056,27.418 42.929,27.242 			"/>
			<polygon clip-path="url(#SVGID_4_)" fill="#FFFFFF" points="42.583,27.164 42.934,27.418 43.062,27.242 			"/>
			<polygon clip-path="url(#SVGID_4_)" fill="#FFFFFF" points="42.583,27.164 43.016,27.164 43.016,27.379 			"/>
			<polygon clip-path="url(#SVGID_4_)" fill="#FFFFFF" points="43.249,27.648 43.116,27.236 42.91,27.303 			"/>
			<polygon clip-path="url(#SVGID_4_)" fill="#FFFFFF" points="43.249,27.648 42.899,27.393 43.025,27.217 			"/>
			<polygon clip-path="url(#SVGID_4_)" fill="#FFFFFF" points="42.739,27.648 43.091,27.393 42.964,27.217 			"/>
			<polygon clip-path="url(#SVGID_4_)" fill="#FFFFFF" points="42.739,27.648 42.875,27.236 43.08,27.303 			"/>
			<polygon clip-path="url(#SVGID_4_)" fill="#FFFFFF" points="41.591,25.775 41.458,26.188 41.664,26.254 			"/>
			<polygon clip-path="url(#SVGID_4_)" fill="#FFFFFF" points="41.591,25.775 41.727,26.188 41.52,26.254 			"/>
			<polygon clip-path="url(#SVGID_4_)" fill="#FFFFFF" points="42.004,26.074 41.57,26.074 41.57,26.291 			"/>
			<polygon clip-path="url(#SVGID_4_)" fill="#FFFFFF" points="42.004,26.074 41.653,26.328 41.526,26.154 			"/>
			<polygon clip-path="url(#SVGID_4_)" fill="#FFFFFF" points="41.181,26.074 41.531,26.328 41.658,26.154 			"/>
			<polygon clip-path="url(#SVGID_4_)" fill="#FFFFFF" points="41.181,26.074 41.613,26.074 41.613,26.291 			"/>
			<polygon clip-path="url(#SVGID_4_)" fill="#FFFFFF" points="41.847,26.559 41.713,26.146 41.508,26.213 			"/>
			<polygon clip-path="url(#SVGID_4_)" fill="#FFFFFF" points="41.847,26.559 41.496,26.305 41.623,26.129 			"/>
			<polygon clip-path="url(#SVGID_4_)" fill="#FFFFFF" points="41.337,26.559 41.688,26.305 41.562,26.129 			"/>
			<polygon clip-path="url(#SVGID_4_)" fill="#FFFFFF" points="41.337,26.559 41.472,26.146 41.678,26.213 			"/>
			<polygon clip-path="url(#SVGID_4_)" fill="#FFFFFF" points="40.371,26.951 40.264,27.281 40.428,27.334 			"/>
			<polygon clip-path="url(#SVGID_4_)" fill="#FFFFFF" points="40.371,26.951 40.478,27.281 40.313,27.334 			"/>
			<polygon clip-path="url(#SVGID_4_)" fill="#FFFFFF" points="40.7,27.189 40.354,27.189 40.354,27.363 			"/>
			<polygon clip-path="url(#SVGID_4_)" fill="#FFFFFF" points="40.7,27.189 40.419,27.395 40.317,27.254 			"/>
			<polygon clip-path="url(#SVGID_4_)" fill="#FFFFFF" points="40.041,27.189 40.321,27.395 40.423,27.254 			"/>
			<polygon clip-path="url(#SVGID_4_)" fill="#FFFFFF" points="40.041,27.189 40.388,27.189 40.388,27.363 			"/>
			<polygon clip-path="url(#SVGID_4_)" fill="#FFFFFF" points="40.574,27.578 40.469,27.248 40.303,27.301 			"/>
			<polygon clip-path="url(#SVGID_4_)" fill="#FFFFFF" points="40.574,27.578 40.294,27.375 40.396,27.234 			"/>
			<polygon clip-path="url(#SVGID_4_)" fill="#FFFFFF" points="40.167,27.578 40.448,27.375 40.347,27.234 			"/>
			<polygon clip-path="url(#SVGID_4_)" fill="#FFFFFF" points="40.167,27.578 40.274,27.248 40.439,27.301 			"/>
			<polygon clip-path="url(#SVGID_4_)" fill="#FFFFFF" points="40.98,27.891 40.904,28.127 41.023,28.164 			"/>
			<polygon clip-path="url(#SVGID_4_)" fill="#FFFFFF" points="40.98,27.891 41.059,28.127 40.94,28.164 			"/>
			<polygon clip-path="url(#SVGID_4_)" fill="#FFFFFF" points="41.217,28.063 40.97,28.063 40.97,28.186 			"/>
			<polygon clip-path="url(#SVGID_4_)" fill="#FFFFFF" points="41.217,28.063 41.016,28.209 40.944,28.109 			"/>
			<polygon clip-path="url(#SVGID_4_)" fill="#FFFFFF" points="40.746,28.063 40.946,28.209 41.02,28.109 			"/>
			<polygon clip-path="url(#SVGID_4_)" fill="#FFFFFF" points="40.746,28.063 40.993,28.063 40.993,28.186 			"/>
			<polygon clip-path="url(#SVGID_4_)" fill="#FFFFFF" points="41.127,28.34 41.049,28.104 40.933,28.143 			"/>
			<polygon clip-path="url(#SVGID_4_)" fill="#FFFFFF" points="41.127,28.34 40.926,28.193 41,28.094 			"/>
			<polygon clip-path="url(#SVGID_4_)" fill="#FFFFFF" points="40.836,28.34 41.037,28.193 40.963,28.094 			"/>
			<polygon clip-path="url(#SVGID_4_)" fill="#FFFFFF" points="40.836,28.34 40.912,28.104 41.029,28.143 			"/>
			<polygon clip-path="url(#SVGID_4_)" fill="#FFFFFF" points="45.224,31.996 45.089,32.41 45.296,32.477 			"/>
			<polygon clip-path="url(#SVGID_4_)" fill="#FFFFFF" points="45.224,31.996 45.357,32.41 45.15,32.477 			"/>
			<polygon clip-path="url(#SVGID_4_)" fill="#FFFFFF" points="45.636,32.295 45.202,32.295 45.202,32.514 			"/>
			<polygon clip-path="url(#SVGID_4_)" fill="#FFFFFF" points="45.636,32.295 45.284,32.551 45.157,32.375 			"/>
			<polygon clip-path="url(#SVGID_4_)" fill="#FFFFFF" points="44.811,32.295 45.162,32.551 45.289,32.375 			"/>
			<polygon clip-path="url(#SVGID_4_)" fill="#FFFFFF" points="44.811,32.295 45.244,32.295 45.244,32.514 			"/>
			<polygon clip-path="url(#SVGID_4_)" fill="#FFFFFF" points="45.479,32.781 45.345,32.369 45.138,32.436 			"/>
			<polygon clip-path="url(#SVGID_4_)" fill="#FFFFFF" points="45.479,32.781 45.127,32.525 45.255,32.352 			"/>
			<polygon clip-path="url(#SVGID_4_)" fill="#FFFFFF" points="44.968,32.781 45.319,32.525 45.191,32.352 			"/>
			<polygon clip-path="url(#SVGID_4_)" fill="#FFFFFF" points="44.968,32.781 45.102,32.369 45.307,32.436 			"/>
			<polygon clip-path="url(#SVGID_4_)" fill="#FFFFFF" points="46.262,31.012 46.155,31.34 46.32,31.395 			"/>
			<polygon clip-path="url(#SVGID_4_)" fill="#FFFFFF" points="46.262,31.012 46.37,31.34 46.205,31.395 			"/>
			<polygon clip-path="url(#SVGID_4_)" fill="#FFFFFF" points="46.593,31.252 46.245,31.252 46.245,31.422 			"/>
			<polygon clip-path="url(#SVGID_4_)" fill="#FFFFFF" points="46.593,31.252 46.313,31.453 46.211,31.314 			"/>
			<polygon clip-path="url(#SVGID_4_)" fill="#FFFFFF" points="45.933,31.252 46.213,31.453 46.315,31.314 			"/>
			<polygon clip-path="url(#SVGID_4_)" fill="#FFFFFF" points="45.933,31.252 46.28,31.252 46.28,31.422 			"/>
			<polygon clip-path="url(#SVGID_4_)" fill="#FFFFFF" points="46.467,31.637 46.359,31.307 46.194,31.361 			"/>
			<polygon clip-path="url(#SVGID_4_)" fill="#FFFFFF" points="46.467,31.637 46.187,31.436 46.288,31.295 			"/>
			<polygon clip-path="url(#SVGID_4_)" fill="#FFFFFF" points="46.061,31.637 46.339,31.436 46.237,31.295 			"/>
			<polygon clip-path="url(#SVGID_4_)" fill="#FFFFFF" points="46.061,31.637 46.166,31.307 46.33,31.361 			"/>
			<polygon clip-path="url(#SVGID_4_)" fill="#FFFFFF" points="44.267,30.715 44.159,31.043 44.323,31.098 			"/>
			<polygon clip-path="url(#SVGID_4_)" fill="#FFFFFF" points="44.267,30.715 44.373,31.043 44.208,31.098 			"/>
			<polygon clip-path="url(#SVGID_4_)" fill="#FFFFFF" points="44.595,30.953 44.249,30.953 44.249,31.127 			"/>
			<polygon clip-path="url(#SVGID_4_)" fill="#FFFFFF" points="44.595,30.953 44.314,31.156 44.213,31.016 			"/>
			<polygon clip-path="url(#SVGID_4_)" fill="#FFFFFF" points="43.937,30.953 44.216,31.156 44.317,31.016 			"/>
			<polygon clip-path="url(#SVGID_4_)" fill="#FFFFFF" points="43.937,30.953 44.282,30.953 44.282,31.127 			"/>
			<polygon clip-path="url(#SVGID_4_)" fill="#FFFFFF" points="44.471,31.342 44.363,31.012 44.197,31.066 			"/>
			<polygon clip-path="url(#SVGID_4_)" fill="#FFFFFF" points="44.471,31.342 44.188,31.137 44.291,30.998 			"/>
			<polygon clip-path="url(#SVGID_4_)" fill="#FFFFFF" points="44.062,31.342 44.343,31.137 44.241,30.998 			"/>
			<polygon clip-path="url(#SVGID_4_)" fill="#FFFFFF" points="44.062,31.342 44.169,31.012 44.335,31.066 			"/>
			<polygon clip-path="url(#SVGID_4_)" fill="#FFFFFF" points="36.723,30.178 36.563,30.67 36.811,30.754 			"/>
			<polygon clip-path="url(#SVGID_4_)" fill="#FFFFFF" points="36.723,30.178 36.884,30.67 36.637,30.754 			"/>
			<polygon clip-path="url(#SVGID_4_)" fill="#FFFFFF" points="37.219,30.537 36.698,30.537 36.698,30.797 			"/>
			<polygon clip-path="url(#SVGID_4_)" fill="#FFFFFF" points="37.219,30.537 36.797,30.842 36.646,30.633 			"/>
			<polygon clip-path="url(#SVGID_4_)" fill="#FFFFFF" points="36.229,30.537 36.65,30.842 36.802,30.633 			"/>
			<polygon clip-path="url(#SVGID_4_)" fill="#FFFFFF" points="36.229,30.537 36.748,30.537 36.748,30.797 			"/>
			<polygon clip-path="url(#SVGID_4_)" fill="#FFFFFF" points="37.029,31.117 36.869,30.623 36.621,30.705 			"/>
			<polygon clip-path="url(#SVGID_4_)" fill="#FFFFFF" points="37.029,31.117 36.607,30.813 36.761,30.602 			"/>
			<polygon clip-path="url(#SVGID_4_)" fill="#FFFFFF" points="36.417,31.117 36.838,30.813 36.686,30.602 			"/>
			<polygon clip-path="url(#SVGID_4_)" fill="#FFFFFF" points="36.417,31.117 36.578,30.623 36.826,30.705 			"/>
			<polygon clip-path="url(#SVGID_4_)" fill="#FFFFFF" points="41.591,33.576 41.537,33.742 41.621,33.77 			"/>
			<polygon clip-path="url(#SVGID_4_)" fill="#FFFFFF" points="41.591,33.576 41.646,33.742 41.563,33.77 			"/>
			<polygon clip-path="url(#SVGID_4_)" fill="#FFFFFF" points="41.757,33.697 41.583,33.697 41.583,33.783 			"/>
			<polygon clip-path="url(#SVGID_4_)" fill="#FFFFFF" points="41.757,33.697 41.616,33.799 41.566,33.729 			"/>
			<polygon clip-path="url(#SVGID_4_)" fill="#FFFFFF" points="41.427,33.697 41.568,33.799 41.619,33.729 			"/>
			<polygon clip-path="url(#SVGID_4_)" fill="#FFFFFF" points="41.427,33.697 41.602,33.697 41.602,33.783 			"/>
			<polygon clip-path="url(#SVGID_4_)" fill="#FFFFFF" points="41.692,33.891 41.641,33.727 41.559,33.754 			"/>
			<polygon clip-path="url(#SVGID_4_)" fill="#FFFFFF" points="41.692,33.891 41.555,33.789 41.604,33.719 			"/>
			<polygon clip-path="url(#SVGID_4_)" fill="#FFFFFF" points="41.491,33.891 41.63,33.789 41.58,33.719 			"/>
			<polygon clip-path="url(#SVGID_4_)" fill="#FFFFFF" points="41.491,33.891 41.545,33.727 41.627,33.754 			"/>
		</g>
	</g>
</g>
</svg>
