<?xml version="1.0" encoding="utf-8"?>
<!-- Generator: Adobe Illustrator 16.0.3, SVG Export Plug-In . SVG Version: 6.00 Build 0)  -->
<!DOCTYPE svg PUBLIC "-//W3C//DTD SVG 1.1//EN" "http://www.w3.org/Graphics/SVG/1.1/DTD/svg11.dtd">
<svg version="1.1" id="Camada_1" xmlns="http://www.w3.org/2000/svg" xmlns:xlink="http://www.w3.org/1999/xlink" x="0px" y="0px"
	 width="371.587px" height="360.886px" viewBox="0 0 371.587 360.886" enable-background="new 0 0 371.587 360.886"
	 xml:space="preserve">
<g>
	<g>
		<line fill="none" stroke="#BFF090" stroke-width="2" stroke-miterlimit="10" x1="4.469" y1="349.011" x2="32.359" y2="349.011"/>
		<circle fill="#BFF090" stroke="#BFF090" stroke-width="2" stroke-miterlimit="10" cx="18.414" cy="349.011" r="3.719"/>
	</g>
	<g>
		<path fill="#FFFFFF" d="M41.086,350.609h-4.431l-0.995,2.767h-1.438l4.039-10.575h1.22l4.046,10.575h-1.431L41.086,350.609z
			 M37.077,349.469h3.595l-1.801-4.946L37.077,349.469z"/>
		<path fill="#FFFFFF" d="M46.01,345.518l0.044,0.988c0.601-0.755,1.385-1.133,2.354-1.133c1.66,0,2.498,0.937,2.513,2.811v5.193
			h-1.344v-5.2c-0.005-0.567-0.134-0.985-0.389-1.257c-0.254-0.271-0.65-0.407-1.188-0.407c-0.436,0-0.818,0.116-1.147,0.349
			s-0.586,0.538-0.77,0.915v5.6h-1.344v-7.859H46.01z"/>
		<path fill="#FFFFFF" d="M54.77,343.615v1.903h1.467v1.039H54.77v4.88c0,0.315,0.065,0.551,0.196,0.709
			c0.131,0.157,0.354,0.236,0.668,0.236c0.155,0,0.368-0.029,0.639-0.087v1.083c-0.354,0.096-0.697,0.144-1.031,0.144
			c-0.6,0-1.053-0.182-1.358-0.544c-0.305-0.363-0.458-0.879-0.458-1.547v-4.874h-1.431v-1.039h1.431v-1.903H54.77z"/>
		<path fill="#FFFFFF" d="M62.657,353.376c-0.078-0.155-0.141-0.431-0.189-0.828c-0.624,0.649-1.37,0.973-2.236,0.973
			c-0.775,0-1.411-0.219-1.907-0.657c-0.496-0.438-0.744-0.994-0.744-1.667c0-0.818,0.311-1.454,0.934-1.906
			c0.622-0.453,1.497-0.679,2.625-0.679h1.308v-0.617c0-0.47-0.141-0.844-0.421-1.123c-0.281-0.278-0.695-0.417-1.242-0.417
			c-0.479,0-0.881,0.121-1.206,0.363c-0.324,0.242-0.486,0.535-0.486,0.879H57.74c0-0.392,0.139-0.771,0.417-1.137
			c0.279-0.366,0.656-0.655,1.133-0.868c0.477-0.213,1.001-0.319,1.573-0.319c0.905,0,1.614,0.226,2.128,0.679
			c0.513,0.453,0.779,1.076,0.799,1.87v3.617c0,0.721,0.092,1.295,0.276,1.721v0.116H62.657z M60.427,352.352
			c0.421,0,0.821-0.109,1.199-0.327c0.377-0.218,0.651-0.501,0.82-0.85v-1.612h-1.053c-1.646,0-2.47,0.481-2.47,1.445
			c0,0.421,0.141,0.75,0.421,0.988C59.626,352.233,59.986,352.352,60.427,352.352z M61.669,342.235h1.627l-1.946,2.135l-1.082-0.003
			L61.669,342.235z"/>
		<path fill="#FFFFFF" d="M69.695,346.724c-0.204-0.034-0.423-0.051-0.661-0.051c-0.882,0-1.479,0.375-1.794,1.126v5.578h-1.344
			v-7.859h1.307l0.022,0.908c0.44-0.702,1.065-1.053,1.874-1.053c0.261,0,0.46,0.034,0.595,0.102V346.724z"/>
		<path fill="#FFFFFF" d="M73.944,352.425c0.479,0,0.898-0.145,1.256-0.436s0.557-0.654,0.596-1.089h1.271
			c-0.024,0.45-0.179,0.878-0.465,1.285s-0.667,0.731-1.144,0.974c-0.477,0.242-0.981,0.363-1.514,0.363
			c-1.07,0-1.921-0.357-2.553-1.071c-0.632-0.714-0.948-1.691-0.948-2.931v-0.225c0-0.765,0.14-1.445,0.421-2.041
			c0.281-0.595,0.684-1.058,1.209-1.387c0.525-0.329,1.146-0.494,1.863-0.494c0.881,0,1.613,0.264,2.197,0.792
			c0.583,0.528,0.895,1.213,0.933,2.056h-1.271c-0.039-0.508-0.231-0.926-0.577-1.253c-0.347-0.327-0.774-0.49-1.282-0.49
			c-0.683,0-1.212,0.246-1.587,0.737c-0.375,0.491-0.563,1.202-0.563,2.131v0.254c0,0.905,0.187,1.603,0.559,2.092
			C72.719,352.18,73.251,352.425,73.944,352.425z"/>
		<path fill="#FFFFFF" d="M80.4,343.615v1.903h1.467v1.039H80.4v4.88c0,0.315,0.065,0.551,0.196,0.709
			c0.131,0.157,0.354,0.236,0.668,0.236c0.155,0,0.368-0.029,0.64-0.087v1.083c-0.354,0.096-0.697,0.144-1.032,0.144
			c-0.6,0-1.053-0.182-1.358-0.544c-0.305-0.363-0.458-0.879-0.458-1.547v-4.874h-1.431v-1.039h1.431v-1.903H80.4z"/>
		<path fill="#FFFFFF" d="M83.444,343.433c0-0.218,0.066-0.402,0.2-0.552c0.133-0.15,0.33-0.225,0.592-0.225s0.46,0.075,0.596,0.225
			c0.136,0.15,0.203,0.334,0.203,0.552c0,0.218-0.067,0.399-0.203,0.545c-0.136,0.145-0.334,0.218-0.596,0.218
			s-0.459-0.073-0.592-0.218C83.51,343.833,83.444,343.651,83.444,343.433z M84.896,353.376h-1.344v-7.859h1.344V353.376z"/>
		<path fill="#FFFFFF" d="M86.72,349.382c0-1.206,0.285-2.175,0.856-2.909c0.571-0.733,1.32-1.1,2.245-1.1
			c0.92,0,1.649,0.314,2.186,0.944v-4.097h1.344v11.156h-1.235l-0.065-0.843c-0.538,0.659-1.286,0.988-2.245,0.988
			c-0.91,0-1.652-0.373-2.226-1.118c-0.574-0.746-0.86-1.719-0.86-2.92V349.382z M88.063,349.534c0,0.891,0.184,1.588,0.552,2.092
			s0.876,0.755,1.525,0.755c0.852,0,1.474-0.382,1.866-1.147v-3.61c-0.402-0.741-1.02-1.111-1.852-1.111
			c-0.659,0-1.171,0.254-1.54,0.763S88.063,348.537,88.063,349.534z"/>
		<path fill="#FFFFFF" d="M100.287,353.376c-0.078-0.155-0.141-0.431-0.189-0.828c-0.624,0.649-1.37,0.973-2.237,0.973
			c-0.775,0-1.41-0.219-1.907-0.657c-0.496-0.438-0.744-0.994-0.744-1.667c0-0.818,0.311-1.454,0.934-1.906
			c0.622-0.453,1.497-0.679,2.625-0.679h1.308v-0.617c0-0.47-0.141-0.844-0.421-1.123c-0.281-0.278-0.695-0.417-1.242-0.417
			c-0.479,0-0.881,0.121-1.206,0.363c-0.324,0.242-0.486,0.535-0.486,0.879H95.37c0-0.392,0.139-0.771,0.417-1.137
			s0.656-0.655,1.133-0.868c0.477-0.213,1.001-0.319,1.572-0.319c0.906,0,1.615,0.226,2.128,0.679
			c0.513,0.453,0.779,1.076,0.799,1.87v3.617c0,0.721,0.092,1.295,0.276,1.721v0.116H100.287z M98.057,352.352
			c0.422,0,0.821-0.109,1.199-0.327s0.651-0.501,0.821-0.85v-1.612h-1.053c-1.646,0-2.469,0.481-2.469,1.445
			c0,0.421,0.141,0.75,0.421,0.988C97.256,352.233,97.616,352.352,98.057,352.352z"/>
	</g>
</g>
<g>
	<g>
		
			<line fill="none" stroke="#42E695" stroke-width="2" stroke-miterlimit="10" x1="123.808" y1="349.347" x2="151.698" y2="349.347"/>
		<circle fill="#42E695" stroke="#42E695" stroke-width="2" stroke-miterlimit="10" cx="137.753" cy="349.347" r="3.719"/>
	</g>
	<g>
		<path fill="#FFFFFF" d="M154.585,353.712v-10.575h3.458c1.147,0,2.011,0.237,2.589,0.712c0.579,0.474,0.868,1.176,0.868,2.106
			c0,0.494-0.14,0.931-0.421,1.311c-0.281,0.38-0.663,0.674-1.147,0.882c0.571,0.16,1.023,0.464,1.354,0.912
			c0.332,0.448,0.498,0.982,0.498,1.602c0,0.949-0.307,1.695-0.922,2.237c-0.615,0.542-1.484,0.813-2.607,0.813H154.585z
			 M155.979,347.647h2.106c0.61,0,1.098-0.152,1.463-0.458c0.366-0.306,0.548-0.721,0.548-1.245c0-0.582-0.169-1.006-0.508-1.27
			s-0.854-0.397-1.547-0.397h-2.063V347.647z M155.979,348.766v3.806h2.303c0.648,0,1.161-0.168,1.536-0.505
			c0.375-0.336,0.563-0.8,0.563-1.391c0-1.273-0.692-1.91-2.077-1.91H155.979z"/>
		<path fill="#FFFFFF" d="M167.434,347.059c-0.204-0.034-0.424-0.051-0.661-0.051c-0.881,0-1.479,0.375-1.794,1.126v5.578h-1.344
			v-7.859h1.308l0.021,0.908c0.441-0.702,1.065-1.053,1.874-1.053c0.262,0,0.46,0.034,0.596,0.102V347.059z"/>
		<path fill="#FFFFFF" d="M173.229,353.712c-0.078-0.155-0.141-0.431-0.189-0.828c-0.625,0.649-1.37,0.973-2.237,0.973
			c-0.775,0-1.41-0.219-1.907-0.657c-0.496-0.438-0.745-0.994-0.745-1.667c0-0.818,0.312-1.454,0.934-1.907
			c0.622-0.453,1.497-0.679,2.625-0.679h1.307v-0.618c0-0.47-0.14-0.844-0.421-1.122c-0.281-0.278-0.695-0.417-1.242-0.417
			c-0.479,0-0.881,0.121-1.206,0.363c-0.325,0.242-0.487,0.535-0.487,0.879h-1.351c0-0.393,0.139-0.771,0.417-1.137
			c0.278-0.366,0.656-0.655,1.133-0.868c0.477-0.213,1.001-0.319,1.572-0.319c0.905,0,1.615,0.226,2.128,0.679
			c0.513,0.453,0.78,1.076,0.799,1.871v3.617c0,0.722,0.092,1.295,0.276,1.722v0.116H173.229z M171,352.688
			c0.421,0,0.821-0.109,1.199-0.327c0.377-0.218,0.651-0.501,0.82-0.85v-1.612h-1.053c-1.646,0-2.47,0.482-2.47,1.445
			c0,0.421,0.141,0.75,0.421,0.988S170.559,352.688,171,352.688z"/>
		<path fill="#FFFFFF" d="M181.044,351.627c0-0.363-0.137-0.645-0.411-0.846c-0.273-0.201-0.75-0.374-1.431-0.52
			c-0.68-0.145-1.22-0.319-1.62-0.523c-0.399-0.203-0.695-0.445-0.886-0.726c-0.191-0.281-0.287-0.615-0.287-1.002
			c0-0.644,0.272-1.189,0.817-1.634c0.545-0.445,1.241-0.668,2.088-0.668c0.891,0,1.614,0.23,2.168,0.69s0.832,1.048,0.832,1.765
			h-1.351c0-0.368-0.156-0.685-0.469-0.951c-0.313-0.267-0.706-0.399-1.18-0.399c-0.489,0-0.872,0.106-1.147,0.319
			s-0.414,0.492-0.414,0.835c0,0.324,0.128,0.569,0.385,0.733c0.257,0.165,0.72,0.322,1.391,0.472c0.67,0.15,1.214,0.329,1.63,0.538
			c0.417,0.208,0.725,0.458,0.926,0.751c0.201,0.293,0.301,0.65,0.301,1.071c0,0.702-0.281,1.265-0.842,1.688
			c-0.562,0.424-1.291,0.636-2.187,0.636c-0.629,0-1.187-0.111-1.67-0.334c-0.484-0.223-0.863-0.534-1.137-0.934
			s-0.411-0.832-0.411-1.296h1.344c0.024,0.45,0.205,0.808,0.541,1.071c0.337,0.264,0.781,0.396,1.333,0.396
			c0.508,0,0.917-0.103,1.224-0.309C180.891,352.246,181.044,351.971,181.044,351.627z"/>
		<path fill="#FFFFFF" d="M184.146,343.769c0-0.218,0.067-0.402,0.2-0.552c0.133-0.15,0.33-0.226,0.592-0.226
			c0.261,0,0.46,0.075,0.596,0.226c0.135,0.15,0.203,0.334,0.203,0.552s-0.068,0.399-0.203,0.545
			c-0.136,0.145-0.334,0.218-0.596,0.218c-0.262,0-0.459-0.073-0.592-0.218C184.212,344.168,184.146,343.986,184.146,343.769z
			 M185.599,353.712h-1.344v-7.859h1.344V353.712z"/>
		<path fill="#FFFFFF" d="M189.208,353.712h-1.344v-11.156h1.344V353.712z"/>
	</g>
</g>
<g>
	<g>
		
			<line fill="none" stroke="#3BB2B8" stroke-width="2" stroke-miterlimit="10" x1="212.588" y1="349.024" x2="240.479" y2="349.024"/>
		<circle fill="#3BB2B8" stroke="#3BB2B8" stroke-width="2" stroke-miterlimit="10" cx="226.533" cy="349.024" r="3.719"/>
	</g>
	<g>
		<path fill="#FFFFFF" d="M244.862,353.389h-1.395v-10.575h1.395V353.389z"/>
		<path fill="#FFFFFF" d="M249.024,343.627v1.903h1.467v1.039h-1.467v4.88c0,0.315,0.065,0.551,0.196,0.709
			c0.13,0.157,0.354,0.236,0.668,0.236c0.155,0,0.368-0.029,0.639-0.087v1.083c-0.354,0.096-0.697,0.144-1.031,0.144
			c-0.601,0-1.053-0.182-1.358-0.544c-0.305-0.363-0.457-0.879-0.457-1.547v-4.874h-1.431v-1.039h1.431v-1.903H249.024z"/>
		<path fill="#FFFFFF" d="M256.912,353.389c-0.078-0.155-0.14-0.431-0.189-0.828c-0.625,0.649-1.37,0.973-2.237,0.973
			c-0.775,0-1.41-0.219-1.907-0.657c-0.496-0.438-0.744-0.994-0.744-1.667c0-0.818,0.311-1.454,0.933-1.906
			c0.623-0.453,1.498-0.679,2.625-0.679h1.308v-0.617c0-0.47-0.141-0.844-0.421-1.122c-0.281-0.279-0.695-0.418-1.242-0.418
			c-0.479,0-0.881,0.121-1.206,0.363c-0.324,0.242-0.486,0.535-0.486,0.879h-1.351c0-0.392,0.139-0.771,0.417-1.137
			s0.656-0.655,1.133-0.868c0.477-0.213,1.001-0.319,1.572-0.319c0.906,0,1.615,0.226,2.128,0.679
			c0.513,0.453,0.78,1.076,0.799,1.87v3.617c0,0.721,0.092,1.295,0.276,1.721v0.116H256.912z M254.682,352.365
			c0.421,0,0.821-0.109,1.199-0.327s0.651-0.501,0.821-0.85v-1.612h-1.053c-1.646,0-2.469,0.481-2.469,1.445
			c0,0.421,0.14,0.75,0.421,0.988C253.881,352.247,254.241,352.365,254.682,352.365z M255.924,342.248h1.627l-1.946,2.135
			l-1.083-0.003L255.924,342.248z"/>
		<path fill="#FFFFFF" d="M261.611,353.389h-1.344v-11.156h1.344V353.389z"/>
		<path fill="#FFFFFF" d="M263.768,343.446c0-0.218,0.066-0.402,0.2-0.552c0.133-0.15,0.331-0.225,0.592-0.225
			c0.262,0,0.46,0.075,0.596,0.225c0.136,0.15,0.203,0.334,0.203,0.552c0,0.218-0.067,0.399-0.203,0.545
			c-0.136,0.145-0.334,0.218-0.596,0.218c-0.261,0-0.459-0.073-0.592-0.218C263.834,343.845,263.768,343.664,263.768,343.446z
			 M265.221,353.389h-1.344v-7.859h1.344V353.389z"/>
		<path fill="#FFFFFF" d="M272.222,353.389c-0.078-0.155-0.14-0.431-0.189-0.828c-0.625,0.649-1.37,0.973-2.237,0.973
			c-0.775,0-1.41-0.219-1.907-0.657c-0.496-0.438-0.744-0.994-0.744-1.667c0-0.818,0.311-1.454,0.933-1.906s1.498-0.679,2.625-0.679
			h1.308v-0.617c0-0.47-0.141-0.844-0.421-1.122c-0.281-0.279-0.695-0.418-1.242-0.418c-0.479,0-0.881,0.121-1.206,0.363
			s-0.486,0.535-0.486,0.879h-1.351c0-0.392,0.139-0.771,0.417-1.137s0.656-0.655,1.133-0.868c0.477-0.213,1.001-0.319,1.573-0.319
			c0.905,0,1.615,0.226,2.128,0.679c0.513,0.453,0.78,1.076,0.799,1.87v3.617c0,0.721,0.092,1.295,0.276,1.721v0.116H272.222z
			 M269.992,352.365c0.421,0,0.821-0.109,1.199-0.327c0.377-0.218,0.651-0.501,0.821-0.85v-1.612h-1.053
			c-1.646,0-2.469,0.481-2.469,1.445c0,0.421,0.14,0.75,0.421,0.988S269.552,352.365,269.992,352.365z"/>
	</g>
</g>
<g>
	<g>
		<g>
			
				<line fill="none" stroke="#E7D766" stroke-width="2" stroke-miterlimit="10" x1="300.721" y1="348.912" x2="328.611" y2="348.912"/>
			<g>
				<circle fill="#E7D766" cx="314.666" cy="348.912" r="3.719"/>
				<circle fill="none" stroke="#E7D766" stroke-width="2" stroke-miterlimit="10" cx="314.666" cy="348.912" r="3.719"/>
			</g>
		</g>
	</g>
	<g>
		<path fill="#FFFFFF" d="M339.277,349.922c-0.13,1.118-0.543,1.981-1.238,2.589c-0.695,0.608-1.619,0.912-2.771,0.912
			c-1.249,0-2.25-0.448-3.003-1.344c-0.753-0.896-1.13-2.094-1.13-3.595v-1.017c0-0.983,0.176-1.847,0.527-2.593
			s0.849-1.318,1.493-1.718s1.39-0.599,2.237-0.599c1.124,0,2.024,0.313,2.702,0.94c0.678,0.627,1.073,1.495,1.184,2.604h-1.402
			c-0.121-0.845-0.384-1.457-0.788-1.836s-0.969-0.568-1.696-0.568c-0.891,0-1.589,0.329-2.095,0.989
			c-0.506,0.659-0.759,1.597-0.759,2.813v1.025c0,1.148,0.239,2.063,0.719,2.741c0.479,0.679,1.15,1.018,2.012,1.018
			c0.775,0,1.369-0.176,1.783-0.527c0.414-0.351,0.689-0.962,0.824-1.833H339.277z"/>
		<path fill="#FFFFFF" d="M342.313,346.371c0.595-0.731,1.37-1.097,2.324-1.097c1.661,0,2.499,0.937,2.513,2.811v5.193h-1.343
			v-5.201c-0.005-0.566-0.135-0.985-0.389-1.256c-0.254-0.271-0.65-0.407-1.188-0.407c-0.436,0-0.818,0.116-1.147,0.349
			c-0.33,0.232-0.586,0.538-0.77,0.915v5.6h-1.344v-11.156h1.344V346.371z"/>
		<path fill="#FFFFFF" d="M349.169,343.334c0-0.218,0.067-0.402,0.2-0.552c0.133-0.15,0.33-0.225,0.592-0.225
			c0.261,0,0.46,0.075,0.596,0.225c0.135,0.15,0.203,0.334,0.203,0.552c0,0.218-0.068,0.399-0.203,0.545
			c-0.136,0.145-0.334,0.218-0.596,0.218c-0.262,0-0.459-0.073-0.592-0.218C349.236,343.734,349.169,343.553,349.169,343.334z
			 M350.622,353.278h-1.344v-7.859h1.344V353.278z"/>
		<path fill="#FFFFFF" d="M354.231,353.278h-1.344v-11.156h1.344V353.278z"/>
		<path fill="#FFFFFF" d="M359.643,353.423c-1.065,0-1.932-0.35-2.6-1.049c-0.668-0.7-1.002-1.635-1.002-2.807v-0.247
			c0-0.78,0.149-1.476,0.447-2.088c0.297-0.613,0.714-1.092,1.249-1.438c0.535-0.346,1.115-0.519,1.74-0.519
			c1.021,0,1.815,0.336,2.382,1.009c0.567,0.673,0.85,1.637,0.85,2.891v0.559h-5.324c0.02,0.775,0.246,1.4,0.679,1.877
			c0.434,0.477,0.984,0.715,1.652,0.715c0.475,0,0.877-0.097,1.206-0.291c0.329-0.193,0.617-0.45,0.864-0.77l0.821,0.639
			C361.947,352.917,360.959,353.423,359.643,353.423z M359.476,346.378c-0.542,0-0.998,0.197-1.366,0.592
			c-0.368,0.395-0.595,0.948-0.683,1.66h3.937v-0.102c-0.039-0.683-0.223-1.212-0.552-1.587
			C360.482,346.565,360.037,346.378,359.476,346.378z"/>
	</g>
</g>
<g>
	<path fill="#FFFFFF" d="M355.532,11.412l0.03,0.726c0.48-0.564,1.128-0.847,1.943-0.847c0.917,0,1.54,0.351,1.87,1.053
		c0.218-0.315,0.501-0.569,0.851-0.763c0.349-0.194,0.761-0.291,1.237-0.291c1.437,0,2.167,0.761,2.191,2.282v4.388h-1.12V13.64
		c0-0.468-0.106-0.818-0.321-1.05s-0.573-0.348-1.078-0.348c-0.415,0-0.76,0.124-1.035,0.372c-0.274,0.249-0.433,0.583-0.478,1.002
		v4.346h-1.125V13.67c0-0.952-0.466-1.429-1.398-1.429c-0.734,0-1.237,0.313-1.507,0.938v4.782h-1.12v-6.549H355.532z"/>
	<path fill="#FFFFFF" d="M365.35,9.675c0-0.181,0.056-0.334,0.167-0.46c0.11-0.125,0.274-0.188,0.493-0.188
		c0.218,0,0.383,0.063,0.496,0.188c0.113,0.125,0.169,0.279,0.169,0.46c0,0.182-0.057,0.333-0.169,0.454s-0.278,0.182-0.496,0.182
		c-0.218,0-0.383-0.061-0.493-0.182C365.405,10.008,365.35,9.856,365.35,9.675z M366.56,17.961h-1.12v-6.549h1.12V17.961z"/>
</g>
<g>
	<defs>
		<rect id="SVGID_19_" x="13" y="5.886" width="342" height="328"/>
	</defs>
	<clipPath id="SVGID_2_">
		<use xlink:href="#SVGID_19_"  overflow="visible"/>
	</clipPath>
	<g clip-path="url(#SVGID_2_)">
		<g>
			<g>
				<line fill="none" stroke="#C8C8C8" stroke-miterlimit="10" x1="61.5" y1="33.886" x2="61.5" y2="35.886"/>
				
					<line fill="none" stroke="#C8C8C8" stroke-miterlimit="10" stroke-dasharray="4,4" x1="61.5" y1="39.886" x2="61.5" y2="293.886"/>
				<line fill="none" stroke="#C8C8C8" stroke-miterlimit="10" x1="61.5" y1="295.886" x2="61.5" y2="297.886"/>
			</g>
		</g>
		<g>
			<g>
				<line fill="none" stroke="#C8C8C8" stroke-miterlimit="10" x1="145.5" y1="4.886" x2="145.5" y2="6.886"/>
				
					<line fill="none" stroke="#C8C8C8" stroke-miterlimit="10" stroke-dasharray="4,4" x1="145.5" y1="10.886" x2="145.5" y2="295.886"/>
				<line fill="none" stroke="#C8C8C8" stroke-miterlimit="10" x1="145.5" y1="297.886" x2="145.5" y2="299.886"/>
			</g>
		</g>
		<g>
			<g>
				<line fill="none" stroke="#C8C8C8" stroke-miterlimit="10" x1="233.5" y1="-0.114" x2="233.5" y2="1.886"/>
				
					<line fill="none" stroke="#C8C8C8" stroke-miterlimit="10" stroke-dasharray="4,4" x1="233.5" y1="5.886" x2="233.5" y2="296.886"/>
				<line fill="none" stroke="#C8C8C8" stroke-miterlimit="10" x1="233.5" y1="298.886" x2="233.5" y2="300.886"/>
			</g>
		</g>
		<g>
			<g>
				
					<line fill="none" stroke="#C8C8C8" stroke-miterlimit="10" stroke-dasharray="4,4" x1="320.5" y1="-24.114" x2="320.5" y2="296.886"/>
				<line fill="none" stroke="#C8C8C8" stroke-miterlimit="10" x1="320.5" y1="298.886" x2="320.5" y2="300.886"/>
			</g>
		</g>
		<polyline fill="none" stroke="#42E695" stroke-width="2" stroke-miterlimit="10" points="-32.285,100.803 63.161,64.856 
			143.732,48.742 232.98,35.106 318.51,15.273 		"/>
		<g>
			<g>
			</g>
		</g>
		<g>
			<g>
				<polyline fill="none" stroke="#969696" stroke-width="2" stroke-miterlimit="10" points="-31.045,230.131 61.922,192.944 
					146.211,164.435 232.98,173.111 317.271,147.081 				"/>
				<g>
					<path fill="#FFFFFF" d="M62.334,197.249c-2.602,0-4.719-2.117-4.719-4.719s2.117-4.719,4.719-4.719
						c2.602,0,4.718,2.117,4.718,4.719S64.936,197.249,62.334,197.249z"/>
					<path fill="#969696" d="M62.334,188.812c2.053,0,3.718,1.665,3.718,3.719c0,2.054-1.665,3.719-3.718,3.719
						s-3.719-1.665-3.719-3.719C58.616,190.477,60.281,188.812,62.334,188.812 M62.334,186.812c-3.153,0-5.719,2.565-5.719,5.719
						s2.565,5.719,5.719,5.719c3.153,0,5.718-2.565,5.718-5.719S65.487,186.812,62.334,186.812L62.334,186.812z"/>
				</g>
				<g>
					<path fill="#FFFFFF" d="M145.075,169.359c-2.602,0-4.718-2.117-4.718-4.719c0-2.602,2.117-4.718,4.718-4.718
						c2.602,0,4.719,2.117,4.719,4.718C149.793,167.242,147.677,169.359,145.075,169.359z"/>
					<path fill="#969696" d="M145.075,160.922c2.053,0,3.719,1.665,3.719,3.718c0,2.054-1.666,3.719-3.719,3.719
						c-2.053,0-3.718-1.665-3.718-3.719C141.356,162.587,143.022,160.922,145.075,160.922 M145.075,158.922
						c-3.153,0-5.718,2.565-5.718,5.718c0,3.153,2.565,5.719,5.718,5.719c3.153,0,5.719-2.565,5.719-5.719
						C150.793,161.487,148.228,158.922,145.075,158.922L145.075,158.922z"/>
				</g>
				<g>
					<path fill="#FFFFFF" d="M233.394,177.726c-2.602,0-4.719-2.117-4.719-4.719s2.117-4.719,4.719-4.719s4.719,2.117,4.719,4.719
						S235.996,177.726,233.394,177.726z"/>
					<path fill="#969696" d="M233.394,169.289c2.053,0,3.719,1.665,3.719,3.719c0,2.054-1.666,3.719-3.719,3.719
						c-2.053,0-3.719-1.665-3.719-3.719C229.675,170.954,231.34,169.289,233.394,169.289 M233.394,167.289
						c-3.153,0-5.719,2.565-5.719,5.719s2.565,5.719,5.719,5.719s5.719-2.565,5.719-5.719S236.547,167.289,233.394,167.289
						L233.394,167.289z"/>
				</g>
				<g>
					<path fill="#FFFFFF" d="M319.75,151.799c-2.602,0-4.718-2.117-4.718-4.719c0-2.602,2.117-4.718,4.718-4.718
						c2.602,0,4.719,2.117,4.719,4.718C324.468,149.683,322.352,151.799,319.75,151.799z"/>
					<path fill="#969696" d="M319.75,143.362c2.053,0,3.719,1.664,3.719,3.718c0,2.053-1.666,3.719-3.719,3.719
						c-2.053,0-3.718-1.666-3.718-3.719C316.031,145.026,317.697,143.362,319.75,143.362 M319.75,141.362
						c-3.153,0-5.718,2.565-5.718,5.718c0,3.153,2.565,5.719,5.718,5.719c3.153,0,5.719-2.565,5.719-5.719
						C325.468,143.928,322.903,141.362,319.75,141.362L319.75,141.362z"/>
				</g>
			</g>
		</g>
		<g>
			<g>
				<polyline fill="none" stroke="#3ECCA7" stroke-width="2" stroke-miterlimit="10" points="-28.566,180.135 60.682,146.667 
					151.17,116.917 232.98,111.959 320.989,83.449 				"/>
				<g>
					<g>
						<path fill="#FFFFFF" d="M321.299,87.858c-2.602,0-4.718-2.117-4.718-4.718c0-2.602,2.117-4.719,4.718-4.719
							c2.602,0,4.719,2.117,4.719,4.719C326.018,85.741,323.901,87.858,321.299,87.858z"/>
						<path fill="#3ECCA7" d="M321.299,79.421c2.053,0,3.719,1.665,3.719,3.719c0,2.054-1.666,3.718-3.719,3.718
							c-2.053,0-3.718-1.664-3.718-3.718C317.581,81.086,319.246,79.421,321.299,79.421 M321.299,77.421
							c-3.153,0-5.718,2.565-5.718,5.719c0,3.153,2.565,5.718,5.718,5.718s5.719-2.565,5.719-5.718
							C327.018,79.986,324.452,77.421,321.299,77.421L321.299,77.421z"/>
					</g>
					<g>
						<path fill="#3ECCA7" d="M232.98,116.678c-2.602,0-4.719-2.117-4.719-4.719s2.117-4.719,4.719-4.719s4.719,2.117,4.719,4.719
							S235.583,116.678,232.98,116.678z"/>
						<path fill="#3ECCA7" d="M232.98,108.24c2.053,0,3.719,1.665,3.719,3.719c0,2.054-1.666,3.719-3.719,3.719
							c-2.053,0-3.719-1.665-3.719-3.719C229.262,109.905,230.928,108.24,232.98,108.24 M232.98,106.24
							c-3.153,0-5.719,2.565-5.719,5.719s2.565,5.719,5.719,5.719s5.719-2.565,5.719-5.719S236.134,106.24,232.98,106.24
							L232.98,106.24z"/>
					</g>
					<g>
						<path fill="#FFFFFF" d="M146.521,120.707c-2.602,0-4.719-2.117-4.719-4.719s2.117-4.719,4.719-4.719s4.719,2.117,4.719,4.719
							S149.124,120.707,146.521,120.707z"/>
						<path fill="#3ECCA7" d="M146.521,112.269c2.053,0,3.719,1.665,3.719,3.719c0,2.054-1.666,3.719-3.719,3.719
							c-2.053,0-3.719-1.665-3.719-3.719C142.803,113.934,144.468,112.269,146.521,112.269 M146.521,110.269
							c-3.153,0-5.719,2.565-5.719,5.719s2.565,5.719,5.719,5.719s5.719-2.565,5.719-5.719S149.675,110.269,146.521,110.269
							L146.521,110.269z"/>
					</g>
				</g>
			</g>
			<g>
				<path fill="#FFFFFF" d="M61.302,150.766c-2.602,0-4.719-2.117-4.719-4.719s2.117-4.719,4.719-4.719s4.719,2.117,4.719,4.719
					S63.904,150.766,61.302,150.766z"/>
				<path fill="#3ECCA7" d="M61.302,142.328c2.053,0,3.719,1.665,3.719,3.719c0,2.054-1.666,3.719-3.719,3.719
					s-3.719-1.665-3.719-3.719C57.583,143.993,59.249,142.328,61.302,142.328 M61.302,140.328c-3.153,0-5.719,2.565-5.719,5.719
					s2.565,5.719,5.719,5.719s5.719-2.565,5.719-5.719S64.455,140.328,61.302,140.328L61.302,140.328z"/>
			</g>
		</g>
		<g>
			<g>
				<g>
					<polyline fill="none" stroke="#E7D766" stroke-width="2" stroke-miterlimit="10" points="-29.806,67.955 59.442,34.487 
						149.93,4.737 231.741,-0.221 319.75,-28.73 					"/>
					<g>
						<g>
							<path fill="#FFFFFF" d="M232.98,4.498c-2.602,0-4.719-2.117-4.719-4.719s2.117-4.719,4.719-4.719s4.719,2.117,4.719,4.719
								S235.583,4.498,232.98,4.498z"/>
							<path fill="#E7D766" d="M232.98-3.939c2.053,0,3.719,1.665,3.719,3.719c0,2.054-1.666,3.719-3.719,3.719
								c-2.053,0-3.719-1.665-3.719-3.719C229.262-2.274,230.928-3.939,232.98-3.939 M232.98-5.939
								c-3.153,0-5.719,2.565-5.719,5.719s2.565,5.719,5.719,5.719s5.719-2.565,5.719-5.719S236.134-5.939,232.98-5.939
								L232.98-5.939z"/>
						</g>
						<g>
							<path fill="#FFFFFF" d="M146.521,8.526c-2.602,0-4.719-2.117-4.719-4.719s2.117-4.719,4.719-4.719s4.719,2.117,4.719,4.719
								S149.124,8.526,146.521,8.526z"/>
							<path fill="#E7D766" d="M146.521,0.089c2.053,0,3.719,1.665,3.719,3.719c0,2.054-1.666,3.719-3.719,3.719
								c-2.053,0-3.719-1.665-3.719-3.719C142.803,1.754,144.468,0.089,146.521,0.089 M146.521-1.911
								c-3.153,0-5.719,2.565-5.719,5.719s2.565,5.719,5.719,5.719s5.719-2.565,5.719-5.719S149.675-1.911,146.521-1.911
								L146.521-1.911z"/>
						</g>
					</g>
				</g>
				<g>
					<path fill="#FFFFFF" d="M60.063,38.585c-2.602,0-4.719-2.117-4.719-4.718c0-2.602,2.117-4.719,4.719-4.719
						s4.719,2.117,4.719,4.719C64.781,36.469,62.665,38.585,60.063,38.585z"/>
					<path fill="#E7D766" d="M60.063,30.148c2.053,0,3.719,1.665,3.719,3.719c0,2.054-1.666,3.718-3.719,3.718
						c-2.053,0-3.719-1.664-3.719-3.718C56.344,31.813,58.009,30.148,60.063,30.148 M60.063,28.148
						c-3.153,0-5.719,2.565-5.719,5.719c0,3.153,2.565,5.718,5.719,5.718s5.719-2.565,5.719-5.718
						C65.781,30.714,63.216,28.148,60.063,28.148L60.063,28.148z"/>
				</g>
			</g>
		</g>
		<g>
			<g>
				<g>
					<polyline fill="none" stroke="#A27E56" stroke-width="2" stroke-miterlimit="10" points="-29.806,267.523 59.442,234.056 
						149.93,204.306 231.741,199.348 319.75,170.838 					"/>
					<g>
						<g>
							<path fill="#FFFFFF" d="M320.06,175.247c-2.602,0-4.719-2.117-4.719-4.719s2.117-4.719,4.719-4.719s4.719,2.117,4.719,4.719
								S322.662,175.247,320.06,175.247z"/>
							<path fill="#A27E56" d="M320.06,166.81c2.053,0,3.719,1.665,3.719,3.719c0,2.054-1.666,3.719-3.719,3.719
								c-2.053,0-3.719-1.665-3.719-3.719C316.341,168.475,318.006,166.81,320.06,166.81 M320.06,164.81
								c-3.153,0-5.719,2.565-5.719,5.719s2.565,5.719,5.719,5.719s5.719-2.565,5.719-5.719S323.213,164.81,320.06,164.81
								L320.06,164.81z"/>
						</g>
						<g>
							<path fill="#FFFFFF" d="M234.22,204.066c-2.602,0-4.719-2.117-4.719-4.718c0-2.602,2.117-4.719,4.719-4.719
								s4.719,2.117,4.719,4.719C238.939,201.95,236.822,204.066,234.22,204.066z"/>
							<path fill="#A27E56" d="M234.22,195.629c2.053,0,3.719,1.665,3.719,3.719c0,2.054-1.666,3.718-3.719,3.718
								s-3.719-1.664-3.719-3.718C230.501,197.294,232.167,195.629,234.22,195.629 M234.22,193.629
								c-3.153,0-5.719,2.565-5.719,5.719c0,3.153,2.565,5.718,5.719,5.718s5.719-2.565,5.719-5.718
								C239.939,196.195,237.374,193.629,234.22,193.629L234.22,193.629z"/>
						</g>
						<g>
							<path fill="#FFFFFF" d="M146.521,208.095c-2.602,0-4.719-2.117-4.719-4.719s2.117-4.719,4.719-4.719s4.719,2.117,4.719,4.719
								S149.124,208.095,146.521,208.095z"/>
							<path fill="#A27E56" d="M146.521,199.658c2.053,0,3.719,1.665,3.719,3.719c0,2.054-1.666,3.719-3.719,3.719
								c-2.053,0-3.719-1.665-3.719-3.719C142.803,201.323,144.468,199.658,146.521,199.658 M146.521,197.658
								c-3.153,0-5.719,2.565-5.719,5.719s2.565,5.719,5.719,5.719s5.719-2.565,5.719-5.719S149.675,197.658,146.521,197.658
								L146.521,197.658z"/>
						</g>
					</g>
				</g>
				<g>
					<path fill="#FFFFFF" d="M60.063,238.154c-2.602,0-4.719-2.117-4.719-4.718c0-2.602,2.117-4.719,4.719-4.719
						s4.719,2.117,4.719,4.719C64.781,236.038,62.665,238.154,60.063,238.154z"/>
					<path fill="#A27E56" d="M60.063,229.717c2.053,0,3.719,1.665,3.719,3.719c0,2.054-1.666,3.718-3.719,3.718
						c-2.053,0-3.719-1.664-3.719-3.718C56.344,231.382,58.009,229.717,60.063,229.717 M60.063,227.717
						c-3.153,0-5.719,2.565-5.719,5.719c0,3.153,2.565,5.718,5.719,5.718s5.719-2.565,5.719-5.718
						C65.781,230.283,63.216,227.717,60.063,227.717L60.063,227.717z"/>
				</g>
			</g>
		</g>
		<g>
			<g>
				<path fill="#FFFFFF" d="M62.852,69.884c-2.602,0-4.719-2.117-4.719-4.718c0-2.602,2.117-4.719,4.719-4.719
					c2.602,0,4.718,2.117,4.718,4.719C67.57,67.768,65.453,69.884,62.852,69.884z"/>
				<path fill="#42E695" d="M62.852,61.447c2.053,0,3.718,1.665,3.718,3.719c0,2.054-1.666,3.718-3.718,3.718
					c-2.053,0-3.719-1.664-3.719-3.718C59.133,63.112,60.798,61.447,62.852,61.447 M62.852,59.447c-3.153,0-5.719,2.565-5.719,5.719
					c0,3.153,2.565,5.718,5.719,5.718s5.718-2.565,5.718-5.718C68.57,62.013,66.005,59.447,62.852,59.447L62.852,59.447z"/>
			</g>
			<g>
				<path fill="#FFFFFF" d="M144.662,53.77c-2.602,0-4.719-2.117-4.719-4.718c0-2.602,2.117-4.719,4.719-4.719
					s4.719,2.117,4.719,4.719C149.381,51.653,147.264,53.77,144.662,53.77z"/>
				<path fill="#42E695" d="M144.662,45.333c2.053,0,3.719,1.665,3.719,3.719c0,2.054-1.666,3.718-3.719,3.718
					c-2.053,0-3.719-1.664-3.719-3.718C140.943,46.998,142.609,45.333,144.662,45.333 M144.662,43.333
					c-3.153,0-5.719,2.565-5.719,5.719c0,3.153,2.565,5.718,5.719,5.718s5.719-2.565,5.719-5.718
					C150.381,45.898,147.815,43.333,144.662,43.333L144.662,43.333z"/>
			</g>
			<g>
				<path fill="#FFFFFF" d="M232.98,40.135c-2.602,0-4.719-2.117-4.719-4.719s2.117-4.719,4.719-4.719s4.719,2.117,4.719,4.719
					S235.583,40.135,232.98,40.135z"/>
				<path fill="#42E695" d="M232.98,31.698c2.053,0,3.719,1.665,3.719,3.719c0,2.054-1.666,3.719-3.719,3.719
					c-2.053,0-3.719-1.665-3.719-3.719C229.262,33.363,230.928,31.698,232.98,31.698 M232.98,29.698
					c-3.153,0-5.719,2.565-5.719,5.719s2.565,5.719,5.719,5.719s5.719-2.565,5.719-5.719S236.134,29.698,232.98,29.698
					L232.98,29.698z"/>
			</g>
			<g>
				<path fill="#FFFFFF" d="M319.75,20.302c-2.602,0-4.718-2.117-4.718-4.719s2.117-4.719,4.718-4.719
					c2.602,0,4.719,2.117,4.719,4.719S322.352,20.302,319.75,20.302z"/>
				<path fill="#42E695" d="M319.75,11.865c2.053,0,3.719,1.665,3.719,3.719c0,2.054-1.666,3.719-3.719,3.719
					c-2.053,0-3.718-1.665-3.718-3.719C316.031,13.53,317.697,11.865,319.75,11.865 M319.75,9.865c-3.153,0-5.718,2.565-5.718,5.719
					s2.565,5.719,5.718,5.719c3.153,0,5.719-2.565,5.719-5.719S322.903,9.865,319.75,9.865L319.75,9.865z"/>
			</g>
		</g>
		<g>
			<polygon points="287.361,134.867 244.97,134.867 237.335,124.998 229.697,134.867 208.357,134.867 208.357,169.104 
				287.361,169.104 			"/>
			<g>
				<path fill="#DDDDDD" d="M215.391,151.587v-7.938h2.854c1.021,0,1.798,0.187,2.33,0.561c0.532,0.374,0.799,0.918,0.799,1.629
					c0,0.412-0.095,0.763-0.284,1.053c-0.189,0.291-0.467,0.505-0.833,0.644c0.412,0.109,0.732,0.312,0.953,0.611
					c0.222,0.298,0.332,0.662,0.332,1.089c0,0.779-0.244,1.363-0.737,1.754c-0.494,0.391-1.223,0.589-2.19,0.596H215.391z
					 M217.306,146.958h0.998c0.417-0.003,0.716-0.08,0.893-0.229c0.181-0.149,0.269-0.37,0.269-0.662
					c0-0.335-0.096-0.577-0.288-0.724c-0.194-0.147-0.506-0.222-0.933-0.222h-0.938V146.958z M217.306,148.212v1.904h1.254
					c0.347,0,0.611-0.08,0.796-0.237c0.185-0.159,0.279-0.381,0.279-0.668c0-0.661-0.329-0.994-0.988-0.998H217.306z"/>
				<path fill="#DDDDDD" d="M225.546,148.78h-1.037v2.807h-1.914v-7.938h3.124c0.941,0,1.678,0.208,2.211,0.626
					c0.529,0.417,0.794,1.007,0.794,1.77c0,0.552-0.111,1.01-0.336,1.373c-0.223,0.364-0.575,0.657-1.051,0.883l1.66,3.205v0.082
					h-2.052L225.546,148.78z M224.51,147.308h1.209c0.365,0,0.637-0.096,0.822-0.288c0.184-0.19,0.274-0.458,0.274-0.801
					c0-0.344-0.091-0.611-0.277-0.807c-0.186-0.195-0.458-0.292-0.819-0.292h-1.209V147.308z"/>
				<path fill="#DDDDDD" d="M234.39,150.104h-2.623l-0.458,1.483h-2.045l2.913-7.938h1.799l2.933,7.938h-2.055L234.39,150.104z
					 M232.224,148.626h1.708l-0.857-2.753L232.224,148.626z"/>
				<path fill="#DDDDDD" d="M241.583,149.477c0-0.28-0.099-0.497-0.297-0.654c-0.198-0.156-0.546-0.317-1.044-0.484
					c-0.5-0.167-0.905-0.329-1.222-0.486c-1.027-0.505-1.543-1.2-1.543-2.083c0-0.438,0.129-0.828,0.385-1.164
					c0.256-0.337,0.618-0.598,1.086-0.785c0.469-0.188,0.996-0.281,1.583-0.281c0.569,0,1.082,0.102,1.534,0.306
					c0.454,0.203,0.805,0.493,1.055,0.869c0.251,0.376,0.377,0.807,0.377,1.29h-1.909c0-0.324-0.099-0.574-0.296-0.752
					c-0.199-0.178-0.467-0.267-0.805-0.267c-0.342,0-0.611,0.075-0.81,0.226c-0.197,0.152-0.297,0.343-0.297,0.576
					c0,0.203,0.108,0.388,0.327,0.553c0.219,0.167,0.602,0.336,1.151,0.514c0.549,0.176,1,0.366,1.353,0.569
					c0.857,0.496,1.286,1.176,1.286,2.045c0,0.695-0.263,1.239-0.785,1.636c-0.523,0.396-1.241,0.595-2.155,0.595
					c-0.642,0-1.225-0.116-1.747-0.347c-0.522-0.23-0.916-0.547-1.179-0.949c-0.263-0.402-0.395-0.865-0.395-1.388h1.919
					c0,0.425,0.11,0.739,0.331,0.941c0.218,0.202,0.577,0.303,1.07,0.303c0.317,0,0.566-0.068,0.751-0.205
					C241.492,149.917,241.583,149.725,241.583,149.477z"/>
				<path fill="#DDDDDD" d="M246.518,151.587h-1.909v-7.938h1.909V151.587z"/>
				<path fill="#DDDDDD" d="M249.763,150.116h3.331v1.471h-5.247v-7.938h1.917V150.116z"/>
				<path fill="#DDDDDD" d="M254.958,145.453c0.292,0,0.533,0.086,0.725,0.259c0.195,0.173,0.291,0.393,0.291,0.662
					c0,0.269-0.096,0.491-0.291,0.663c-0.192,0.173-0.433,0.259-0.725,0.259c-0.293,0-0.536-0.087-0.726-0.262
					c-0.192-0.174-0.288-0.394-0.288-0.66c0-0.265,0.096-0.484,0.288-0.66C254.422,145.541,254.666,145.453,254.958,145.453z
					 M254.958,149.804c0.292,0,0.533,0.087,0.725,0.26c0.195,0.172,0.291,0.394,0.291,0.662c0,0.27-0.096,0.49-0.291,0.663
					c-0.192,0.173-0.433,0.258-0.725,0.258c-0.293,0-0.536-0.086-0.726-0.261c-0.192-0.176-0.288-0.395-0.288-0.661
					c0-0.264,0.096-0.485,0.288-0.66C254.422,149.893,254.666,149.804,254.958,149.804z"/>
				<path fill="#DDDDDD" d="M263.994,151.587h-1.842v-5.867l-1.811,0.529v-1.395l3.484-1.205h0.169V151.587z"/>
				<path fill="#DDDDDD" d="M271.24,148.485h0.808v1.417h-0.808v1.685h-1.836v-1.685h-3.069l-0.11-1.123l3.18-5.116v-0.016h1.836
					V148.485z M267.975,148.485h1.429v-2.444l-0.114,0.187L267.975,148.485z"/>
				<path fill="#DDDDDD" d="M273.534,153.726l-0.927-0.437l0.186-0.371c0.254-0.473,0.387-0.922,0.397-1.352v-1.364h1.472
					l-0.005,1.184c-0.004,0.417-0.11,0.843-0.322,1.276C274.123,153.095,273.857,153.449,273.534,153.726z"/>
				<path fill="#DDDDDD" d="M277.547,146.849h0.866c0.687,0,1.03-0.337,1.03-1.01c0-0.261-0.081-0.473-0.246-0.64
					c-0.162-0.166-0.394-0.248-0.692-0.248c-0.244,0-0.454,0.071-0.636,0.213c-0.179,0.141-0.269,0.317-0.269,0.528h-1.839
					c0-0.418,0.118-0.792,0.35-1.118c0.233-0.328,0.554-0.584,0.966-0.766c0.414-0.184,0.868-0.276,1.361-0.276
					c0.884,0,1.579,0.202,2.083,0.606c0.507,0.403,0.759,0.958,0.759,1.663c0,0.341-0.105,0.665-0.315,0.969
					c-0.209,0.303-0.513,0.549-0.913,0.739c0.422,0.152,0.752,0.384,0.994,0.695c0.239,0.311,0.358,0.695,0.358,1.152
					c0,0.709-0.272,1.277-0.817,1.702c-0.546,0.425-1.262,0.639-2.149,0.639c-0.519,0-1.001-0.1-1.449-0.297
					c-0.444-0.198-0.781-0.473-1.01-0.824c-0.23-0.35-0.345-0.749-0.345-1.197h1.851c0,0.244,0.097,0.454,0.293,0.633
					c0.196,0.178,0.438,0.267,0.725,0.267c0.325,0,0.582-0.089,0.774-0.271c0.193-0.18,0.291-0.41,0.291-0.688
					c0-0.401-0.101-0.684-0.301-0.851c-0.2-0.167-0.477-0.252-0.829-0.252h-0.893V146.849z"/>
				<path fill="#DDDDDD" d="M262.004,164.99h-5.54v-1.2l2.553-2.683c0.627-0.717,0.942-1.286,0.942-1.708
					c0-0.342-0.074-0.602-0.224-0.78c-0.149-0.179-0.367-0.267-0.649-0.267c-0.28,0-0.508,0.118-0.681,0.356
					c-0.176,0.239-0.262,0.536-0.262,0.893h-1.845c0-0.487,0.122-0.938,0.367-1.349c0.242-0.414,0.581-0.735,1.014-0.968
					c0.432-0.232,0.916-0.35,1.451-0.35c0.857,0,1.519,0.198,1.982,0.595c0.463,0.396,0.695,0.965,0.695,1.707
					c0,0.312-0.058,0.617-0.174,0.913c-0.118,0.297-0.297,0.607-0.544,0.933c-0.245,0.325-0.641,0.761-1.186,1.306l-1.024,1.183
					h3.124V164.99z"/>
				<path fill="#DDDDDD" d="M268.446,161.745c0,1.073-0.241,1.9-0.724,2.481s-1.16,0.873-2.037,0.873
					c-0.883,0-1.568-0.292-2.05-0.878c-0.484-0.586-0.727-1.411-0.727-2.476v-1.45c0-1.072,0.242-1.899,0.724-2.481
					c0.482-0.582,1.163-0.873,2.043-0.873c0.879,0,1.561,0.292,2.043,0.878c0.484,0.584,0.728,1.412,0.728,2.481V161.745z
					 M266.607,160.061c0-0.571-0.075-0.998-0.224-1.28c-0.148-0.281-0.385-0.422-0.708-0.422c-0.316,0-0.547,0.131-0.689,0.393
					c-0.144,0.261-0.223,0.658-0.232,1.188v2.029c0,0.592,0.073,1.026,0.222,1.299c0.149,0.275,0.386,0.413,0.709,0.413
					c0.312,0,0.543-0.134,0.692-0.401c0.149-0.268,0.226-0.687,0.229-1.257V160.061z"/>
				<path fill="#DDDDDD" d="M273.472,164.99h-1.842v-5.868l-1.811,0.529v-1.396l3.484-1.205h0.169V164.99z"/>
				<path fill="#DDDDDD" d="M281.38,161.745c0,1.073-0.242,1.9-0.723,2.481c-0.482,0.581-1.161,0.873-2.037,0.873
					c-0.885,0-1.568-0.292-2.051-0.878c-0.484-0.586-0.726-1.411-0.726-2.476v-1.45c0-1.072,0.242-1.899,0.724-2.481
					c0.481-0.582,1.163-0.873,2.042-0.873c0.879,0,1.561,0.292,2.044,0.878c0.484,0.584,0.727,1.412,0.727,2.481V161.745z
					 M279.542,160.061c0-0.571-0.076-0.998-0.225-1.28c-0.147-0.281-0.385-0.422-0.708-0.422c-0.315,0-0.546,0.131-0.689,0.393
					c-0.145,0.261-0.223,0.658-0.232,1.188v2.029c0,0.592,0.072,1.026,0.222,1.299c0.149,0.275,0.387,0.413,0.711,0.413
					c0.312,0,0.543-0.134,0.69-0.401c0.15-0.268,0.227-0.687,0.23-1.257V160.061z"/>
			</g>
		</g>
		
			<line fill="none" stroke="#FFFFFF" stroke-linecap="round" stroke-linejoin="round" stroke-miterlimit="10" x1="351.978" y1="300.372" x2="-31.233" y2="300.372"/>
		<g>
			<path fill="#FFFFFF" d="M67.163,318.346h-8.296v-1.415l4.11-4.483c0.593-0.661,1.016-1.213,1.266-1.656
				c0.252-0.444,0.378-0.889,0.378-1.334c0-0.588-0.165-1.063-0.496-1.424c-0.33-0.361-0.775-0.542-1.334-0.542
				c-0.667,0-1.184,0.204-1.551,0.61c-0.367,0.407-0.551,0.963-0.551,1.669h-2.06c0-0.751,0.171-1.428,0.513-2.03
				c0.342-0.602,0.83-1.069,1.467-1.402c0.634-0.333,1.368-0.5,2.198-0.5c1.197,0,2.143,0.301,2.835,0.903
				c0.691,0.602,1.038,1.433,1.038,2.495c0,0.616-0.173,1.262-0.522,1.937c-0.346,0.675-0.916,1.441-1.707,2.3l-3.017,3.229h5.728
				V318.346z"/>
			<path fill="#FFFFFF" d="M76.772,313.151c0,1.774-0.332,3.111-0.995,4.012c-0.665,0.901-1.674,1.352-3.03,1.352
				c-1.333,0-2.337-0.439-3.013-1.318c-0.674-0.878-1.021-2.179-1.038-3.902v-2.135c0-1.774,0.332-3.104,0.997-3.991
				c0.663-0.887,1.675-1.331,3.037-1.331c1.35,0,2.356,0.432,3.02,1.297c0.665,0.864,1.004,2.158,1.021,3.881V313.151z
				 M74.713,310.847c0-1.158-0.158-2.007-0.475-2.546c-0.315-0.54-0.819-0.81-1.508-0.81c-0.672,0-1.167,0.256-1.483,0.767
				c-0.315,0.511-0.482,1.309-0.5,2.394v2.796c0,1.152,0.161,2.011,0.483,2.576c0.322,0.564,0.828,0.847,1.517,0.847
				c0.661,0,1.15-0.261,1.466-0.784c0.316-0.522,0.483-1.34,0.5-2.453V310.847z"/>
			<path fill="#FFFFFF" d="M86.635,313.151c0,1.774-0.332,3.111-0.995,4.012c-0.665,0.901-1.674,1.352-3.03,1.352
				c-1.333,0-2.337-0.439-3.013-1.318c-0.675-0.878-1.021-2.179-1.038-3.902v-2.135c0-1.774,0.332-3.104,0.996-3.991
				c0.664-0.887,1.675-1.331,3.038-1.331c1.35,0,2.356,0.432,3.02,1.297c0.665,0.864,1.005,2.158,1.022,3.881V313.151z
				 M84.576,310.847c0-1.158-0.158-2.007-0.475-2.546c-0.316-0.54-0.819-0.81-1.508-0.81c-0.672,0-1.167,0.256-1.483,0.767
				c-0.315,0.511-0.483,1.309-0.5,2.394v2.796c0,1.152,0.161,2.011,0.483,2.576c0.322,0.564,0.828,0.847,1.517,0.847
				c0.661,0,1.15-0.261,1.466-0.784s0.483-1.34,0.5-2.453V310.847z"/>
			<path fill="#FFFFFF" d="M89.008,312.228l0.669-6.219h6.626v1.779h-4.915l-0.339,2.949c0.57-0.328,1.214-0.492,1.932-0.492
				c1.175,0,2.088,0.376,2.742,1.127c0.651,0.751,0.979,1.763,0.979,3.034c0,1.254-0.362,2.253-1.085,2.996
				s-1.714,1.114-2.974,1.114c-1.129,0-2.066-0.321-2.81-0.962c-0.742-0.641-1.145-1.487-1.207-2.538h1.992
				c0.078,0.599,0.294,1.058,0.644,1.377c0.35,0.319,0.808,0.479,1.373,0.479c0.633,0,1.125-0.226,1.479-0.678
				c0.352-0.452,0.529-1.068,0.529-1.847c0-0.751-0.194-1.346-0.584-1.784c-0.39-0.438-0.926-0.657-1.61-0.657
				c-0.373,0-0.689,0.049-0.949,0.148s-0.542,0.292-0.847,0.581L89.008,312.228z"/>
			<path fill="#FFFFFF" d="M171.438,318.346h-8.296v-1.415l4.11-4.483c0.593-0.661,1.016-1.213,1.266-1.656
				c0.252-0.444,0.378-0.889,0.378-1.334c0-0.588-0.165-1.063-0.496-1.424c-0.33-0.361-0.775-0.542-1.334-0.542
				c-0.667,0-1.184,0.204-1.551,0.61c-0.367,0.407-0.551,0.963-0.551,1.669h-2.059c0-0.751,0.17-1.428,0.512-2.03
				c0.343-0.602,0.831-1.069,1.467-1.402c0.634-0.333,1.368-0.5,2.198-0.5c1.197,0,2.143,0.301,2.835,0.903
				c0.691,0.602,1.038,1.433,1.038,2.495c0,0.616-0.173,1.262-0.522,1.937c-0.346,0.675-0.916,1.441-1.707,2.3l-3.017,3.229h5.728
				V318.346z"/>
			<path fill="#FFFFFF" d="M181.047,313.151c0,1.774-0.332,3.111-0.995,4.012c-0.665,0.901-1.674,1.352-3.03,1.352
				c-1.333,0-2.337-0.439-3.013-1.318c-0.674-0.878-1.021-2.179-1.038-3.902v-2.135c0-1.774,0.332-3.104,0.996-3.991
				c0.664-0.887,1.675-1.331,3.038-1.331c1.35,0,2.356,0.432,3.02,1.297c0.665,0.864,1.004,2.158,1.021,3.881V313.151z
				 M178.988,310.847c0-1.158-0.158-2.007-0.475-2.546c-0.315-0.54-0.819-0.81-1.508-0.81c-0.672,0-1.167,0.256-1.483,0.767
				c-0.315,0.511-0.483,1.309-0.5,2.394v2.796c0,1.152,0.161,2.011,0.483,2.576c0.322,0.564,0.828,0.847,1.517,0.847
				c0.661,0,1.15-0.261,1.466-0.784c0.316-0.522,0.483-1.34,0.5-2.453V310.847z"/>
			<path fill="#FFFFFF" d="M188.445,318.346h-2.05v-9.912l-3.025,1.031v-1.729l4.813-1.771h0.263V318.346z"/>
			<path fill="#FFFFFF" d="M200.774,313.151c0,1.774-0.332,3.111-0.995,4.012c-0.665,0.901-1.674,1.352-3.03,1.352
				c-1.333,0-2.337-0.439-3.013-1.318c-0.674-0.878-1.02-2.179-1.037-3.902v-2.135c0-1.774,0.332-3.104,0.996-3.991
				c0.664-0.887,1.675-1.331,3.037-1.331c1.35,0,2.357,0.432,3.02,1.297c0.665,0.864,1.005,2.158,1.022,3.881V313.151z
				 M198.715,310.847c0-1.158-0.159-2.007-0.475-2.546c-0.316-0.54-0.819-0.81-1.508-0.81c-0.672,0-1.167,0.256-1.483,0.767
				s-0.483,1.309-0.5,2.394v2.796c0,1.152,0.161,2.011,0.483,2.576c0.322,0.564,0.828,0.847,1.517,0.847
				c0.661,0,1.15-0.261,1.466-0.784s0.483-1.34,0.5-2.453V310.847z"/>
			<path fill="#FFFFFF" d="M281.79,318.346h-8.296v-1.415l4.11-4.483c0.593-0.661,1.016-1.213,1.268-1.656
				c0.25-0.444,0.376-0.889,0.376-1.334c0-0.588-0.166-1.063-0.495-1.424c-0.332-0.361-0.775-0.542-1.335-0.542
				c-0.667,0-1.184,0.204-1.551,0.61c-0.367,0.407-0.551,0.963-0.551,1.669h-2.059c0-0.751,0.17-1.428,0.513-2.03
				c0.342-0.602,0.831-1.069,1.465-1.402c0.637-0.333,1.369-0.5,2.2-0.5c1.197,0,2.143,0.301,2.833,0.903
				c0.692,0.602,1.039,1.433,1.039,2.495c0,0.616-0.175,1.262-0.521,1.937c-0.349,0.675-0.918,1.441-1.708,2.3l-3.017,3.229h5.728
				V318.346z"/>
			<path fill="#FFFFFF" d="M291.398,313.151c0,1.774-0.332,3.111-0.996,4.012c-0.664,0.901-1.673,1.352-3.029,1.352
				c-1.333,0-2.337-0.439-3.012-1.318c-0.675-0.878-1.022-2.179-1.039-3.902v-2.135c0-1.774,0.332-3.104,0.995-3.991
				c0.664-0.887,1.676-1.331,3.038-1.331c1.35,0,2.357,0.432,3.021,1.297c0.663,0.864,1.003,2.158,1.021,3.881V313.151z
				 M289.339,310.847c0-1.158-0.159-2.007-0.475-2.546c-0.316-0.54-0.819-0.81-1.508-0.81c-0.672,0-1.167,0.256-1.483,0.767
				s-0.483,1.309-0.5,2.394v2.796c0,1.152,0.161,2.011,0.483,2.576c0.322,0.564,0.828,0.847,1.517,0.847
				c0.661,0,1.15-0.261,1.466-0.784s0.483-1.34,0.5-2.453V310.847z"/>
			<path fill="#FFFFFF" d="M298.796,318.346h-2.051v-9.912l-3.025,1.031v-1.729l4.813-1.771h0.263V318.346z"/>
			<path fill="#FFFFFF" d="M303.634,312.228l0.669-6.219h6.626v1.779h-4.915l-0.339,2.949c0.57-0.328,1.214-0.492,1.932-0.492
				c1.175,0,2.089,0.376,2.74,1.127c0.654,0.751,0.979,1.763,0.979,3.034c0,1.254-0.362,2.253-1.084,2.996s-1.714,1.114-2.974,1.114
				c-1.13,0-2.066-0.321-2.809-0.962c-0.743-0.641-1.146-1.487-1.208-2.538h1.991c0.079,0.599,0.294,1.058,0.644,1.377
				c0.35,0.319,0.807,0.479,1.373,0.479c0.633,0,1.126-0.226,1.478-0.678c0.354-0.452,0.53-1.068,0.53-1.847
				c0-0.751-0.195-1.346-0.584-1.784c-0.39-0.438-0.926-0.657-1.61-0.657c-0.373,0-0.688,0.049-0.949,0.148
				s-0.542,0.292-0.847,0.581L303.634,312.228z"/>
		</g>
	</g>
</g>
</svg>
