<?xml version="1.0" encoding="utf-8"?>
<!-- Generator: Adobe Illustrator 16.0.3, SVG Export Plug-In . SVG Version: 6.00 Build 0)  -->
<!DOCTYPE svg PUBLIC "-//W3C//DTD SVG 1.1//EN" "http://www.w3.org/Graphics/SVG/1.1/DTD/svg11.dtd">
<svg version="1.1" id="Camada_1" xmlns="http://www.w3.org/2000/svg" xmlns:xlink="http://www.w3.org/1999/xlink" x="0px" y="0px"
	 width="547px" height="316px" viewBox="0 0 547 316" enable-background="new 0 0 547 316" xml:space="preserve">
<g>
	<g>
		<path fill="#D7DF23" d="M169.674,304.639c0,1.537-1.289,2.774-2.883,2.774h-37.576c-1.59,0-2.884-1.237-2.884-2.774v-32.793
			c0-1.533,1.294-2.774,2.884-2.774h37.576c1.594,0,2.883,1.241,2.883,2.774V304.639z"/>
		<path d="M159.111,277.152c-0.058-1.85,1.035-3.267,3.051-3.267c1.537,0,2.88,0.946,2.88,2.526c0,1.215-0.67,1.883-1.5,2.449
			c-0.827,0.565-1.811,1.027-2.425,1.859h3.975v1.406h-6.171c0.013-1.87,1.202-2.666,2.654-3.612
			c0.745-0.485,1.754-0.983,1.765-1.975c0-0.763-0.528-1.247-1.26-1.247c-1.009,0-1.332,1.004-1.332,1.859H159.111z"/>
		<polygon fill="#FFFFFF" points="141.925,280.81 141.09,282.061 141.067,297.77 143.644,299.068 148.5,299.089 150.99,297.702 
			150.917,282.196 148.037,278.197 143.644,278.331 		"/>
		<path fill="#FFFFFF" d="M148.028,277.979l-4.505,0.137l-1.785,2.576l-0.875,1.307l-0.025,15.902l2.751,1.382l4.973,0.026
			l2.654-1.48l-0.073-15.701l-2.989-4.154L148.028,277.979z M147.92,278.417c0.134,0.183,2.694,3.741,2.77,3.848
			c0,0.133,0.069,15.066,0.069,15.313c-0.199,0.111-2.219,1.238-2.319,1.292c-0.118,0-4.632-0.019-4.736-0.019
			c-0.091-0.049-2.192-1.107-2.41-1.213c0-0.262,0.023-15.387,0.023-15.513c0.063-0.099,0.799-1.193,0.799-1.195
			c0.002-0.003,1.535-2.214,1.655-2.388C143.984,278.538,147.694,278.425,147.92,278.417"/>
		<line fill="#FFFFFF" x1="141.069" y1="282.29" x2="141.069" y2="297.782"/>
		<path d="M140.614,282.29v15.492c0,0.242,0.203,0.437,0.455,0.437c0.25,0,0.454-0.194,0.454-0.437V282.29
			c0-0.246-0.204-0.439-0.454-0.439C140.817,281.85,140.614,282.043,140.614,282.29"/>
		<line fill="#FFFFFF" x1="150.945" y1="282.385" x2="150.945" y2="297.782"/>
		<path d="M150.489,282.385v15.396c0,0.242,0.204,0.437,0.456,0.437c0.25,0,0.453-0.194,0.453-0.437v-15.396
			c0-0.24-0.204-0.436-0.453-0.436C150.693,281.95,150.489,282.145,150.489,282.385"/>
		<polyline fill="#FFFFFF" points="141.069,297.847 143.551,299.145 148.524,299.152 150.893,297.816 		"/>
		<path d="M150.664,297.436c0,0-2.066,1.168-2.261,1.28c-0.232,0-4.52,0.007-4.734,0.007c-0.187-0.098-2.384-1.258-2.384-1.258
			c-0.217-0.117-0.497-0.039-0.615,0.173c-0.119,0.212-0.037,0.481,0.183,0.592l2.485,1.297c0.063,0.036,0.138,0.054,0.214,0.054
			l4.973,0.009c0.081,0,0.16-0.019,0.229-0.061l2.371-1.339c0.216-0.122,0.289-0.389,0.162-0.597
			C151.16,297.388,150.88,297.314,150.664,297.436"/>
		<polyline fill="#FFFFFF" points="141.079,282.15 145.889,275.212 150.945,282.318 		"/>
		<path d="M145.882,274.778c-0.148,0-0.29,0.074-0.371,0.192l-4.813,6.939c-0.136,0.202-0.079,0.47,0.126,0.604
			c0.209,0.136,0.491,0.078,0.631-0.121c0,0,3.802-5.485,4.439-6.402c0.646,0.914,4.673,6.575,4.673,6.575
			c0.146,0.198,0.426,0.251,0.633,0.114c0.205-0.14,0.261-0.406,0.118-0.607l-5.056-7.105
			C146.176,274.845,146.034,274.773,145.882,274.778"/>
		<path d="M143.656,278.463c1.231,0.516,3.477,0.47,4.461-0.066c-1.463-1.975-2.267-3.085-2.267-3.085L143.656,278.463z"/>
		<path d="M145.848,274.88c-0.151,0-0.288,0.069-0.375,0.19l-2.195,3.148c-0.075,0.111-0.095,0.244-0.057,0.367
			c0.037,0.123,0.13,0.227,0.254,0.278c1.345,0.562,3.754,0.516,4.865-0.088c0.11-0.061,0.192-0.165,0.221-0.282
			c0.03-0.122,0-0.249-0.073-0.349c-1.444-1.954-2.255-3.068-2.264-3.082C146.138,274.946,146,274.875,145.848,274.88
			 M145.862,276.086c0.325,0.44,0.851,1.159,1.554,2.115c-0.84,0.241-2.111,0.252-3.047,0.029
			C144.75,277.677,145.441,276.683,145.862,276.086"/>
		<path fill="#FFFFFF" d="M150.896,282.29c-1.419-1.446-2.487,1.485-2.487,1.485s-0.795-1.157-2.45-1.157h0.038
			c-1.626,0-2.423,1.157-2.423,1.157s-1.276-2.765-2.446-1.553"/>
		<path d="M149.841,281.48c-0.736,0.15-1.271,0.932-1.575,1.516c-0.454-0.37-1.196-0.796-2.258-0.811
			c-0.001,0-0.005-0.002-0.011-0.002h-0.038c-0.006,0-0.008,0.002-0.012,0.002c-1.071,0.015-1.817,0.461-2.261,0.834
			c-0.355-0.59-0.969-1.402-1.73-1.523c-0.292-0.048-0.735-0.01-1.16,0.429c-0.168,0.175-0.16,0.451,0.022,0.615
			c0.186,0.165,0.473,0.156,0.641-0.021c0.184-0.19,0.299-0.17,0.348-0.161c0.452,0.068,1.079,0.994,1.356,1.598
			c0.067,0.145,0.212,0.242,0.375,0.255c0.166,0.014,0.325-0.061,0.415-0.188c0.03-0.04,0.69-0.955,2.026-0.965
			c1.361,0.01,2.023,0.925,2.052,0.965c0.096,0.134,0.264,0.209,0.433,0.186c0.17-0.02,0.313-0.13,0.372-0.284
			c0.223-0.605,0.739-1.499,1.196-1.591c0.057-0.012,0.238-0.049,0.537,0.256c0.17,0.176,0.458,0.182,0.639,0.02
			c0.183-0.168,0.191-0.443,0.02-0.619C150.689,281.44,150.176,281.41,149.841,281.48"/>
		<line fill="#FFFFFF" x1="148.457" y1="283.659" x2="148.457" y2="298.94"/>
		<path d="M148.004,283.659v15.281c0,0.242,0.204,0.438,0.453,0.438c0.25,0,0.452-0.195,0.452-0.438v-15.281
			c0-0.241-0.203-0.438-0.452-0.438C148.208,283.221,148.004,283.417,148.004,283.659"/>
		<line fill="#FFFFFF" x1="143.555" y1="298.973" x2="143.555" y2="283.723"/>
		<path d="M143.102,283.723v15.25c0,0.239,0.203,0.438,0.453,0.438c0.25,0,0.456-0.198,0.456-0.438v-15.25
			c0-0.24-0.207-0.435-0.456-0.435C143.305,283.289,143.102,283.483,143.102,283.723"/>
	</g>
	<g>
		<path fill="#C7EAFB" d="M288.547,304.641c0,1.528-1.292,2.771-2.884,2.771h-37.571c-1.595,0-2.888-1.242-2.888-2.771v-32.793
			c0-1.535,1.292-2.774,2.888-2.774h37.571c1.593,0,2.884,1.239,2.884,2.774V304.641z"/>
		<path d="M282.66,280.532h-3.554v-1.503l3.65-4.713h1.522v4.864h1.118v1.352h-1.118v1.87h-1.618V280.532z M282.66,276.372h-0.038
			l-2.172,2.809h2.21V276.372z"/>
		<path fill="#FFFFFF" d="M274.486,285.723c0.83,0,1.506,0.647,1.506,1.446c0,0.798-0.676,1.446-1.506,1.446h0.01h-3.847
			l0.009,9.297v-0.079c0,0.799-0.73,1.446-1.561,1.446c-0.831,0-1.56-0.647-1.56-1.446v0.012V293.2l0.005,0.014
			c0-0.399-0.221-0.722-0.632-0.722h-0.004c-0.415,0-0.633,0.322-0.633,0.722l0.004-0.014v4.646l0.002-0.012
			c0,0.799-0.732,1.446-1.562,1.446s-1.562-0.647-1.562-1.446v0.079l0.009-9.297h-3.846h0.005c-0.831,0-1.501-0.648-1.501-1.446
			c0-0.799,0.671-1.446,1.501-1.446H274.486z"/>
		<path d="M259.327,285.288c-1.077,0-1.954,0.845-1.954,1.882c0,1.039,0.877,1.882,1.954,1.882h3.388c0,0.792-0.01,8.861-0.01,8.861
			c0,0.01,0.007,0.015,0.007,0.027c0.061,0.977,0.955,1.775,2.008,1.775c1.091,0,2.015-0.861,2.015-1.882
			c0,0-0.002-0.005-0.002-0.012V293.2v-0.007c0.002-0.179,0.064-0.268,0.176-0.268c0.117,0,0.175,0.094,0.177,0.274v4.622
			c0,0.007-0.002,0.012-0.002,0.012c0,1.021,0.923,1.882,2.015,1.882c1.054,0,1.947-0.799,2.009-1.771
			c0.002-0.01,0.008-0.021,0.008-0.031c0,0-0.008-8.064-0.013-8.861h3.394c1.07,0,1.946-0.843,1.946-1.882
			c0-1.037-0.876-1.882-1.956-1.882H259.327z M258.282,287.169c0-0.554,0.469-1.004,1.044-1.004h15.16
			c0.581,0,1.051,0.45,1.051,1.004c0,0.558-0.471,1.01-1.051,1.01h-3.837c-0.122,0-0.238,0.051-0.323,0.128
			c-0.083,0.084-0.13,0.197-0.13,0.309c0,0,0.008,9.062,0.008,9.218c0,0.544-0.516,1.012-1.107,1.012
			c-0.583,0-1.094-0.466-1.106-0.995c0,0,0.002,0,0.002-0.005v-4.622c0,0,0.003-0.008,0.003-0.01c0-0.684-0.448-1.157-1.085-1.157
			c-0.645,0-1.092,0.474-1.092,1.157c0,0.002,0.007,0.01,0.007,0.01v4.622v0.005c-0.012,0.529-0.523,0.995-1.106,0.995
			c-0.589,0-1.109-0.468-1.109-1.012c0-0.156,0.013-9.218,0.013-9.218c0-0.111-0.048-0.225-0.135-0.309
			c-0.084-0.077-0.2-0.128-0.322-0.128h-3.846C258.751,288.179,258.282,287.727,258.282,287.169"/>
		<path fill="#FFFFFF" d="M270.801,277.437c-0.71,0-1.323,0.398-1.614,0.972c-0.622-0.479-1.415-0.771-2.279-0.771
			c-0.861,0-1.653,0.291-2.278,0.771c-0.29-0.573-0.903-0.972-1.614-0.972c-0.99,0-1.791,0.77-1.791,1.727
			c0,0.95,0.801,1.719,1.791,1.719c0.091,0,0.177-0.006,0.263-0.018c-0.005,0.09-0.01,0.184-0.01,0.274
			c0,1.938,1.628,3.501,3.639,3.501c2.011,0,3.641-1.563,3.641-3.501c0-0.091-0.003-0.185-0.011-0.274
			c0.086,0.012,0.173,0.018,0.264,0.018c0.99,0,1.791-0.769,1.791-1.719C272.592,278.207,271.791,277.437,270.801,277.437"/>
		<path d="M269.069,277.794c-0.649-0.38-1.397-0.592-2.161-0.592c-0.764,0-1.511,0.212-2.157,0.592
			c-0.423-0.493-1.056-0.793-1.735-0.793c-1.239,0-2.244,0.972-2.244,2.162c0,1.121,0.903,2.053,2.049,2.148
			c0.095,2.089,1.889,3.764,4.086,3.764s3.993-1.675,4.087-3.764c1.148-0.096,2.052-1.027,2.052-2.148
			c0-1.19-1.011-2.162-2.246-2.162C270.122,277.001,269.489,277.301,269.069,277.794 M269.288,278.833
			c0.134-0.03,0.249-0.11,0.308-0.234c0.228-0.446,0.688-0.728,1.206-0.728c0.737,0,1.337,0.581,1.337,1.292
			c0,0.707-0.601,1.283-1.337,1.283c-0.067,0-0.131-0.005-0.199-0.011c-0.133-0.023-0.266,0.026-0.367,0.111
			c-0.102,0.089-0.156,0.224-0.149,0.351l0.008,0.241c0,1.692-1.431,3.065-3.187,3.065s-3.187-1.373-3.187-3.065l0.008-0.241
			c0.009-0.127-0.047-0.262-0.147-0.351c-0.098-0.085-0.232-0.135-0.37-0.111c-0.066,0.006-0.129,0.011-0.197,0.011
			c-0.736,0-1.338-0.576-1.338-1.283c0-0.711,0.602-1.292,1.338-1.292c0.521,0,0.981,0.281,1.205,0.728
			c0.06,0.124,0.174,0.204,0.307,0.234c0.137,0.032,0.277,0,0.387-0.084c0.572-0.442,1.263-0.676,1.994-0.676
			c0.735,0,1.424,0.233,1.998,0.676C269.01,278.833,269.152,278.866,269.288,278.833"/>
		<path d="M268.354,281.178c0,0.765-0.645,1.391-1.447,1.391c-0.798,0-1.444-0.626-1.444-1.391c0-0.771,0.646-1.396,1.444-1.396
			C267.709,279.783,268.354,280.408,268.354,281.178"/>
	</g>
	<g>
		<path fill="#F7941E" d="M229.108,304.641c0,1.528-1.286,2.771-2.884,2.771h-37.571c-1.59,0-2.884-1.242-2.884-2.771v-32.793
			c0-1.535,1.294-2.774,2.884-2.774h37.571c1.598,0,2.884,1.239,2.884,2.774V304.641z"/>
		<path d="M220.707,277.793c0.732,0.06,1.789-0.08,1.789-1c0-0.68-0.566-1.075-1.189-1.075c-0.854,0-1.308,0.611-1.296,1.442h-1.623
			c0.061-1.651,1.176-2.793,2.906-2.793c1.345,0,2.82,0.794,2.82,2.24c0,0.76-0.393,1.44-1.178,1.647v0.023
			c0.924,0.2,1.494,0.937,1.494,1.836c0,1.697-1.481,2.657-3.124,2.657c-1.885,0-3.159-1.082-3.123-2.947h1.621
			c0.037,0.882,0.494,1.597,1.478,1.597c0.765,0,1.37-0.508,1.37-1.272c0-1.223-1.12-1.2-1.946-1.2V277.793z"/>
		<path fill="#FFFFFF" d="M212.086,283.333c0,3.687-3.109,6.678-6.944,6.678c-3.836,0-6.95-2.991-6.95-6.678
			c0-3.691,3.113-6.68,6.95-6.68C208.977,276.654,212.086,279.642,212.086,283.333"/>
		<path d="M197.3,283.333c0,4.154,3.517,7.539,7.843,7.539c4.319,0,7.837-3.385,7.837-7.539c0-4.16-3.518-7.543-7.837-7.543
			C200.817,275.791,197.3,279.173,197.3,283.333 M199.09,283.333c0-3.21,2.713-5.82,6.052-5.82c3.332,0,6.049,2.61,6.049,5.82
			c0,3.203-2.717,5.817-6.049,5.817C201.804,289.151,199.09,286.537,199.09,283.333"/>
		<rect x="204.66" y="290.447" width="0.959" height="6.147"/>
		<path d="M204.66,290.107c-0.196,0-0.356,0.149-0.356,0.34v6.147c0,0.19,0.161,0.34,0.356,0.34h0.959
			c0.197,0,0.359-0.149,0.359-0.34v-6.147c0-0.19-0.162-0.34-0.359-0.34H204.66z M205.262,296.249h-0.241v-5.456h0.241V296.249z"/>
		<rect x="201.946" y="293.194" width="6.39" height="0.92"/>
		<path d="M201.946,292.853c-0.197,0-0.356,0.15-0.356,0.341v0.92c0,0.189,0.159,0.347,0.356,0.347h6.39
			c0.197,0,0.354-0.157,0.354-0.347v-0.92c0-0.19-0.157-0.341-0.354-0.341H201.946z M207.974,293.773h-5.67v-0.232h5.67V293.773z"/>
	</g>
	<g>
		<path fill="#F8C1D9" d="M347.984,304.641c0,1.528-1.289,2.771-2.883,2.771h-37.578c-1.59,0-2.884-1.242-2.884-2.771v-32.793
			c0-1.535,1.294-2.774,2.884-2.774h37.578c1.594,0,2.883,1.239,2.883,2.774V304.641z"/>
		<path d="M343.08,275.486h-3.468l-0.336,1.836l0.023,0.021c0.454-0.445,0.987-0.62,1.645-0.62c1.654,0,2.592,1.236,2.592,2.748
			c0,1.659-1.427,2.944-3.118,2.909c-1.633,0-3.1-0.866-3.121-2.563H339c0.084,0.714,0.638,1.21,1.381,1.21
			c0.89,0,1.452-0.751,1.452-1.557c0-0.843-0.54-1.512-1.452-1.512c-0.612,0-0.949,0.205-1.285,0.647h-1.538l0.829-4.472h4.693
			V275.486z"/>
		<path fill="#FFFFFF" d="M326.194,293.795c-0.073,1.592-0.36,3.954-0.48,6.153c-0.434,0.034-2.258,0.034-2.63,0.034
			c-0.116-2.229-0.234-2.731-0.506-6.226h-3.911c2.013-2.188,1.896-8.665,1.896-8.665c0-1.927,1.625-3.568,3.628-3.568
			c1.848,0,2.994,1.604,2.994,3.297c2.88,0,5.138,1.482,5.138,4.303c0,2.563-2.079,4.668-5.328,4.668
			C326.994,293.792,327.874,293.769,326.194,293.795"/>
		<path d="M324.19,281.072c-1.091,0-2.124,0.431-2.904,1.201c-0.768,0.763-1.191,1.764-1.191,2.819c0,0.072,0.089,6.331-1.783,8.364
			c-0.12,0.135-0.15,0.323-0.075,0.484c0.075,0.163,0.244,0.269,0.431,0.269h3.478c0.101,1.273,0.178,2.127,0.241,2.82
			c0.097,0.998,0.16,1.718,0.228,2.972c0.012,0.238,0.221,0.429,0.471,0.429c1.009,0,2.289-0.005,2.66-0.027
			c0.242-0.012,0.428-0.196,0.442-0.426c0.061-1.149,0.166-2.317,0.268-3.45c0.076-0.827,0.145-1.603,0.187-2.283
			c0.167,0,0.219-0.007,0.342-0.007h0.012h0.01h-0.002h0.116h0.021c0.012,0,0.082-0.006,0.082-0.006h-0.022
			c3.255-0.082,5.596-2.203,5.596-5.107c0-1.474-0.575-2.708-1.665-3.557c-0.901-0.71-2.107-1.112-3.499-1.184
			c-0.082-0.799-0.388-1.54-0.884-2.128C326.103,281.491,325.194,281.072,324.19,281.072 M321.034,285.333v-0.246
			c0-1.681,1.446-3.11,3.156-3.11c1.64,0,2.525,1.469,2.525,2.845c0,0.25,0.211,0.45,0.47,0.45c2.258,0,4.669,1.016,4.669,3.853
			c0,2.413-1.993,4.162-4.751,4.21h-0.093l-0.824,0.012c-0.248,0.004-0.448,0.195-0.462,0.435c-0.034,0.743-0.118,1.679-0.208,2.67
			c-0.086,0.954-0.181,2.024-0.244,3.065c-0.386,0.006-0.983,0.01-1.745,0.01c-0.058-1.016-0.122-1.687-0.202-2.574
			c-0.073-0.765-0.16-1.718-0.276-3.228c-0.02-0.233-0.224-0.418-0.471-0.418h-3.02
			C320.945,290.899,321.034,286.438,321.034,285.333"/>
		<path d="M329.917,290.759c0.966-0.631,1.176-1.675,0.637-2.435c-0.592-0.837-1.577-0.837-2.43-0.279
			c-0.358-0.503-1.038-0.754-1.586-0.396c-0.596,0.39-0.748,1.173-0.344,1.741"/>
		<path d="M326.45,287.526c-0.322,0.212-0.539,0.531-0.611,0.899s0.008,0.743,0.228,1.05c0.05,0.071,3.869,1.451,3.94,1.407
			c0.517-0.342,0.859-0.812,0.962-1.336c0.088-0.45-0.012-0.919-0.286-1.306c-0.579-0.821-1.557-0.961-2.528-0.391
			c-0.221-0.255-0.513-0.442-0.832-0.496C327.011,287.292,326.713,287.354,326.45,287.526 M326.146,288.481
			c0.058-0.291,0.23-0.542,0.481-0.71c0.189-0.121,0.408-0.168,0.634-0.121c0.286,0.049,0.548,0.222,0.73,0.479
			c0.022,0.034,0.062,0.056,0.098,0.065c0.044,0.007,0.086,0,0.122-0.027c0.672-0.44,1.609-0.608,2.213,0.241
			c0.227,0.322,0.311,0.711,0.234,1.082c-0.084,0.442-0.38,0.85-0.828,1.142c0.066-0.044-3.555-1.394-3.503-1.324
			C326.152,289.063,326.088,288.771,326.146,288.481"/>
		<path d="M329.917,290.759c0,0-0.823,0.52-1.955,0.917c-0.912-1.057-1.768-2.285-1.768-2.285"/>
		<path d="M326.108,289.269c-0.073,0.046-0.09,0.14-0.042,0.206c0.008,0.012,0.867,1.245,1.775,2.302
			c0.044,0.043,0.114,0.065,0.176,0.043c1.134-0.403,1.951-0.916,1.986-0.938c0.073-0.046,0.093-0.138,0.045-0.207
			c-0.048-0.065-0.142-0.089-0.216-0.043c-0.01,0.004-0.775,0.483-1.819,0.863c-0.875-1.021-1.682-2.177-1.686-2.188
			C326.276,289.241,326.182,289.224,326.108,289.269"/>
		<path fill="#FFFFFF" d="M320.887,277.526c0,1.703-0.466,2.204-0.672,2.759c1.188,0,2.635-0.012,3.532-0.012
			c1.577,0,2.858-1.229,2.858-2.747c0-1.518-1.281-2.751-2.858-2.751C322.166,274.775,320.887,276.008,320.887,277.526"/>
		<path d="M320.417,277.526c0,1.229-0.261,1.771-0.466,2.201c-0.064,0.14-0.126,0.268-0.18,0.407
			c-0.049,0.139-0.028,0.296,0.061,0.412c0.087,0.124,0.229,0.191,0.383,0.191l2.007-0.008l1.525-0.004
			c1.834,0,3.327-1.436,3.327-3.2c0-1.77-1.493-3.203-3.327-3.203C321.91,274.323,320.417,275.756,320.417,277.526 M321.355,277.526
			c0-1.267,1.072-2.3,2.392-2.3c1.313,0,2.388,1.033,2.388,2.3c0,1.268-1.074,2.295-2.388,2.295l-1.532,0.007
			c0,0-0.689,0-1.28,0.005C321.143,279.363,321.355,278.707,321.355,277.526"/>
	</g>
	<g>
		<path fill="#F15B40" d="M407.418,304.637c0,1.53-1.287,2.772-2.885,2.772h-37.572c-1.591,0-2.883-1.242-2.883-2.772v-32.789
			c0-1.528,1.292-2.772,2.883-2.772h37.572c1.598,0,2.885,1.244,2.885,2.772V304.637z"/>
		<path d="M400.427,276.082c-0.11-0.542-0.54-1.006-1.131-1.006c-1.232,0-1.558,1.559-1.609,2.458l0.023,0.027
			c0.47-0.638,1.085-0.905,1.899-0.905c0.721,0,1.452,0.325,1.932,0.833c0.447,0.496,0.649,1.167,0.649,1.802
			c0,1.647-1.189,2.955-2.943,2.955c-2.543,0-3.229-2.132-3.229-4.177c0-1.976,0.913-4.228,3.305-4.228
			c1.451,0,2.53,0.822,2.724,2.24H400.427z M397.846,279.392c0,0.754,0.502,1.502,1.355,1.502c0.819,0,1.283-0.748,1.283-1.479
			c0-0.759-0.407-1.518-1.283-1.518C398.289,277.897,397.846,278.599,397.846,279.392"/>
		<path fill="#FFFFFF" d="M388.077,279.066l2.961,2.758v12.597c0,0.904-0.273,2.05-2.131,2.05h-8.816c-1.861,0-2.13-1.146-2.13-2.05
			v-12.597l2.961-2.758"/>
		<path d="M380.605,278.747l-2.961,2.765c-0.086,0.084-0.14,0.194-0.14,0.313v12.597c0,2.054,1.407,2.485,2.588,2.485h8.814
			c1.179,0,2.585-0.432,2.585-2.485v-12.597c0-0.118-0.051-0.229-0.142-0.313l-2.961-2.765c-0.177-0.168-0.463-0.162-0.638,0.012
			c-0.087,0.084-0.128,0.194-0.128,0.308c0,0.111,0.046,0.223,0.136,0.313c0,0,2.573,2.395,2.82,2.63v12.412
			c0,1.145-0.481,1.614-1.673,1.614h-8.814c-1.192,0-1.676-0.47-1.676-1.614v-12.412c0.248-0.235,2.821-2.63,2.821-2.63
			c0.088-0.09,0.136-0.201,0.136-0.313c0-0.113-0.044-0.224-0.128-0.308C381.072,278.584,380.786,278.579,380.605,278.747"/>
		<rect x="378.759" y="276.28" fill="#FFFFFF" width="11.479" height="2.573"/>
		<path d="M378.759,275.837c-0.248,0-0.452,0.194-0.452,0.442v2.573c0,0.239,0.204,0.436,0.452,0.436h11.479
			c0.251,0,0.454-0.196,0.454-0.436v-2.573c0-0.248-0.203-0.442-0.454-0.442H378.759z M389.783,278.417h-10.572v-1.701h10.572
			V278.417z"/>
		<polygon points="383.412,286.352 380.757,286.352 380.757,288.446 383.412,288.446 383.412,290.997 385.586,290.997 
			385.586,288.446 388.239,288.446 388.239,286.352 385.586,286.352 385.586,283.799 383.412,283.799 		"/>
		<path d="M383.412,283.565c-0.137,0-0.245,0.106-0.245,0.234v2.319h-2.41c-0.064,0-0.128,0.021-0.175,0.065
			c-0.046,0.046-0.069,0.105-0.069,0.168v2.094c0,0.128,0.106,0.235,0.244,0.235h2.41v2.315c0,0.134,0.108,0.24,0.245,0.24h2.174
			c0.135,0,0.244-0.106,0.244-0.24v-2.315h2.409c0.137,0,0.25-0.107,0.25-0.235v-2.094c0-0.13-0.113-0.233-0.25-0.233h-2.409v-2.319
			c0-0.128-0.109-0.234-0.244-0.234H383.412z M385.339,284.035v2.317c0,0.134,0.107,0.24,0.247,0.24h2.41v1.619h-2.41
			c-0.14,0-0.247,0.1-0.247,0.234v2.316h-1.68v-2.316c0-0.135-0.11-0.234-0.247-0.234h-2.408v-1.619h2.408
			c0.067,0,0.127-0.028,0.171-0.072c0.048-0.046,0.076-0.101,0.076-0.168v-2.317H385.339z"/>
	</g>
	<g>
		<path fill="#8DC63F" d="M466.834,304.617c0,1.529-1.29,2.771-2.883,2.771h-37.53c-1.594,0-2.885-1.242-2.885-2.771v-32.748
			c0-1.527,1.291-2.771,2.885-2.771h37.53c1.593,0,2.883,1.244,2.883,2.771V304.617z"/>
		<path d="M463.067,274.006c-1.762,1.478-2.721,4.511-2.744,6.666h-1.824c0.191-2.389,1.224-4.704,2.818-6.548h-3.98v-1.523h5.73
			V274.006z"/>
		<path fill="#FFFFFF" d="M438.564,281.646c2.289,1.252,2.737,1.562,4.622,2.794c-0.289-2.031-0.289-2.66-0.397-5.237
			c-0.112-2.701-2.767-3.799-4.543-2.778C436.469,277.452,435.961,280.216,438.564,281.646"/>
		<path d="M438.001,276.034c-1.058,0.614-1.716,1.729-1.716,2.911v0.038c0.016,1.239,0.761,2.354,2.045,3.059
			c2.2,1.205,2.667,1.518,4.416,2.666l0.171,0.113c0.155,0.099,0.36,0.105,0.52,0.008c0.16-0.093,0.246-0.272,0.221-0.45
			c-0.252-1.791-0.282-2.454-0.36-4.424l-0.032-0.77c-0.056-1.416-0.764-2.581-1.939-3.189
			C440.271,275.442,438.994,275.46,438.001,276.034 M438.801,281.249L438.801,281.249c-0.994-0.552-1.554-1.354-1.563-2.275v-0.021
			c0-0.859,0.489-1.69,1.253-2.132c0.708-0.412,1.621-0.418,2.386-0.022c0.867,0.454,1.393,1.338,1.438,2.427l0.032,0.765
			c0.062,1.551,0.095,2.326,0.235,3.503C441.363,282.695,440.7,282.288,438.801,281.249"/>
		<path fill="#FFFFFF" d="M438.369,289.025c1.947-1.701,2.388-2.019,4.192-3.357c-2.101-0.365-2.722-0.559-5.301-1.261
			c-2.707-0.731-4.617,1.359-4.152,3.301C433.578,289.649,436.153,290.964,438.369,289.025"/>
		<path d="M433.634,284.756c-0.871,0.798-1.247,1.966-0.99,3.054c0.283,1.171,1.2,2.123,2.391,2.48
			c1.229,0.368,2.563,0.034,3.656-0.927c1.869-1.633,2.32-1.968,3.995-3.212l0.165-0.124c0.15-0.111,0.217-0.293,0.172-0.474
			c-0.044-0.178-0.192-0.308-0.377-0.339c-1.85-0.324-2.514-0.503-4.486-1.038l-0.772-0.206
			C435.968,283.581,434.6,283.871,433.634,284.756 M435.317,289.416c-0.854-0.259-1.543-0.965-1.743-1.81
			c-0.189-0.774,0.09-1.615,0.718-2.191c0.712-0.65,1.748-0.858,2.841-0.567l0.766,0.212c1.548,0.419,2.33,0.631,3.536,0.863
			c-1.165,0.87-1.771,1.352-3.386,2.767C437.197,289.431,436.229,289.687,435.317,289.416"/>
		<path fill="#FFFFFF" d="M449.637,289.041c-1.948-1.701-2.39-2.024-4.193-3.362c2.099-0.364,2.721-0.56,5.301-1.255
			c2.707-0.736,4.615,1.355,4.148,3.301C454.427,289.667,451.855,290.983,449.637,289.041"/>
		<path d="M450.616,283.983l-0.766,0.206c-1.976,0.535-2.642,0.718-4.491,1.038c-0.188,0.031-0.337,0.167-0.377,0.345
			c-0.045,0.173,0.02,0.356,0.168,0.468l0.165,0.122c1.676,1.244,2.126,1.58,4.003,3.221c1.089,0.954,2.421,1.293,3.65,0.92
			c1.191-0.358,2.106-1.306,2.388-2.477c0.264-1.087-0.114-2.259-0.98-3.056C453.405,283.881,452.037,283.595,450.616,283.983
			 M450.108,285.071l0.764-0.207c1.091-0.297,2.129-0.091,2.839,0.568c0.632,0.575,0.907,1.411,0.72,2.188
			c-0.201,0.843-0.886,1.556-1.748,1.812c-0.909,0.273-1.877,0.018-2.729-0.73c-1.613-1.412-2.221-1.895-3.385-2.761
			C447.773,285.707,448.558,285.495,450.108,285.071"/>
		<path fill="#FFFFFF" d="M445.18,279.18c-0.076,2.532-0.146,3.062-0.396,5.238c1.728-1.201,2.307-1.495,4.619-2.797
			c2.432-1.359,2.192-4.137,0.417-5.164C448.045,275.438,445.267,276.301,445.18,279.18"/>
		<path d="M446.552,276c-1.128,0.594-1.804,1.745-1.848,3.168c-0.076,2.434-0.138,2.978-0.372,4.998l-0.021,0.202
			c-0.021,0.178,0.071,0.355,0.233,0.444c0.161,0.09,0.364,0.084,0.516-0.022c1.527-1.058,2.126-1.395,3.898-2.387l0.686-0.385
			c1.278-0.715,2.015-1.863,2.021-3.146c0.012-1.155-0.604-2.229-1.601-2.805C448.995,275.449,447.646,275.422,446.552,276
			 M447.009,276.804c0.788-0.419,1.794-0.396,2.567,0.051c0.702,0.406,1.14,1.17,1.14,1.996v0.016
			c-0.006,0.949-0.572,1.813-1.553,2.359l-0.688,0.386c-1.39,0.78-2.091,1.176-3.103,1.846c0.158-1.405,0.222-2.158,0.283-4.261
			C445.69,278.092,446.172,277.245,447.009,276.804"/>
		<path d="M444.959,286.66h-1.836c-0.122,0-0.237,0.051-0.321,0.133c-0.087,0.084-0.131,0.201-0.131,0.317
			c0.066,2.562-0.484,6.5-1.153,8.263c-0.051,0.134-0.029,0.283,0.056,0.399c0.084,0.119,0.222,0.185,0.37,0.185h4.2
			c0.146,0,0.285-0.065,0.369-0.189c0.084-0.118,0.106-0.261,0.056-0.395c-0.776-2.054-1.229-5.294-1.158-8.267
			c0.008-0.116-0.04-0.229-0.126-0.313C445.2,286.71,445.084,286.66,444.959,286.66"/>
		<path fill="#FFFFFF" d="M444.5,287.531c0,0.07-0.002,0.143-0.002,0.215c0,2.617,0.384,5.368,1.014,7.342h-2.949
			c0.58-1.912,1.022-5.137,1.022-7.542v-0.01C443.925,287.536,444.158,287.536,444.5,287.531"/>
	</g>
	<path fill="#14B1E7" d="M526.293,304.637c0,1.53-1.289,2.772-2.884,2.772h-37.577c-1.589,0-2.882-1.242-2.882-2.772v-32.789
		c0-1.528,1.293-2.772,2.882-2.772h37.577c1.595,0,2.884,1.244,2.884,2.772V304.637z"/>
	<path fill="#C8C8C8" d="M526.293,266.304c0,1.53-1.289,2.772-2.884,2.772h-37.577c-1.589,0-2.882-1.242-2.882-2.772V25.402
		c0-1.528,1.293-2.772,2.882-2.772h37.577c1.595,0,2.884,1.244,2.884,2.772V266.304z"/>
	<path d="M519.754,273.749c2.09,0,2.807,1.384,2.807,2.166c0,0.799-0.431,1.446-1.223,1.702v0.019c0.996,0.222,1.57,0.96,1.57,1.976
		c0,1.698-1.582,2.541-3.143,2.541c-1.621,0-3.193-0.782-3.193-2.529c0-1.027,0.601-1.752,1.586-1.987v-0.019
		c-0.82-0.222-1.242-0.869-1.242-1.663C516.916,274.495,518.384,273.749,519.754,273.749 M519.766,280.917
		c0.815,0,1.438-0.557,1.438-1.362c0-0.774-0.648-1.295-1.438-1.295c-0.832,0-1.49,0.452-1.49,1.284S518.95,280.917,519.766,280.917
		 M519.754,277.166c0.694,0,1.259-0.368,1.259-1.067c0-0.412-0.202-1.115-1.259-1.115c-0.687,0-1.286,0.4-1.286,1.115
		C518.468,276.807,519.067,277.166,519.754,277.166"/>
	<path d="M496.102,279.061c0,0.753-0.634,1.363-1.419,1.363c-0.784,0-1.42-0.61-1.42-1.363c0-0.754,0.636-1.367,1.42-1.367
		C495.468,277.694,496.102,278.307,496.102,279.061"/>
	<path d="M492.543,279.061c0,1.135,0.96,2.057,2.14,2.057c1.178,0,2.135-0.922,2.135-2.057c0-1.134-0.957-2.054-2.135-2.054
		C493.503,277.007,492.543,277.927,492.543,279.061 M493.982,279.061c0-0.374,0.314-0.676,0.7-0.676
		c0.384,0,0.699,0.302,0.699,0.676c0,0.37-0.315,0.669-0.699,0.669C494.297,279.73,493.982,279.431,493.982,279.061"/>
	<path d="M500.28,279.061c0,0.753-0.634,1.363-1.418,1.363c-0.783,0-1.421-0.61-1.421-1.363c0-0.754,0.638-1.367,1.421-1.367
		C499.646,277.694,500.28,278.307,500.28,279.061"/>
	<path d="M496.724,279.061c0,1.135,0.96,2.057,2.139,2.057s2.136-0.922,2.136-2.057c0-1.134-0.957-2.054-2.136-2.054
		S496.724,277.927,496.724,279.061 M498.161,279.061c0-0.374,0.314-0.676,0.701-0.676s0.7,0.302,0.7,0.676
		c0,0.37-0.313,0.669-0.7,0.669S498.161,279.431,498.161,279.061"/>
	<path d="M504.462,279.061c0,0.753-0.636,1.363-1.423,1.363c-0.779,0-1.417-0.61-1.417-1.363c0-0.754,0.638-1.367,1.417-1.367
		C503.826,277.694,504.462,278.307,504.462,279.061"/>
	<path d="M500.904,279.061c0,1.135,0.958,2.057,2.135,2.057c1.181,0,2.14-0.922,2.14-2.057c0-1.134-0.959-2.054-2.14-2.054
		C501.862,277.007,500.904,277.927,500.904,279.061 M502.342,279.061c0-0.374,0.313-0.676,0.697-0.676
		c0.389,0,0.703,0.302,0.703,0.676c0,0.37-0.314,0.669-0.703,0.669C502.655,279.73,502.342,279.431,502.342,279.061"/>
	<path d="M508.637,279.061c0,0.753-0.634,1.363-1.419,1.363c-0.78,0-1.416-0.61-1.416-1.363c0-0.754,0.636-1.367,1.416-1.367
		C508.003,277.694,508.637,278.307,508.637,279.061"/>
	<path d="M505.082,279.061c0,1.135,0.96,2.057,2.136,2.057c1.184,0,2.141-0.922,2.141-2.057c0-1.134-0.957-2.054-2.141-2.054
		C506.042,277.007,505.082,277.927,505.082,279.061 M506.521,279.061c0-0.374,0.315-0.676,0.697-0.676
		c0.39,0,0.703,0.302,0.703,0.676c0,0.37-0.313,0.669-0.703,0.669C506.836,279.73,506.521,279.431,506.521,279.061"/>
	<path d="M508.867,296.041v-11.955c0-0.263,0.224-0.479,0.498-0.479c0.277,0,0.501,0.216,0.501,0.479v5.591l1.05-0.027v-5.762
		c0-1.225-1.033-2.212-2.305-2.212H493.32c-1.271,0-2.301,0.987-2.301,2.212v5.762l1.094,0.027v-5.591
		c0-0.263,0.225-0.479,0.498-0.479c0.275,0,0.497,0.216,0.497,0.479v11.955h1.19v-7.471c0-0.263,0.224-0.479,0.499-0.479
		c0.274,0,0.496,0.216,0.496,0.479v7.471h1.111l0.004-11.955c0-0.263,0.221-0.479,0.496-0.479c0.276,0,0.5,0.216,0.5,0.479v11.955
		h1.073v-7.471c0-0.263,0.227-0.479,0.5-0.479c0.272,0,0.496,0.216,0.496,0.479v7.471h1.113v-11.955
		c0-0.263,0.222-0.479,0.496-0.479c0.277,0,0.498,0.216,0.498,0.479v11.955h1.04v-7.471c0-0.263,0.221-0.479,0.495-0.479
		c0.275,0,0.498,0.216,0.498,0.479v7.471h1.113v-11.955c0-0.263,0.223-0.479,0.495-0.479c0.279,0,0.499,0.216,0.499,0.479v11.955
		h1.075v-7.471c0-0.263,0.224-0.479,0.499-0.479c0.272,0,0.496,0.216,0.496,0.479v7.471H508.867z"/>
	<path d="M493.318,280.983c-1.663,0-3.021,1.298-3.021,2.904v6.437c0,0,1.951,0.043,2.094,0.051v6.359h17.197v-6.359
		c0.142-0.008,2.045-0.051,2.045-0.051v-6.437c0-1.606-1.354-2.904-3.022-2.904H493.318z M493.318,282.367h15.293
		c0.56,0,1.045,0.274,1.327,0.692c-0.172-0.084-0.363-0.14-0.571-0.14c-0.672,0-1.216,0.525-1.216,1.166v3.652
		c-0.222-0.212-0.523-0.342-0.854-0.342c-0.333,0-0.635,0.13-0.853,0.342v-3.652c0-0.641-0.548-1.166-1.22-1.166
		c-0.67,0-1.217,0.525-1.217,1.166v3.692c-0.224-0.229-0.536-0.382-0.891-0.382c-0.313,0-0.598,0.118-0.815,0.308v-3.618
		c0-0.641-0.546-1.166-1.216-1.166c-0.674,0-1.22,0.525-1.22,1.166v3.692c-0.22-0.229-0.538-0.382-0.888-0.382
		c-0.335,0-0.636,0.13-0.855,0.337v-3.647c0-0.641-0.547-1.166-1.218-1.166c-0.669,0-1.216,0.525-1.216,1.166v3.692
		c-0.222-0.229-0.54-0.382-0.892-0.382c-0.396,0-0.745,0.186-0.969,0.47v-3.78c0-0.641-0.546-1.166-1.218-1.166
		c-0.232,0-0.45,0.066-0.638,0.179C492.252,282.658,492.751,282.367,493.318,282.367"/>
	<path fill="#FFFFFF" d="M496.102,279.061c0,0.753-0.634,1.363-1.419,1.363c-0.784,0-1.42-0.61-1.42-1.363
		c0-0.754,0.636-1.367,1.42-1.367C495.468,277.694,496.102,278.307,496.102,279.061"/>
	<path fill="#FFFFFF" d="M500.28,279.061c0,0.753-0.634,1.363-1.418,1.363c-0.783,0-1.421-0.61-1.421-1.363
		c0-0.754,0.638-1.367,1.421-1.367C499.646,277.694,500.28,278.307,500.28,279.061"/>
	<path fill="#FFFFFF" d="M504.462,279.061c0,0.753-0.636,1.363-1.423,1.363c-0.779,0-1.417-0.61-1.417-1.363
		c0-0.754,0.638-1.367,1.417-1.367C503.826,277.694,504.462,278.307,504.462,279.061"/>
	<path fill="#FFFFFF" d="M508.637,279.061c0,0.753-0.634,1.363-1.419,1.363c-0.78,0-1.416-0.61-1.416-1.363
		c0-0.754,0.636-1.367,1.416-1.367C508.003,277.694,508.637,278.307,508.637,279.061"/>
	<path fill="#FFFFFF" d="M508.867,296.041v-11.955c0-0.263,0.224-0.479,0.498-0.479c0.277,0,0.501,0.216,0.501,0.479v5.591
		l1.05-0.027v-5.762c0-1.225-1.033-2.212-2.305-2.212H493.32c-1.271,0-2.301,0.987-2.301,2.212v5.762l1.094,0.027v-5.591
		c0-0.263,0.225-0.479,0.498-0.479c0.275,0,0.497,0.216,0.497,0.479v11.955h1.19v-7.471c0-0.263,0.224-0.479,0.499-0.479
		c0.274,0,0.496,0.216,0.496,0.479v7.471h1.111l0.004-11.955c0-0.263,0.221-0.479,0.496-0.479c0.276,0,0.5,0.216,0.5,0.479v11.955
		h1.073v-7.471c0-0.263,0.227-0.479,0.5-0.479c0.272,0,0.496,0.216,0.496,0.479v7.471h1.113v-11.955
		c0-0.263,0.222-0.479,0.496-0.479c0.277,0,0.498,0.216,0.498,0.479v11.955h1.04v-7.471c0-0.263,0.221-0.479,0.495-0.479
		c0.275,0,0.498,0.216,0.498,0.479v7.471h1.113v-11.955c0-0.263,0.223-0.479,0.495-0.479c0.279,0,0.499,0.216,0.499,0.479v11.955
		h1.075v-7.471c0-0.263,0.224-0.479,0.499-0.479c0.272,0,0.496,0.216,0.496,0.479v7.471H508.867z"/>
	<g>
		<path fill="#FFDD00" d="M110.238,304.639c0,1.537-1.291,2.774-2.885,2.774H69.782c-1.594,0-2.888-1.237-2.888-2.774v-32.793
			c0-1.533,1.294-2.774,2.888-2.774h37.571c1.594,0,2.885,1.241,2.885,2.774V304.639z"/>
		<path d="M105.016,282.311h-1.707v-5.243h-2.114v-1.237c1.188,0.027,2.282-0.368,2.462-1.605h1.358V282.311z"/>
		<path fill="#FFFFFF" d="M98.395,294.485c-2.81,1.01-4.282,5.196-6.955,5.196h-7.222c-2.676,0-4.148-4.187-6.958-5.196"/>
		<path d="M98.214,294.027c-1.41,0.508-2.458,1.682-3.472,2.819c-1.074,1.206-2.089,2.345-3.303,2.345h-7.222
			c-1.216,0-2.231-1.139-3.306-2.345c-1.014-1.138-2.061-2.312-3.468-2.819c-0.265-0.096-0.56,0.035-0.659,0.288
			c-0.099,0.255,0.035,0.536,0.3,0.632c1.164,0.418,2.124,1.496,3.054,2.537c1.175,1.321,2.394,2.688,4.08,2.688h7.222
			c1.685,0,2.903-1.367,4.079-2.688c0.93-1.041,1.889-2.119,3.055-2.537c0.263-0.096,0.396-0.377,0.297-0.632
			C98.772,294.062,98.48,293.931,98.214,294.027"/>
		<path d="M87.478,276.965c-0.206,0.086-0.302,0.314-0.214,0.517c0.714,1.596,1.495,4.042,0.056,6.789
			c-1.47,2.809-1.387,5.445,0.235,7.839c0.122,0.185,0.377,0.235,0.563,0.118c0.19-0.118,0.244-0.362,0.122-0.542
			c-1.457-2.145-1.518-4.521-0.191-7.058c1.597-3.049,0.743-5.718-0.032-7.455C87.926,276.971,87.683,276.879,87.478,276.965"/>
		<path d="M89.626,281.1c-0.206,0.092-0.296,0.323-0.204,0.521c0.457,0.957,0.768,3.017,0.033,4.587
			c-1.228,2.62-0.97,4.327,1.015,6.757c0.14,0.166,0.394,0.2,0.573,0.063c0.178-0.132,0.208-0.377,0.068-0.548
			c-1.799-2.207-2.014-3.597-0.911-5.948c0.886-1.898,0.451-4.216-0.031-5.238C90.072,281.1,89.833,281.013,89.626,281.1"/>
		<path d="M85.234,285.612c-1.597,2.04-1.648,3.431-0.227,5.952c0.494,0.867,0.517,1.476,0.093,2.405
			c-0.09,0.202,0.006,0.431,0.212,0.516c0.206,0.092,0.447-0.001,0.537-0.201c0.528-1.164,0.495-1.999-0.125-3.094
			c-1.274-2.263-1.242-3.311,0.163-5.105c0.134-0.175,0.099-0.42-0.082-0.552C85.625,285.405,85.37,285.437,85.234,285.612"/>
		<path d="M75.745,293.919c-0.282,0-0.51,0.22-0.51,0.492c0,0.27,0.229,0.491,0.51,0.491h24.169c0.281,0,0.509-0.222,0.509-0.491
			c0-0.272-0.229-0.492-0.509-0.492H75.745z"/>
	</g>
	<rect x="6.374" y="35.171" fill="none" width="38.26" height="247.789"/>
	<text transform="matrix(1 0 0 1 16.6626 43.6919)"><tspan x="0" y="0" font-family="'Roboto-Regular'" font-size="12">140%</tspan><tspan x="0" y="29" font-family="'Roboto-Regular'" font-size="12">120%</tspan><tspan x="0" y="58" font-family="'Roboto-Regular'" font-size="12">100%</tspan><tspan x="6.156" y="87" font-family="'Roboto-Regular'" font-size="12">80%</tspan><tspan x="6.156" y="116" font-family="'Roboto-Regular'" font-size="12">60%</tspan><tspan x="6.156" y="145" font-family="'Roboto-Regular'" font-size="12">40%</tspan><tspan x="6.156" y="174" font-family="'Roboto-Regular'" font-size="12">20%</tspan><tspan x="12.312" y="203" font-family="'Roboto-Regular'" font-size="12">0%</tspan></text>
	<g>
		<line fill="none" stroke="#000000" stroke-width="0.3" stroke-miterlimit="10" x1="51.626" y1="43.626" x2="56.376" y2="43.626"/>
		<line fill="none" stroke="#000000" stroke-width="0.3" stroke-miterlimit="10" x1="51.626" y1="72.626" x2="56.376" y2="72.626"/>
		
			<line fill="none" stroke="#000000" stroke-width="0.3" stroke-miterlimit="10" x1="51.626" y1="101.626" x2="56.376" y2="101.626"/>
		
			<line fill="none" stroke="#000000" stroke-width="0.3" stroke-miterlimit="10" x1="51.626" y1="130.626" x2="56.376" y2="130.626"/>
		
			<line fill="none" stroke="#000000" stroke-width="0.3" stroke-miterlimit="10" x1="51.626" y1="159.626" x2="56.376" y2="159.626"/>
		
			<line fill="none" stroke="#000000" stroke-width="0.3" stroke-miterlimit="10" x1="51.626" y1="188.626" x2="56.376" y2="188.626"/>
		
			<line fill="none" stroke="#000000" stroke-width="0.3" stroke-miterlimit="10" x1="51.626" y1="217.626" x2="56.376" y2="217.626"/>
		
			<line fill="none" stroke="#000000" stroke-width="0.3" stroke-miterlimit="10" x1="51.626" y1="246.626" x2="56.376" y2="246.626"/>
	</g>
	<text transform="matrix(1 0 0 1 489.6582 18.6299)" font-family="'Roboto-Regular'" font-size="12">145,5%</text>
	<path fill="#C8C8C8" d="M110.293,266.304c0,1.53-1.289,2.772-2.884,2.772H69.833c-1.589,0-2.882-1.242-2.882-2.772V75.402
		c0-1.528,1.293-2.772,2.882-2.772h37.577c1.595,0,2.884,1.244,2.884,2.772V266.304z"/>
	<text transform="matrix(1 0 0 1 74.6455 68.6299)" font-family="'Roboto-Regular'" font-size="12">120%</text>
	<g>
		<path fill="#C8C8C8" d="M168.96,266.304c0,1.53-1.289,2.772-2.884,2.772h-37.577c-1.589,0-2.882-1.242-2.882-2.772V157.069
			c0-1.528,1.293-2.772,2.882-2.772h37.577c1.595,0,2.884,1.244,2.884,2.772V266.304z"/>
		<text transform="matrix(1 0 0 1 136.3892 150.2959)" font-family="'Roboto-Regular'" font-size="12">65%</text>
	</g>
	<g>
		<path fill="#C8C8C8" d="M228.96,266.304c0,1.53-1.289,2.772-2.884,2.772h-37.577c-1.589,0-2.882-1.242-2.882-2.772V152.069
			c0-1.528,1.293-2.772,2.882-2.772h37.577c1.595,0,2.884,1.244,2.884,2.772V266.304z"/>
		<text transform="matrix(1 0 0 1 196.3892 145.2959)" font-family="'Roboto-Regular'" font-size="12">68%</text>
	</g>
	<g>
		<path fill="#C8C8C8" d="M287.626,266.304c0,1.53-1.289,2.772-2.884,2.772h-37.577c-1.589,0-2.882-1.242-2.882-2.772V72.402
			c0-1.528,1.293-2.772,2.882-2.772h37.577c1.595,0,2.884,1.244,2.884,2.772V266.304z"/>
		<text transform="matrix(1 0 0 1 251.9785 65.6299)" font-family="'Roboto-Regular'" font-size="12">122%</text>
	</g>
	<g>
		<path fill="#C8C8C8" d="M348.294,266.304c0,1.53-1.289,2.772-2.885,2.772h-37.576c-1.59,0-2.883-1.242-2.883-2.772V108.402
			c0-1.528,1.293-2.772,2.883-2.772h37.576c1.596,0,2.885,1.244,2.885,2.772V266.304z"/>
		<text transform="matrix(1 0 0 1 312.6455 101.6299)" font-family="'Roboto-Regular'" font-size="12">108%</text>
	</g>
	<g>
		<path fill="#C8C8C8" d="M407.627,266.304c0,1.53-1.289,2.772-2.885,2.772h-37.576c-1.59,0-2.883-1.242-2.883-2.772V154.402
			c0-1.528,1.293-2.772,2.883-2.772h37.576c1.596,0,2.885,1.244,2.885,2.772V266.304z"/>
		<text transform="matrix(1 0 0 1 375.0557 147.6299)" font-family="'Roboto-Regular'" font-size="12">50%</text>
	</g>
	<g>
		<path fill="#C8C8C8" d="M465.627,266.304c0,1.53-1.289,2.772-2.885,2.772h-37.576c-1.59,0-2.883-1.242-2.883-2.772V75.402
			c0-1.528,1.293-2.772,2.883-2.772h37.576c1.596,0,2.885,1.244,2.885,2.772V266.304z"/>
		<text transform="matrix(1 0 0 1 429.9785 68.6299)" font-family="'Roboto-Regular'" font-size="12">120%</text>
	</g>
	<polyline fill="none" stroke="#000000" stroke-width="0.3" stroke-miterlimit="10" points="539.626,268.755 51.663,268.755 
		51.663,29.461 	"/>
	<g>
		<g>
			
				<line fill="none" stroke="#000000" stroke-width="0.2" stroke-miterlimit="10" x1="51.626" y1="130.626" x2="54.626" y2="130.626"/>
			
				<line fill="none" stroke="#000000" stroke-width="0.2" stroke-miterlimit="10" stroke-dasharray="5.9876,3.9917" x1="58.618" y1="130.626" x2="535.63" y2="130.626"/>
			
				<line fill="none" stroke="#000000" stroke-width="0.2" stroke-miterlimit="10" x1="537.626" y1="130.626" x2="540.626" y2="130.626"/>
		</g>
	</g>
</g>
</svg>
