<?xml version="1.0" encoding="utf-8"?>
<!-- Generator: Adobe Illustrator 16.0.3, SVG Export Plug-In . SVG Version: 6.00 Build 0)  -->
<!DOCTYPE svg PUBLIC "-//W3C//DTD SVG 1.1//EN" "http://www.w3.org/Graphics/SVG/1.1/DTD/svg11.dtd">
<svg version="1.1" id="Camada_1" xmlns="http://www.w3.org/2000/svg" xmlns:xlink="http://www.w3.org/1999/xlink" x="0px" y="0px"
	 width="264.853px" height="127.917px" viewBox="0 0 264.853 127.917" enable-background="new 0 0 264.853 127.917"
	 xml:space="preserve">
<g>
	<g>
		<path fill="#4D4D4D" d="M13.312,121.48H7.857v-0.931l2.702-2.947c0.39-0.435,0.667-0.797,0.833-1.09
			c0.165-0.291,0.248-0.584,0.248-0.877c0-0.387-0.109-0.698-0.326-0.936c-0.217-0.238-0.51-0.357-0.877-0.357
			c-0.438,0-0.778,0.135-1.02,0.402c-0.242,0.267-0.362,0.633-0.362,1.097H7.701c0-0.493,0.112-0.938,0.337-1.334
			c0.225-0.396,0.546-0.703,0.964-0.923c0.417-0.219,0.899-0.328,1.446-0.328c0.787,0,1.409,0.197,1.864,0.594
			c0.455,0.395,0.682,0.942,0.682,1.641c0,0.404-0.114,0.829-0.342,1.273c-0.229,0.443-0.603,0.947-1.123,1.512l-1.983,2.123h3.767
			V121.48z"/>
		<path fill="#4D4D4D" d="M19.63,118.065c0,1.166-0.218,2.045-0.654,2.638c-0.437,0.593-1.101,0.889-1.992,0.889
			c-0.876,0-1.537-0.288-1.98-0.866s-0.671-1.433-0.683-2.566v-1.403c0-1.167,0.218-2.041,0.655-2.624
			c0.437-0.584,1.102-0.875,1.998-0.875c0.888,0,1.549,0.284,1.986,0.853s0.661,1.419,0.671,2.552V118.065z M18.276,116.55
			c0-0.762-0.104-1.32-0.312-1.674c-0.208-0.355-0.539-0.533-0.992-0.533c-0.442,0-0.767,0.168-0.975,0.505
			c-0.208,0.336-0.318,0.86-0.329,1.573v1.84c0,0.758,0.106,1.322,0.318,1.693c0.211,0.371,0.544,0.557,0.997,0.557
			c0.435,0,0.756-0.172,0.964-0.516c0.208-0.343,0.318-0.881,0.329-1.612V116.55z"/>
		<path fill="#4D4D4D" d="M26.115,118.065c0,1.166-0.218,2.045-0.654,2.638c-0.437,0.593-1.101,0.889-1.992,0.889
			c-0.876,0-1.537-0.288-1.98-0.866s-0.671-1.433-0.683-2.566v-1.403c0-1.167,0.218-2.041,0.655-2.624
			c0.437-0.584,1.102-0.875,1.998-0.875c0.888,0,1.549,0.284,1.986,0.853s0.661,1.419,0.671,2.552V118.065z M24.762,116.55
			c0-0.762-0.104-1.32-0.312-1.674c-0.208-0.355-0.539-0.533-0.992-0.533c-0.442,0-0.767,0.168-0.975,0.505
			c-0.208,0.336-0.318,0.86-0.329,1.573v1.84c0,0.758,0.106,1.322,0.318,1.693c0.211,0.371,0.544,0.557,0.997,0.557
			c0.435,0,0.756-0.172,0.964-0.516c0.208-0.343,0.318-0.881,0.329-1.612V116.55z"/>
		<path fill="#4D4D4D" d="M32.601,118.065c0,1.166-0.218,2.045-0.654,2.638c-0.437,0.593-1.101,0.889-1.992,0.889
			c-0.876,0-1.537-0.288-1.98-0.866s-0.671-1.433-0.683-2.566v-1.403c0-1.167,0.218-2.041,0.655-2.624
			c0.437-0.584,1.102-0.875,1.998-0.875c0.888,0,1.549,0.284,1.986,0.853s0.661,1.419,0.671,2.552V118.065z M31.247,116.55
			c0-0.762-0.104-1.32-0.312-1.674c-0.208-0.355-0.539-0.533-0.992-0.533c-0.442,0-0.767,0.168-0.975,0.505
			c-0.208,0.336-0.318,0.86-0.329,1.573v1.84c0,0.758,0.106,1.322,0.318,1.693c0.211,0.371,0.544,0.557,0.997,0.557
			c0.435,0,0.756-0.172,0.964-0.516c0.208-0.343,0.318-0.881,0.329-1.612V116.55z"/>
		<path fill="#4D4D4D" d="M81.873,121.48h-5.455v-0.931l2.702-2.947c0.39-0.435,0.667-0.797,0.833-1.09
			c0.165-0.291,0.248-0.584,0.248-0.877c0-0.387-0.109-0.698-0.326-0.936c-0.217-0.238-0.51-0.357-0.877-0.357
			c-0.438,0-0.778,0.135-1.02,0.402c-0.242,0.267-0.362,0.633-0.362,1.097h-1.354c0-0.493,0.112-0.938,0.337-1.334
			c0.225-0.396,0.546-0.703,0.964-0.923c0.417-0.219,0.899-0.328,1.446-0.328c0.787,0,1.409,0.197,1.864,0.594
			c0.455,0.395,0.682,0.942,0.682,1.641c0,0.404-0.114,0.829-0.342,1.273c-0.229,0.443-0.603,0.947-1.123,1.512l-1.983,2.123h3.767
			V121.48z"/>
		<path fill="#4D4D4D" d="M88.191,118.065c0,1.166-0.218,2.045-0.654,2.638c-0.437,0.593-1.101,0.889-1.992,0.889
			c-0.876,0-1.537-0.288-1.98-0.866s-0.671-1.433-0.683-2.566v-1.403c0-1.167,0.218-2.041,0.655-2.624
			c0.437-0.584,1.102-0.875,1.998-0.875c0.888,0,1.549,0.284,1.986,0.853s0.661,1.419,0.671,2.552V118.065z M86.837,116.55
			c0-0.762-0.104-1.32-0.312-1.674c-0.208-0.355-0.539-0.533-0.992-0.533c-0.442,0-0.767,0.168-0.975,0.505
			c-0.208,0.336-0.318,0.86-0.329,1.573v1.84c0,0.758,0.106,1.322,0.318,1.693c0.211,0.371,0.544,0.557,0.997,0.557
			c0.435,0,0.756-0.172,0.964-0.516c0.208-0.343,0.318-0.881,0.329-1.612V116.55z"/>
		<path fill="#4D4D4D" d="M94.676,118.065c0,1.166-0.218,2.045-0.654,2.638c-0.437,0.593-1.101,0.889-1.992,0.889
			c-0.876,0-1.537-0.288-1.98-0.866s-0.671-1.433-0.683-2.566v-1.403c0-1.167,0.218-2.041,0.655-2.624
			c0.437-0.584,1.102-0.875,1.998-0.875c0.888,0,1.549,0.284,1.986,0.853s0.661,1.419,0.671,2.552V118.065z M93.323,116.55
			c0-0.762-0.104-1.32-0.312-1.674c-0.208-0.355-0.539-0.533-0.992-0.533c-0.442,0-0.767,0.168-0.975,0.505
			c-0.208,0.336-0.318,0.86-0.329,1.573v1.84c0,0.758,0.106,1.322,0.318,1.693c0.211,0.371,0.544,0.557,0.997,0.557
			c0.435,0,0.756-0.172,0.964-0.516c0.208-0.343,0.318-0.881,0.329-1.612V116.55z"/>
		<path fill="#4D4D4D" d="M96.236,117.458l0.44-4.09h4.357v1.17h-3.231l-0.223,1.939c0.375-0.216,0.799-0.324,1.271-0.324
			c0.772,0,1.374,0.248,1.802,0.742c0.429,0.494,0.644,1.158,0.644,1.994c0,0.824-0.238,1.481-0.713,1.97
			c-0.476,0.488-1.127,0.732-1.956,0.732c-0.743,0-1.359-0.21-1.847-0.632s-0.753-0.979-0.794-1.669h1.309
			c0.052,0.394,0.193,0.695,0.424,0.905c0.23,0.21,0.531,0.314,0.902,0.314c0.416,0,0.74-0.148,0.972-0.445
			c0.232-0.297,0.348-0.702,0.348-1.215c0-0.494-0.128-0.885-0.384-1.173s-0.609-0.432-1.059-0.432
			c-0.245,0-0.453,0.032-0.624,0.098s-0.356,0.192-0.557,0.382L96.236,117.458z"/>
		<path fill="#4D4D4D" d="M150.434,121.48h-5.455v-0.931l2.702-2.947c0.39-0.435,0.667-0.797,0.833-1.09
			c0.165-0.291,0.248-0.584,0.248-0.877c0-0.387-0.109-0.698-0.326-0.936c-0.217-0.238-0.51-0.357-0.877-0.357
			c-0.438,0-0.778,0.135-1.02,0.402c-0.242,0.267-0.362,0.633-0.362,1.097h-1.354c0-0.493,0.112-0.938,0.337-1.334
			c0.225-0.396,0.546-0.703,0.964-0.923c0.417-0.219,0.899-0.328,1.446-0.328c0.787,0,1.409,0.197,1.864,0.594
			c0.455,0.395,0.682,0.942,0.682,1.641c0,0.404-0.114,0.829-0.342,1.273c-0.229,0.443-0.603,0.947-1.123,1.512l-1.983,2.123h3.767
			V121.48z"/>
		<path fill="#4D4D4D" d="M156.752,118.065c0,1.166-0.218,2.045-0.654,2.638c-0.437,0.593-1.101,0.889-1.992,0.889
			c-0.876,0-1.537-0.288-1.98-0.866s-0.671-1.433-0.683-2.566v-1.403c0-1.167,0.218-2.041,0.655-2.624
			c0.437-0.584,1.102-0.875,1.998-0.875c0.888,0,1.549,0.284,1.986,0.853s0.661,1.419,0.671,2.552V118.065z M155.398,116.55
			c0-0.762-0.104-1.32-0.312-1.674c-0.208-0.355-0.539-0.533-0.992-0.533c-0.442,0-0.767,0.168-0.975,0.505
			c-0.208,0.336-0.318,0.86-0.329,1.573v1.84c0,0.758,0.106,1.322,0.318,1.693c0.211,0.371,0.544,0.557,0.997,0.557
			c0.435,0,0.756-0.172,0.964-0.516c0.208-0.343,0.318-0.881,0.329-1.612V116.55z"/>
		<path fill="#4D4D4D" d="M161.616,121.48h-1.348v-6.517l-1.989,0.678v-1.137l3.165-1.164h0.173V121.48z"/>
		<path fill="#4D4D4D" d="M169.723,118.065c0,1.166-0.218,2.045-0.654,2.638c-0.437,0.593-1.101,0.889-1.992,0.889
			c-0.876,0-1.537-0.288-1.98-0.866s-0.671-1.433-0.683-2.566v-1.403c0-1.167,0.218-2.041,0.655-2.624
			c0.437-0.584,1.102-0.875,1.998-0.875c0.888,0,1.549,0.284,1.986,0.853s0.661,1.419,0.671,2.552V118.065z M168.369,116.55
			c0-0.762-0.104-1.32-0.312-1.674c-0.208-0.355-0.539-0.533-0.992-0.533c-0.442,0-0.767,0.168-0.975,0.505
			c-0.208,0.336-0.318,0.86-0.329,1.573v1.84c0,0.758,0.106,1.322,0.318,1.693c0.211,0.371,0.544,0.557,0.997,0.557
			c0.435,0,0.756-0.172,0.964-0.516c0.208-0.343,0.318-0.881,0.329-1.612V116.55z"/>
		<path fill="#4D4D4D" d="M213.313,121.48h-5.455v-0.931l2.702-2.947c0.39-0.435,0.667-0.797,0.833-1.09
			c0.165-0.291,0.248-0.584,0.248-0.877c0-0.387-0.109-0.698-0.326-0.936c-0.217-0.238-0.51-0.357-0.877-0.357
			c-0.438,0-0.778,0.135-1.02,0.402c-0.242,0.267-0.362,0.633-0.362,1.097h-1.354c0-0.493,0.112-0.938,0.337-1.334
			c0.225-0.396,0.546-0.703,0.964-0.923c0.417-0.219,0.899-0.328,1.446-0.328c0.787,0,1.409,0.197,1.864,0.594
			c0.455,0.395,0.682,0.942,0.682,1.641c0,0.404-0.114,0.829-0.342,1.273c-0.229,0.443-0.603,0.947-1.123,1.512l-1.983,2.123h3.767
			V121.48z"/>
		<path fill="#4D4D4D" d="M219.63,118.065c0,1.166-0.218,2.045-0.654,2.638c-0.437,0.593-1.101,0.889-1.992,0.889
			c-0.876,0-1.537-0.288-1.98-0.866s-0.671-1.433-0.683-2.566v-1.403c0-1.167,0.218-2.041,0.655-2.624
			c0.437-0.584,1.102-0.875,1.998-0.875c0.888,0,1.549,0.284,1.986,0.853s0.661,1.419,0.671,2.552V118.065z M218.277,116.55
			c0-0.762-0.104-1.32-0.312-1.674c-0.208-0.355-0.539-0.533-0.992-0.533c-0.442,0-0.767,0.168-0.975,0.505
			c-0.208,0.336-0.318,0.86-0.329,1.573v1.84c0,0.758,0.106,1.322,0.318,1.693c0.211,0.371,0.544,0.557,0.997,0.557
			c0.435,0,0.756-0.172,0.964-0.516c0.208-0.343,0.318-0.881,0.329-1.612V116.55z"/>
		<path fill="#4D4D4D" d="M224.495,121.48h-1.348v-6.517l-1.989,0.678v-1.137l3.165-1.164h0.173V121.48z"/>
		<path fill="#4D4D4D" d="M227.676,117.458l0.44-4.09h4.357v1.17h-3.231l-0.223,1.939c0.375-0.216,0.799-0.324,1.271-0.324
			c0.772,0,1.374,0.248,1.802,0.742c0.429,0.494,0.644,1.158,0.644,1.994c0,0.824-0.238,1.481-0.713,1.97
			c-0.476,0.488-1.127,0.732-1.956,0.732c-0.743,0-1.359-0.21-1.847-0.632s-0.753-0.979-0.794-1.669h1.309
			c0.052,0.394,0.193,0.695,0.424,0.905c0.23,0.21,0.531,0.314,0.902,0.314c0.416,0,0.74-0.148,0.972-0.445
			c0.232-0.297,0.348-0.702,0.348-1.215c0-0.494-0.128-0.885-0.384-1.173s-0.609-0.432-1.059-0.432
			c-0.245,0-0.453,0.032-0.624,0.098s-0.356,0.192-0.557,0.382L227.676,117.458z"/>
	</g>
</g>
<line fill="none" stroke="#4D4D4D" stroke-miterlimit="10" x1="0" y1="107.649" x2="266" y2="107.649"/>
<g>
	<g>
		<line fill="none" stroke="#C8C8C8" stroke-miterlimit="10" x1="16.5" y1="66.149" x2="16.5" y2="68.149"/>
		
			<line fill="none" stroke="#C8C8C8" stroke-miterlimit="10" stroke-dasharray="4,4" x1="16.5" y1="72.149" x2="16.5" y2="103.149"/>
		<line fill="none" stroke="#C8C8C8" stroke-miterlimit="10" x1="16.5" y1="105.149" x2="16.5" y2="107.149"/>
	</g>
</g>
<g>
	<g>
		<line fill="none" stroke="#C8C8C8" stroke-miterlimit="10" x1="76.5" y1="41.149" x2="76.5" y2="43.149"/>
		
			<line fill="none" stroke="#C8C8C8" stroke-miterlimit="10" stroke-dasharray="4,4" x1="76.5" y1="47.149" x2="76.5" y2="103.149"/>
		<line fill="none" stroke="#C8C8C8" stroke-miterlimit="10" x1="76.5" y1="105.149" x2="76.5" y2="107.149"/>
	</g>
</g>
<g>
	<g>
		<line fill="none" stroke="#C8C8C8" stroke-miterlimit="10" x1="135.5" y1="23.149" x2="135.5" y2="25.149"/>
		
			<line fill="none" stroke="#C8C8C8" stroke-miterlimit="10" stroke-dasharray="4,4" x1="135.5" y1="28.149" x2="135.5" y2="103.149"/>
		<line fill="none" stroke="#C8C8C8" stroke-miterlimit="10" x1="135.5" y1="105.149" x2="135.5" y2="107.149"/>
	</g>
</g>
<g>
	<g>
		<line fill="none" stroke="#C8C8C8" stroke-miterlimit="10" x1="195.5" y1="29.149" x2="195.5" y2="31.149"/>
		
			<line fill="none" stroke="#C8C8C8" stroke-miterlimit="10" stroke-dasharray="4,4" x1="195.5" y1="35.149" x2="195.5" y2="103.149"/>
		<line fill="none" stroke="#C8C8C8" stroke-miterlimit="10" x1="195.5" y1="105.149" x2="195.5" y2="107.149"/>
	</g>
</g>
<g>
	<g>
		<line fill="none" stroke="#C8C8C8" stroke-miterlimit="10" x1="253.5" y1="12.149" x2="253.5" y2="14.149"/>
		
			<line fill="none" stroke="#C8C8C8" stroke-miterlimit="10" stroke-dasharray="4,4" x1="253.5" y1="18.149" x2="253.5" y2="103.149"/>
		<line fill="none" stroke="#C8C8C8" stroke-miterlimit="10" x1="253.5" y1="105.149" x2="253.5" y2="107.149"/>
	</g>
</g>
<g>
	<polyline fill="none" stroke="#3ECCA7" stroke-width="2.5" stroke-miterlimit="10" points="17.145,66.467 76.167,41.743 
		135.189,23.405 194.212,28.906 253.234,11.858 	"/>
	<g>
		<path fill="#FFFFFF" d="M76.167,45.438c-2.038,0-3.695-1.657-3.695-3.695s1.658-3.695,3.695-3.695s3.695,1.657,3.695,3.695
			S78.205,45.438,76.167,45.438z"/>
		<path fill="#3ECCA7" d="M76.167,39.298c1.35,0,2.445,1.096,2.445,2.445c0,1.352-1.095,2.445-2.445,2.445
			c-1.35,0-2.445-1.094-2.445-2.445C73.722,40.394,74.817,39.298,76.167,39.298 M76.167,36.798c-2.727,0-4.945,2.219-4.945,4.945
			s2.218,4.945,4.945,4.945s4.945-2.219,4.945-4.945S78.894,36.798,76.167,36.798L76.167,36.798z"/>
	</g>
	<g>
		<path fill="#FFFFFF" d="M135.189,27.101c-2.038,0-3.695-1.657-3.695-3.695s1.658-3.695,3.695-3.695
			c2.037,0,3.695,1.657,3.695,3.695S137.227,27.101,135.189,27.101z"/>
		<path fill="#3ECCA7" d="M135.189,20.96c1.35,0,2.445,1.095,2.445,2.445c0,1.35-1.095,2.445-2.445,2.445
			c-1.35,0-2.445-1.096-2.445-2.445C132.744,22.055,133.839,20.96,135.189,20.96 M135.189,18.46c-2.727,0-4.945,2.219-4.945,4.945
			s2.218,4.945,4.945,4.945c2.727,0,4.945-2.219,4.945-4.945S137.916,18.46,135.189,18.46L135.189,18.46z"/>
	</g>
	<g>
		<path fill="#FFFFFF" d="M194.212,32.602c-2.037,0-3.695-1.657-3.695-3.695c0-2.037,1.658-3.694,3.695-3.694
			c2.038,0,3.695,1.657,3.695,3.694C197.907,30.944,196.25,32.602,194.212,32.602z"/>
		<path fill="#3ECCA7" d="M194.212,26.462c1.35,0,2.445,1.094,2.445,2.444s-1.096,2.445-2.445,2.445s-2.445-1.095-2.445-2.445
			S192.862,26.462,194.212,26.462 M194.212,23.962c-2.727,0-4.945,2.218-4.945,4.944s2.218,4.945,4.945,4.945
			c2.727,0,4.945-2.219,4.945-4.945S196.939,23.962,194.212,23.962L194.212,23.962z"/>
	</g>
	<g>
		<path fill="#FFFFFF" d="M253.234,15.554c-2.038,0-3.695-1.657-3.695-3.695s1.658-3.695,3.695-3.695s3.695,1.657,3.695,3.695
			S255.272,15.554,253.234,15.554z"/>
		<path fill="#3ECCA7" d="M253.234,9.413c1.35,0,2.445,1.096,2.445,2.445c0,1.351-1.096,2.445-2.445,2.445
			c-1.35,0-2.445-1.095-2.445-2.445C250.789,10.509,251.884,9.413,253.234,9.413 M253.234,6.913c-2.727,0-4.945,2.219-4.945,4.945
			s2.218,4.945,4.945,4.945s4.945-2.219,4.945-4.945S255.961,6.913,253.234,6.913L253.234,6.913z"/>
	</g>
	<g>
		<path fill="#FFFFFF" d="M17.145,70.162c-2.038,0-3.695-1.657-3.695-3.695s1.657-3.695,3.695-3.695s3.695,1.657,3.695,3.695
			S19.183,70.162,17.145,70.162z"/>
		<path fill="#3ECCA7" d="M17.145,64.021c1.35,0,2.445,1.095,2.445,2.445s-1.095,2.445-2.445,2.445S14.7,67.817,14.7,66.467
			S15.795,64.021,17.145,64.021 M17.145,61.521c-2.727,0-4.945,2.219-4.945,4.945s2.218,4.945,4.945,4.945s4.945-2.219,4.945-4.945
			S19.872,61.521,17.145,61.521L17.145,61.521z"/>
	</g>
</g>
</svg>
