<?xml version="1.0" encoding="utf-8"?>
<!-- Generator: Adobe Illustrator 16.0.3, SVG Export Plug-In . SVG Version: 6.00 Build 0)  -->
<!DOCTYPE svg PUBLIC "-//W3C//DTD SVG 1.1//EN" "http://www.w3.org/Graphics/SVG/1.1/DTD/svg11.dtd">
<svg version="1.1" id="Camada_1" xmlns="http://www.w3.org/2000/svg" xmlns:xlink="http://www.w3.org/1999/xlink" x="0px" y="0px"
	 width="66.421px" height="64.253px" viewBox="0 0 66.421 64.253" enable-background="new 0 0 66.421 64.253" xml:space="preserve">
<g>
	<defs>
		<rect id="SVGID_1_" x="101.845" y="-99.08" width="319.281" height="479.86"/>
	</defs>
	<clipPath id="SVGID_2_">
		<use xlink:href="#SVGID_1_"  overflow="visible"/>
	</clipPath>
	<g clip-path="url(#SVGID_2_)">
		<g>
			<g>
				<path fill="#606060" stroke="#595959" stroke-miterlimit="10" d="M205.662,103.666c0.29-0.078,0.543-0.2,0.721-0.364
					c0.291-0.2,0.685-0.522,1.19-1.049l0.251-0.364l-1.007,0.163l-0.251-0.771l-0.688,0.608c-0.178-0.081-0.357-0.162-0.539-0.162
					c-0.18,0-0.576-0.04-1.157-0.079l-0.574-0.444c0.106-0.447,0.106-0.648,0-0.648c-0.143,0-0.504,0.079-1.046,0.323l-0.216-0.162
					l-0.687-0.242l-0.862,0.485l-0.904-0.243l-1.298-2.507l-0.866-0.402l0.324-1.376c-0.033-0.078-0.143-0.121-0.358-0.078
					c-0.217,0-0.646,0.121-1.262,0.281c0.756-0.324,1.153-0.647,1.189-0.888c0.037-0.284-0.107-0.808-0.434-1.617l-1.584-1.699
					l-1.552,0.527l0.794-1.173h-1.082l0.755-1.01l-1.438-0.12l0.143-1.416l-1.19-0.204l-0.361-1.171l-0.686-0.526l-0.357-1.011
					c-0.397,0.121-0.615,0.282-0.65,0.484c-0.04,0.163-0.183,0.607-0.468,1.295l-0.255,1.535l-0.358,0.727l-1.264-0.08l-0.433,1.375
					l-0.9-0.648l-1.265,0.285l-1.369,0.769l-0.396,0.889l-0.397-1.133l-1.371,0.889l-1.62,0.364l1.728-1.535
					c-0.107-0.528-0.288-0.81-0.501-0.889c-0.182-0.081-0.688-0.366-1.372-0.771l-1.37-0.485l-0.252-1.252l-2.74-0.729l2.92,0.16
					l1.119-1.776l-0.759-0.73l-2.523-0.686l-1.876,0.364l-0.291-1.213l-1.117-0.121l-0.684-0.486l-3.427-1.736l-0.936,0.321
					l-1.083,0.609l-2.921-0.285l-0.938-0.565l-3.424-0.526l-0.829,0.728l-0.396,0.485c0.214,0.041,0.467,0.324,0.72,0.687
					c0.25,0.406,0.434,0.769,0.576,1.092l-0.576,0.889l-2.162,1.091h2.487c0.396,0.201,0.575,0.406,0.575,0.565
					c0,0.123-0.034,0.487-0.143,1.053l0.36,0.364l-0.901,0.767c-0.904,0.687-1.405,1.173-1.479,1.415
					c0,0.082-0.146,0.323-0.361,0.771c-0.216,0.321-0.291,0.523-0.291,0.646c0.039,0.123,0.146,0.321,0.328,0.525
					c0.144,0.244,0.324,0.362,0.433,0.362c0.25,0,0.829,0.204,1.766,0.61c0.47,0.161,0.724,0.281,0.83,0.323
					c0.216,0.157,0.398,0.284,0.469,0.402l0.685,1.577l0.326,1.901v1.536c-0.797,0.524-1.264,0.847-1.407,0.889
					c-0.11,0-0.649,0.322-1.624,0.849l-1.839,0.97l-1.478,0.406c-0.145,0.039-0.503,0.119-1.011,0.202l-0.541,0.403
					c0.649,0.729,1.048,1.135,1.191,1.172c0.107,0.081,0.252,0.201,0.467,0.404c0.217,0.243,0.329,0.404,0.36,0.567
					c0.039,0.2,0.108,0.606,0.289,1.172l-0.071,0.888c0.037,0.567,0.108,0.889,0.253,1.054c0.287,0.322,0.468,0.563,0.574,0.768
					c0.11,0.201,0.255,0.403,0.434,0.644l-1.008,0.486l-0.182,1.172l0.144,0.767l-1.008-0.442l-0.252-0.646l-0.757,0.727
					l-0.036,0.325l0.504,1.21c-0.288-0.039-0.541-0.16-0.65-0.241c-0.141-0.162-0.54-0.487-1.19-1.093l-0.972-0.808
					c-0.36-0.445-0.646-0.688-0.827-0.688c-0.182,0-0.614-0.122-1.3-0.324l-0.757-0.446c-0.36-0.442-0.613-0.804-0.65-0.969
					c0-0.242-0.325-1.089-0.865-2.547c0.108-0.928,0.145-1.494,0.145-1.656c0-0.243,0-0.526,0.038-0.811
					c0.071-0.403,0.106-0.727,0.178-0.93c0.108-0.322,0.145-0.685,0.071-1.131h-1.188c-0.433-0.244-0.793-0.323-1.046-0.323h-1.587
					l-0.828-0.163l-1.841-0.162l-0.684,0.403v-0.849l-5.41-1.577l-1.37-0.484l-1.911-1.617h-1.373c-0.141,0-0.683-0.161-1.62-0.406
					c-0.576-0.241-0.902-0.365-1.082-0.365h-1.875c-0.251,0-0.723,0.084-1.442,0.245c-0.722,0.203-1.155,0.282-1.189,0.282
					c-0.217,0-0.575,0.044-1.084,0.121l1.012-1.292l-1.911-3.681l-2.415-0.12l-0.47,0.564l-1.013-1.008l-0.284-1.698l0.396-2.468
					l0.577-0.443l1.949-2.426c0.648-0.242,0.971-0.446,1.007-0.566c0.037-0.162-0.105-0.565-0.359-1.133l1.152,0.163l-0.108-1.012
					l1.661-0.322c0.718-0.202,1.152-0.283,1.333-0.242c0.147,0,0.359,0,0.721-0.041c0.361,0,0.648-0.082,0.83-0.163
					c0.252-0.04,0.541-0.405,0.827-0.93l-0.938-0.769c-0.358-0.442-0.72-0.645-1.045-0.645h-1.838
					c-0.506-0.162-0.866-0.244-1.084-0.244c-0.178,0-0.72-0.283-1.511-0.848c0.432-0.041,0.791,0,1.117,0.081l0.938,0.284
					c0.433,0.161,0.722,0.241,0.936,0.241c0.328,0,0.686,0,1.194,0.08c0.104,0,0.212,0.043,0.32,0.081
					c0.398,0,0.615,0.082,0.758,0.121c0.216,0.122,0.578,0.326,1.009,0.607h0.145h0.505c0.255,0,0.579-0.242,1.011-0.728
					l0.579-0.685l1.045-0.202c1.151,0.485,1.836,0.686,2.018,0.604c0.145-0.081,0.578-0.201,1.297-0.323
					c0.18-0.079,0.722-0.483,1.588-1.252l1.08-1.454l-0.108-0.647l-1.405-0.042l-3.029-0.121l-2.486-0.93l-3.391-0.607h3.966
					c0.685,0.202,1.153,0.406,1.442,0.527c0.649,0.201,1.118,0.446,1.478,0.688c0.146,0.04,0.831,0.122,2.057,0.201l1.261-0.728
					l0.647-2.185l3.572-0.038l0.756,1.334c0.253,0.568,0.434,0.889,0.542,1.009c0.143,0.122,0.36,0.242,0.685,0.326l-0.467-1.254
					l0.324-0.484c0.322,0,0.54-0.083,0.647-0.203c0.037-0.202,0.399-0.042,1.082,0.405c0.179,0.646,0.324,1.01,0.468,1.01
					s0.469-0.081,1.011-0.201l-0.326-0.768c-0.181-0.243-0.325-0.446-0.432-0.57c-0.073-0.039-0.109-0.078-0.144-0.078
					c-0.145-0.081-0.506-0.404-1.044-0.891c-0.473-0.526-0.794-0.767-0.941-0.728h-1.259l2.304-0.122l1.119,0.811
					c0.039,0.24,0.146,0.442,0.254,0.604c0.108,0.122,0.215,0.244,0.359,0.325c0.289,0.12,0.649,0.039,1.118-0.203l0.361-0.727
					h1.226l0.36-1.013l1.297-0.122l0.758-1.415l-1.909-0.929l-0.83-1.172l0.97-0.444c0.832,0,1.302-0.042,1.445-0.203
					c0.18-0.162-0.073-0.403-0.723-0.689l0.685-0.968l-1.476-0.93l-8.041-0.648l-0.687-0.201l-0.215,0.97l-0.037,1.697l-0.252,1.416
					c-0.431,0.363-0.758,0.606-0.899,0.767c-0.073,0.082-0.145,0.202-0.254,0.364c-0.071,0.162-0.215,0.364-0.361,0.606l-0.214,0.93
					l-0.902,0.081l-0.901-0.77c-0.469-1.01-0.796-1.572-0.938-1.655c-0.11-0.081-0.432-0.364-0.867-0.809l-0.862-0.808
					c-0.146-0.123-0.615-0.405-1.518-0.77l-2.955,2.267l-0.036-3.114c-2.2-0.163-3.428-0.284-3.605-0.284
					c-0.181,0-1.011-0.12-2.489-0.445L121.72,57.5l-1.44-1.415l-2.056-0.526l-1.084,1.012l-1.079,0.564l-1.371,0.081l-0.831,0.242
					l-0.434,0.567l0.507,0.888l1.515,0.487l-1.333,0.77c0.034,0.484,0.145,0.768,0.324,0.768c0.141,0,0.469,0.161,1.009,0.483
					c0.108,0.08,0.289,0.162,0.432,0.283l1.767,0.365h2.6l0.72,0.08l-1.624,0.527l-0.831,0.604l-0.322,0.892l1.657-0.326
					l0.864,0.042l0.329,0.889l-2.453,1.171l-2.164-0.161l-0.359,2.184l-0.614,1.736l-1.226-4.041l-1.334-0.647l-2.056-0.08
					l0.903,1.333l-0.182,0.688l-2.524-0.123l-0.828,0.365l-1.157-0.365l-3.028-0.404l-2.451,0.687
					c-1.295-0.12-1.983-0.203-2.128-0.283l-0.685-0.404c-0.396-0.244-0.647-0.323-0.758-0.323c-0.107,0-0.538-0.123-1.262-0.324
					l-1.442,0.324l-0.974-0.163l-2.2-1.777l-0.757,0.93l-1.693,0.566c-0.795-0.079-1.336-0.123-1.516-0.123
					c-0.251,0-0.72,0.043-1.513,0.123l0.718,1.942l0.795,1.534l-0.324,1.657l-0.649-1.657l-1.439-1.415l-1.011-0.606l-0.649,0.566
					l-1.262-0.726c-0.073-0.043-0.145-0.043-0.18-0.123c-0.432-0.324-0.794-0.485-1.049-0.485c-0.287,0-1.26,0.039-2.847,0.081
					l-1.298,0.605l-3.713-0.322l-2.018,0.202l-2.742-0.363l0.216-2.791l-5.229-0.16c-1.515-0.405-2.346-0.608-2.488-0.608
					c-0.145,0-1.011-0.203-2.6-0.606l-2.271-0.12c-1.225-0.567-1.907-0.808-2.054-0.808c-0.108,0-1.08,0-2.847-0.042l-1.408,0.162
					l-1.553,1.011l-1.729-0.242l-1.227-2.063l-1.874,2.387l-2.164-0.809l-3.028-2.345l-1.263-0.201l-2.019,1.617l-1.37,0.161
					l-2.992,0.849l-2.706,0.04l-1.838,1.292l-1.371,0.407h-1.804l-1.477,0.606c-0.544-0.161-1.011-0.203-1.333-0.203
					c-0.184,0-0.758-0.082-1.732-0.163c-1.045-0.121-1.587-0.162-1.622-0.162c-0.109,0-0.721-0.079-1.947-0.323
					c-1.19-0.242-1.802-0.324-1.91-0.324c-0.111,0-0.505-0.161-1.189-0.443c-0.795-0.324-1.191-0.487-1.229-0.527
					c-0.071,0-0.538-0.04-1.369-0.08l-1.333-0.082c-0.11,0-0.687-0.08-1.731-0.241l0.107,24.58l0.108,0.404
					c0.216,0.162,0.358,0.284,0.47,0.325c0.037,0,0.144-0.041,0.288-0.082l0.323-0.202c0.072-0.041,0.252,0,0.435,0.121l0.43,0.284
					c0.182,0.12,0.326,0.082,0.469-0.082c0.722-0.243,1.122-0.364,1.227-0.364c0,0,0.039,0,0.11,0.041
					c0.108,0.04,0.251,0.121,0.467,0.202l0.54,0.728c0.398,0.121,0.615,0.241,0.76,0.364c0.035,0,0.216,0.202,0.503,0.564
					c0.326,0.326,0.504,0.487,0.615,0.568l0.469,0.201c0.18,0.082,0.324,0.161,0.434,0.243c0.07,0.041,0.251,0.162,0.539,0.323
					c0.253,0.162,0.432,0.283,0.54,0.403c0.036,0.083,0.073,0.163,0.108,0.205l-0.035,0.12c0.035,0.04,0.216,0.081,0.648,0.161l0,0
					c0.36,0.041,0.612,0,0.721-0.08c0.071-0.081,0.071-0.081,0.108-0.081c0-0.039,0.073-0.039,0.216,0
					c0.328,0.123,0.397-0.162,0.252-0.849l0.614-0.888c0.616-0.364,1.009-0.567,1.155-0.567l0.432-0.121
					c0.215-0.042,0.394,0,0.504,0.121c0.145,0.203,0.396,0.484,0.794,0.85l0.253,0.321c0.106,0.041,0.216,0.123,0.396,0.123
					c0.073,0.042,0.145,0,0.218,0l0.069-0.082c0.038-0.041,0.218,0.082,0.473,0.283c0.141,0.163,0.358,0.405,0.573,0.689
					c0.183,0.201,0.327,0.363,0.507,0.484c0.145,0.08,0.287,0.164,0.504,0.243c0.216,0.081,0.325,0.159,0.396,0.159
					c0.106,0.083,0.216,0.162,0.326,0.245c0.071,0.04,0.181,0.202,0.36,0.403c0.145,0.163,0.288,0.365,0.506,0.526
					c0.179,0.164,0.287,0.325,0.36,0.404c0.106,0.083,0.251,0.322,0.467,0.686c0.107,0.205,0.326,0.528,0.646,0.973
					c0.073,0.082,0.254,0.282,0.58,0.605c0.577,0.728,1.007,1.131,1.188,1.254c0.073,0.08,0.252,0.159,0.471,0.243
					c0.323,0.12,0.54,0.202,0.611,0.242c0.293,0.121,0.542,0.281,0.723,0.362c0.648,0.324,0.974,0.445,1.009,0.445l0.467,0.122
					c0.257,0.041,0.364,0.162,0.434,0.203c0,0,0.11,0.118,0.251,0.241c0.146,0.123,0.184,0.204,0.22,0.325
					c-0.036,0.04-0.036,0.161-0.107,0.402c-0.075,0.203-0.112,0.326-0.112,0.366l-0.105,0.767c-0.073,0.485-0.146,0.728-0.146,0.806
					l-0.177,0.529c-0.073,0.282-0.11,0.445-0.11,0.485c0,0.12,0,0.201,0.037,0.321c0.073,0.202,0.105,0.285,0.181,0.324
					c0.18,0.08,0.32,0.122,0.504,0.163c0.108,0.038,0.251,0.038,0.47,0.081c0.215,0,0.357,0,0.357,0.039
					c0.075,0,0.254,0.163,0.504,0.368l-0.973,0.2c-0.069,0.078-0.107,0.2-0.069,0.28c0,0.043,0.106,0.123,0.251,0.163
					c0,0,0,0,0,0.042l0.502,0.121c0.147,0.041,0.256,0.082,0.362,0.163c0.073,0.081,0.146,0.123,0.289,0.283
					c0.071,0.042,0.182,0.122,0.289,0.2c0.182,0.085,0.434,0.165,0.757,0.165l0.144,0.081l-0.251,0.645l0,0
					c0,0.162-0.181,0.526-0.543,1.091c-0.431,0.204-0.646,0.365-0.538,0.526c0.071,0.123,0.36,0.365,0.936,0.728l1.3,0.044
					l0.611,0.926l2.704-0.484l-1.983,0.931l-0.252,0.647l0.289,0.968l0.685,0.971c0.11,0,0.216,0,0.362,0
					c0.215,0,0.396,0,0.504,0.041c0.938,0.444,1.587,0.646,1.878,0.728c0.142,0.04,0.431,0.12,0.828,0.285
					c0.071,0.038,0.143,0.079,0.251,0.118c0.25,0.082,0.432,0.162,0.539,0.204c0.11,0.039,0.326,0.081,0.579,0.283l1.406,0.85
					c0.18,0.079,0.252,0,0.216-0.244c-0.036-0.402-0.036-0.931-0.036-1.537c0.36-0.283,0.612-0.283,0.863,0
					c0.435,0.566,0.724,1.091,0.866,1.537l0.253,0.727v0.041c0.071,0.242,0.18,0.445,0.253,0.528c0.181,0.16,0.36,0.32,0.47,0.439
					c0.143,0.083,0.253,0.122,0.361,0.122c0.179,0,0.576-0.076,1.225-0.321l0.362,0.769c-0.471,0.16-0.615,0.365-0.362,0.526
					c0.036,0.04,0.107,0.08,0.181,0.16c0,0,0.037,0,0.037,0.041l67.317,0.042v-1.376l0.756,0.486l0.436,1.335l0.9,0.565l1.732,0.365
					l0.829-0.365l0.972-0.04l3.425,1.495l1.19-0.485l1.082,0.77l0.649-0.77l0.937,0.605l1.804,0.202l1.442-1.129l2.921-2.346
					c1.296-0.161,2.02-0.202,2.161-0.202c0.037,0,0.291,0.122,0.649,0.323c0.397,0.286,0.686,0.443,0.903,0.525
					c0.396,0.08,0.867,0.486,1.478,1.175l0.071,1.412l1.587,2.709l2.38,1.256l2.093,0.482h1.875l0.503,0.525l-0.721,1.417
					c-0.396,0.768-0.648,1.253-0.685,1.416c-0.037,0.162-0.037,0.886,0,2.183l-0.216,1.092l-0.937,3.837l-0.866,0.487l-0.18,0.527
					l0.397,0.564l1.08-0.041l0.865-1.05l3.137-1.78h2.272l1.587-0.565l0.359-1.456l1.152-0.888l5.052-0.121l0.502-0.445l3.175-2.023
					h7.862l0.503-0.16l0.216-0.648l0.974,0.242l0.758-0.689l0.756-1.533l0.505-0.688l0.145-0.93l0.469-0.686l0.972-0.769
					l0.508-0.607h0.396l0.252,0.405l2.128,0.038l0.757,0.73c0.07,1.333,0.107,2.102,0.07,2.263c-0.034,0.165-0.034,0.606,0,1.294
					l0.579,0.283l0.216,0.522l0.756,0.61c0-0.041,0.038-0.083,0.073-0.083c0.216,0,0.613-0.079,1.189-0.161
					c0.144,0.125,0.361,0.161,0.542,0.161c0.215-0.079,0.758-0.243,1.621-0.565c0.325,0,0.579-0.121,0.721-0.365
					c0.146-0.242,0.399-0.563,0.866-1.011l0.866-0.645l-0.034-2.507c-0.218-0.123-0.433-0.165-0.687-0.165l-0.542,0.081
					c-0.143,0-0.216-0.081-0.143-0.202c0.108-0.2,0.253-0.441,0.397-0.685c0.252-0.365,0.396-0.566,0.541-0.606
					c0.178-0.083,0.394-0.325,0.72-0.646c-0.76-0.042-1.261-0.08-1.442-0.08l-0.683,0.08c-0.291,0-0.505-0.042-0.579-0.08
					c-0.179-0.043-0.648-0.122-1.406-0.286l0.613-0.446l1.697,0.083l1.945-0.848c0-0.526-0.144-0.851-0.324-0.971
					c-0.217-0.122-0.647-0.445-1.263-0.891h-1.225l-3.065,0.363c-0.254,0.082-0.578,0.162-0.975,0.283
					c-0.143,0.081-0.287,0.123-0.395,0.202c-0.288,0.083-0.793,0.245-1.372,0.487c-0.54,0.162-0.863,0.285-0.901,0.324
					c-0.073,0.037-0.395,0.202-0.937,0.405l-1.009,0.403c-0.107,0.079-0.432,0.283-0.938,0.685l-0.648,0.527
					c-0.035,0-0.035,0.039-0.069,0.039c-0.039,0.081-0.182,0.164-0.293,0.324c-0.143,0.243-0.428,0.688-0.757,1.333
					c-0.396,0.121-0.576,0.083-0.396-0.078l0.725-0.81c0.141-0.163,0.322-0.325,0.428-0.445c0.073-0.121,0.112-0.16,0.146-0.16
					l0.217-0.203c0.107-0.163,0.358-0.405,0.685-0.768l-3.497-1.01l3.497,1.01c0.181-0.202,0.36-0.444,0.578-0.646
					c0.288-0.364,0.542-0.646,0.757-0.851c0.252-0.322,0.431-0.483,0.576-0.524c0.035-0.042,0.253-0.163,0.577-0.445
					c0.324-0.201,0.54-0.361,0.687-0.361l0.937-0.164c0.506-0.041,0.828-0.081,0.903-0.081c0.07,0,0.143-0.041,0.215-0.079
					c0.108-0.083,0.182-0.123,0.324-0.206c0.252-0.16,0.471-0.323,0.685-0.525c0.254-0.363,0.615-0.849,1.118-1.575
					c0.721-0.283,1.263-0.443,1.588-0.443c0.289,0,1.296-0.043,3.027-0.082c1.192-0.122,1.875-0.162,2.021-0.162
					c0.035,0,0.215,0.04,0.431,0.243c0.218,0.201,0.36,0.24,0.471,0.281c0.071-0.041,0.322-0.041,0.646-0.08l3.066-0.041
					c0.688-0.04,1.117,0,1.3,0c0.249,0.041,0.792,0.041,1.585,0c1.371-0.16,2.126-0.28,2.272-0.326
					c0.719-0.202,1.227-0.402,1.547-0.563c0.22-0.162,0.652-0.688,1.265-1.538l0.397-0.361l1.767-0.205h1.3
					c0.216,0,0.538-0.121,0.933-0.32c0.182-0.081,0.363-0.205,0.579-0.286l2.308-2.063l-0.54-2.708l-2.813-1.293l-0.758,0.729
					l0.251-1.01l-0.754-0.405l-0.903,0.08c-0.721,0.161-1.227,0.201-1.514,0.283c-0.073,0-0.181,0-0.218,0.042
					c-0.216,0.039-0.83,0.161-1.839,0.36l-1.116,0.529l-0.688,0.808l-0.612,0.163l0.182-1.091c0.142-0.163,0.325-0.285,0.54-0.409
					c0.434-0.24,0.686-0.402,0.794-0.442c0.361-0.204,0.683-0.284,0.938-0.284h1.585c0.108,0,0.252,0,0.397,0
					C205.375,103.749,205.481,103.708,205.662,103.666z"/>
				<path fill="#606060" stroke="#595959" stroke-miterlimit="10" d="M6.479,61.745c-0.18-0.042-0.433-0.083-0.652-0.083
					L1.321,60.33l-4.58,0.483l-1.046-0.405h-1.84l-2.447-0.36c-1.695-0.286-2.706-0.407-2.961-0.407
					c-0.252,0-1.259-0.079-2.991-0.12l-4.328,0.323c-0.972-0.204-1.585-0.282-1.765-0.282c-0.179,0-0.505-0.121-0.974-0.324
					l0.758-0.851l-1.3,0.164l-1.803-0.243h-1.226l-1.083,0.243l-1.152-1.052l-1.913,1.052l0.256-1.093l-1.407-0.362l-1.155,0.039
					c-0.9,0.528-1.441,0.809-1.549,0.93c-0.145,0.164-0.724,0.286-1.804,0.445l-1.155,0.163l-2.704,1.171l-0.54-0.812l-2.233,0.812
					c-1.371,0.163-2.131,0.243-2.237,0.243c-0.071,0-0.323,0.121-0.758,0.282c-0.429,0.203-0.684,0.284-0.755,0.284
					c-0.18,0-0.578,0.364-1.333,1.092l-0.649,1.089l-1.734,0.366c-1.512,0.363-2.341,0.565-2.449,0.565
					c-0.143,0-0.793-0.079-1.984-0.241l-1.08,0.162l-0.758,1.495c0.683,0.363,1.151,0.565,1.407,0.606l1.188,0.121
					c0.575,0.081,0.976,0.163,1.153,0.242c0.289,0.123,1.119,0.365,2.522,0.769l0.435,1.216l3.641,0.725l1.912-0.12l0.073,1.011
					l2.669,0.283l-0.216,0.524c-1.046-0.367-1.695-0.524-1.84-0.524l-0.866-0.042c-0.471,0-0.722-0.04-0.829-0.04
					c-0.145-0.082-0.253-0.12-0.36-0.201l0.503,1.049l-0.467,0.486c-0.866,0.123-1.371,0.162-1.516,0.162
					c-0.146,0-0.613-0.039-1.441-0.162l-1.369-0.242l0.574-0.889l-1.12-0.323c-1.331,0.404-2.089,0.646-2.231,0.646
					c-0.182,0-2.271,0.646-6.274,1.939l0.791,0.811h1.229l1.298,0.242l-1.153,0.564l0.72,0.85l1.26,0.606
					c1.014,0.162,1.591,0.241,1.732,0.241c0.147,0,0.614-0.039,1.48-0.121l1.658-0.12l1.513,0.162l0.58-0.444l0.431,0.687
					l1.153-0.164l2.02-0.929l1.371-0.404l-0.326,3.639l-0.611,0.648l-1.803-0.527c-0.901,0.083-1.406,0.163-1.551,0.284
					c-0.146,0.123-0.648,0.404-1.588,0.809l-0.898,0.16l-0.866-0.846l-0.868,0.97c-0.468,0.363-0.794,0.646-0.936,0.769
					c-0.179,0.08-0.578,0.646-1.153,1.696l-0.434,0.771c-0.577,0.039-0.938,0.079-1.082,0.122c-0.106,0.037-0.362,0.2-0.648,0.523
					l0.826,0.405l1.988,0.201l-0.039,0.729l0.039,0.322l1.406,0.125l1.151-0.125l0.794,0.162l0.577,0.569l-0.216,0.928l0.034,1.537
					l0.939-0.244l1.08-0.687c0.542-0.607,0.868-0.93,1.011-0.97c0.145-0.041,0.433-0.164,0.829-0.405l0.431,0.848l0.325,1.213
					l-0.252,0.729l-0.073,0.646l-0.431,0.405l0.648,0.444l-0.648,0.445l-0.396,0.607l0.36,0.282l1.336-0.202l0.971-0.366
					l0.509,0.567l0.428-0.808l0.83-0.323l0.434,0.485l0.54,0.364c0.182,0.123,0.359,0.159,0.508,0.159
					c0.105,0,0.501,0.123,1.116,0.325l0.685,0.201l0.791-1.332l0.253-0.203l0.216,0.769l0.399,0.203h1.261
					c0.038,0.036,0.18,0,0.468-0.123c0.182-0.08,0.362-0.123,0.578-0.203c0.218-0.04,0.36-0.122,0.434-0.161
					c0.143-0.083,0.359-0.203,0.65-0.405l-1.119,1.293c-0.36,0.282-0.613,0.527-0.687,0.728c-0.108,0.161-0.179,0.605-0.179,1.294
					l0.217,0.485c-0.398,0.201-0.725,0.402-0.865,0.606c-0.218,0.16-0.613,0.484-1.298,1.049c-0.361-0.2-0.615-0.241-0.758-0.2
					c-0.073,0.04-0.253,0.123-0.541,0.162c-0.325,0.038-0.505,0.161-0.574,0.203c-0.112,0.078-0.291,0.159-0.509,0.24
					c-0.288,0.121-0.506,0.202-0.613,0.321c-0.286,0.124-0.648,0.286-1.117,0.409l-0.253,0.28l-0.109,0.971l0.289,0.767l0.506,0.042
					l0.792,0.403l0.541-0.283l0.11-0.647c0.866-0.283,1.37-0.446,1.515-0.446c0.143,0,0.467,0.124,0.936,0.326l1.335-1.255
					c0.252-0.524,0.468-0.849,0.72-0.849c0.144,0,0.433-0.039,0.795-0.078c0.358-0.042,0.613-0.081,0.72-0.081
					c0.146,0,0.507-0.12,1.047-0.285l-0.073-0.97l1.73-0.484l1.731-1.256l1.333-0.48l1.476-0.811l2.602-3.154l0.216-1.253
					l-0.722-0.727l1.297,0.204l1.696-1.336l0.828-0.928c1.011-0.204,1.585-0.325,1.769-0.365l0.758-0.162
					c0.106-0.041,0.178-0.041,0.285-0.079c0.255-0.04,0.399-0.04,0.471,0c0.18,0.079,0.864-0.04,2.019-0.365l-2.417,0.971
					c-1.009,0.362-1.622,0.604-1.8,0.645c-0.216,0.042-0.546,0.123-0.904,0.243l-0.901,1.415l-0.358,1.254
					c0.107,0.243,0.324,0.363,0.648,0.363c0.287-0.083,0.83-0.203,1.623-0.363l-1.623,0.807l-0.506,0.486
					c0.397,0.242,0.722,0.363,0.868,0.363c0.938,0,1.476-0.04,1.62-0.121c0.11-0.08,0.471-0.403,1.047-0.928l0.685-0.364h0.613
					l1.298-1.254l0.938-1.496c0.722-0.363,1.117-0.565,1.262-0.646l1.333-0.691c0.146-0.079,0.434-0.039,0.831,0.165
					c0.649,0.563,1.046,0.85,1.189,0.93c0.106,0.08,0.757,0.242,1.839,0.444c-0.039,0.241-0.143,0.485-0.361,0.647
					c-0.216,0.16-0.396,0.403-0.58,0.766l2.42-1.089c0.216,0.363,0.471,0.484,0.646,0.443c0.148-0.081,0.435-0.161,0.902-0.24
					l1.19-0.651l-0.756,0.771l0.179,0.646l1.299,0.286c0.902,0.199,1.406,0.24,1.554,0.199c0.142-0.081,0.608-0.199,1.441-0.365
					l1.656,0.244c0.217,0.162,0.542,0.241,0.902,0.203c0.397-0.041,0.828-0.124,1.26-0.281c-0.032,0.442,0,0.645,0.218,0.645
					c0.217,0,0.614,0.081,1.154,0.201c0.541,0.161,0.902,0.285,1.009,0.285c0.145,0,0.434-0.162,0.794-0.485
					c0.287-0.161,0.542-0.244,0.722-0.284c0.251-0.041,0.54-0.079,0.972-0.12l0.111-0.083l0.286-0.807
					c-0.216-0.081-0.358-0.163-0.467-0.202c-0.071-0.041-0.11-0.041-0.11-0.041c-0.104,0-0.505,0.121-1.227,0.364
					c-0.143,0.164-0.287,0.202-0.469,0.082l-0.43-0.284c-0.183-0.121-0.362-0.162-0.435-0.121l-0.323,0.202
					c-0.145,0.041-0.251,0.082-0.288,0.082c-0.111-0.041-0.254-0.163-0.47-0.325l-0.108-0.404L6.479,61.745z"/>
				<path fill="#606060" stroke="#595959" stroke-miterlimit="10" d="M71.13,43.473c-0.216-0.122-0.434-0.204-0.574-0.162
					c-0.18,0-0.328,0.04-0.436,0.162c-0.178,0.243-0.359,0.443-0.433,0.645l-1.911-0.605c-0.469,0.164-0.794,0.241-0.974,0.282
					c-0.071,0.042-0.106,0.083-0.18,0.083c0,0-0.182,0.121-0.43,0.403c-0.292,0.244-0.508,0.405-0.687,0.486
					c-0.219,0.122-0.469,0.244-0.795,0.445c-0.287,0.162-0.469,0.282-0.54,0.323c-0.073,0-0.289,0.081-0.72,0.161
					c-0.18,0.042-0.364,0.081-0.434,0.122c-0.108,0.081-0.183,0.081-0.218,0.121c-0.106,0.162-0.18,0.444-0.217,0.849h2.237
					c0.072,0,0.251,0.041,0.648,0.163c0.432,0.159,0.65,0.241,0.685,0.241c0.182,0.04,0.542,0.123,1.082,0.162l0.938-0.525
					l0.756,0.364c0.614-0.241,1.013-0.404,1.155-0.485c0.143-0.04,0.36-0.161,0.72-0.283c0.397-0.122,0.615-0.244,0.685-0.244
					c0.182,0,0.651,0.123,1.518,0.244l-0.758,0.484h0.793h2.667l1.553-0.524l0.683-0.363c-0.503-0.646-0.862-1.01-1.009-1.049
					l-0.756-0.49c-0.399-0.241-0.649-0.362-0.756-0.362h-1.877c-0.107,0-0.432-0.039-0.938-0.039l-0.828-0.081
					C71.636,43.997,71.42,43.835,71.13,43.473z"/>
				<path fill="#606060" stroke="#595959" stroke-miterlimit="10" d="M91.143,52.163l-1.551-0.282h-1.693
					c-0.182,0-0.469-0.042-0.976-0.081v-1.175h-0.54l-0.646,1.255l0.432,2.102l0.646,1.09l1.011,0.768
					c-0.649,0.446-1.117,0.689-1.333,0.729c-0.145-0.041-0.253-0.123-0.397-0.322c-0.074-0.164-0.145-0.324-0.181-0.528
					c-0.035-0.162-0.217-0.606-0.54-1.252c-0.035-0.041-0.073-0.083-0.108-0.163l-1.189-0.321l-4.652-0.162
					c-0.142,0-0.396,0.122-0.795,0.364l-1.261,0.726l0.073-0.443l0.685-0.931c-1.155-0.283-1.805-0.444-1.946-0.484
					c-0.184-0.042-0.649-0.122-1.41-0.282l-0.861,0.202l-1.011,0.323l-1.046,0.605h-1.263l-0.469-2.101l-2.959,0.324
					c-0.645,0.241-1.076,0.32-1.187,0.32l-1.225,0.123c-0.111,0-0.291,0.08-0.651,0.203l-0.611,0.202
					c-0.146,0-0.399,0.241-0.758,0.727l-1.479,1.415l-1.333,0.688l0.358,0.446h2.309l0.722,0.645
					c-0.109,0.203-0.287,0.323-0.505,0.323c-0.217,0-0.683,0.242-1.478,0.688c1.118,0.769,1.765,1.128,1.873,1.212l0.795,0.122
					c0.181,0,0.36,0.038,0.541,0.082c0.145,0,0.289,0,0.361,0c0.145,0,0.541,0,1.191-0.082c0.611-0.039,0.972-0.081,1.151-0.081
					s0.648-0.041,1.333-0.125c0.65-0.076,1.084-0.158,1.264-0.158c0.071-0.041,0.612-0.041,1.548,0l1.734,0.121
					c0.36,0,1.622,0.162,3.927,0.526c-0.249,0.363-0.503,0.605-0.721,0.648c-0.504,0.08-0.973,0.119-1.441,0.119
					c-0.143,0-0.505-0.04-1.189-0.162l-1.407-0.199c-0.214-0.042-0.647-0.042-1.261,0.039l-3.497,0.083
					c-0.289,0-0.938,0.078-2.019,0.24l-1.516-0.201l-0.144,0.768l1.117,1.011c0.721,0.321,1.12,0.484,1.3,0.524l1.332,0.284
					c0.757,0.08,1.19,0.159,1.333,0.159h2.56c0.182,0,0.473,0.163,0.867,0.527l1.011,1.739c0.755,0,1.224,0.04,1.402,0.04
					c0.184,0,0.761,0,1.699,0.041c0.394,0.123,0.683,0.204,0.973,0.323c0.216,0.04,0.503-0.081,0.793-0.364l1.189-0.445l3.426-0.323
					l1.261-0.686l1.264-0.203h1.549l1.406-0.525l1.154-0.889l0.613,0.766c0.577,0.244,0.938,0.324,1.119,0.366c0,0,0,0,0.035,0
					c0.143-0.042,0.503,0.079,1.045,0.283c0.108,0.041,0.184,0.08,0.326,0.123l1.767,0.484h4.326l2.199-1.819
					c0.543-0.324,0.902-0.525,1.045-0.525c0.145,0,0.218,0.121,0.255,0.362l0.686,0.243l0.288-1.052l0.396-0.891
					c-0.684-0.078-1.227-0.16-1.515-0.321c-0.145-0.039-0.576-0.243-1.227-0.607c-0.685-0.323-1.045-0.524-1.188-0.567
					c-0.252-0.079-0.721-0.24-1.442-0.484c-0.615,0.445-1.01,0.649-1.153,0.604c-0.145-0.037-0.613-0.158-1.406-0.279l-2.236-4.043
					l-1.046-1.414L91.143,52.163z"/>
				<path fill="#606060" stroke="#595959" stroke-miterlimit="10" d="M61.721,40.641l-1.227,0.04
					c-0.359,0.162-0.54,0.325-0.54,0.487c0,0.123-0.037,0.282-0.037,0.362l-0.974-0.121l-0.974,0.282l-0.939,0.485
					c-0.433-0.121-0.684-0.121-0.611,0.082l0.107,0.284c0,0.121-0.071,0.161-0.216,0.203c-0.253,0.12-0.687,0.039-1.26-0.082h-0.649
					l-0.58,0.284c0.038,0.121,0,0.202-0.179,0.202l-0.578-0.042c-0.324,0-0.502,0-0.611,0c-0.143,0.042-0.795,0.162-2.02,0.405
					l-0.611,0.89l0.9,0.607l1.115-0.406l0.974,0.367l1.086-0.285l1.406-0.687l0.646,0.526h0.9l1.624-0.847
					c0.865-0.365,1.369-0.608,1.549-0.69c0.182-0.081,0.649-0.282,1.371-0.645l0.902,0.24l1.155,1.536l0.899-0.969
					c0.542-0.081,0.9-0.081,1.155-0.081c0.143,0,0.468-0.121,0.935-0.283c0.146-0.081,0.326-0.121,0.473-0.203l-0.507-1.738
					l-0.722-0.444l-0.613,0.566L61.721,40.641z"/>
				<path fill="#606060" stroke="#595959" stroke-miterlimit="10" d="M68.031,51.232l-0.724-0.563l-2.056-0.409l-2.811-0.886
					l-1.261,0.081c-0.905,0.283-1.445,0.444-1.661,0.522c-0.216,0.084-0.827,0.084-1.838,0l-0.793-0.442l-1.984-0.727L51.3,48.604
					l-5.194,0.609c0.326,0.404,0.54,0.687,0.685,0.765c0.146,0.084,0.506,0.244,1.011,0.571l0.108,0.562
					c-0.505,0.244-0.758,0.446-0.866,0.648c-0.071,0.202-0.253,0.607-0.576,1.134l-0.759,0.282l-0.611-0.282l-0.145,0.686
					l-0.578,0.405l-1.549,1.414h2.416l1.226,0.564c0.396,0.041,0.756,0.243,1.043,0.526c0.148,0.121,0.328,0.325,0.58,0.527
					c0.146,0.201,0.288,0.323,0.324,0.443c0.145,0.165,0.182,0.283,0.251,0.366c0.109,0.08,0.218,0.12,0.362,0.161
					c0.18-0.042,1.011-0.082,2.415-0.161c0.938-0.202,1.479-0.325,1.66-0.325c0.144,0,0.795-0.162,1.983-0.485l0.972-0.527
					l0.253-1.939l4.004-0.889c0.609-0.406,0.974-0.607,1.08-0.607c0.183,0,0.902-0.202,2.237-0.608l1.549-0.687L68.031,51.232z"/>
				<path fill="#606060" stroke="#595959" stroke-miterlimit="10" d="M62.981,44.684c0.07-0.205,0.106-0.405,0.037-0.567
					c-0.071-0.161-0.218-0.241-0.435-0.161c-0.287,0.161-0.538,0.323-0.756,0.445c-0.178,0.122-0.505,0.403-0.904,0.848
					l-0.719,0.688l0.289,0.485l1.442-1.296L62.981,44.684z"/>
				<path fill="#606060" stroke="#595959" stroke-miterlimit="10" d="M31.755,60.169c-0.215-0.043-0.396-0.043-0.469-0.043
					l-0.215,0.123c-0.145,0-0.362,0.082-0.613,0.203c0,0.04-0.073,0.04-0.073,0.079l-0.181,0.526l0.254,0.406
					c0.18,0.079,0.361,0.12,0.648,0.12l0,0c0.289,0,0.434-0.162,0.505-0.484c0.901-0.322,1.513-0.526,1.84-0.567
					c0.144-0.04,0.253-0.079,0.324-0.162c0.108-0.121,0.108-0.2,0.143-0.321c-0.432,0.078-0.758,0.121-0.9,0.201
					C32.873,60.249,32.439,60.249,31.755,60.169z"/>
				<path fill="#606060" stroke="#595959" stroke-miterlimit="10" d="M24.219,62.877l0.289,0.12
					c0.218,0.081,0.397,0.121,0.542,0.121c0.072,0,0.106-0.04,0.216-0.04c0.146-0.081,0.361-0.16,0.612-0.244
					c0.287-0.121,0.541-0.159,0.755-0.279c0.218-0.083,0.4-0.205,0.473-0.205c0.032-0.041,0.107-0.08,0.178-0.08
					c0.036-0.083,0.07-0.123,0.107-0.203c0.038-0.202,0.073-0.323,0.106-0.365c0.147-0.162,0.974-0.442,2.53-0.89
					c-0.65,0.084-1.05,0.164-1.194,0.244c-0.107,0.042-0.469,0.083-0.974,0.122h-1.262l-0.756,0.362L24.219,62.877z"/>
				<path fill="#606060" stroke="#595959" stroke-miterlimit="10" d="M125.074,80.302c0.147,0,0.359,0,0.721-0.041
					c0.361,0,0.648-0.082,0.83-0.163c0.252-0.04,0.541-0.405,0.827-0.93l-0.938-0.769c-0.358-0.442-0.72-0.645-1.045-0.645h-1.838
					c-0.506-0.162-0.866-0.244-1.084-0.244c-0.178,0-0.72-0.283-1.511-0.848c0.432-0.041,0.791,0,1.117,0.081l0.938,0.284
					c0.433,0.161,0.722,0.241,0.936,0.241c0.328,0,0.686,0,1.194,0.08c0.104,0,0.212,0.043,0.32,0.081
					c0.398,0,0.615,0.082,0.758,0.121c0.216,0.122,0.578,0.326,1.009,0.607h0.145h0.505c0.255,0,0.579-0.242,1.011-0.728
					l0.579-0.685l1.045-0.202c1.151,0.485,1.836,0.686,2.018,0.604c0.145-0.081,0.578-0.201,1.297-0.323
					c0.18-0.079,0.722-0.483,1.588-1.252l1.08-1.454l-0.108-0.647l-1.405-0.042l-3.029-0.121l-2.486-0.93l-3.391-0.607h3.966
					c0.685,0.202,1.153,0.406,1.442,0.527c0.649,0.201,1.118,0.446,1.478,0.688c0.146,0.04,0.831,0.122,2.057,0.201l1.261-0.728
					l0.647-2.185l3.572-0.038l0.756,1.334c0.253,0.568,0.434,0.889,0.542,1.009c0.143,0.122,0.36,0.242,0.685,0.326l-0.467-1.254
					l0.324-0.484c0.322,0,0.54-0.083,0.647-0.203c0.037-0.202,0.399-0.042,1.082,0.405c0.179,0.646,0.324,1.01,0.468,1.01
					s0.469-0.081,1.011-0.201l-0.326-0.768c-0.181-0.243-0.325-0.446-0.432-0.57c-0.073-0.039-0.109-0.078-0.144-0.078
					c-0.145-0.081-0.506-0.404-1.044-0.891c-0.473-0.526-0.794-0.767-0.941-0.728h-1.259l2.304-0.122l1.119,0.811
					c0.039,0.24,0.146,0.442,0.254,0.604c0.108,0.122,0.215,0.244,0.359,0.325c0.289,0.12,0.649,0.039,1.118-0.203l0.361-0.727
					h1.226l0.36-1.013l1.297-0.122l0.758-1.415l-1.909-0.929l-0.83-1.172l0.97-0.444c0.832,0,1.302-0.042,1.445-0.203
					c0.18-0.162-0.073-0.403-0.723-0.689l0.685-0.968l-1.476-0.93l-8.041-0.648l-0.687-0.201l-0.215,0.97l-0.037,1.697l-0.252,1.416
					c-0.431,0.363-0.758,0.606-0.899,0.767c-0.073,0.082-0.145,0.202-0.254,0.364c-0.071,0.162-0.215,0.364-0.361,0.606l-0.214,0.93
					l-0.902,0.081l-0.901-0.77c-0.469-1.01-0.796-1.572-0.938-1.655c-0.11-0.081-0.432-0.364-0.867-0.809l-0.862-0.808
					c-0.146-0.123-0.615-0.405-1.518-0.77l-2.955,2.267l-0.036-3.114c-2.2-0.163-3.428-0.284-3.605-0.284
					c-0.181,0-1.011-0.12-2.489-0.445L121.72,57.5l-1.44-1.415l-2.056-0.526l-1.084,1.012l-1.079,0.564l-1.371,0.081l-0.831,0.242
					l-0.434,0.567l0.507,0.888l1.515,0.487l-1.333,0.77c0.034,0.484,0.145,0.768,0.324,0.768c0.141,0,0.469,0.161,1.009,0.483
					c0.108,0.08,0.289,0.162,0.432,0.283l1.767,0.365h2.6l0.72,0.08l-1.624,0.527l-0.831,0.604l-0.322,0.892l1.657-0.326
					l0.864,0.042l0.329,0.889l-2.453,1.171l-2.164-0.161l-0.359,2.184l-0.614,1.736l-1.226-4.041l-1.334-0.647l-2.056-0.08
					l0.903,1.333l-0.182,0.688l-2.524-0.123l-0.828,0.365l-1.157-0.365l-3.028-0.404l-2.451,0.687
					c-1.295-0.12-1.983-0.203-2.128-0.283l-0.685-0.404c-0.396-0.244-0.647-0.323-0.758-0.323c-0.107,0-0.538-0.123-1.262-0.324
					l-1.442,0.324l-0.974-0.163l-2.2-1.777l-0.757,0.93l-1.693,0.566c-0.795-0.079-1.336-0.123-1.516-0.123
					c-0.251,0-0.72,0.043-1.513,0.123l0.718,1.942l0.795,1.534l-0.324,1.657l-0.649-1.657l-1.439-1.415l-1.011-0.606l-0.649,0.566
					l-1.262-0.726c-0.073-0.043-0.145-0.043-0.18-0.123c-0.432-0.324-0.794-0.485-1.049-0.485c-0.287,0-1.26,0.039-2.847,0.081
					l-1.298,0.605l-3.713-0.322l-2.018,0.202l-2.742-0.363l0.216-2.791l-5.229-0.16c-1.515-0.405-2.346-0.608-2.488-0.608
					c-0.145,0-1.011-0.203-2.6-0.606l-2.271-0.12c-1.225-0.567-1.907-0.808-2.054-0.808c-0.108,0-1.08,0-2.847-0.042l-1.408,0.162
					l-1.553,1.011l-1.729-0.242l-1.227-2.063l-1.874,2.387l-2.164-0.809l-3.028-2.345l-1.263-0.201l-2.019,1.617l-1.37,0.161
					l-2.992,0.849l-2.706,0.04l-1.838,1.292l-1.371,0.407h-1.804l-1.477,0.606c-0.544-0.161-1.011-0.203-1.333-0.203
					c-0.184,0-0.758-0.082-1.732-0.163c-1.045-0.121-1.587-0.162-1.622-0.162c-0.109,0-0.721-0.079-1.947-0.323
					c-1.19-0.242-1.802-0.324-1.91-0.324c-0.111,0-0.505-0.161-1.189-0.443c-0.795-0.324-1.191-0.487-1.229-0.527
					c-0.071,0-0.538-0.04-1.369-0.08l-1.333-0.082c-0.11,0-0.687-0.08-1.731-0.241"/>
				<path fill="#606060" stroke="#595959" stroke-miterlimit="10" d="M89.592,51.881h-1.693c-0.182,0-0.469-0.042-0.976-0.081
					v-1.175h-0.54l-0.646,1.255l0.432,2.102l0.646,1.09l1.011,0.768c-0.649,0.446-1.117,0.689-1.333,0.729
					c-0.145-0.041-0.253-0.123-0.397-0.322c-0.074-0.164-0.145-0.324-0.181-0.528c-0.035-0.162-0.217-0.606-0.54-1.252
					c-0.035-0.041-0.073-0.083-0.108-0.163l-1.189-0.321l-4.652-0.162c-0.142,0-0.396,0.122-0.795,0.364l-1.261,0.726l0.073-0.443
					l0.685-0.931c-1.155-0.283-1.805-0.444-1.946-0.484c-0.184-0.042-0.649-0.122-1.41-0.282l-0.861,0.202l-1.011,0.323
					l-1.046,0.605h-1.263l-0.469-2.101l-2.959,0.324c-0.645,0.241-1.076,0.32-1.187,0.32l-1.225,0.123
					c-0.111,0-0.291,0.08-0.651,0.203l-0.611,0.202c-0.146,0-0.399,0.241-0.758,0.727l-1.479,1.415l-1.333,0.688l0.358,0.446h2.309
					l0.722,0.645c-0.109,0.203-0.287,0.323-0.505,0.323c-0.217,0-0.683,0.242-1.478,0.688c1.118,0.769,1.765,1.128,1.873,1.212
					l0.795,0.122c0.181,0,0.36,0.038,0.541,0.082c0.145,0,0.289,0,0.361,0c0.145,0,0.541,0,1.191-0.082
					c0.611-0.039,0.972-0.081,1.151-0.081s0.648-0.041,1.333-0.125c0.65-0.076,1.084-0.158,1.264-0.158
					c0.071-0.041,0.612-0.041,1.548,0l1.734,0.121c0.36,0,1.622,0.162,3.927,0.526c-0.249,0.363-0.503,0.605-0.721,0.648
					c-0.504,0.08-0.973,0.119-1.441,0.119c-0.143,0-0.505-0.04-1.189-0.162l-1.407-0.199c-0.214-0.042-0.647-0.042-1.261,0.039
					l-3.497,0.083c-0.289,0-0.938,0.078-2.019,0.24l-1.516-0.201l-0.144,0.768l1.117,1.011c0.721,0.321,1.12,0.484,1.3,0.524
					l1.332,0.284c0.757,0.08,1.19,0.159,1.333,0.159h2.56c0.182,0,0.473,0.163,0.867,0.527l1.011,1.739
					c0.755,0,1.224,0.04,1.402,0.04c0.184,0,0.761,0,1.699,0.041c0.394,0.123,0.683,0.204,0.973,0.323
					c0.216,0.04,0.503-0.081,0.793-0.364l1.189-0.445l3.426-0.323l1.261-0.686l1.264-0.203h1.549l1.406-0.525l1.154-0.889
					l0.613,0.766c0.577,0.244,0.938,0.324,1.119,0.366c0,0,0,0,0.035,0c0.143-0.042,0.503,0.079,1.045,0.283
					c0.108,0.041,0.184,0.08,0.326,0.123l1.767,0.484h4.326l2.199-1.819c0.543-0.324,0.902-0.525,1.045-0.525
					c0.145,0,0.218,0.121,0.255,0.362l0.686,0.243l0.288-1.052l0.396-0.891c-0.684-0.078-1.227-0.16-1.515-0.321
					c-0.145-0.039-0.576-0.243-1.227-0.607c-0.685-0.323-1.045-0.524-1.188-0.567c-0.252-0.079-0.721-0.24-1.442-0.484
					c-0.615,0.445-1.01,0.649-1.153,0.604c-0.145-0.037-0.613-0.158-1.406-0.279l-2.236-4.043l-1.046-1.414l-1.227-1.133
					L89.592,51.881"/>
				<path fill="#606060" stroke="#595959" stroke-miterlimit="10" d="M61.721,40.641l3.352,0.324l0.613-0.566l0.722,0.444
					l0.507,1.738c-0.146,0.082-0.326,0.122-0.473,0.203c-0.467,0.163-0.792,0.283-0.935,0.283c-0.255,0-0.613,0-1.155,0.081
					l-0.899,0.969l-1.155-1.536l-0.902-0.24c-0.722,0.362-1.189,0.564-1.371,0.645c-0.18,0.082-0.684,0.325-1.549,0.69l-1.624,0.847
					h-0.9l-0.646-0.526l-1.406,0.687l-1.086,0.285l-0.974-0.367l-1.115,0.406l-0.9-0.607l0.611-0.89
					c1.225-0.243,1.877-0.363,2.02-0.405c0.109,0,0.287,0,0.611,0l0.578,0.042c0.179,0,0.217-0.081,0.179-0.202l0.58-0.284h0.649
					c0.573,0.121,1.007,0.202,1.26,0.082c0.145-0.042,0.216-0.082,0.216-0.203l-0.107-0.284c-0.072-0.203,0.179-0.203,0.611-0.082
					l0.939-0.485l0.974-0.282l0.974,0.121c0-0.08,0.037-0.24,0.037-0.362c0-0.162,0.181-0.325,0.54-0.487L61.721,40.641"/>
				<path fill="#606060" stroke="#595959" stroke-miterlimit="10" d="M71.13,43.473c0.29,0.363,0.506,0.524,0.65,0.524l0.828,0.081
					c0.507,0,0.831,0.039,0.938,0.039h1.877c0.106,0,0.356,0.122,0.756,0.362l0.756,0.49c0.146,0.04,0.506,0.403,1.009,1.049
					l-0.683,0.363l-1.553,0.524h-2.667h-0.793l0.758-0.484c-0.866-0.122-1.336-0.244-1.518-0.244c-0.069,0-0.287,0.123-0.685,0.244
					c-0.359,0.122-0.577,0.244-0.72,0.283c-0.143,0.081-0.541,0.244-1.155,0.485l-0.756-0.364l-0.938,0.525
					c-0.54-0.039-0.9-0.122-1.082-0.162c-0.034,0-0.253-0.082-0.685-0.241c-0.397-0.123-0.576-0.163-0.648-0.163h-2.237
					c0.037-0.404,0.11-0.687,0.217-0.849c0.035-0.041,0.109-0.041,0.218-0.121c0.069-0.042,0.254-0.08,0.434-0.122
					c0.431-0.08,0.646-0.161,0.72-0.161c0.071-0.041,0.253-0.161,0.54-0.323c0.326-0.201,0.576-0.323,0.795-0.445
					c0.179-0.081,0.395-0.242,0.687-0.486c0.248-0.282,0.43-0.403,0.43-0.403c0.073,0,0.108-0.041,0.18-0.083
					c0.18-0.041,0.505-0.118,0.974-0.282l1.911,0.605c0.073-0.201,0.255-0.401,0.433-0.645c0.107-0.122,0.256-0.162,0.436-0.162
					C70.696,43.269,70.914,43.351,71.13,43.473"/>
				<path fill="#606060" stroke="#595959" stroke-miterlimit="10" d="M68.031,51.232l-2.851,0.526l-1.549,0.687
					c-1.335,0.406-2.055,0.608-2.237,0.608c-0.106,0-0.471,0.201-1.08,0.607l-4.004,0.889l-0.253,1.939l-0.972,0.527
					c-1.188,0.323-1.84,0.485-1.983,0.485c-0.181,0-0.723,0.123-1.66,0.325c-1.404,0.08-2.235,0.12-2.415,0.161
					c-0.145-0.042-0.253-0.082-0.362-0.161c-0.069-0.083-0.106-0.202-0.251-0.366c-0.036-0.12-0.179-0.242-0.324-0.443
					c-0.252-0.202-0.432-0.406-0.58-0.527c-0.287-0.283-0.646-0.485-1.043-0.526l-1.226-0.564h-2.416l1.549-1.414l0.578-0.405
					l0.145-0.686l0.611,0.282l0.759-0.282c0.323-0.527,0.505-0.932,0.576-1.134c0.108-0.202,0.361-0.404,0.866-0.648l-0.108-0.562
					c-0.505-0.327-0.864-0.486-1.011-0.571c-0.145-0.078-0.358-0.361-0.685-0.765l5.194-0.609l3.604,0.205l1.984,0.727l0.793,0.442
					c1.011,0.084,1.622,0.084,1.838,0c0.216-0.078,0.756-0.239,1.661-0.522l1.261-0.081l2.811,0.886l2.056,0.409L68.031,51.232"/>
				<path fill="#606060" stroke="#595959" stroke-miterlimit="10" d="M63.019,44.117c-0.071-0.161-0.218-0.241-0.435-0.161
					c-0.287,0.161-0.538,0.323-0.756,0.445c-0.178,0.122-0.505,0.403-0.904,0.848l-0.719,0.688l0.289,0.485l1.442-1.296l1.045-0.442
					C63.052,44.479,63.088,44.279,63.019,44.117"/>
				<path fill="#606060" stroke="#595959" stroke-miterlimit="10" d="M31.286,60.126l-0.215,0.123c-0.145,0-0.362,0.082-0.613,0.203
					c0,0.04-0.073,0.04-0.073,0.079l-0.181,0.526l0.254,0.406c0.18,0.079,0.361,0.12,0.648,0.12l0,0
					c0.289,0,0.434-0.162,0.505-0.484c0.901-0.322,1.513-0.526,1.84-0.567c0.144-0.04,0.253-0.079,0.324-0.162
					c0.108-0.121,0.108-0.2,0.143-0.321c-0.432,0.078-0.758,0.121-0.9,0.201c-0.145,0-0.578,0-1.263-0.08
					C31.54,60.126,31.358,60.126,31.286,60.126"/>
				<path fill="#606060" stroke="#595959" stroke-miterlimit="10" d="M6.479,61.745c-0.18-0.042-0.433-0.083-0.652-0.083
					L1.321,60.33l-4.58,0.483l-1.046-0.405h-1.84l-2.447-0.36c-1.695-0.286-2.706-0.407-2.961-0.407
					c-0.252,0-1.259-0.079-2.991-0.12l-4.328,0.323c-0.972-0.204-1.585-0.282-1.765-0.282c-0.179,0-0.505-0.121-0.974-0.324
					l0.758-0.851l-1.3,0.164l-1.803-0.243h-1.226l-1.083,0.243l-1.152-1.052l-1.913,1.052l0.256-1.093l-1.407-0.362l-1.155,0.039
					c-0.9,0.528-1.441,0.809-1.549,0.93c-0.145,0.164-0.724,0.286-1.804,0.445l-1.155,0.163l-2.704,1.171l-0.54-0.812l-2.233,0.812
					c-1.371,0.163-2.131,0.243-2.237,0.243c-0.071,0-0.323,0.121-0.758,0.282c-0.429,0.203-0.684,0.284-0.755,0.284
					c-0.18,0-0.578,0.364-1.333,1.092l-0.649,1.089l-1.734,0.366c-1.512,0.363-2.341,0.565-2.449,0.565
					c-0.143,0-0.793-0.079-1.984-0.241l-1.08,0.162l-0.758,1.495c0.683,0.363,1.151,0.565,1.407,0.606l1.188,0.121
					c0.575,0.081,0.976,0.163,1.153,0.242c0.289,0.123,1.119,0.365,2.522,0.769l0.435,1.216l3.641,0.725l1.912-0.12l0.073,1.011
					l2.669,0.283l-0.216,0.524c-1.046-0.367-1.695-0.524-1.84-0.524l-0.866-0.042c-0.471,0-0.722-0.04-0.829-0.04
					c-0.145-0.082-0.253-0.12-0.36-0.201l0.503,1.049l-0.467,0.486c-0.866,0.123-1.371,0.162-1.516,0.162
					c-0.146,0-0.613-0.039-1.441-0.162l-1.369-0.242l0.574-0.889l-1.12-0.323c-1.331,0.404-2.089,0.646-2.231,0.646
					c-0.182,0-2.271,0.646-6.274,1.939l0.791,0.811h1.229l1.298,0.242l-1.153,0.564l0.72,0.85l1.26,0.606
					c1.014,0.162,1.591,0.241,1.732,0.241c0.147,0,0.614-0.039,1.48-0.121l1.658-0.12l1.513,0.162l0.58-0.444l0.431,0.687
					l1.153-0.164l2.02-0.929l1.371-0.404l-0.326,3.639l-0.611,0.648l-1.803-0.527c-0.901,0.083-1.406,0.163-1.551,0.284
					c-0.146,0.123-0.648,0.404-1.588,0.809l-0.898,0.16l-0.866-0.846l-0.868,0.97c-0.468,0.363-0.794,0.646-0.936,0.769
					c-0.179,0.08-0.578,0.646-1.153,1.696l-0.434,0.771c-0.577,0.039-0.938,0.079-1.082,0.122c-0.106,0.037-0.362,0.2-0.648,0.523
					l0.826,0.405l1.988,0.201l-0.039,0.729l0.039,0.322l1.406,0.125l1.151-0.125l0.794,0.162l0.577,0.569l-0.216,0.928l0.034,1.537
					l0.939-0.244l1.08-0.687c0.542-0.607,0.868-0.93,1.011-0.97c0.145-0.041,0.433-0.164,0.829-0.405l0.431,0.848l0.325,1.213
					l-0.252,0.729l-0.073,0.646l-0.431,0.405l0.648,0.444l-0.648,0.445l-0.396,0.607l0.36,0.282l1.336-0.202l0.971-0.366
					l0.509,0.567l0.428-0.808l0.83-0.323l0.434,0.485l0.54,0.364c0.182,0.123,0.359,0.159,0.508,0.159
					c0.105,0,0.501,0.123,1.116,0.325l0.685,0.201l0.791-1.332l0.253-0.203l0.216,0.769l0.399,0.203h1.261
					c0.038,0.036,0.18,0,0.468-0.123c0.182-0.08,0.362-0.123,0.578-0.203c0.218-0.04,0.36-0.122,0.434-0.161
					c0.143-0.083,0.359-0.203,0.65-0.405l-1.119,1.293c-0.36,0.282-0.613,0.527-0.687,0.728c-0.108,0.161-0.179,0.605-0.179,1.294
					l0.217,0.485c-0.398,0.201-0.725,0.402-0.865,0.606c-0.218,0.16-0.613,0.484-1.298,1.049c-0.361-0.2-0.615-0.241-0.758-0.2
					c-0.073,0.04-0.253,0.123-0.541,0.162c-0.325,0.038-0.505,0.161-0.574,0.203c-0.112,0.078-0.291,0.159-0.509,0.24
					c-0.288,0.121-0.506,0.202-0.613,0.321c-0.286,0.124-0.648,0.286-1.117,0.409l-0.253,0.28l-0.109,0.971l0.289,0.767l0.506,0.042
					l0.792,0.403l0.541-0.283l0.11-0.647c0.866-0.283,1.37-0.446,1.515-0.446c0.143,0,0.467,0.124,0.936,0.326l1.335-1.255
					c0.252-0.524,0.468-0.849,0.72-0.849c0.144,0,0.433-0.039,0.795-0.078c0.358-0.042,0.613-0.081,0.72-0.081
					c0.146,0,0.507-0.12,1.047-0.285l-0.073-0.97l1.73-0.484l1.731-1.256l1.333-0.48l1.476-0.811l2.602-3.154l0.216-1.253
					l-0.722-0.727l1.297,0.204l1.696-1.336l0.828-0.928c1.011-0.204,1.585-0.325,1.769-0.365l0.758-0.162
					c0.106-0.041,0.178-0.041,0.285-0.079c0.255-0.04,0.399-0.04,0.471,0c0.18,0.079,0.864-0.04,2.019-0.365l-2.417,0.971
					c-1.009,0.362-1.622,0.604-1.8,0.645c-0.216,0.042-0.546,0.123-0.904,0.243l-0.901,1.415l-0.358,1.254
					c0.107,0.243,0.324,0.363,0.648,0.363c0.287-0.083,0.83-0.203,1.623-0.363l-1.623,0.807l-0.506,0.486
					c0.397,0.242,0.722,0.363,0.868,0.363c0.938,0,1.476-0.04,1.62-0.121c0.11-0.08,0.471-0.403,1.047-0.928l0.685-0.364h0.613
					l1.298-1.254l0.938-1.496c0.722-0.363,1.117-0.565,1.262-0.646l1.333-0.691c0.146-0.079,0.434-0.039,0.831,0.165
					c0.649,0.563,1.046,0.85,1.189,0.93c0.106,0.08,0.757,0.242,1.839,0.444c-0.039,0.241-0.143,0.485-0.361,0.647
					c-0.216,0.16-0.396,0.403-0.58,0.766l2.42-1.089c0.216,0.363,0.471,0.484,0.646,0.443c0.148-0.081,0.435-0.161,0.902-0.24
					l1.19-0.651l-0.756,0.771l0.179,0.646l1.299,0.286c0.902,0.199,1.406,0.24,1.554,0.199c0.142-0.081,0.608-0.199,1.441-0.365
					l1.656,0.244c0.217,0.162,0.542,0.241,0.902,0.203c0.397-0.041,0.828-0.124,1.26-0.281c-0.032,0.442,0,0.645,0.218,0.645
					c0.217,0,0.614,0.081,1.154,0.201c0.541,0.161,0.902,0.285,1.009,0.285c0.145,0,0.434-0.162,0.794-0.485
					c0.287-0.161,0.542-0.244,0.722-0.284c0.251-0.041,0.54-0.079,0.972-0.12"/>
				<path fill="#606060" stroke="#595959" stroke-miterlimit="10" d="M24.508,62.997c0.218,0.081,0.397,0.121,0.542,0.121
					c0.072,0,0.106-0.04,0.216-0.04c0.146-0.081,0.361-0.16,0.612-0.244c0.287-0.121,0.541-0.159,0.755-0.279
					c0.218-0.083,0.4-0.205,0.473-0.205c0.032-0.041,0.107-0.08,0.178-0.08c0.036-0.083,0.07-0.123,0.107-0.203
					c0.038-0.202,0.073-0.323,0.106-0.365c0.147-0.162,0.974-0.442,2.53-0.89c-0.65,0.084-1.05,0.164-1.194,0.244
					c-0.107,0.042-0.469,0.083-0.974,0.122h-1.262l-0.756,0.362l-1.624,1.336L24.508,62.997"/>
				<path fill="#606060" stroke="#595959" stroke-miterlimit="10" d="M10.913,86.972c-0.216-0.081-0.358-0.163-0.467-0.202
					c-0.071-0.041-0.11-0.041-0.11-0.041c-0.104,0-0.505,0.121-1.227,0.364c-0.143,0.164-0.287,0.202-0.469,0.082l-0.43-0.284
					c-0.183-0.121-0.362-0.162-0.435-0.121l-0.323,0.202c-0.145,0.041-0.251,0.082-0.288,0.082c-0.111-0.041-0.254-0.163-0.47-0.325
					l-0.108-0.404l-0.107-24.58"/>
			</g>
		</g>
	</g>
</g>
<g>
	<defs>
		<rect id="SVGID_3_" x="102.845" y="-98.58" width="319.281" height="479.86"/>
	</defs>
	<clipPath id="SVGID_4_">
		<use xlink:href="#SVGID_3_"  overflow="visible"/>
	</clipPath>
	<g clip-path="url(#SVGID_4_)">
		<g>
			<g>
				<path fill="#606060" stroke="#595959" stroke-miterlimit="10" d="M206.662,74.147c0.29-0.078,0.543-0.2,0.721-0.364
					c0.291-0.2,0.685-0.522,1.19-1.049l0.251-0.364l-1.007,0.163l-0.251-0.771l-0.688,0.608c-0.178-0.081-0.357-0.162-0.539-0.162
					c-0.18,0-0.576-0.04-1.157-0.079l-0.574-0.444c0.106-0.447,0.106-0.648,0-0.648c-0.143,0-0.504,0.079-1.046,0.323l-0.216-0.162
					l-0.687-0.242l-0.862,0.485l-0.904-0.243l-1.298-2.507l-0.866-0.402l0.324-1.376c-0.033-0.078-0.143-0.121-0.358-0.078
					c-0.217,0-0.646,0.121-1.262,0.281c0.756-0.324,1.153-0.647,1.189-0.888c0.037-0.284-0.107-0.808-0.434-1.617l-1.584-1.699
					l-1.552,0.527l0.794-1.173h-1.082l0.755-1.01l-1.438-0.12l0.143-1.416l-1.19-0.204l-0.361-1.171l-0.686-0.526l-0.357-1.011
					c-0.397,0.121-0.615,0.282-0.65,0.484c-0.04,0.163-0.183,0.607-0.468,1.295l-0.255,1.535l-0.358,0.727l-1.264-0.08l-0.433,1.375
					l-0.9-0.648l-1.265,0.285l-1.369,0.769l-0.396,0.889l-0.397-1.133l-1.371,0.889l-1.62,0.364l1.728-1.535
					c-0.107-0.528-0.288-0.81-0.501-0.889c-0.182-0.081-0.688-0.366-1.372-0.771l-1.37-0.485l-0.252-1.252l-2.74-0.729l2.92,0.16
					l1.119-1.776l-0.759-0.73l-2.523-0.686l-1.876,0.364l-0.291-1.213l-1.117-0.121l-0.684-0.486l-3.427-1.736l-0.936,0.321
					l-1.083,0.609l-2.921-0.285l-0.938-0.565l-3.424-0.526l-0.829,0.728l-0.396,0.485c0.214,0.041,0.467,0.324,0.72,0.687
					c0.25,0.406,0.434,0.769,0.576,1.092l-0.576,0.889l-2.162,1.091h2.487c0.396,0.201,0.575,0.406,0.575,0.565
					c0,0.123-0.034,0.487-0.143,1.053l0.36,0.364l-0.901,0.767c-0.904,0.687-1.405,1.173-1.479,1.415
					c0,0.082-0.146,0.323-0.361,0.771c-0.216,0.321-0.291,0.523-0.291,0.646c0.039,0.123,0.146,0.321,0.328,0.525
					c0.144,0.244,0.324,0.362,0.433,0.362c0.25,0,0.829,0.204,1.766,0.61c0.47,0.161,0.724,0.281,0.83,0.323
					c0.216,0.157,0.398,0.284,0.469,0.402l0.685,1.577l0.326,1.901v1.536c-0.797,0.524-1.264,0.847-1.407,0.889
					c-0.11,0-0.649,0.322-1.624,0.849l-1.839,0.97l-1.478,0.406c-0.145,0.039-0.503,0.119-1.011,0.202l-0.541,0.403
					c0.649,0.729,1.048,1.135,1.191,1.172c0.107,0.081,0.252,0.201,0.467,0.404c0.217,0.243,0.329,0.404,0.36,0.567
					c0.039,0.2,0.108,0.606,0.289,1.172l-0.071,0.888c0.037,0.567,0.108,0.889,0.253,1.054c0.287,0.322,0.468,0.563,0.574,0.768
					c0.11,0.201,0.255,0.403,0.434,0.644l-1.008,0.486l-0.182,1.172l0.144,0.767l-1.008-0.442l-0.252-0.646l-0.757,0.727
					l-0.036,0.325l0.504,1.21c-0.288-0.039-0.541-0.16-0.65-0.241c-0.141-0.162-0.54-0.487-1.19-1.093l-0.972-0.808
					c-0.36-0.445-0.646-0.688-0.827-0.688c-0.183,0-0.614-0.122-1.3-0.324l-0.757-0.446c-0.36-0.442-0.613-0.804-0.65-0.969
					c0-0.242-0.325-1.089-0.865-2.547c0.108-0.928,0.145-1.494,0.145-1.656c0-0.243,0-0.526,0.038-0.811
					c0.071-0.403,0.106-0.727,0.178-0.93c0.108-0.322,0.145-0.685,0.071-1.131h-1.188c-0.433-0.244-0.793-0.323-1.046-0.323h-1.587
					l-0.828-0.163l-1.841-0.162l-0.684,0.403v-0.849l-5.41-1.577l-1.37-0.484l-1.911-1.617h-1.373c-0.141,0-0.683-0.161-1.62-0.406
					c-0.576-0.241-0.902-0.365-1.082-0.365h-1.875c-0.251,0-0.723,0.084-1.442,0.245c-0.722,0.203-1.155,0.282-1.189,0.282
					c-0.217,0-0.575,0.044-1.084,0.121l1.012-1.292l-1.911-3.681l-2.415-0.12l-0.47,0.564l-1.013-1.008l-0.284-1.698l0.396-2.468
					l0.577-0.443l1.949-2.426c0.648-0.242,0.971-0.446,1.007-0.566c0.037-0.162-0.105-0.565-0.359-1.133l1.152,0.163l-0.108-1.012
					l1.661-0.322c0.718-0.202,1.152-0.283,1.333-0.242c0.147,0,0.359,0,0.721-0.041c0.361,0,0.648-0.082,0.83-0.163
					c0.252-0.04,0.541-0.405,0.827-0.93l-0.938-0.769c-0.358-0.442-0.72-0.645-1.045-0.645h-1.838
					c-0.506-0.162-0.866-0.244-1.084-0.244c-0.178,0-0.721-0.283-1.511-0.848c0.432-0.041,0.791,0,1.117,0.081l0.938,0.284
					c0.433,0.161,0.722,0.241,0.936,0.241c0.328,0,0.686,0,1.194,0.08c0.104,0,0.212,0.043,0.32,0.081
					c0.398,0,0.615,0.082,0.758,0.121c0.216,0.122,0.578,0.326,1.009,0.607h0.145h0.505c0.255,0,0.578-0.242,1.011-0.728
					l0.579-0.685l1.045-0.202c1.151,0.485,1.836,0.686,2.018,0.604c0.145-0.081,0.578-0.201,1.297-0.323
					c0.18-0.079,0.722-0.483,1.588-1.252l1.08-1.454l-0.108-0.647l-1.405-0.042l-3.029-0.121l-2.486-0.93l-3.391-0.607h3.966
					c0.685,0.202,1.153,0.406,1.442,0.527c0.649,0.201,1.118,0.446,1.478,0.688c0.146,0.04,0.831,0.122,2.057,0.201l1.261-0.728
					l0.647-2.185l3.572-0.038l0.756,1.334c0.253,0.568,0.434,0.889,0.542,1.009c0.143,0.122,0.36,0.242,0.685,0.326l-0.467-1.254
					l0.324-0.484c0.322,0,0.54-0.083,0.647-0.203c0.037-0.202,0.399-0.042,1.082,0.405c0.179,0.646,0.324,1.01,0.468,1.01
					s0.469-0.081,1.011-0.201l-0.326-0.768c-0.181-0.243-0.325-0.446-0.432-0.57c-0.073-0.039-0.109-0.078-0.144-0.078
					c-0.145-0.081-0.506-0.404-1.044-0.891c-0.473-0.526-0.794-0.767-0.941-0.728h-1.259l2.304-0.122l1.12,0.811
					c0.039,0.24,0.146,0.442,0.254,0.604c0.108,0.122,0.215,0.244,0.359,0.325c0.289,0.12,0.649,0.039,1.118-0.203l0.361-0.727
					h1.226l0.36-1.013l1.297-0.122l0.758-1.415l-1.909-0.929l-0.83-1.172l0.97-0.444c0.832,0,1.302-0.042,1.445-0.203
					c0.18-0.162-0.073-0.403-0.723-0.689l0.685-0.968l-1.476-0.93l-8.041-0.648l-0.687-0.201l-0.215,0.97l-0.037,1.697l-0.252,1.416
					c-0.431,0.363-0.758,0.606-0.899,0.767c-0.073,0.082-0.145,0.202-0.254,0.364c-0.071,0.162-0.215,0.364-0.361,0.606l-0.214,0.93
					l-0.902,0.081l-0.901-0.77c-0.469-1.01-0.796-1.572-0.938-1.655c-0.11-0.081-0.432-0.364-0.867-0.809l-0.862-0.808
					c-0.146-0.123-0.615-0.405-1.518-0.77l-2.955,2.267l-0.036-3.114c-2.2-0.163-3.428-0.284-3.605-0.284
					c-0.181,0-1.011-0.12-2.489-0.445l-1.046-4.042l-1.44-1.415l-2.056-0.526l-1.084,1.012l-1.079,0.564l-1.371,0.081l-0.831,0.242
					l-0.434,0.567l0.507,0.888l1.515,0.487l-1.333,0.77c0.034,0.484,0.145,0.768,0.324,0.768c0.141,0,0.469,0.161,1.009,0.483
					c0.108,0.08,0.289,0.162,0.432,0.283l1.767,0.365h2.6l0.72,0.08l-1.624,0.527l-0.831,0.604l-0.322,0.892l1.657-0.326
					l0.864,0.042l0.329,0.889l-2.453,1.171l-2.164-0.161l-0.359,2.184l-0.614,1.736l-1.226-4.041l-1.334-0.647l-2.056-0.08
					l0.903,1.333l-0.182,0.688l-2.524-0.123l-0.828,0.365l-1.157-0.365l-3.028-0.404l-2.451,0.687
					c-1.295-0.12-1.983-0.203-2.128-0.283l-0.685-0.404c-0.396-0.244-0.647-0.323-0.758-0.323c-0.107,0-0.538-0.123-1.262-0.324
					l-1.442,0.324l-0.974-0.163l-2.2-1.777l-0.757,0.93l-1.693,0.566c-0.795-0.079-1.336-0.123-1.516-0.123
					c-0.251,0-0.72,0.043-1.513,0.123l0.718,1.942l0.795,1.534l-0.324,1.657l-0.649-1.657l-1.439-1.415l-1.011-0.606l-0.649,0.566
					l-1.262-0.726c-0.073-0.043-0.145-0.043-0.18-0.123c-0.433-0.324-0.794-0.485-1.049-0.485c-0.287,0-1.26,0.039-2.847,0.081
					l-1.298,0.605l-3.713-0.322l-2.018,0.202l-2.742-0.363l0.216-2.791l-5.229-0.16c-1.515-0.405-2.346-0.608-2.488-0.608
					c-0.145,0-1.011-0.203-2.6-0.606l-2.271-0.12c-1.225-0.567-1.907-0.808-2.054-0.808c-0.108,0-1.08,0-2.847-0.042l-1.408,0.162
					l-1.553,1.011l-1.729-0.242l-1.227-2.063l-1.874,2.387l-2.164-0.809l-3.028-2.345l-1.263-0.201l-2.019,1.617l-1.37,0.161
					l-2.992,0.849l-2.706,0.04l-1.838,1.292l-1.371,0.407h-1.804l-1.477,0.606c-0.544-0.161-1.011-0.203-1.333-0.203
					c-0.184,0-0.758-0.082-1.732-0.163c-1.045-0.121-1.587-0.162-1.622-0.162c-0.109,0-0.721-0.079-1.947-0.323
					c-1.19-0.242-1.802-0.324-1.91-0.324c-0.111,0-0.505-0.161-1.189-0.443c-0.795-0.324-1.191-0.487-1.229-0.527
					c-0.071,0-0.538-0.04-1.369-0.08l-1.333-0.082c-0.11,0-0.687-0.08-1.731-0.241l0.107,24.58l0.108,0.404
					c0.215,0.162,0.358,0.284,0.47,0.325c0.037,0,0.144-0.041,0.287-0.082l0.324-0.202c0.072-0.041,0.252,0,0.435,0.121l0.43,0.284
					c0.182,0.12,0.326,0.082,0.469-0.082c0.722-0.243,1.122-0.364,1.227-0.364c0,0,0.039,0,0.11,0.041
					c0.108,0.04,0.251,0.121,0.467,0.202l0.539,0.728c0.399,0.121,0.616,0.241,0.761,0.364c0.035,0,0.216,0.202,0.503,0.564
					c0.326,0.326,0.504,0.487,0.615,0.568l0.469,0.201c0.18,0.082,0.324,0.161,0.434,0.243c0.07,0.041,0.251,0.162,0.539,0.323
					c0.253,0.162,0.432,0.283,0.54,0.403c0.036,0.083,0.073,0.163,0.108,0.205l-0.035,0.12c0.035,0.04,0.216,0.081,0.648,0.161l0,0
					c0.36,0.041,0.612,0,0.721-0.08c0.071-0.081,0.071-0.081,0.108-0.081c0-0.039,0.073-0.039,0.216,0
					c0.328,0.123,0.397-0.162,0.252-0.849l0.614-0.888c0.616-0.364,1.009-0.567,1.155-0.567l0.432-0.121
					c0.215-0.042,0.394,0,0.503,0.121c0.146,0.203,0.397,0.484,0.795,0.85l0.253,0.321c0.106,0.041,0.216,0.123,0.396,0.123
					c0.073,0.042,0.145,0,0.218,0l0.069-0.082c0.038-0.041,0.218,0.082,0.473,0.283c0.141,0.163,0.358,0.405,0.573,0.689
					c0.183,0.201,0.327,0.363,0.507,0.484c0.145,0.08,0.287,0.164,0.504,0.243c0.216,0.081,0.325,0.159,0.396,0.159
					c0.106,0.083,0.216,0.162,0.326,0.245c0.071,0.04,0.181,0.202,0.36,0.403c0.145,0.163,0.288,0.365,0.505,0.526
					c0.18,0.164,0.288,0.325,0.361,0.404c0.106,0.083,0.251,0.322,0.467,0.686c0.107,0.205,0.326,0.528,0.646,0.973
					c0.073,0.082,0.254,0.282,0.58,0.605c0.577,0.728,1.007,1.131,1.188,1.254c0.073,0.08,0.252,0.159,0.471,0.243
					c0.323,0.12,0.54,0.202,0.611,0.242c0.293,0.121,0.542,0.281,0.723,0.362c0.648,0.324,0.974,0.445,1.009,0.445l0.467,0.122
					c0.257,0.041,0.364,0.162,0.434,0.203c0,0,0.11,0.118,0.251,0.241c0.146,0.123,0.184,0.204,0.22,0.325
					c-0.036,0.04-0.036,0.161-0.107,0.402c-0.075,0.203-0.112,0.326-0.112,0.366l-0.105,0.767c-0.073,0.485-0.146,0.728-0.146,0.806
					l-0.177,0.529c-0.073,0.282-0.11,0.445-0.11,0.485c0,0.12,0,0.201,0.037,0.321c0.073,0.202,0.105,0.285,0.181,0.324
					c0.18,0.08,0.32,0.122,0.504,0.163c0.108,0.038,0.251,0.038,0.47,0.081c0.215,0,0.357,0,0.357,0.039
					c0.075,0,0.254,0.163,0.504,0.368l-0.973,0.2c-0.069,0.078-0.107,0.2-0.069,0.28c0,0.043,0.106,0.123,0.251,0.163
					c0,0,0,0,0,0.042l0.502,0.121c0.147,0.041,0.256,0.082,0.362,0.163c0.073,0.081,0.146,0.123,0.288,0.283
					c0.072,0.042,0.183,0.122,0.29,0.2c0.182,0.085,0.434,0.165,0.757,0.165l0.144,0.081l-0.251,0.645l0,0
					c0,0.162-0.181,0.526-0.543,1.091c-0.431,0.204-0.646,0.365-0.538,0.526c0.071,0.123,0.36,0.365,0.936,0.728l1.3,0.044
					l0.611,0.926l2.704-0.484l-1.983,0.931l-0.252,0.647l0.289,0.968l0.685,0.971c0.11,0,0.216,0,0.362,0
					c0.215,0,0.396,0,0.504,0.041c0.938,0.444,1.587,0.646,1.878,0.728c0.142,0.04,0.431,0.12,0.828,0.285
					c0.071,0.038,0.143,0.079,0.251,0.118c0.25,0.082,0.432,0.162,0.539,0.204c0.11,0.039,0.326,0.081,0.579,0.283l1.406,0.85
					c0.18,0.079,0.252,0,0.216-0.244c-0.036-0.402-0.036-0.931-0.036-1.537c0.36-0.283,0.612-0.283,0.863,0
					c0.435,0.566,0.724,1.091,0.866,1.537l0.253,0.727v0.041c0.071,0.242,0.18,0.445,0.253,0.528c0.181,0.16,0.36,0.32,0.47,0.439
					c0.143,0.083,0.253,0.122,0.361,0.122c0.179,0,0.576-0.076,1.225-0.321l0.362,0.769c-0.471,0.16-0.615,0.365-0.362,0.526
					c0.036,0.04,0.107,0.08,0.181,0.16c0,0,0.037,0,0.037,0.041l67.317,0.042v-1.376l0.756,0.486l0.436,1.335l0.9,0.565l1.732,0.365
					l0.829-0.365l0.972-0.04l3.425,1.495l1.19-0.485l1.082,0.77l0.649-0.77l0.937,0.605l1.804,0.202l1.442-1.129l2.921-2.346
					c1.296-0.161,2.02-0.202,2.161-0.202c0.037,0,0.291,0.122,0.649,0.323c0.397,0.286,0.686,0.443,0.902,0.525
					c0.396,0.08,0.867,0.486,1.479,1.175l0.071,1.412l1.587,2.709l2.38,1.256l2.093,0.482h1.875l0.503,0.525l-0.721,1.417
					c-0.396,0.768-0.648,1.253-0.685,1.416c-0.037,0.162-0.037,0.886,0,2.183l-0.216,1.092l-0.937,3.837l-0.866,0.487l-0.18,0.527
					l0.397,0.564l1.08-0.041l0.865-1.05l3.137-1.78h2.272l1.587-0.565l0.359-1.456l1.152-0.888l5.052-0.121l0.502-0.445l3.175-2.023
					h7.862l0.503-0.16l0.216-0.648L176.302,98l0.758-0.689l0.756-1.533l0.505-0.688l0.145-0.93l0.469-0.686l0.972-0.769l0.508-0.607
					h0.396l0.252,0.405l2.128,0.038l0.757,0.73c0.07,1.333,0.107,2.102,0.07,2.263c-0.034,0.165-0.034,0.606,0,1.294l0.579,0.283
					l0.216,0.522l0.756,0.61c0-0.041,0.038-0.083,0.073-0.083c0.216,0,0.613-0.079,1.189-0.161c0.144,0.125,0.361,0.161,0.542,0.161
					c0.215-0.079,0.758-0.243,1.621-0.565c0.325,0,0.579-0.121,0.721-0.365c0.146-0.242,0.399-0.563,0.866-1.011l0.866-0.645
					l-0.034-2.507c-0.218-0.123-0.433-0.165-0.687-0.165l-0.542,0.081c-0.143,0-0.216-0.081-0.143-0.202
					c0.108-0.2,0.253-0.441,0.397-0.685c0.252-0.365,0.396-0.566,0.541-0.606c0.178-0.083,0.394-0.325,0.72-0.646
					c-0.76-0.042-1.261-0.08-1.442-0.08l-0.683,0.08c-0.291,0-0.505-0.042-0.579-0.08c-0.179-0.043-0.648-0.122-1.406-0.286
					l0.613-0.446l1.697,0.083l1.945-0.848c0-0.526-0.144-0.851-0.324-0.971c-0.217-0.122-0.647-0.445-1.263-0.891h-1.225
					l-3.065,0.363c-0.254,0.082-0.578,0.162-0.975,0.283c-0.143,0.081-0.287,0.123-0.395,0.202
					c-0.288,0.083-0.793,0.245-1.372,0.487c-0.54,0.162-0.863,0.285-0.901,0.324c-0.073,0.037-0.395,0.202-0.937,0.405l-1.009,0.403
					c-0.107,0.079-0.432,0.283-0.938,0.685l-0.648,0.527c-0.035,0-0.035,0.039-0.069,0.039c-0.039,0.081-0.182,0.164-0.293,0.324
					c-0.143,0.243-0.428,0.688-0.757,1.333c-0.396,0.121-0.576,0.083-0.396-0.078l0.725-0.81c0.141-0.163,0.322-0.325,0.428-0.445
					c0.073-0.121,0.112-0.16,0.146-0.16l0.217-0.203c0.107-0.163,0.358-0.405,0.685-0.768l-3.497-1.01l3.497,1.01
					c0.181-0.202,0.36-0.444,0.578-0.646c0.288-0.364,0.542-0.646,0.757-0.851c0.252-0.322,0.431-0.483,0.576-0.524
					c0.035-0.042,0.253-0.163,0.577-0.445c0.324-0.201,0.54-0.361,0.687-0.361l0.937-0.164c0.506-0.041,0.828-0.081,0.903-0.081
					c0.07,0,0.143-0.041,0.215-0.079c0.108-0.083,0.182-0.123,0.324-0.206c0.252-0.16,0.471-0.323,0.685-0.525
					c0.254-0.363,0.614-0.849,1.118-1.575c0.721-0.283,1.263-0.443,1.588-0.443c0.289,0,1.296-0.043,3.027-0.082
					c1.192-0.122,1.875-0.162,2.021-0.162c0.035,0,0.215,0.04,0.431,0.243c0.218,0.201,0.36,0.24,0.471,0.281
					c0.071-0.041,0.322-0.041,0.646-0.08l3.066-0.041c0.688-0.04,1.117,0,1.3,0c0.249,0.041,0.792,0.041,1.585,0
					c1.371-0.16,2.126-0.28,2.272-0.326c0.719-0.202,1.227-0.402,1.547-0.563c0.221-0.162,0.652-0.688,1.265-1.538l0.397-0.361
					l1.767-0.205h1.3c0.216,0,0.538-0.121,0.933-0.32c0.182-0.081,0.363-0.205,0.579-0.286l2.308-2.063l-0.54-2.708l-2.813-1.293
					l-0.758,0.729l0.251-1.01l-0.754-0.405l-0.903,0.08c-0.721,0.161-1.227,0.201-1.514,0.283c-0.073,0-0.181,0-0.218,0.042
					c-0.216,0.039-0.83,0.161-1.839,0.36l-1.116,0.529l-0.688,0.808l-0.612,0.163l0.182-1.091c0.142-0.163,0.325-0.285,0.54-0.409
					c0.434-0.24,0.686-0.402,0.794-0.442c0.361-0.204,0.683-0.284,0.938-0.284h1.585c0.108,0,0.252,0,0.397,0
					C206.375,74.23,206.481,74.188,206.662,74.147z"/>
				<path fill="#606060" stroke="#595959" stroke-miterlimit="10" d="M32.467,68.327c-0.035,0-0.36-0.121-1.009-0.445
					c-0.181-0.081-0.43-0.241-0.723-0.362c-0.071-0.04-0.288-0.122-0.611-0.242c-0.219-0.084-0.397-0.163-0.471-0.243
					c-0.182-0.123-0.611-0.526-1.188-1.254c-0.326-0.323-0.507-0.523-0.58-0.605c-0.32-0.445-0.539-0.768-0.646-0.973
					c-0.216-0.364-0.36-0.603-0.467-0.686c-0.073-0.079-0.182-0.24-0.361-0.404c-0.217-0.161-0.36-0.363-0.505-0.526
					c-0.18-0.201-0.289-0.363-0.36-0.403c-0.11-0.083-0.22-0.161-0.326-0.245c-0.071,0-0.181-0.079-0.396-0.159
					c-0.217-0.08-0.359-0.163-0.504-0.243c-0.18-0.121-0.324-0.283-0.507-0.484c-0.215-0.285-0.433-0.527-0.573-0.689
					c-0.255-0.201-0.435-0.324-0.473-0.283l-0.069,0.082c-0.073,0-0.145,0.042-0.218,0c-0.18,0-0.289-0.082-0.396-0.123
					l-0.253-0.321c-0.397-0.366-0.649-0.647-0.795-0.85c-0.109-0.121-0.288-0.163-0.503-0.121l-0.432,0.121
					c-0.146,0-0.539,0.203-1.155,0.567l-0.614,0.888c0.146,0.688,0.076,0.972-0.252,0.849c-0.143-0.039-0.216-0.039-0.216,0
					c-0.037,0-0.037,0-0.108,0.081c-0.108,0.08-0.36,0.121-0.721,0.08l0,0c-0.433-0.08-0.613-0.121-0.648-0.161l0.035-0.12
					c-0.035-0.042-0.072-0.122-0.108-0.205c-0.108-0.121-0.287-0.242-0.54-0.403c-0.288-0.161-0.469-0.283-0.539-0.323
					c-0.109-0.082-0.254-0.162-0.434-0.243l-0.469-0.201c-0.111-0.081-0.289-0.242-0.615-0.568
					c-0.287-0.362-0.468-0.564-0.503-0.564c-0.145-0.123-0.361-0.243-0.761-0.364l-0.539-0.728l-0.286,0.807l-0.111,0.083h0.039
					l0.865,0.646c0.394,0.406,0.683,0.689,0.793,0.809c0.106,0.162,0.396,0.526,0.9,1.05c0.469,0.286,0.793,0.485,1.011,0.568
					l0.936,0.444c0.505,0.202,0.797,0.323,0.901,0.323c0.181,0,0.612,0.04,1.37,0.081c0.076,0,0.182,0.041,0.255,0.041h0.035
					c0.576,0.161,0.902,0.244,1.045,0.244c0.145,0,0.361,0.241,0.613,0.765l0.326-0.888l0.791,0.323l0.469-0.284
					c0.509,0.042,0.867,0.122,1.047,0.201c0.182,0.083,0.72,0.323,1.659,0.771l1.656,1.617l-0.432,0.443l0.326,0.687l0.829,0.526
					v0.646l0.251,0.404l-1.732,0.082l-0.576,0.446c0.072,0.323,0.145,0.565,0.254,0.728c0.108,0.12,0.178,0.242,0.322,0.281
					l0.506-0.363l0.651,0.729c0.251,0.2,0.465,0.403,0.575,0.604c0.036,0,0.071,0.042,0.109,0.082
					c0.069,0.121,0.107,0.202,0.181,0.282c0.106,0.082,0.25,0.124,0.393,0.124h0.797l0.107-1.091c0.396-0.042,0.683-0.122,0.9-0.202
					c0.216-0.04,0.615-0.242,1.263-0.567l-0.217,1.011L30.7,70.671l-1.153-0.526l-0.075,0.566l0.218,0.77
					c0.324,0.121,0.615,0.242,0.758,0.363c0.18,0.162,0.361,0.243,0.581,0.243c0.105,0,0.249-0.243,0.43-0.771
					c0-0.04,0.07-0.12,0.07-0.202c0.145-0.403,0.219-0.522,0.291-0.362c0,0.202,0.071,0.687,0.141,1.376l0.325,0.645l0.326,0.364
					l0.182,0.849l-0.253,0.16c0.071,0.608,0.145,1.015,0.253,1.172l0.179,0.326c0.035,0.081,0.146,0.122,0.251,0.162
					c0.11,0,0.217,0.121,0.471,0.243c0.217,0.121,0.359,0.16,0.431,0.16c0.147,0,0.327-0.241,0.651-0.726
					c0.251,0.041,0.469,0.118,0.648,0.323c0.107,0.121,0.289,0.162,0.613,0.243c0.251,0.039,0.396,0.08,0.396,0.16l0.251-0.645
					l-0.144-0.081c-0.323,0-0.575-0.08-0.757-0.165c-0.107-0.078-0.218-0.157-0.29-0.2c-0.142-0.161-0.215-0.203-0.288-0.283
					c-0.106-0.081-0.215-0.122-0.362-0.163l-0.502-0.121c0-0.042,0-0.042,0-0.042c-0.145-0.04-0.251-0.119-0.251-0.163
					c-0.038-0.08,0-0.202,0.069-0.28l0.973-0.2c-0.25-0.205-0.429-0.368-0.504-0.368c0-0.039-0.143-0.039-0.357-0.039
					c-0.219-0.043-0.361-0.043-0.47-0.081c-0.184-0.042-0.324-0.083-0.504-0.163c-0.075-0.039-0.107-0.122-0.181-0.324
					c-0.037-0.12-0.037-0.202-0.037-0.321c0-0.041,0.037-0.203,0.11-0.485l0.177-0.529c0-0.078,0.072-0.321,0.146-0.806l0.105-0.767
					c0-0.041,0.037-0.164,0.112-0.366c0.071-0.241,0.071-0.363,0.107-0.402c-0.036-0.121-0.073-0.202-0.22-0.325
					c-0.141-0.123-0.251-0.241-0.251-0.241c-0.069-0.042-0.177-0.163-0.434-0.203L32.467,68.327z"/>
				<path fill="#606060" stroke="#595959" stroke-miterlimit="10" d="M7.479,32.226c-0.18-0.042-0.433-0.083-0.652-0.083
					l-4.506-1.332l-4.58,0.483l-1.046-0.405h-1.84l-2.447-0.36c-1.695-0.286-2.706-0.407-2.961-0.407
					c-0.252,0-1.259-0.079-2.991-0.12l-4.328,0.323c-0.972-0.204-1.585-0.282-1.765-0.282c-0.179,0-0.505-0.121-0.974-0.324
					l0.758-0.851l-1.3,0.164l-1.803-0.243h-1.226l-1.083,0.243l-1.152-1.052l-1.913,1.052l0.256-1.093l-1.407-0.362l-1.155,0.039
					c-0.9,0.528-1.441,0.809-1.549,0.93c-0.145,0.164-0.724,0.286-1.804,0.445l-1.155,0.163l-2.704,1.171l-0.54-0.812l-2.233,0.812
					c-1.371,0.163-2.131,0.243-2.237,0.243c-0.071,0-0.323,0.121-0.758,0.282c-0.429,0.203-0.684,0.284-0.755,0.284
					c-0.18,0-0.578,0.364-1.333,1.092l-0.649,1.089l-1.734,0.366c-1.512,0.363-2.341,0.565-2.449,0.565
					c-0.143,0-0.793-0.079-1.984-0.241l-1.08,0.162l-0.758,1.495c0.683,0.363,1.151,0.565,1.407,0.606l1.188,0.121
					c0.575,0.081,0.976,0.163,1.153,0.242c0.289,0.123,1.119,0.365,2.522,0.769l0.435,1.216l3.641,0.725l1.912-0.12l0.073,1.011
					l2.669,0.283l-0.216,0.524c-1.046-0.367-1.695-0.524-1.84-0.524l-0.866-0.042c-0.471,0-0.722-0.04-0.829-0.04
					c-0.146-0.082-0.253-0.12-0.36-0.201l0.503,1.049l-0.467,0.486c-0.866,0.123-1.371,0.162-1.516,0.162
					c-0.146,0-0.613-0.039-1.441-0.162l-1.369-0.242l0.574-0.889l-1.12-0.323c-1.331,0.404-2.089,0.646-2.231,0.646
					c-0.182,0-2.271,0.646-6.274,1.939l0.791,0.811h1.229l1.298,0.242l-1.153,0.564l0.72,0.85l1.26,0.606
					c1.014,0.162,1.591,0.241,1.732,0.241c0.147,0,0.614-0.039,1.48-0.121l1.658-0.12l1.513,0.162l0.58-0.444l0.431,0.687
					l1.153-0.164l2.02-0.929l1.371-0.404l-0.326,3.639l-0.611,0.648l-1.803-0.527c-0.901,0.083-1.406,0.163-1.551,0.284
					c-0.146,0.123-0.648,0.404-1.588,0.809l-0.898,0.16l-0.866-0.846l-0.868,0.97c-0.468,0.363-0.794,0.646-0.936,0.769
					c-0.179,0.08-0.578,0.646-1.153,1.696l-0.434,0.771c-0.577,0.039-0.938,0.079-1.082,0.122c-0.106,0.037-0.362,0.2-0.648,0.523
					l0.826,0.405l1.988,0.201l-0.039,0.729l0.039,0.322l1.406,0.125l1.151-0.125l0.794,0.162l0.577,0.569l-0.216,0.928l0.034,1.537
					l0.939-0.244l1.08-0.687c0.542-0.607,0.868-0.93,1.011-0.97c0.145-0.041,0.433-0.164,0.829-0.405l0.431,0.848l0.325,1.213
					l-0.252,0.729l-0.073,0.646l-0.431,0.405l0.648,0.444l-0.648,0.445l-0.396,0.607l0.36,0.282l1.336-0.202l0.971-0.366
					l0.509,0.567l0.428-0.808l0.83-0.323l0.434,0.485l0.54,0.364c0.182,0.123,0.359,0.159,0.508,0.159
					c0.105,0,0.501,0.123,1.116,0.325l0.684,0.201l0.792-1.332l0.253-0.203l0.216,0.769l0.399,0.203h1.261
					c0.038,0.036,0.18,0,0.468-0.123c0.182-0.08,0.361-0.123,0.578-0.203c0.218-0.04,0.36-0.122,0.434-0.161
					c0.143-0.083,0.359-0.203,0.65-0.405l-1.119,1.293c-0.36,0.282-0.613,0.527-0.687,0.728c-0.108,0.161-0.179,0.605-0.179,1.294
					l0.217,0.485c-0.398,0.201-0.725,0.402-0.865,0.606c-0.218,0.16-0.613,0.484-1.298,1.049c-0.361-0.2-0.615-0.241-0.758-0.2
					c-0.073,0.04-0.253,0.123-0.541,0.162c-0.325,0.038-0.505,0.161-0.574,0.203c-0.112,0.078-0.291,0.159-0.509,0.24
					c-0.288,0.121-0.506,0.202-0.613,0.321c-0.286,0.124-0.648,0.286-1.117,0.409l-0.253,0.28l-0.109,0.971l0.289,0.767l0.506,0.042
					l0.792,0.403l0.541-0.283l0.11-0.647c0.866-0.283,1.37-0.446,1.515-0.446c0.143,0,0.467,0.124,0.935,0.326l1.336-1.255
					c0.252-0.524,0.468-0.849,0.72-0.849c0.144,0,0.433-0.039,0.795-0.078c0.358-0.042,0.613-0.081,0.72-0.081
					c0.146,0,0.507-0.12,1.047-0.285l-0.073-0.97l1.73-0.484l1.731-1.256l1.333-0.48l1.476-0.811l2.602-3.154l0.216-1.253
					l-0.722-0.727l1.297,0.204l1.696-1.336l0.828-0.928c1.011-0.204,1.585-0.325,1.768-0.365l0.759-0.162
					c0.106-0.041,0.178-0.041,0.285-0.079c0.255-0.04,0.399-0.04,0.471,0c0.18,0.079,0.864-0.04,2.019-0.365l-2.417,0.971
					c-1.009,0.362-1.622,0.604-1.8,0.645c-0.216,0.042-0.546,0.123-0.904,0.243l-0.901,1.415l-0.358,1.254
					c0.107,0.243,0.324,0.363,0.648,0.363c0.287-0.083,0.83-0.203,1.623-0.363l-1.623,0.807l-0.506,0.486
					c0.397,0.242,0.722,0.363,0.868,0.363c0.938,0,1.476-0.04,1.62-0.121c0.11-0.08,0.471-0.403,1.047-0.928l0.685-0.364h0.613
					l1.298-1.254l0.938-1.496c0.722-0.363,1.117-0.565,1.262-0.646l1.333-0.691c0.146-0.079,0.434-0.039,0.831,0.165
					c0.649,0.563,1.046,0.85,1.189,0.93c0.106,0.08,0.757,0.242,1.839,0.444c-0.039,0.241-0.143,0.485-0.361,0.647
					c-0.216,0.16-0.396,0.403-0.581,0.766l2.421-1.089c0.216,0.363,0.471,0.484,0.646,0.443c0.148-0.081,0.435-0.161,0.902-0.24
					l1.19-0.651l-0.756,0.771l0.179,0.646l1.299,0.286c0.902,0.199,1.406,0.24,1.554,0.199c0.142-0.081,0.608-0.199,1.441-0.365
					l1.656,0.244c0.217,0.162,0.542,0.241,0.902,0.203c0.397-0.041,0.828-0.124,1.26-0.281c-0.032,0.442,0,0.645,0.218,0.645
					c0.217,0,0.614,0.081,1.154,0.201c0.541,0.161,0.902,0.285,1.009,0.285c0.145,0,0.434-0.162,0.794-0.485
					c0.287-0.161,0.542-0.244,0.722-0.284c0.251-0.041,0.54-0.079,0.972-0.12l0.111-0.083l0.286-0.807
					c-0.216-0.081-0.358-0.163-0.467-0.202c-0.071-0.041-0.11-0.041-0.11-0.041c-0.104,0-0.505,0.121-1.227,0.364
					c-0.143,0.164-0.287,0.202-0.469,0.082l-0.43-0.284c-0.183-0.121-0.362-0.162-0.435-0.121l-0.324,0.202
					c-0.144,0.041-0.25,0.082-0.287,0.082c-0.111-0.041-0.255-0.163-0.47-0.325l-0.108-0.404L7.479,32.226z"/>
				<path fill="#606060" stroke="#595959" stroke-miterlimit="10" d="M72.13,13.954c-0.216-0.122-0.434-0.204-0.574-0.162
					c-0.18,0-0.328,0.04-0.436,0.162c-0.178,0.243-0.359,0.443-0.433,0.645l-1.911-0.605c-0.469,0.164-0.794,0.241-0.974,0.282
					c-0.071,0.042-0.106,0.083-0.18,0.083c0,0-0.182,0.121-0.43,0.403c-0.292,0.244-0.508,0.405-0.687,0.486
					c-0.219,0.122-0.469,0.244-0.795,0.445c-0.287,0.162-0.469,0.282-0.54,0.323c-0.073,0-0.289,0.081-0.72,0.161
					c-0.18,0.042-0.364,0.081-0.434,0.122c-0.108,0.081-0.183,0.081-0.218,0.121c-0.106,0.162-0.18,0.444-0.217,0.849h2.237
					c0.072,0,0.251,0.041,0.648,0.163c0.432,0.159,0.65,0.241,0.685,0.241c0.182,0.04,0.542,0.123,1.082,0.162l0.938-0.525
					l0.756,0.364c0.614-0.241,1.013-0.404,1.155-0.485c0.143-0.04,0.36-0.161,0.72-0.283c0.397-0.122,0.615-0.244,0.685-0.244
					c0.182,0,0.651,0.123,1.518,0.244l-0.758,0.484h0.793h2.667l1.553-0.524l0.683-0.363c-0.503-0.646-0.862-1.01-1.009-1.049
					l-0.756-0.49c-0.399-0.241-0.649-0.362-0.756-0.362h-1.877c-0.107,0-0.432-0.039-0.938-0.039l-0.828-0.081
					C72.636,14.478,72.42,14.316,72.13,13.954z"/>
				<path fill="#606060" stroke="#595959" stroke-miterlimit="10" d="M92.143,22.644l-1.551-0.282h-1.693
					c-0.182,0-0.469-0.042-0.976-0.081v-1.175h-0.54l-0.646,1.255l0.432,2.102l0.646,1.09l1.011,0.768
					c-0.649,0.446-1.117,0.689-1.333,0.729c-0.145-0.041-0.253-0.123-0.397-0.322c-0.074-0.164-0.145-0.324-0.181-0.528
					c-0.035-0.162-0.217-0.606-0.54-1.252c-0.035-0.041-0.073-0.083-0.108-0.163l-1.189-0.321l-4.652-0.162
					c-0.142,0-0.396,0.122-0.795,0.364l-1.261,0.726l0.073-0.443l0.685-0.931c-1.155-0.283-1.805-0.444-1.946-0.484
					c-0.184-0.042-0.649-0.122-1.41-0.282l-0.861,0.202l-1.011,0.323l-1.046,0.605h-1.263l-0.469-2.101l-2.959,0.324
					c-0.645,0.241-1.076,0.32-1.187,0.32l-1.225,0.123c-0.111,0-0.291,0.08-0.651,0.203l-0.611,0.202
					c-0.146,0-0.399,0.241-0.758,0.727l-1.479,1.415l-1.333,0.688l0.358,0.446h2.309l0.722,0.645
					c-0.109,0.203-0.287,0.323-0.505,0.323c-0.217,0-0.683,0.242-1.478,0.688c1.118,0.769,1.765,1.128,1.873,1.212l0.795,0.122
					c0.181,0,0.36,0.038,0.541,0.082c0.145,0,0.289,0,0.361,0c0.145,0,0.541,0,1.191-0.082c0.611-0.039,0.972-0.081,1.151-0.081
					s0.648-0.041,1.333-0.125c0.65-0.076,1.084-0.158,1.264-0.158c0.071-0.041,0.612-0.041,1.548,0l1.734,0.121
					c0.36,0,1.622,0.162,3.927,0.526c-0.249,0.363-0.503,0.605-0.721,0.648c-0.504,0.08-0.973,0.119-1.441,0.119
					c-0.143,0-0.505-0.04-1.189-0.162l-1.407-0.199c-0.214-0.042-0.647-0.042-1.261,0.039l-3.497,0.083
					c-0.289,0-0.938,0.078-2.019,0.24l-1.516-0.201l-0.144,0.768l1.117,1.011c0.721,0.321,1.12,0.484,1.3,0.524l1.332,0.284
					c0.757,0.08,1.19,0.159,1.333,0.159h2.56c0.182,0,0.473,0.163,0.867,0.527l1.011,1.739c0.755,0,1.224,0.04,1.402,0.04
					c0.183,0,0.761,0,1.699,0.041c0.394,0.123,0.683,0.204,0.973,0.323c0.216,0.04,0.503-0.081,0.793-0.364l1.189-0.445l3.426-0.323
					l1.261-0.686l1.264-0.203h1.549l1.406-0.525l1.154-0.889l0.613,0.766c0.577,0.244,0.938,0.324,1.119,0.366c0,0,0,0,0.035,0
					c0.143-0.042,0.503,0.079,1.045,0.283c0.108,0.041,0.184,0.08,0.326,0.123l1.767,0.484h4.326l2.199-1.819
					c0.543-0.324,0.902-0.525,1.045-0.525c0.145,0,0.218,0.121,0.255,0.362l0.686,0.243l0.288-1.052l0.396-0.891
					c-0.684-0.078-1.227-0.16-1.515-0.321c-0.145-0.039-0.576-0.243-1.227-0.607c-0.685-0.323-1.045-0.524-1.188-0.567
					c-0.252-0.079-0.721-0.24-1.442-0.484c-0.615,0.445-1.01,0.649-1.153,0.604c-0.145-0.037-0.613-0.158-1.406-0.279l-2.236-4.043
					l-1.046-1.414L92.143,22.644z"/>
				<path fill="#606060" stroke="#595959" stroke-miterlimit="10" d="M62.721,11.122l-1.227,0.04
					c-0.359,0.162-0.54,0.325-0.54,0.487c0,0.123-0.037,0.282-0.037,0.362l-0.974-0.121l-0.974,0.282l-0.939,0.485
					c-0.433-0.121-0.684-0.121-0.611,0.082l0.107,0.284c0,0.121-0.071,0.161-0.216,0.203c-0.253,0.12-0.687,0.039-1.26-0.082h-0.649
					l-0.58,0.284c0.038,0.121,0,0.202-0.179,0.202l-0.578-0.042c-0.324,0-0.502,0-0.612,0c-0.142,0.042-0.794,0.162-2.019,0.405
					l-0.611,0.89l0.9,0.607l1.115-0.406l0.974,0.367l1.086-0.285l1.406-0.687l0.646,0.526h0.9l1.624-0.847
					c0.865-0.365,1.369-0.608,1.549-0.69c0.182-0.081,0.649-0.282,1.371-0.645l0.902,0.24l1.155,1.536l0.899-0.969
					c0.542-0.081,0.9-0.081,1.155-0.081c0.143,0,0.468-0.121,0.935-0.283c0.146-0.081,0.326-0.121,0.473-0.203l-0.507-1.738
					l-0.722-0.444l-0.613,0.566L62.721,11.122z"/>
				<path fill="#606060" stroke="#595959" stroke-miterlimit="10" d="M69.031,21.713l-0.724-0.563l-2.056-0.409l-2.811-0.886
					l-1.261,0.081c-0.905,0.283-1.445,0.444-1.661,0.522c-0.216,0.084-0.827,0.084-1.838,0l-0.793-0.442l-1.984-0.727L52.3,19.084
					l-5.194,0.609c0.326,0.404,0.54,0.687,0.685,0.765c0.146,0.084,0.506,0.244,1.011,0.571l0.108,0.562
					c-0.505,0.244-0.758,0.446-0.866,0.648c-0.071,0.202-0.253,0.607-0.576,1.134l-0.759,0.282l-0.611-0.282l-0.145,0.686
					l-0.578,0.405l-1.549,1.414h2.416l1.226,0.564c0.396,0.041,0.756,0.243,1.043,0.526c0.148,0.121,0.328,0.325,0.58,0.527
					c0.146,0.201,0.288,0.323,0.324,0.443c0.145,0.165,0.182,0.283,0.251,0.366c0.109,0.08,0.218,0.12,0.362,0.161
					c0.18-0.042,1.011-0.082,2.415-0.161c0.938-0.202,1.479-0.325,1.66-0.325c0.144,0,0.795-0.162,1.983-0.485l0.972-0.527
					l0.253-1.939l4.004-0.889c0.609-0.406,0.974-0.607,1.08-0.607c0.183,0,0.902-0.202,2.237-0.608l1.549-0.687L69.031,21.713z"/>
				<path fill="#606060" stroke="#595959" stroke-miterlimit="10" d="M63.981,15.165c0.07-0.205,0.106-0.405,0.037-0.567
					c-0.071-0.161-0.218-0.241-0.435-0.161c-0.287,0.161-0.538,0.323-0.757,0.445c-0.177,0.122-0.504,0.403-0.903,0.848
					l-0.719,0.688l0.289,0.485l1.442-1.296L63.981,15.165z"/>
				<path fill="#606060" stroke="#595959" stroke-miterlimit="10" d="M32.755,30.65c-0.215-0.043-0.396-0.043-0.47-0.043
					l-0.214,0.123c-0.145,0-0.362,0.082-0.613,0.203c0,0.04-0.073,0.04-0.073,0.079l-0.181,0.526l0.254,0.406
					c0.18,0.079,0.361,0.12,0.648,0.12l0,0c0.289,0,0.434-0.162,0.505-0.484c0.901-0.322,1.513-0.526,1.84-0.567
					c0.144-0.04,0.253-0.079,0.324-0.162c0.108-0.121,0.108-0.2,0.143-0.321c-0.432,0.078-0.758,0.121-0.9,0.201
					C33.873,30.729,33.439,30.729,32.755,30.65z"/>
				<path fill="#606060" stroke="#595959" stroke-miterlimit="10" d="M25.219,33.358l0.289,0.12
					c0.218,0.081,0.397,0.121,0.542,0.121c0.072,0,0.106-0.04,0.216-0.04c0.145-0.081,0.361-0.16,0.612-0.244
					c0.287-0.121,0.541-0.159,0.755-0.279c0.218-0.083,0.4-0.205,0.473-0.205c0.032-0.041,0.107-0.08,0.178-0.08
					c0.036-0.083,0.07-0.123,0.107-0.203c0.038-0.202,0.073-0.323,0.106-0.365c0.147-0.162,0.974-0.442,2.53-0.89
					c-0.65,0.084-1.05,0.164-1.194,0.244c-0.107,0.042-0.469,0.083-0.974,0.122h-1.262l-0.756,0.362L25.219,33.358z"/>
				<path fill="#606060" stroke="#595959" stroke-miterlimit="10" d="M18.224,63.354l0.073,0.483L18.766,64
					c0.108-0.245,0.146-0.444,0.146-0.564c0-0.043-0.038-0.082-0.111-0.161c-0.072-0.042-0.146-0.083-0.18-0.122
					c-0.035-0.082-0.075-0.122-0.145-0.122l-0.18-0.043C18.224,62.989,18.188,63.072,18.224,63.354z"/>
				<path fill="#606060" stroke="#595959" stroke-miterlimit="10" d="M126.074,50.783c0.147,0,0.359,0,0.721-0.041
					c0.361,0,0.648-0.082,0.83-0.163c0.252-0.04,0.541-0.405,0.827-0.93l-0.938-0.769c-0.358-0.442-0.72-0.645-1.045-0.645h-1.838
					c-0.506-0.162-0.866-0.244-1.084-0.244c-0.178,0-0.721-0.283-1.511-0.848c0.432-0.041,0.791,0,1.117,0.081l0.938,0.284
					c0.433,0.161,0.722,0.241,0.936,0.241c0.328,0,0.686,0,1.194,0.08c0.104,0,0.212,0.043,0.32,0.081
					c0.398,0,0.615,0.082,0.758,0.121c0.216,0.122,0.578,0.326,1.009,0.607h0.145h0.505c0.255,0,0.578-0.242,1.011-0.728
					l0.579-0.685l1.045-0.202c1.151,0.485,1.836,0.686,2.018,0.604c0.145-0.081,0.578-0.201,1.297-0.323
					c0.18-0.079,0.722-0.483,1.588-1.252l1.08-1.454l-0.108-0.647l-1.405-0.042l-3.029-0.121l-2.486-0.93l-3.391-0.607h3.966
					c0.685,0.202,1.153,0.406,1.442,0.527c0.649,0.201,1.118,0.446,1.478,0.688c0.146,0.04,0.831,0.122,2.057,0.201l1.261-0.728
					l0.647-2.185l3.572-0.038l0.756,1.334c0.253,0.568,0.434,0.889,0.542,1.009c0.143,0.122,0.36,0.242,0.685,0.326l-0.467-1.254
					l0.324-0.484c0.322,0,0.54-0.083,0.647-0.203c0.037-0.202,0.399-0.042,1.082,0.405c0.179,0.646,0.324,1.01,0.468,1.01
					s0.469-0.081,1.011-0.201l-0.326-0.768c-0.181-0.243-0.325-0.446-0.432-0.57c-0.073-0.039-0.109-0.078-0.144-0.078
					c-0.145-0.081-0.506-0.404-1.044-0.891c-0.473-0.526-0.794-0.767-0.941-0.728h-1.259l2.304-0.122l1.12,0.811
					c0.039,0.24,0.146,0.442,0.254,0.604c0.108,0.122,0.215,0.244,0.359,0.325c0.289,0.12,0.649,0.039,1.118-0.203l0.361-0.727
					h1.226l0.36-1.013l1.297-0.122l0.758-1.415l-1.909-0.929l-0.83-1.172l0.97-0.444c0.832,0,1.302-0.042,1.445-0.203
					c0.18-0.162-0.073-0.403-0.723-0.689l0.685-0.968l-1.476-0.93l-8.041-0.648l-0.687-0.201l-0.215,0.97l-0.037,1.697l-0.252,1.416
					c-0.431,0.363-0.758,0.606-0.899,0.767c-0.073,0.082-0.145,0.202-0.254,0.364c-0.071,0.162-0.215,0.364-0.361,0.606l-0.214,0.93
					l-0.902,0.081l-0.901-0.77c-0.469-1.01-0.796-1.572-0.938-1.655c-0.11-0.081-0.432-0.364-0.867-0.809l-0.862-0.808
					c-0.146-0.123-0.615-0.405-1.518-0.77l-2.955,2.267l-0.036-3.114c-2.2-0.163-3.428-0.284-3.605-0.284
					c-0.181,0-1.011-0.12-2.489-0.445l-1.046-4.042l-1.44-1.415l-2.056-0.526l-1.084,1.012l-1.079,0.564l-1.371,0.081l-0.831,0.242
					l-0.434,0.567l0.507,0.888l1.515,0.487l-1.333,0.77c0.034,0.484,0.145,0.768,0.324,0.768c0.141,0,0.469,0.161,1.009,0.483
					c0.108,0.08,0.289,0.162,0.432,0.283l1.767,0.365h2.6l0.72,0.08l-1.624,0.527l-0.831,0.604l-0.322,0.892l1.657-0.326
					l0.864,0.042l0.329,0.889l-2.453,1.171l-2.164-0.161l-0.359,2.184l-0.614,1.736l-1.226-4.041l-1.334-0.647l-2.056-0.08
					l0.903,1.333l-0.182,0.688l-2.524-0.123l-0.828,0.365l-1.157-0.365l-3.028-0.404l-2.451,0.687
					c-1.295-0.12-1.983-0.203-2.128-0.283l-0.685-0.404c-0.396-0.244-0.647-0.323-0.758-0.323c-0.107,0-0.538-0.123-1.262-0.324
					l-1.442,0.324l-0.974-0.163l-2.2-1.777l-0.757,0.93l-1.693,0.566c-0.795-0.079-1.336-0.123-1.516-0.123
					c-0.251,0-0.72,0.043-1.513,0.123l0.718,1.942l0.795,1.534l-0.324,1.657l-0.649-1.657l-1.439-1.415l-1.011-0.606l-0.649,0.566
					l-1.262-0.726c-0.073-0.043-0.145-0.043-0.18-0.123c-0.433-0.324-0.794-0.485-1.049-0.485c-0.287,0-1.26,0.039-2.847,0.081
					l-1.298,0.605l-3.713-0.322l-2.018,0.202l-2.742-0.363l0.216-2.791l-5.229-0.16c-1.515-0.405-2.346-0.608-2.488-0.608
					c-0.145,0-1.011-0.203-2.6-0.606l-2.271-0.12c-1.225-0.567-1.907-0.808-2.054-0.808c-0.108,0-1.08,0-2.847-0.042l-1.408,0.162
					l-1.553,1.011l-1.729-0.242l-1.227-2.063l-1.874,2.387l-2.164-0.809l-3.028-2.345l-1.263-0.201l-2.019,1.617l-1.37,0.161
					l-2.992,0.849l-2.706,0.04l-1.838,1.292l-1.371,0.407h-1.804l-1.477,0.606c-0.544-0.161-1.011-0.203-1.333-0.203
					c-0.184,0-0.758-0.082-1.732-0.163c-1.045-0.121-1.587-0.162-1.622-0.162c-0.109,0-0.721-0.079-1.947-0.323
					c-1.19-0.242-1.802-0.324-1.91-0.324c-0.111,0-0.505-0.161-1.189-0.443c-0.795-0.324-1.191-0.487-1.229-0.527
					c-0.071,0-0.538-0.04-1.369-0.08l-1.333-0.082c-0.11,0-0.687-0.08-1.731-0.241"/>
				<path fill="#606060" stroke="#595959" stroke-miterlimit="10" d="M90.592,22.362h-1.693c-0.182,0-0.469-0.042-0.976-0.081
					v-1.175h-0.54l-0.646,1.255l0.432,2.102l0.646,1.09l1.011,0.768c-0.649,0.446-1.117,0.689-1.333,0.729
					c-0.145-0.041-0.253-0.123-0.397-0.322c-0.074-0.164-0.145-0.324-0.181-0.528c-0.035-0.162-0.217-0.606-0.54-1.252
					c-0.035-0.041-0.073-0.083-0.108-0.163l-1.189-0.321l-4.652-0.162c-0.142,0-0.396,0.122-0.795,0.364l-1.261,0.726l0.073-0.443
					l0.685-0.931c-1.155-0.283-1.805-0.444-1.946-0.484c-0.184-0.042-0.649-0.122-1.41-0.282l-0.861,0.202l-1.011,0.323
					l-1.046,0.605h-1.263l-0.469-2.101l-2.959,0.324c-0.645,0.241-1.076,0.32-1.187,0.32l-1.225,0.123
					c-0.111,0-0.291,0.08-0.651,0.203l-0.611,0.202c-0.146,0-0.399,0.241-0.758,0.727l-1.479,1.415l-1.333,0.688l0.358,0.446h2.309
					l0.722,0.645c-0.109,0.203-0.287,0.323-0.505,0.323c-0.217,0-0.683,0.242-1.478,0.688c1.118,0.769,1.765,1.128,1.873,1.212
					l0.795,0.122c0.181,0,0.36,0.038,0.541,0.082c0.145,0,0.289,0,0.361,0c0.145,0,0.541,0,1.191-0.082
					c0.611-0.039,0.972-0.081,1.151-0.081s0.648-0.041,1.333-0.125c0.65-0.076,1.084-0.158,1.264-0.158
					c0.071-0.041,0.612-0.041,1.548,0l1.734,0.121c0.36,0,1.622,0.162,3.927,0.526c-0.249,0.363-0.503,0.605-0.721,0.648
					c-0.504,0.08-0.973,0.119-1.441,0.119c-0.143,0-0.505-0.04-1.189-0.162l-1.407-0.199c-0.214-0.042-0.647-0.042-1.261,0.039
					l-3.497,0.083c-0.289,0-0.938,0.078-2.019,0.24l-1.516-0.201l-0.144,0.768l1.117,1.011c0.721,0.321,1.12,0.484,1.3,0.524
					l1.332,0.284c0.757,0.08,1.19,0.159,1.333,0.159h2.56c0.182,0,0.473,0.163,0.867,0.527l1.011,1.739
					c0.755,0,1.224,0.04,1.402,0.04c0.183,0,0.761,0,1.699,0.041c0.394,0.123,0.683,0.204,0.973,0.323
					c0.216,0.04,0.503-0.081,0.793-0.364l1.189-0.445l3.426-0.323l1.261-0.686l1.264-0.203h1.549l1.406-0.525l1.154-0.889
					l0.613,0.766c0.577,0.244,0.938,0.324,1.119,0.366c0,0,0,0,0.035,0c0.143-0.042,0.503,0.079,1.045,0.283
					c0.108,0.041,0.184,0.08,0.326,0.123l1.767,0.484h4.326l2.199-1.819c0.543-0.324,0.902-0.525,1.045-0.525
					c0.145,0,0.218,0.121,0.255,0.362l0.686,0.243l0.288-1.052l0.396-0.891c-0.684-0.078-1.227-0.16-1.515-0.321
					c-0.145-0.039-0.576-0.243-1.227-0.607c-0.685-0.323-1.045-0.524-1.188-0.567c-0.252-0.079-0.721-0.24-1.442-0.484
					c-0.615,0.445-1.01,0.649-1.153,0.604c-0.145-0.037-0.613-0.158-1.406-0.279l-2.236-4.043l-1.046-1.414l-1.227-1.133
					L90.592,22.362"/>
				<path fill="#606060" stroke="#595959" stroke-miterlimit="10" d="M62.721,11.122l3.352,0.324l0.613-0.566l0.722,0.444
					l0.507,1.738c-0.146,0.082-0.326,0.122-0.473,0.203c-0.467,0.163-0.792,0.283-0.935,0.283c-0.255,0-0.613,0-1.155,0.081
					l-0.899,0.969l-1.155-1.536l-0.902-0.24c-0.722,0.362-1.189,0.564-1.371,0.645c-0.18,0.082-0.684,0.325-1.549,0.69l-1.624,0.847
					h-0.9l-0.646-0.526l-1.406,0.687l-1.086,0.285l-0.974-0.367l-1.115,0.406l-0.9-0.607l0.611-0.89
					c1.225-0.243,1.877-0.363,2.019-0.405c0.11,0,0.288,0,0.612,0l0.578,0.042c0.179,0,0.217-0.081,0.179-0.202l0.58-0.284h0.649
					c0.573,0.121,1.007,0.202,1.26,0.082c0.145-0.042,0.216-0.082,0.216-0.203l-0.107-0.284c-0.072-0.203,0.179-0.203,0.611-0.082
					l0.939-0.485l0.974-0.282l0.974,0.121c0-0.08,0.037-0.24,0.037-0.362c0-0.162,0.181-0.325,0.54-0.487L62.721,11.122"/>
				<path fill="#606060" stroke="#595959" stroke-miterlimit="10" d="M72.13,13.954c0.29,0.363,0.506,0.524,0.65,0.524l0.828,0.081
					c0.507,0,0.831,0.039,0.938,0.039h1.877c0.106,0,0.356,0.122,0.756,0.362l0.756,0.49c0.146,0.04,0.506,0.403,1.009,1.049
					l-0.683,0.363l-1.553,0.524h-2.667h-0.793l0.758-0.484c-0.866-0.122-1.336-0.244-1.518-0.244c-0.069,0-0.287,0.123-0.685,0.244
					c-0.359,0.122-0.577,0.244-0.72,0.283c-0.143,0.081-0.541,0.244-1.155,0.485l-0.756-0.364l-0.938,0.525
					c-0.54-0.039-0.9-0.122-1.082-0.162c-0.034,0-0.253-0.082-0.685-0.241c-0.397-0.123-0.576-0.163-0.648-0.163h-2.237
					c0.037-0.404,0.11-0.687,0.217-0.849c0.035-0.041,0.109-0.041,0.218-0.121c0.069-0.042,0.254-0.08,0.434-0.122
					c0.431-0.08,0.646-0.161,0.72-0.161c0.071-0.041,0.253-0.161,0.54-0.323c0.326-0.201,0.576-0.323,0.795-0.445
					c0.179-0.081,0.395-0.242,0.687-0.486c0.248-0.282,0.43-0.403,0.43-0.403c0.073,0,0.108-0.041,0.18-0.083
					c0.18-0.041,0.505-0.118,0.974-0.282l1.911,0.605c0.073-0.201,0.255-0.401,0.433-0.645c0.107-0.122,0.256-0.162,0.436-0.162
					C71.696,13.75,71.914,13.832,72.13,13.954"/>
				<path fill="#606060" stroke="#595959" stroke-miterlimit="10" d="M69.031,21.713l-2.851,0.526l-1.549,0.687
					c-1.335,0.406-2.055,0.608-2.237,0.608c-0.106,0-0.471,0.201-1.08,0.607l-4.004,0.889l-0.253,1.939l-0.972,0.527
					c-1.188,0.323-1.84,0.485-1.983,0.485c-0.181,0-0.723,0.123-1.66,0.325c-1.404,0.08-2.235,0.12-2.415,0.161
					c-0.145-0.042-0.253-0.082-0.362-0.161c-0.069-0.083-0.106-0.202-0.251-0.366c-0.036-0.12-0.179-0.242-0.324-0.443
					c-0.252-0.202-0.432-0.406-0.58-0.527c-0.287-0.283-0.646-0.485-1.043-0.526l-1.226-0.564h-2.416l1.549-1.414l0.578-0.405
					l0.145-0.686l0.611,0.282l0.759-0.282c0.323-0.527,0.505-0.932,0.576-1.134c0.108-0.202,0.361-0.404,0.866-0.648l-0.108-0.562
					c-0.505-0.327-0.864-0.486-1.011-0.571c-0.145-0.078-0.358-0.361-0.685-0.765l5.194-0.609l3.604,0.205l1.984,0.727l0.793,0.442
					c1.011,0.084,1.622,0.084,1.838,0c0.216-0.078,0.756-0.239,1.661-0.522l1.261-0.081l2.811,0.886l2.056,0.409L69.031,21.713"/>
				<path fill="#606060" stroke="#595959" stroke-miterlimit="10" d="M64.019,14.598c-0.071-0.161-0.218-0.241-0.435-0.161
					c-0.287,0.161-0.538,0.323-0.757,0.445c-0.177,0.122-0.504,0.403-0.903,0.848l-0.719,0.688l0.289,0.485l1.442-1.296l1.045-0.442
					C64.052,14.96,64.088,14.76,64.019,14.598"/>
				<path fill="#606060" stroke="#595959" stroke-miterlimit="10" d="M32.285,30.607l-0.214,0.123c-0.145,0-0.362,0.082-0.613,0.203
					c0,0.04-0.073,0.04-0.073,0.079l-0.181,0.526l0.254,0.406c0.18,0.079,0.361,0.12,0.648,0.12l0,0
					c0.289,0,0.434-0.162,0.505-0.484c0.901-0.322,1.513-0.526,1.84-0.567c0.144-0.04,0.253-0.079,0.324-0.162
					c0.108-0.121,0.108-0.2,0.143-0.321c-0.432,0.078-0.758,0.121-0.9,0.201c-0.145,0-0.578,0-1.263-0.08
					C32.54,30.607,32.358,30.607,32.285,30.607"/>
				<path fill="#606060" stroke="#595959" stroke-miterlimit="10" d="M11.913,57.453l0.539,0.728
					c0.399,0.121,0.616,0.241,0.761,0.364c0.035,0,0.216,0.202,0.503,0.564c0.326,0.326,0.504,0.487,0.615,0.568l0.469,0.201
					c0.18,0.082,0.324,0.161,0.434,0.243c0.07,0.041,0.251,0.162,0.539,0.323c0.253,0.162,0.432,0.283,0.54,0.403
					c0.036,0.083,0.073,0.163,0.108,0.205l-0.035,0.12c0.035,0.04,0.216,0.081,0.648,0.161l0,0c0.36,0.041,0.612,0,0.721-0.08
					c0.071-0.081,0.071-0.081,0.108-0.081c0-0.039,0.073-0.039,0.216,0c0.328,0.123,0.397-0.162,0.252-0.849l0.614-0.888
					c0.616-0.364,1.009-0.567,1.155-0.567l0.432-0.121c0.215-0.042,0.394,0,0.503,0.121c0.146,0.203,0.397,0.484,0.795,0.85
					l0.253,0.321c0.106,0.041,0.216,0.123,0.396,0.123c0.073,0.042,0.145,0,0.218,0l0.069-0.082
					c0.038-0.041,0.218,0.082,0.473,0.283c0.141,0.163,0.358,0.405,0.573,0.689c0.183,0.201,0.327,0.363,0.507,0.484
					c0.145,0.08,0.287,0.164,0.504,0.243c0.216,0.081,0.325,0.159,0.396,0.159c0.106,0.083,0.216,0.162,0.326,0.245
					c0.071,0.04,0.181,0.202,0.36,0.403c0.145,0.163,0.288,0.365,0.505,0.526c0.18,0.164,0.288,0.325,0.361,0.404
					c0.106,0.083,0.251,0.322,0.467,0.686c0.107,0.205,0.326,0.528,0.646,0.973c0.073,0.082,0.254,0.282,0.58,0.605
					c0.577,0.728,1.007,1.131,1.188,1.254c0.073,0.08,0.252,0.159,0.471,0.243c0.323,0.12,0.54,0.202,0.611,0.242
					c0.293,0.121,0.542,0.281,0.723,0.362c0.648,0.324,0.974,0.445,1.009,0.445l0.467,0.122c0.257,0.041,0.364,0.162,0.434,0.203
					c0,0,0.11,0.118,0.251,0.241c0.146,0.123,0.184,0.204,0.22,0.325c-0.036,0.04-0.036,0.161-0.107,0.402
					c-0.075,0.203-0.112,0.326-0.112,0.366l-0.105,0.767c-0.073,0.485-0.146,0.728-0.146,0.806l-0.177,0.529
					c-0.073,0.282-0.11,0.445-0.11,0.485c0,0.12,0,0.201,0.037,0.321c0.073,0.202,0.105,0.285,0.181,0.324
					c0.18,0.08,0.32,0.122,0.504,0.163c0.108,0.038,0.251,0.038,0.47,0.081c0.215,0,0.357,0,0.357,0.039
					c0.075,0,0.254,0.163,0.504,0.368l-0.973,0.2c-0.069,0.078-0.107,0.2-0.069,0.28c0,0.043,0.106,0.123,0.251,0.163
					c0,0,0,0,0,0.042l0.502,0.121c0.147,0.041,0.256,0.082,0.362,0.163c0.073,0.081,0.146,0.123,0.288,0.283
					c0.072,0.042,0.183,0.122,0.29,0.2c0.182,0.085,0.434,0.165,0.757,0.165l0.144,0.081l-0.251,0.645"/>
				<path fill="#606060" stroke="#595959" stroke-miterlimit="10" d="M7.479,32.226c-0.18-0.042-0.433-0.083-0.652-0.083
					l-4.506-1.332l-4.58,0.483l-1.046-0.405h-1.84l-2.447-0.36c-1.695-0.286-2.706-0.407-2.961-0.407
					c-0.252,0-1.259-0.079-2.991-0.12l-4.328,0.323c-0.972-0.204-1.585-0.282-1.765-0.282c-0.179,0-0.505-0.121-0.974-0.324
					l0.758-0.851l-1.3,0.164l-1.803-0.243h-1.226l-1.083,0.243l-1.152-1.052l-1.913,1.052l0.256-1.093l-1.407-0.362l-1.155,0.039
					c-0.9,0.528-1.441,0.809-1.549,0.93c-0.145,0.164-0.724,0.286-1.804,0.445l-1.155,0.163l-2.704,1.171l-0.54-0.812l-2.233,0.812
					c-1.371,0.163-2.131,0.243-2.237,0.243c-0.071,0-0.323,0.121-0.758,0.282c-0.429,0.203-0.684,0.284-0.755,0.284
					c-0.18,0-0.578,0.364-1.333,1.092l-0.649,1.089l-1.734,0.366c-1.512,0.363-2.341,0.565-2.449,0.565
					c-0.143,0-0.793-0.079-1.984-0.241l-1.08,0.162l-0.758,1.495c0.683,0.363,1.151,0.565,1.407,0.606l1.188,0.121
					c0.575,0.081,0.976,0.163,1.153,0.242c0.289,0.123,1.119,0.365,2.522,0.769l0.435,1.216l3.641,0.725l1.912-0.12l0.073,1.011
					l2.669,0.283l-0.216,0.524c-1.046-0.367-1.695-0.524-1.84-0.524l-0.866-0.042c-0.471,0-0.722-0.04-0.829-0.04
					c-0.146-0.082-0.253-0.12-0.36-0.201l0.503,1.049l-0.467,0.486c-0.866,0.123-1.371,0.162-1.516,0.162
					c-0.146,0-0.613-0.039-1.441-0.162l-1.369-0.242l0.574-0.889l-1.12-0.323c-1.331,0.404-2.089,0.646-2.231,0.646
					c-0.182,0-2.271,0.646-6.274,1.939l0.791,0.811h1.229l1.298,0.242l-1.153,0.564l0.72,0.85l1.26,0.606
					c1.014,0.162,1.591,0.241,1.732,0.241c0.147,0,0.614-0.039,1.48-0.121l1.658-0.12l1.513,0.162l0.58-0.444l0.431,0.687
					l1.153-0.164l2.02-0.929l1.371-0.404l-0.326,3.639l-0.611,0.648l-1.803-0.527c-0.901,0.083-1.406,0.163-1.551,0.284
					c-0.146,0.123-0.648,0.404-1.588,0.809l-0.898,0.16l-0.866-0.846l-0.868,0.97c-0.468,0.363-0.794,0.646-0.936,0.769
					c-0.179,0.08-0.578,0.646-1.153,1.696l-0.434,0.771c-0.577,0.039-0.938,0.079-1.082,0.122c-0.106,0.037-0.362,0.2-0.648,0.523
					l0.826,0.405l1.988,0.201l-0.039,0.729l0.039,0.322l1.406,0.125l1.151-0.125l0.794,0.162l0.577,0.569l-0.216,0.928l0.034,1.537
					l0.939-0.244l1.08-0.687c0.542-0.607,0.868-0.93,1.011-0.97c0.145-0.041,0.433-0.164,0.829-0.405l0.431,0.848l0.325,1.213
					l-0.252,0.729l-0.073,0.646l-0.431,0.405l0.648,0.444l-0.648,0.445l-0.396,0.607l0.36,0.282l1.336-0.202l0.971-0.366
					l0.509,0.567l0.428-0.808l0.83-0.323l0.434,0.485l0.54,0.364c0.182,0.123,0.359,0.159,0.508,0.159
					c0.105,0,0.501,0.123,1.116,0.325l0.684,0.201l0.792-1.332l0.253-0.203l0.216,0.769l0.399,0.203h1.261
					c0.038,0.036,0.18,0,0.468-0.123c0.182-0.08,0.361-0.123,0.578-0.203c0.218-0.04,0.36-0.122,0.434-0.161
					c0.143-0.083,0.359-0.203,0.65-0.405l-1.119,1.293c-0.36,0.282-0.613,0.527-0.687,0.728c-0.108,0.161-0.179,0.605-0.179,1.294
					l0.217,0.485c-0.398,0.201-0.725,0.402-0.865,0.606c-0.218,0.16-0.613,0.484-1.298,1.049c-0.361-0.2-0.615-0.241-0.758-0.2
					c-0.073,0.04-0.253,0.123-0.541,0.162c-0.325,0.038-0.505,0.161-0.574,0.203c-0.112,0.078-0.291,0.159-0.509,0.24
					c-0.288,0.121-0.506,0.202-0.613,0.321c-0.286,0.124-0.648,0.286-1.117,0.409l-0.253,0.28l-0.109,0.971l0.289,0.767l0.506,0.042
					l0.792,0.403l0.541-0.283l0.11-0.647c0.866-0.283,1.37-0.446,1.515-0.446c0.143,0,0.467,0.124,0.935,0.326l1.336-1.255
					c0.252-0.524,0.468-0.849,0.72-0.849c0.144,0,0.433-0.039,0.795-0.078c0.358-0.042,0.613-0.081,0.72-0.081
					c0.146,0,0.507-0.12,1.047-0.285l-0.073-0.97l1.73-0.484l1.731-1.256l1.333-0.48l1.476-0.811l2.602-3.154l0.216-1.253
					l-0.722-0.727l1.297,0.204l1.696-1.336l0.828-0.928c1.011-0.204,1.585-0.325,1.768-0.365l0.759-0.162
					c0.106-0.041,0.178-0.041,0.285-0.079c0.255-0.04,0.399-0.04,0.471,0c0.18,0.079,0.864-0.04,2.019-0.365l-2.417,0.971
					c-1.009,0.362-1.622,0.604-1.8,0.645c-0.216,0.042-0.546,0.123-0.904,0.243l-0.901,1.415l-0.358,1.254
					c0.107,0.243,0.324,0.363,0.648,0.363c0.287-0.083,0.83-0.203,1.623-0.363l-1.623,0.807l-0.506,0.486
					c0.397,0.242,0.722,0.363,0.868,0.363c0.938,0,1.476-0.04,1.62-0.121c0.11-0.08,0.471-0.403,1.047-0.928l0.685-0.364h0.613
					l1.298-1.254l0.938-1.496c0.722-0.363,1.117-0.565,1.262-0.646l1.333-0.691c0.146-0.079,0.434-0.039,0.831,0.165
					c0.649,0.563,1.046,0.85,1.189,0.93c0.106,0.08,0.757,0.242,1.839,0.444c-0.039,0.241-0.143,0.485-0.361,0.647
					c-0.216,0.16-0.396,0.403-0.581,0.766l2.421-1.089c0.216,0.363,0.471,0.484,0.646,0.443c0.148-0.081,0.435-0.161,0.902-0.24
					l1.19-0.651l-0.756,0.771l0.179,0.646l1.299,0.286c0.902,0.199,1.406,0.24,1.554,0.199c0.142-0.081,0.608-0.199,1.441-0.365
					l1.656,0.244c0.217,0.162,0.542,0.241,0.902,0.203c0.397-0.041,0.828-0.124,1.26-0.281c-0.032,0.442,0,0.645,0.218,0.645
					c0.217,0,0.614,0.081,1.154,0.201c0.541,0.161,0.902,0.285,1.009,0.285c0.145,0,0.434-0.162,0.794-0.485
					c0.287-0.161,0.542-0.244,0.722-0.284c0.251-0.041,0.54-0.079,0.972-0.12"/>
				<path fill="#606060" stroke="#595959" stroke-miterlimit="10" d="M11.516,58.342h0.039l0.865,0.646
					c0.394,0.406,0.683,0.689,0.793,0.809c0.106,0.162,0.396,0.526,0.9,1.05c0.469,0.286,0.793,0.485,1.011,0.568l0.936,0.444
					c0.505,0.202,0.797,0.323,0.901,0.323c0.181,0,0.612,0.04,1.37,0.081c0.076,0,0.182,0.041,0.255,0.041h0.035
					c0.576,0.161,0.902,0.244,1.045,0.244c0.145,0,0.361,0.241,0.613,0.765l0.326-0.888l0.791,0.323l0.469-0.284
					c0.509,0.042,0.867,0.122,1.047,0.201c0.182,0.083,0.72,0.323,1.659,0.771l1.656,1.617l-0.432,0.443l0.326,0.687l0.829,0.526
					v0.646l0.251,0.404l-1.732,0.082l-0.576,0.446c0.072,0.323,0.145,0.565,0.254,0.728c0.108,0.12,0.178,0.242,0.322,0.281
					l0.506-0.363l0.651,0.729c0.251,0.2,0.465,0.403,0.575,0.604c0.036,0,0.071,0.042,0.109,0.082
					c0.069,0.121,0.107,0.202,0.181,0.282c0.106,0.082,0.25,0.124,0.393,0.124h0.797l0.107-1.091c0.396-0.042,0.683-0.122,0.9-0.202
					c0.216-0.04,0.615-0.242,1.263-0.567l-0.217,1.011L30.7,70.671l-1.153-0.526l-0.075,0.566l0.218,0.77
					c0.324,0.121,0.615,0.242,0.758,0.363c0.18,0.162,0.361,0.243,0.581,0.243c0.105,0,0.249-0.243,0.43-0.771
					c0-0.04,0.07-0.12,0.07-0.202c0.145-0.403,0.219-0.522,0.291-0.362c0,0.202,0.071,0.687,0.141,1.376l0.325,0.645l0.326,0.364
					l0.182,0.849l-0.253,0.16c0.071,0.608,0.145,1.015,0.253,1.172l0.179,0.326c0.035,0.081,0.146,0.122,0.251,0.162
					c0.11,0,0.217,0.121,0.471,0.243c0.217,0.121,0.359,0.16,0.431,0.16c0.147,0,0.327-0.241,0.651-0.726
					c0.251,0.041,0.469,0.118,0.648,0.323c0.107,0.121,0.289,0.162,0.613,0.243c0.251,0.039,0.396,0.08,0.396,0.16"/>
				<path fill="#606060" stroke="#595959" stroke-miterlimit="10" d="M25.508,33.478c0.218,0.081,0.397,0.121,0.542,0.121
					c0.072,0,0.106-0.04,0.216-0.04c0.145-0.081,0.361-0.16,0.612-0.244c0.287-0.121,0.541-0.159,0.755-0.279
					c0.218-0.083,0.4-0.205,0.473-0.205c0.032-0.041,0.107-0.08,0.178-0.08c0.036-0.083,0.07-0.123,0.107-0.203
					c0.038-0.202,0.073-0.323,0.106-0.365c0.147-0.162,0.974-0.442,2.53-0.89c-0.65,0.084-1.05,0.164-1.194,0.244
					c-0.107,0.042-0.469,0.083-0.974,0.122h-1.262l-0.756,0.362l-1.624,1.336L25.508,33.478"/>
				<path fill="#606060" stroke="#595959" stroke-miterlimit="10" d="M11.913,57.453c-0.216-0.081-0.358-0.163-0.467-0.202
					c-0.071-0.041-0.11-0.041-0.11-0.041c-0.104,0-0.505,0.121-1.227,0.364c-0.143,0.164-0.287,0.202-0.469,0.082l-0.43-0.284
					c-0.183-0.121-0.362-0.162-0.435-0.121l-0.324,0.202c-0.144,0.041-0.25,0.082-0.287,0.082c-0.111-0.041-0.255-0.163-0.47-0.325
					l-0.108-0.404l-0.107-24.58"/>
				<line fill="#606060" stroke="#595959" stroke-miterlimit="10" x1="11.627" y1="58.259" x2="11.913" y2="57.453"/>
				<path fill="#606060" stroke="#595959" stroke-miterlimit="10" d="M18.297,63.837L18.766,64c0.108-0.245,0.146-0.444,0.146-0.564
					c0-0.043-0.038-0.082-0.111-0.161c-0.072-0.042-0.146-0.083-0.18-0.122c-0.035-0.082-0.075-0.122-0.145-0.122l-0.18-0.043
					c-0.073,0-0.108,0.083-0.073,0.366L18.297,63.837"/>
			</g>
		</g>
	</g>
</g>
<g>
	<path opacity="0.2" fill="#040000" d="M51.468,25.842c-12.833-1.161-27.857,4.18-33.622,11.917c-0.216,0.29-0.395,0.58-0.576,0.871
		c-0.754,1.162-1.274,2.345-1.487,3.511c-0.235,1.144-0.222,2.244,0.115,3.307c0.022,0.067,0.256,0.683,0.567,1.677
		c0,0,0,0,0.018,0.023c1.421,4.434,5.23,16.048,5.255,16.116c0.264,0.815,2.07,0.979,3.438,0.312
		c0.065-0.038,0.163-0.072,0.213-0.09c0.408-0.205,29.137-14.191,30.032-14.615c0.246-0.132,0.522-0.26,0.768-0.392
		c1.619-0.863,3.055-1.81,4.313-2.816c1.499-1.184,2.72-2.433,3.671-3.711C69.937,34.213,64.232,26.997,51.468,25.842z
		 M37.911,52.178c-1.417,1.903-5.117,3.214-8.265,2.93c-3.146-0.284-4.548-2.058-3.131-3.96l6.105-8.196
		c1.417-1.902,5.116-3.214,8.263-2.929c3.147,0.284,4.551,2.057,3.132,3.96L37.911,52.178z M42.814,37.434
		c-3.305-0.299-4.776-2.162-3.288-4.16c1.487-1.998,5.373-3.375,8.676-3.075c3.307,0.299,4.778,2.161,3.289,4.158
		C50.004,36.354,46.119,37.732,42.814,37.434z"/>
	<path fill="#919191" d="M23.615,0C10.541,0,0,10.576,0,23.612c0,0.488,0.035,0.971,0.068,1.458c0.106,1.942,0.45,3.884,1.077,5.756
		c0.59,1.838,1.387,3.573,2.458,5.203c0.072,0.102,0.731,1.039,1.736,2.566c0,0,0,0,0.034,0.034
		c4.507,6.795,16.404,24.585,16.472,24.687c0.832,1.249,2.672,1.249,3.504,0c0.032-0.069,0.103-0.137,0.138-0.173
		c0.244-0.38,17.719-26.562,18.273-27.359c0.141-0.242,0.313-0.484,0.454-0.728c0.931-1.595,1.627-3.292,2.113-5.062
		c0.588-2.081,0.865-4.23,0.865-6.382C47.193,10.576,36.619,0,23.615,0z M29.402,43.508c0,3.207-2.6,5.805-5.805,5.805
		c-3.208,0-5.804-2.598-5.804-5.805V29.701c0-3.207,2.597-5.805,5.804-5.805c3.205,0,5.805,2.598,5.805,5.805V43.508z
		 M23.598,19.531c-3.368,0-6.097-2.729-6.097-6.096c0-3.364,2.729-6.093,6.097-6.093c3.366,0,6.094,2.729,6.094,6.093
		C29.691,16.802,26.963,19.531,23.598,19.531z"/>
</g>
</svg>
