<?xml version="1.0" encoding="utf-8"?>
<!-- Generator: Adobe Illustrator 16.0.3, SVG Export Plug-In . SVG Version: 6.00 Build 0)  -->
<!DOCTYPE svg PUBLIC "-//W3C//DTD SVG 1.1//EN" "http://www.w3.org/Graphics/SVG/1.1/DTD/svg11.dtd">
<svg version="1.1" id="Camada_1" xmlns="http://www.w3.org/2000/svg" xmlns:xlink="http://www.w3.org/1999/xlink" x="0px" y="0px"
	 width="680.314px" height="85.04px" viewBox="0 0 680.314 85.04" enable-background="new 0 0 680.314 85.04" xml:space="preserve">
<g>
	<g>
		<path fill="#FDFDFC" d="M170.078,79.594c0,3.017-2.53,5.443-5.657,5.443H90.695c-3.117,0-5.655-2.428-5.655-5.443V5.441
			C85.039,2.434,87.577,0,90.695,0h73.727c3.127,0,5.657,2.434,5.657,5.441V79.594L170.078,79.594z"/>
		<g>
			<polygon points="89.896,54.558 89.896,48.077 93.428,48.077 93.428,49.179 91.187,49.179 91.187,50.667 92.892,50.667 
				92.892,51.76 91.187,51.76 91.187,53.472 93.519,53.472 93.519,54.558 			"/>
			<path d="M94.753,48.077h1.789c1.487,0,2.308,0.614,2.363,2.246v1.991c-0.057,1.64-0.876,2.244-2.363,2.244h-1.789V48.077z
				 M96.043,53.472h0.453c0.706,0,1.121-0.328,1.121-1.302v-1.707c0-0.922-0.321-1.284-1.121-1.284h-0.453V53.472z"/>
			<path d="M101.494,48.077v4.534c0,0.625,0.29,0.951,0.914,0.951c0.616,0,0.913-0.326,0.913-0.951v-4.534h1.286v4.547
				c0,1.43-0.874,2.035-2.199,2.035c-1.329,0-2.196-0.605-2.196-2.035v-4.547H101.494z"/>
			<path d="M107.208,52.64c0,0.723,0.328,0.922,0.838,0.922c0.519,0,0.847-0.199,0.847-0.922v-0.438h1.291v0.273
				c0,1.611-0.873,2.182-2.138,2.182c-1.252,0-2.129-0.57-2.129-2.182v-2.318c0-1.596,0.877-2.172,2.129-2.172
				c1.265,0,2.138,0.576,2.138,2.172v0.02h-1.291v-0.182c0-0.717-0.328-0.914-0.847-0.914c-0.51,0-0.838,0.197-0.838,0.914V52.64z"
				/>
			<path d="M110.954,54.558l1.677-6.481h1.647l1.626,6.481h-1.232l-0.329-1.356h-1.779l-0.365,1.356H110.954z M112.79,52.105h1.291
				l-0.63-2.623h-0.021L112.79,52.105z"/>
			<path d="M117.968,52.64c0,0.723,0.33,0.922,0.85,0.922c0.505,0,0.835-0.199,0.835-0.922v-0.437h1.29v0.271
				c0,1.611-0.876,2.184-2.125,2.184c-1.253,0-2.128-0.572-2.128-2.184v-2.318c0-1.594,0.875-2.172,2.128-2.172
				c1.249,0,2.125,0.578,2.125,2.172v0.02h-1.29v-0.182c0-0.717-0.33-0.912-0.835-0.912c-0.52,0-0.85,0.195-0.85,0.912V52.64z
				 M117.712,56.008c0.217,0.07,0.461,0.152,0.699,0.152c0.225,0,0.516-0.082,0.516-0.344c0-0.199-0.167-0.336-0.376-0.336
				c-0.151,0-0.283,0.035-0.411,0.072l-0.211-0.182l0.558-0.814h0.496l-0.394,0.555l0.021,0.016
				c0.085-0.041,0.181-0.063,0.279-0.063c0.428,0,0.849,0.272,0.849,0.707c0,0.606-0.647,0.845-1.187,0.845
				c-0.358,0-0.688-0.101-1.014-0.228L117.712,56.008z"/>
			<path d="M121.725,54.558l1.667-6.481h1.654l1.628,6.481h-1.24l-0.32-1.356h-1.787l-0.358,1.356H121.725z M125.903,46.502
				c-0.12,0.568-0.367,1.084-1.035,1.084c-0.51,0-0.951-0.307-1.376-0.307c-0.235,0-0.374,0.162-0.421,0.369h-0.584
				c0.095-0.563,0.403-1.096,1.071-1.096c0.492,0,0.999,0.334,1.301,0.334c0.227,0,0.395-0.174,0.434-0.385H125.903L125.903,46.502z
				 M123.559,52.105h1.28l-0.631-2.623h-0.02L123.559,52.105z"/>
			<path d="M127.447,50.159c0-1.597,0.878-2.173,2.126-2.173c1.255,0,2.137,0.576,2.137,2.173v2.317c0,1.61-0.882,2.183-2.137,2.183
				c-1.248,0-2.126-0.57-2.126-2.183V50.159z M128.737,52.64c0,0.723,0.33,0.922,0.836,0.922c0.511,0,0.843-0.199,0.843-0.922
				v-2.646c0-0.717-0.332-0.914-0.843-0.914c-0.506,0-0.836,0.197-0.836,0.914V52.64z"/>
			<path d="M135.721,48.077h1.817c1.376,0,2.177,0.563,2.177,1.666c0,0.58-0.294,1.032-0.829,1.358
				c0.704,0.435,0.988,0.787,0.988,1.594c0,1.285-0.895,1.863-2.261,1.863h-1.894L135.721,48.077L135.721,48.077z M137.013,50.648
				h0.455c0.569,0,0.956-0.325,0.956-0.763c0-0.479-0.284-0.788-0.896-0.788h-0.515V50.648z M137.013,53.538h0.546
				c0.667,0,1.026-0.373,1.026-0.943c0-0.623-0.445-0.922-1.117-0.922h-0.455V53.538z"/>
			<path d="M140.645,54.558l1.677-6.481h1.648l1.626,6.481h-1.23l-0.329-1.356h-1.78l-0.365,1.356H140.645z M144.647,46.392
				l-1.374,1.319h-0.942l0.868-1.319H144.647z M142.491,52.105h1.278l-0.632-2.623h-0.019L142.491,52.105z"/>
			<path d="M149.335,49.885c-0.208-0.616-0.489-0.879-0.942-0.879c-0.461,0-0.705,0.271-0.705,0.716c0,0.979,2.87,1.053,2.87,3.079
				c0,1.125-0.789,1.855-2.146,1.855c-1.044,0-1.854-0.551-2.202-1.83l1.271-0.264c0.144,0.781,0.611,1.072,0.999,1.072
				c0.451,0,0.791-0.291,0.791-0.779c0-1.223-2.873-1.24-2.873-3.061c0-1.105,0.688-1.812,2.023-1.812
				c1.146,0,1.855,0.649,2.072,1.574L149.335,49.885z"/>
			<rect x="151.942" y="48.077" width="1.288" height="6.481"/>
			<path d="M155.828,52.64c0,0.723,0.332,0.922,0.848,0.922c0.51,0,0.837-0.199,0.837-0.922v-0.438h1.284v0.273
				c0,1.611-0.878,2.182-2.121,2.182c-1.26,0-2.137-0.57-2.137-2.182v-2.318c0-1.596,0.877-2.172,2.137-2.172
				c1.243,0,2.121,0.576,2.121,2.172v0.02h-1.284v-0.182c0-0.717-0.327-0.914-0.837-0.914c-0.516,0-0.848,0.197-0.848,0.914V52.64z"
				/>
			<path d="M159.577,54.558l1.675-6.481h1.646l1.63,6.481h-1.232l-0.32-1.356h-1.788l-0.368,1.356H159.577z M161.42,52.105h1.271
				l-0.619-2.623h-0.018L161.42,52.105z"/>
		</g>
		<g>
			<path d="M89.896,58.853h1.789c1.478,0,2.304,0.616,2.361,2.256v2.002c-0.059,1.625-0.885,2.246-2.361,2.246h-1.789V58.853z
				 M91.186,64.252h0.443c0.716,0,1.12-0.319,1.12-1.287v-1.725c0-0.906-0.313-1.283-1.12-1.283h-0.443V64.252z"/>
			<polygon points="95.279,65.357 95.279,58.853 98.812,58.853 98.812,59.958 96.563,59.958 96.563,61.445 98.275,61.445 
				98.275,62.549 96.563,62.549 96.563,64.252 98.906,64.252 98.906,65.357 			"/>
			<path d="M107.473,65.827c-0.633,0-1.035-0.271-1.354-0.634c-0.341,0.181-0.727,0.244-1.179,0.244
				c-1.251,0-2.135-0.569-2.135-2.174v-2.318c0-1.604,0.884-2.172,2.135-2.172s2.125,0.567,2.125,2.172v2.318
				c0,0.532-0.084,0.94-0.271,1.271c0.188,0.123,0.396,0.202,0.68,0.202L107.473,65.827L107.473,65.827z M104.854,62.659
				c0.415,0.053,0.698,0.289,0.906,0.588h0.017v-2.453c0-0.726-0.331-0.926-0.838-0.926c-0.509,0-0.839,0.2-0.839,0.926v2.633
				c0,0.719,0.33,0.916,0.839,0.916c0.195,0,0.352-0.018,0.49-0.1c-0.179-0.246-0.356-0.445-0.575-0.507V62.659z"/>
			<path d="M109.665,58.853v4.545c0,0.617,0.281,0.942,0.901,0.942c0.635,0,0.924-0.325,0.924-0.942v-4.545h1.282v4.563
				c0,1.42-0.877,2.021-2.206,2.021c-1.327,0-2.192-0.601-2.192-2.021v-4.563H109.665z"/>
			<path d="M113.742,65.357l1.666-6.504h1.655l1.63,6.504h-1.234l-0.328-1.377h-1.79l-0.357,1.377H113.742z M115.586,62.894h1.271
				l-0.622-2.629h-0.02L115.586,62.894z"/>
			<polygon points="119.576,65.357 119.576,58.853 120.868,58.853 120.868,64.252 122.949,64.252 122.949,65.357 			"/>
			<rect x="123.983" y="58.853" width="1.291" height="6.504"/>
			<path d="M126.704,58.853h1.788c1.466,0,2.297,0.616,2.354,2.256v2.002c-0.058,1.625-0.889,2.246-2.354,2.246h-1.788V58.853z
				 M127.982,64.252h0.451c0.706,0,1.124-0.319,1.124-1.287v-1.725c0-0.906-0.313-1.283-1.124-1.283h-0.451V64.252z"/>
			<path d="M131.616,65.357l1.677-6.504h1.657l1.619,6.504h-1.223l-0.333-1.377h-1.786l-0.367,1.377H131.616z M133.461,62.894h1.283
				l-0.62-2.629h-0.021L133.461,62.894z"/>
			<path d="M137.468,58.853h1.793c1.468,0,2.298,0.616,2.346,2.256v2.002c-0.048,1.625-0.878,2.246-2.346,2.246h-1.793V58.853z
				 M138.751,64.252h0.447c0.713,0,1.128-0.319,1.128-1.287v-1.725c0-0.906-0.321-1.283-1.128-1.283h-0.447V64.252z"/>
			<polygon points="142.847,65.357 142.847,58.853 146.38,58.853 146.38,59.958 144.128,59.958 144.128,61.445 145.842,61.445 
				145.842,62.549 144.128,62.549 144.128,64.252 146.472,64.252 146.472,65.357 			"/>
		</g>
		<g>
			<g>
				<path d="M119.457,76.429v-6.505h1.863c1.583,0,2.365,0.726,2.365,1.957c0,1.213-0.782,1.939-2.365,1.939h-0.571v2.607
					L119.457,76.429L119.457,76.429z M120.749,72.788h0.685c0.642,0,0.961-0.308,0.961-0.904c0-0.613-0.319-0.924-0.961-0.924
					h-0.685V72.788z"/>
				<path d="M123.967,76.429l1.665-6.505h1.657l1.629,6.505h-1.233l-0.332-1.378h-1.775l-0.365,1.378H123.967z M125.802,73.965
					h1.282l-0.624-2.627h-0.02L125.802,73.965z"/>
				<path d="M132.834,76.429l-1.119-2.646h-0.623v2.646h-1.29v-6.505h1.875c1.544,0,2.288,0.726,2.288,1.957
					c0,0.798-0.303,1.396-1.026,1.65l1.281,2.896L132.834,76.429L132.834,76.429z M131.092,72.75h0.66
					c0.574,0,0.923-0.271,0.923-0.887c0-0.633-0.349-0.906-0.923-0.906h-0.66V72.75z"/>
				<path d="M134.727,76.429l1.676-6.505h1.657l1.618,6.505h-1.232l-0.33-1.378h-1.777l-0.358,1.378H134.727z M136.561,73.965h1.292
					l-0.635-2.627h-0.016L136.561,73.965z"/>
			</g>
			<polygon points="93.804,69.943 93.804,71.029 92.297,71.029 92.297,76.424 91.009,76.424 91.009,71.029 89.502,71.029 
				89.502,69.943 			"/>
			<path d="M94.64,72.027c0-1.604,0.889-2.174,2.128-2.174c1.263,0,2.14,0.569,2.14,2.174v2.315c0,1.597-0.877,2.175-2.14,2.175
				c-1.239,0-2.128-0.578-2.128-2.175V72.027z M95.932,74.506c0,0.713,0.328,0.916,0.836,0.916c0.52,0,0.85-0.203,0.85-0.916v-2.645
				c0-0.713-0.33-0.912-0.85-0.912c-0.508,0-0.836,0.199-0.836,0.912V74.506z"/>
			<path d="M100.13,69.943h1.799c1.476,0,2.305,0.608,2.362,2.248v1.992c-0.059,1.637-0.888,2.241-2.362,2.241h-1.799V69.943z
				 M101.428,75.34h0.441c0.709,0,1.119-0.336,1.119-1.305v-1.701c0-0.926-0.31-1.307-1.119-1.307h-0.441V75.34z"/>
			<path d="M105.411,72.027c0-1.604,0.875-2.174,2.125-2.174c1.255,0,2.129,0.569,2.129,2.174v2.315
				c0,1.597-0.874,2.175-2.129,2.175c-1.25,0-2.125-0.578-2.125-2.175V72.027z M106.7,74.506c0,0.713,0.319,0.916,0.836,0.916
				c0.511,0,0.838-0.203,0.838-0.916v-2.645c0-0.713-0.327-0.912-0.838-0.912c-0.517,0-0.836,0.199-0.836,0.912V74.506z"/>
			<path d="M113.751,71.752c-0.215-0.614-0.5-0.877-0.939-0.877c-0.463,0-0.718,0.273-0.718,0.713c0,0.98,2.88,1.043,2.88,3.08
				c0,1.115-0.789,1.849-2.145,1.849c-1.056,0-1.865-0.543-2.216-1.819l1.281-0.265c0.141,0.778,0.613,1.062,0.999,1.062
				c0.451,0,0.79-0.289,0.79-0.771c0-1.224-2.882-1.24-2.882-3.062c0-1.111,0.699-1.811,2.036-1.811c1.137,0,1.844,0.654,2.07,1.566
				L113.751,71.752z"/>
		</g>
		<path d="M120.128,16.124c-0.148-4.743,2.655-8.385,7.832-8.385c3.943,0,7.392,2.43,7.392,6.487c0,3.114-1.721,4.831-3.851,6.284
			c-2.124,1.453-4.649,2.64-6.226,4.773h10.202v3.611h-15.841c0.032-4.8,3.086-6.844,6.813-9.272
			c1.911-1.248,4.501-2.521,4.528-5.066c0-1.959-1.354-3.206-3.233-3.206c-2.592,0-3.419,2.58-3.419,4.773L120.128,16.124
			L120.128,16.124z"/>
	</g>
	<g>
		<path fill="#FDFDFC" d="M340.156,79.599c0,3-2.533,5.438-5.659,5.438h-73.713c-3.131,0-5.666-2.438-5.666-5.438V5.447
			c0-3.013,2.535-5.447,5.666-5.447h73.713c3.126,0,5.659,2.435,5.659,5.447V79.599z"/>
		<g>
			<path d="M263.161,55.252l-1.128-2.664h-0.63v2.664h-1.299v-6.551h1.878c1.566,0,2.314,0.728,2.314,1.971
				c0,0.804-0.304,1.402-1.024,1.66l1.271,2.92H263.161z M261.404,51.545h0.679c0.563,0,0.917-0.254,0.917-0.891
				c0-0.641-0.354-0.916-0.917-0.916h-0.679V51.545z"/>
			<polygon points="265.532,55.252 265.532,48.704 269.08,48.704 269.08,49.814 266.825,49.814 266.825,51.312 268.551,51.312 
				268.551,52.42 266.825,52.42 266.825,54.138 269.185,54.138 269.185,55.252 			"/>
			<path d="M270.428,48.704h1.802c1.489,0,2.315,0.619,2.371,2.262v2.022c-0.056,1.646-0.882,2.267-2.371,2.267h-1.802V48.704z
				 M271.727,54.138h0.447c0.721,0,1.137-0.328,1.137-1.294v-1.735c0-0.911-0.324-1.295-1.137-1.295h-0.447V54.138z"/>
			<path d="M277.219,48.704v4.578c0,0.62,0.285,0.95,0.92,0.95c0.628,0,0.922-0.33,0.922-0.95v-4.578h1.299v4.578
				c0,1.44-0.881,2.061-2.221,2.061c-1.337,0-2.211-0.619-2.211-2.061v-4.578H277.219z"/>
			<polygon points="281.781,48.704 285.551,48.704 285.551,49.756 282.967,54.138 285.604,54.138 285.604,55.252 281.525,55.252 
				281.525,54.198 284.088,49.814 281.781,49.814 			"/>
			<rect x="286.765" y="48.704" width="1.3" height="6.551"/>
			<path d="M292.539,55.252l-1.129-2.664h-0.625v2.664h-1.291v-6.551h1.879c1.565,0,2.305,0.728,2.305,1.971
				c0,0.804-0.295,1.402-1.024,1.66l1.282,2.92H292.539z M290.785,51.545h0.675c0.565,0,0.92-0.254,0.92-0.891
				c0-0.641-0.354-0.916-0.92-0.916h-0.675V51.545z"/>
			<path d="M297.257,55.252l1.686-6.551h1.67l1.634,6.551h-1.243l-0.323-1.389h-1.802l-0.37,1.389H297.257z M299.113,52.771h1.288
				l-0.625-2.646h-0.025L299.113,52.771z"/>
		</g>
		<g>
			<polygon points="260.182,66.038 260.182,59.502 262.004,59.502 263.182,63.792 263.2,63.792 264.373,59.502 266.195,59.502 
				266.195,66.038 265.077,66.038 265.077,60.89 265.058,60.89 263.674,66.038 262.684,66.038 261.309,60.89 261.292,60.89 
				261.292,66.038 			"/>
			<path d="M267.506,61.601c0-1.606,0.894-2.188,2.143-2.188c1.273,0,2.146,0.58,2.146,2.188v2.336c0,1.606-0.872,2.188-2.146,2.188
				c-1.249,0-2.143-0.582-2.143-2.188V61.601z M268.805,64.103c0,0.728,0.331,0.912,0.844,0.912c0.522,0,0.855-0.187,0.855-0.912
				v-2.666c0-0.729-0.333-0.933-0.855-0.933c-0.513,0-0.844,0.201-0.844,0.933V64.103z"/>
			<path d="M276.098,66.038l-1.135-2.666h-0.628v2.666h-1.291v-6.533h1.881c1.563,0,2.306,0.713,2.306,1.951
				c0,0.819-0.296,1.405-1.023,1.662l1.275,2.92H276.098z M274.335,62.347h0.674c0.576,0,0.921-0.271,0.921-0.91
				c0-0.638-0.345-0.914-0.921-0.914h-0.674V62.347z"/>
			<polygon points="282.397,59.502 282.397,60.594 280.878,60.594 280.878,66.038 279.59,66.038 279.59,60.594 278.072,60.594 
				278.072,59.502 			"/>
			<path d="M282.552,66.038l1.688-6.533h1.671l1.631,6.533h-1.243l-0.321-1.367h-1.813l-0.36,1.367H282.552z M284.411,63.556h1.291
				l-0.64-2.647h-0.018L284.411,63.556z"/>
			<polygon points="288.44,66.038 288.44,59.502 289.743,59.502 289.743,64.941 291.828,64.941 291.828,66.038 			"/>
			<rect x="292.884" y="59.502" width="1.295" height="6.533"/>
			<path d="M295.613,59.502h1.805c1.497,0,2.323,0.621,2.379,2.265v2.006c-0.056,1.644-0.882,2.265-2.379,2.265h-1.805V59.502z
				 M296.912,64.941h0.455c0.712,0,1.13-0.33,1.13-1.313v-1.715c0-0.933-0.321-1.316-1.13-1.316h-0.455V64.941z"/>
			<path d="M300.573,66.038l1.689-6.533h1.661l1.638,6.533h-1.243l-0.333-1.367h-1.789l-0.371,1.367H300.573z M302.424,63.556h1.301
				l-0.635-2.647h-0.021L302.424,63.556z"/>
			<path d="M306.455,59.502h1.813c1.489,0,2.313,0.621,2.37,2.265v2.006c-0.058,1.644-0.881,2.265-2.37,2.265h-1.813V59.502z
				 M307.756,64.941h0.454c0.712,0,1.131-0.33,1.131-1.313v-1.715c0-0.933-0.324-1.316-1.131-1.316h-0.454V64.941z"/>
			<polygon points="311.883,66.038 311.883,59.502 315.441,59.502 315.441,60.594 313.183,60.594 313.183,62.113 314.899,62.113 
				314.899,63.208 313.183,63.208 313.183,64.941 315.534,64.941 315.534,66.038 			"/>
		</g>
		<g>
			<rect x="260.3" y="70.284" width="1.3" height="6.532"/>
			<polygon points="263.107,76.816 263.107,70.284 264.522,70.284 266.333,74.15 266.354,74.15 266.354,70.284 267.538,70.284 
				267.538,76.816 266.293,76.816 264.312,72.601 264.295,72.601 264.295,76.816 			"/>
			<polygon points="268.97,76.816 268.97,70.284 272.357,70.284 272.357,71.375 270.27,71.375 270.27,72.892 271.903,72.892 
				271.903,73.988 270.27,73.988 270.27,76.816 			"/>
			<path d="M272.529,76.816l1.688-6.532h1.67l1.631,6.532h-1.242l-0.319-1.366h-1.805l-0.369,1.366H272.529z M274.387,74.334h1.289
				l-0.633-2.647h-0.02L274.387,74.334z"/>
			<polygon points="278.493,76.816 278.493,70.284 279.905,70.284 281.721,74.15 281.74,74.15 281.74,70.284 282.924,70.284 
				282.924,76.816 281.681,76.816 279.69,72.601 279.674,72.601 279.674,76.816 			"/>
			<polygon points="288.295,70.284 288.295,71.375 286.778,71.375 286.778,76.816 285.478,76.816 285.478,71.375 283.962,71.375 
				283.962,70.284 			"/>
			<rect x="289.33" y="70.284" width="1.288" height="6.532"/>
			<polygon points="292.059,76.816 292.059,70.284 293.355,70.284 293.355,75.722 295.448,75.722 295.448,76.816 			"/>
		</g>
		<path d="M298.695,24.256h-9.228v-3.902l9.479-12.243h3.951v12.637h2.906v3.509h-2.906v4.856h-4.204L298.695,24.256L298.695,24.256
			z M298.695,13.452h-0.097l-5.64,7.295h5.735L298.695,13.452L298.695,13.452z"/>
	</g>
	<g>
		<path fill="#FDFDFC" d="M255.117,79.599c0,2.998-2.525,5.438-5.659,5.438h-73.722c-3.12,0-5.658-2.44-5.658-5.438V5.447
			c0-3.013,2.538-5.447,5.658-5.447h73.722c3.134,0,5.659,2.435,5.659,5.447V79.599z"/>
		<g>
			<rect x="175.037" y="37.833" width="1.242" height="6.25"/>
			<path d="M180.754,43.56c-0.335,0.368-0.697,0.612-1.163,0.612c-1.207,0-2.051-0.559-2.051-2.095v-2.234
				c0-1.552,0.844-2.111,2.051-2.111c1.281,0,1.953,0.715,2.006,2.128h-1.249c0-0.802-0.311-1.064-0.757-1.064
				c-0.499,0-0.807,0.194-0.807,0.893v2.548c0,0.681,0.308,0.87,0.807,0.87c0.466,0,0.757-0.312,0.757-0.854v-0.38h-0.875v-0.997
				h2.124v3.21h-0.652L180.754,43.56z"/>
			<path d="M184.157,37.833v4.365c0,0.611,0.271,0.906,0.868,0.906c0.601,0,0.883-0.295,0.883-0.906v-4.365h1.24v4.384
				c0,1.36-0.854,1.956-2.123,1.956c-1.288,0-2.122-0.596-2.122-1.956v-4.384H184.157z"/>
			<path d="M188.075,44.083l1.616-6.25h1.598l1.561,6.25h-1.19l-0.316-1.31h-1.724l-0.344,1.31H188.075z M189.854,41.711h1.233
				l-0.608-2.531h-0.017L189.854,41.711z"/>
			<polygon points="193.702,44.083 193.702,37.833 194.946,37.833 194.946,43.02 196.95,43.02 196.95,44.083 			"/>
			<path d="M197.876,37.833h1.742c1.415,0,2.214,0.578,2.268,2.147v1.94c-0.054,1.568-0.853,2.163-2.268,2.163h-1.742V37.833z
				 M199.129,43.02h0.434c0.673,0,1.07-0.313,1.07-1.243V40.14c0-0.891-0.298-1.256-1.07-1.256h-0.434V43.02z"/>
			<path d="M202.631,44.083l1.615-6.25h1.59l1.565,6.25h-1.187l-0.318-1.31h-1.725l-0.344,1.31H202.631z M204.409,41.711h1.227
				l-0.611-2.531h-0.016L204.409,41.711z"/>
			<path d="M208.256,37.833h1.724c1.435,0,2.227,0.578,2.278,2.147v1.94c-0.053,1.568-0.845,2.163-2.278,2.163h-1.724V37.833z
				 M209.498,43.02h0.428c0.688,0,1.09-0.313,1.09-1.243V40.14c0-0.891-0.309-1.256-1.09-1.256h-0.428V43.02z"/>
			<polygon points="213.448,44.083 213.448,37.833 216.858,37.833 216.858,38.884 214.679,38.884 214.679,40.33 216.332,40.33 
				216.332,41.379 214.679,41.379 214.679,43.02 216.939,43.02 216.939,44.083 			"/>
			<polygon points="220.815,44.083 220.815,37.833 224.219,37.833 224.219,38.884 222.052,38.884 222.052,40.33 223.7,40.33 
				223.7,41.379 222.052,41.379 222.052,43.02 224.308,43.02 224.308,44.083 			"/>
			<polygon points="225.57,44.083 225.57,37.833 226.933,37.833 228.653,41.535 228.673,41.535 228.673,37.833 229.817,37.833 
				229.817,44.083 228.62,44.083 226.711,40.052 226.694,40.052 226.694,44.083 			"/>
			<polygon points="234.944,37.833 234.944,38.884 233.493,38.884 233.493,44.083 232.247,44.083 232.247,38.884 230.797,38.884 
				230.797,37.833 			"/>
			<path d="M238.782,44.083l-1.08-2.547h-0.601v2.547h-1.243v-6.25h1.799c1.506,0,2.212,0.684,2.212,1.873
				c0,0.766-0.288,1.342-0.979,1.585l1.228,2.792H238.782z M237.103,40.54h0.646c0.543,0,0.88-0.263,0.88-0.854
				c0-0.613-0.337-0.871-0.88-0.871h-0.646V40.54z"/>
			<polygon points="241.051,44.083 241.051,37.833 244.453,37.833 244.453,38.884 242.294,38.884 242.294,40.33 243.938,40.33 
				243.938,41.379 242.294,41.379 242.294,43.02 244.554,43.02 244.554,44.083 			"/>
			<g>
				<path d="M177.714,50.51c-0.216-0.596-0.479-0.856-0.909-0.856c-0.453,0-0.688,0.263-0.688,0.699c0,0.942,2.775,1.01,2.775,2.965
					c0,1.084-0.771,1.781-2.066,1.781c-1.019,0-1.8-0.521-2.136-1.763l1.226-0.244c0.146,0.75,0.6,1.027,0.965,1.027
					c0.436,0,0.77-0.277,0.77-0.746c0-1.19-2.775-1.207-2.775-2.955c0-1.063,0.663-1.739,1.952-1.739
					c1.105,0,1.783,0.627,2.005,1.519L177.714,50.51z"/>
				<polygon points="180.146,55.013 180.146,48.76 183.558,48.76 183.558,49.827 181.396,49.827 181.396,51.26 183.048,51.26 
					183.048,52.308 181.396,52.308 181.396,53.963 183.647,53.963 183.647,55.013 				"/>
				<polygon points="186.788,50.631 187.715,48.76 189.045,48.76 187.477,51.732 189.2,55.013 187.857,55.013 186.788,52.812 
					185.698,55.013 184.356,55.013 186.107,51.732 184.51,48.76 185.842,48.76 				"/>
				<path d="M189.918,50.771c0-1.537,0.845-2.092,2.043-2.092c1.215,0,2.058,0.555,2.058,2.092v2.231
					c0,1.537-0.843,2.097-2.058,2.097c-1.198,0-2.043-0.56-2.043-2.097V50.771z M191.16,53.163c0,0.698,0.31,0.873,0.801,0.873
					c0.507,0,0.815-0.175,0.815-0.873v-2.545c0-0.701-0.31-0.896-0.815-0.896c-0.491,0-0.801,0.192-0.801,0.896V53.163z"/>
				<path d="M197.955,50.51c-0.205-0.596-0.479-0.856-0.914-0.856c-0.437,0-0.682,0.263-0.682,0.699c0,0.942,2.777,1.01,2.777,2.965
					c0,1.084-0.773,1.781-2.08,1.781c-0.993,0-1.774-0.521-2.123-1.763l1.227-0.244c0.146,0.75,0.599,1.027,0.962,1.027
					c0.437,0,0.771-0.277,0.771-0.746c0-1.19-2.776-1.207-2.776-2.955c0-1.063,0.672-1.739,1.96-1.739
					c1.107,0,1.778,0.627,1.998,1.519L197.955,50.51z"/>
				<polygon points="203.084,55.013 203.084,48.76 206.488,48.76 206.488,49.827 204.318,49.827 204.318,51.26 205.972,51.26 
					205.972,52.308 204.318,52.308 204.318,53.963 206.567,53.963 206.567,55.013 				"/>
			</g>
			<g>
				<polygon points="174.638,59.409 175.863,59.409 177.009,63.877 177.024,63.877 178.15,59.409 179.375,59.409 177.715,65.659 
					176.301,65.659 				"/>
				<path d="M179.473,65.659l1.607-6.25h1.601l1.568,6.25h-1.198l-0.308-1.31h-1.717l-0.354,1.31H179.473z M181.254,63.284h1.226
					l-0.609-2.531h-0.018L181.254,63.284z"/>
				<polygon points="185.102,65.659 185.102,59.409 186.344,59.409 186.344,64.611 188.35,64.611 188.35,65.659 				"/>
				<path d="M189.167,61.417c0-1.537,0.854-2.092,2.06-2.092c1.208,0,2.06,0.555,2.06,2.092v2.233c0,1.535-0.852,2.095-2.06,2.095
					c-1.204,0-2.06-0.56-2.06-2.095V61.417z M190.418,63.808c0,0.698,0.309,0.873,0.809,0.873c0.498,0,0.809-0.175,0.809-0.873
					V61.26c0-0.698-0.311-0.893-0.809-0.893c-0.5,0-0.809,0.193-0.809,0.893V63.808z"/>
				<path d="M197.386,65.659l-1.087-2.55h-0.58v2.55h-1.253v-6.25h1.796c1.507,0,2.214,0.682,2.214,1.868
					c0,0.787-0.288,1.345-0.979,1.589l1.219,2.793H197.386z M195.719,62.135h0.636c0.545,0,0.878-0.264,0.878-0.875
					c0-0.596-0.333-0.872-0.878-0.872h-0.636V62.135z"/>
				<rect x="199.728" y="59.409" width="1.244" height="6.25"/>
				<polygon points="202.331,59.409 205.937,59.409 205.937,60.404 203.465,64.611 205.99,64.611 205.99,65.659 202.079,65.659 
					202.079,64.644 204.539,60.472 202.331,60.472 				"/>
				<path d="M206.59,65.659l1.604-6.25h1.588l1.569,6.25h-1.188l-0.308-1.31h-1.726l-0.354,1.31H206.59z M208.35,63.284h1.232
					l-0.6-2.531h-0.018L208.35,63.284z"/>
				<path d="M213.34,63.808c0,0.698,0.326,0.873,0.814,0.873c0.49,0,0.818-0.175,0.818-0.873v-0.42h1.235v0.262
					c0,1.535-0.847,2.095-2.055,2.095c-1.207,0-2.05-0.56-2.05-2.095v-2.233c0-1.537,0.843-2.092,2.05-2.092
					c1.208,0,2.055,0.555,2.055,2.092v0.02h-1.235v-0.174c0-0.699-0.328-0.893-0.818-0.893c-0.488,0-0.814,0.192-0.814,0.893V63.808
					z M213.087,67.054c0.217,0.069,0.452,0.157,0.679,0.157c0.22,0,0.501-0.088,0.501-0.35c0-0.191-0.164-0.316-0.363-0.316
					c-0.146,0-0.274,0.037-0.399,0.07l-0.199-0.174l0.544-0.785h0.472l-0.38,0.523l0.021,0.021c0.077-0.039,0.181-0.058,0.279-0.058
					c0.406,0,0.808,0.265,0.808,0.685c0,0.573-0.616,0.799-1.144,0.799c-0.346,0-0.662-0.086-0.979-0.207L213.087,67.054z"/>
				<path d="M216.95,65.659l1.616-6.25h1.598l1.568,6.25h-1.188l-0.326-1.31h-1.715l-0.344,1.31H216.95z M220.999,57.892
					c-0.128,0.539-0.363,1.045-0.998,1.045c-0.49,0-0.927-0.297-1.334-0.297c-0.228,0-0.354,0.157-0.408,0.351h-0.563
					c0.091-0.541,0.399-1.048,1.036-1.048c0.471,0,0.961,0.313,1.252,0.313c0.218,0,0.379-0.158,0.418-0.363L220.999,57.892
					L220.999,57.892z M218.731,63.284h1.234l-0.602-2.531h-0.019L218.731,63.284z"/>
				<path d="M222.479,61.417c0-1.537,0.841-2.092,2.061-2.092c1.195,0,2.05,0.555,2.05,2.092v2.233c0,1.535-0.854,2.095-2.05,2.095
					c-1.22,0-2.061-0.56-2.061-2.095V61.417z M223.721,63.808c0,0.698,0.318,0.873,0.818,0.873c0.485,0,0.797-0.175,0.797-0.873
					V61.26c0-0.698-0.312-0.893-0.797-0.893c-0.5,0-0.818,0.193-0.818,0.893V63.808z"/>
			</g>
			<g>
				<path d="M174.953,70.448h1.743c1.416,0,2.215,0.596,2.268,2.17v1.934c-0.053,1.57-0.852,2.162-2.268,2.162h-1.743V70.448z
					 M176.206,75.65h0.436c0.681,0,1.073-0.313,1.073-1.237v-1.66c0-0.873-0.302-1.238-1.073-1.238h-0.436V75.65z"/>
				<path d="M179.711,76.711l1.614-6.266h1.589l1.567,6.266h-1.188l-0.316-1.323h-1.723l-0.347,1.323H179.711z M181.479,74.338
					h1.243l-0.608-2.526h-0.018L181.479,74.338z"/>
				<polygon points="188.094,76.711 188.094,70.448 189.838,70.448 190.961,74.573 190.979,74.573 192.105,70.448 193.85,70.448 
					193.85,76.711 192.777,76.711 192.777,71.792 192.76,71.792 191.434,76.711 190.499,76.711 189.183,71.792 189.167,71.792 
					189.167,76.711 				"/>
				<path d="M196.525,70.448v4.383c0,0.594,0.271,0.905,0.879,0.905c0.599,0,0.87-0.313,0.87-0.905v-4.383h1.253v4.383
					c0,1.379-0.854,1.955-2.123,1.955c-1.29,0-2.121-0.576-2.121-1.955v-4.383H196.525z"/>
				<polygon points="200.888,76.711 200.888,70.448 202.14,70.448 202.14,75.65 204.137,75.65 204.137,76.711 				"/>
				<polygon points="205.144,76.711 205.144,70.448 206.387,70.448 206.387,72.943 208.147,72.943 208.147,70.448 209.384,70.448 
					209.384,76.711 208.147,76.711 208.147,74.008 206.387,74.008 206.387,76.711 				"/>
				<polygon points="210.753,76.711 210.753,70.448 214.155,70.448 214.155,71.513 211.995,71.513 211.995,72.943 213.646,72.943 
					213.646,74.008 211.995,74.008 211.995,75.65 214.246,75.65 214.246,76.711 				"/>
				<path d="M218.355,76.711l-1.079-2.545h-0.601v2.545h-1.233v-6.266h1.797c1.487,0,2.196,0.701,2.196,1.887
					c0,0.769-0.281,1.344-0.979,1.588l1.233,2.791H218.355z M216.676,73.17h0.637c0.556,0,0.891-0.262,0.891-0.854
					c0-0.608-0.335-0.871-0.891-0.871h-0.637V73.17z"/>
			</g>
		</g>
		<path d="M211.093,16.256c1.837,0.155,4.486-0.194,4.486-2.506c0-1.708-1.419-2.694-2.983-2.694c-2.142,0-3.278,1.532-3.251,3.618
			h-4.067c0.153-4.142,2.949-7.005,7.287-7.005c3.373,0,7.075,1.987,7.075,5.617c0,1.905-0.986,3.613-2.954,4.133v0.057
			c2.314,0.502,3.744,2.353,3.744,4.606c0,4.258-3.714,6.665-7.834,6.665c-4.728,0-7.923-2.714-7.829-7.394h4.063
			c0.094,2.213,1.237,4.006,3.706,4.006c1.921,0,3.438-1.274,3.438-3.194c0-3.066-2.811-3.009-4.881-3.009V16.256L211.093,16.256z"
			/>
	</g>
	<g>
		<path fill="#FDFDFC" d="M425.195,79.599c0,3-2.528,5.438-5.657,5.438h-73.725c-3.117,0-5.657-2.438-5.657-5.438V5.447
			c0-3.014,2.54-5.447,5.657-5.447h73.725c3.128,0,5.657,2.434,5.657,5.447V79.599z"/>
		<g>
			<g>
				<polygon points="344.88,55.48 344.88,49.023 346.661,49.023 347.823,53.267 347.845,53.267 349.004,49.023 350.8,49.023 
					350.8,55.48 349.701,55.48 349.701,50.411 349.686,50.411 348.32,55.48 347.355,55.48 345.99,50.411 345.973,50.411 
					345.973,55.48 				"/>
				<polygon points="352.116,55.48 352.116,49.023 355.619,49.023 355.619,50.12 353.399,50.12 353.399,51.594 355.099,51.594 
					355.099,52.689 353.399,52.689 353.399,54.381 355.714,54.381 355.714,55.48 				"/>
				<polygon points="356.847,55.48 356.847,49.023 358.131,49.023 358.131,54.381 360.188,54.381 360.188,55.48 				"/>
				<polygon points="361.132,55.48 361.132,49.023 362.424,49.023 362.424,51.594 364.229,51.594 364.229,49.023 365.506,49.023 
					365.506,55.48 364.229,55.48 364.229,52.689 362.424,52.689 362.424,55.48 				"/>
				<path d="M366.712,51.111c0-1.604,0.883-2.161,2.113-2.161c1.248,0,2.124,0.557,2.124,2.161v2.3c0,1.584-0.876,2.159-2.124,2.159
					c-1.23,0-2.113-0.575-2.113-2.159V51.111z M367.992,53.573c0,0.702,0.328,0.899,0.833,0.899c0.519,0,0.833-0.197,0.833-0.899
					V50.95c0-0.72-0.314-0.921-0.833-0.921c-0.505,0-0.833,0.201-0.833,0.921V53.573z"/>
				<path d="M375.081,55.48l-1.114-2.627h-0.604v2.627h-1.28v-6.459h1.854c1.541,0,2.271,0.722,2.271,1.942
					c0,0.791-0.29,1.386-1.013,1.64l1.267,2.877H375.081z M373.362,51.829h0.655c0.569,0,0.906-0.269,0.906-0.879
					c0-0.632-0.337-0.902-0.906-0.902h-0.655V51.829z"/>
				<path d="M376.88,55.48l1.655-6.459h1.645l1.617,6.459h-1.228l-0.326-1.369h-1.774l-0.354,1.369H376.88z M378.711,53.034h1.264
					l-0.619-2.605h-0.017L378.711,53.034z"/>
				<path d="M385.594,55.48l-1.113-2.627h-0.616v2.627h-1.279v-6.459h1.857c1.543,0,2.273,0.722,2.273,1.942
					c0,0.791-0.302,1.386-1.011,1.64l1.262,2.877H385.594z M383.864,51.829h0.663c0.563,0,0.906-0.269,0.906-0.879
					c0-0.632-0.344-0.902-0.906-0.902h-0.663V51.829z"/>
			</g>
			<g>
				<path d="M344.88,66.183l1.663-6.459h1.645l1.621,6.459h-1.236l-0.324-1.369h-1.769l-0.366,1.369H344.88z M346.702,63.736h1.279
					l-0.628-2.604h-0.016L346.702,63.736z"/>
				<path d="M356.092,61.525c-0.22-0.592-0.495-0.864-0.938-0.864c-0.449,0-0.71,0.272-0.71,0.7c0,0.97,2.86,1.043,2.86,3.062
					c0,1.113-0.784,1.852-2.131,1.852c-1.039,0-1.854-0.541-2.188-1.814l1.254-0.272c0.159,0.793,0.615,1.063,1,1.063
					c0.438,0,0.786-0.289,0.786-0.754c0-1.228-2.864-1.242-2.864-3.043c0-1.113,0.694-1.8,2.021-1.8c1.143,0,1.836,0.65,2.06,1.563
					L356.092,61.525z"/>
				<path d="M358.064,66.183l1.664-6.459h1.638l1.619,6.459h-1.227l-0.329-1.369h-1.774l-0.354,1.369H358.064z M359.887,63.736
					h1.271l-0.614-2.604h-0.031L359.887,63.736z"/>
				<path d="M365.123,59.724v4.519c0,0.608,0.282,0.934,0.896,0.934c0.63,0,0.92-0.324,0.92-0.934v-4.519h1.271v4.53
					c0,1.425-0.87,2.019-2.19,2.019c-1.316,0-2.177-0.594-2.177-2.019v-4.53H365.123z M367.54,58.073l-1.36,1.29h-0.944l0.87-1.29
					H367.54z"/>
				<path d="M369.526,59.724h1.786c1.468,0,2.282,0.612,2.337,2.248v1.978c-0.055,1.625-0.869,2.233-2.337,2.233h-1.786V59.724z
					 M370.807,65.083h0.449c0.7,0,1.113-0.319,1.113-1.274v-1.709c0-0.899-0.309-1.279-1.113-1.279h-0.449V65.083z"/>
				<polygon points="374.781,66.183 374.781,59.726 378.287,59.726 378.287,60.82 376.063,60.82 376.063,62.295 377.765,62.295 
					377.765,63.392 376.063,63.392 376.063,65.083 378.381,65.083 378.381,66.183 				"/>
			</g>
			<g>
				<path d="M344.88,70.458h1.784c1.459,0,2.281,0.611,2.331,2.23v1.979c-0.05,1.638-0.872,2.229-2.331,2.229h-1.784V70.458z
					 M346.157,75.818h0.442c0.706,0,1.109-0.323,1.109-1.293v-1.688c0-0.922-0.308-1.299-1.109-1.299h-0.442V75.818z"/>
				<path d="M349.675,76.896l1.662-6.438h1.638l1.616,6.438h-1.224l-0.331-1.345h-1.765l-0.363,1.345H349.675z M351.493,74.452
					h1.285l-0.629-2.605h-0.015L351.493,74.452z"/>
				<path d="M358.212,72.238c-0.206-0.592-0.485-0.842-0.938-0.842c-0.454,0-0.713,0.25-0.713,0.698c0,0.972,2.865,1.048,2.865,3.06
					c0,1.097-0.798,1.832-2.134,1.832c-1.036,0-1.841-0.541-2.188-1.813l1.254-0.256c0.149,0.775,0.617,1.043,1,1.043
					c0.438,0,0.782-0.268,0.782-0.752c0-1.223-2.845-1.223-2.845-3.041c0-1.098,0.681-1.799,2.007-1.799
					c1.139,0,1.833,0.648,2.058,1.566L358.212,72.238z"/>
				<path d="M366.507,76.359c-0.338,0.379-0.712,0.627-1.197,0.627c-1.244,0-2.112-0.573-2.112-2.155v-2.302
					c0-1.584,0.868-2.157,2.112-2.157c1.312,0,2.012,0.717,2.063,2.19h-1.287c0-0.849-0.309-1.117-0.776-1.117
					c-0.507,0-0.832,0.199-0.832,0.921v2.629c0,0.717,0.325,0.916,0.832,0.916c0.485,0,0.776-0.343,0.776-0.898v-0.398h-0.891V73.59
					h2.178v3.31h-0.67L366.507,76.359z"/>
				<polygon points="368.556,76.896 368.556,70.458 372.071,70.458 372.071,71.538 369.832,71.538 369.832,73.034 371.538,73.034 
					371.538,74.111 369.832,74.111 369.832,75.818 372.163,75.818 372.163,76.896 				"/>
				<path d="M376.129,72.238c-0.216-0.592-0.496-0.842-0.944-0.842s-0.699,0.25-0.699,0.698c0,0.972,2.857,1.048,2.857,3.06
					c0,1.097-0.784,1.832-2.14,1.832c-1.041,0-1.844-0.541-2.19-1.813l1.265-0.256c0.149,0.775,0.617,1.043,0.988,1.043
					c0.452,0,0.786-0.268,0.786-0.752c0-1.223-2.851-1.223-2.851-3.041c0-1.098,0.683-1.799,2.02-1.799
					c1.135,0,1.832,0.648,2.05,1.566L376.129,72.238z"/>
				<polygon points="382.433,70.458 382.433,71.538 380.935,71.538 380.935,76.896 379.651,76.896 379.651,71.538 378.156,71.538 
					378.156,70.458 				"/>
				<path d="M382.48,76.896l1.661-6.438h1.646l1.608,6.438h-1.211l-0.33-1.345h-1.775l-0.364,1.345H382.48z M384.309,74.452h1.271
					l-0.616-2.605h-0.019L384.309,74.452z"/>
				<polygon points="388.266,76.896 388.266,70.458 389.669,70.458 391.445,74.275 391.465,74.275 391.465,70.458 392.64,70.458 
					392.64,76.896 391.408,76.896 389.454,72.743 389.434,72.743 389.434,76.896 				"/>
				<polygon points="397.829,70.458 397.829,71.538 396.33,71.538 396.33,76.896 395.057,76.896 395.057,71.538 393.565,71.538 
					393.565,70.458 				"/>
				<polygon points="398.682,76.896 398.682,70.458 402.198,70.458 402.198,71.538 399.973,71.538 399.973,73.034 401.663,73.034 
					401.663,74.111 399.973,74.111 399.973,75.818 402.281,75.818 402.281,76.896 				"/>
				<path d="M406.254,72.238c-0.224-0.592-0.495-0.842-0.943-0.842c-0.456,0-0.703,0.25-0.703,0.698c0,0.972,2.854,1.048,2.854,3.06
					c0,1.097-0.784,1.832-2.131,1.832c-1.037,0-1.852-0.541-2.188-1.813l1.258-0.256c0.155,0.775,0.613,1.043,0.992,1.043
					c0.453,0,0.797-0.268,0.797-0.752c0-1.223-2.856-1.223-2.856-3.041c0-1.098,0.68-1.799,2.006-1.799
					c1.145,0,1.845,0.648,2.066,1.566L406.254,72.238z"/>
			</g>
		</g>
		<path d="M389.49,11.578h-8.873l-0.857,4.696l0.059,0.057c1.163-1.142,2.524-1.588,4.209-1.588c4.233,0,6.632,3.161,6.632,7.032
			c0,4.243-3.651,7.529-7.98,7.44c-4.173,0-7.926-2.214-7.982-6.555h4.356c0.216,1.828,1.631,3.1,3.535,3.1
			c2.273,0,3.714-1.928,3.714-3.985c0-2.156-1.385-3.871-3.714-3.871c-1.567,0-2.429,0.529-3.288,1.656h-3.938l2.123-11.439h12.006
			L389.49,11.578L389.49,11.578z"/>
	</g>
	<g>
		<path fill="#FDFDFC" d="M510.236,79.594c0,3.005-2.524,5.443-5.66,5.443h-73.723c-3.119,0-5.658-2.438-5.658-5.443V5.444
			c0-3.002,2.539-5.444,5.658-5.444h73.723c3.136,0,5.66,2.442,5.66,5.444V79.594z"/>
		<g>
			<g>
				<path d="M431.348,42.308c0,0.711,0.332,0.905,0.83,0.905s0.824-0.194,0.824-0.905V41.88h1.264v0.27
					c0,1.563-0.859,2.129-2.088,2.129c-1.222,0-2.088-0.565-2.088-2.129v-2.278c0-1.563,0.866-2.132,2.088-2.132
					c1.229,0,2.088,0.568,2.088,2.132v0.02h-1.264v-0.178c0-0.714-0.326-0.906-0.824-0.906s-0.83,0.192-0.83,0.906V42.308z"/>
				<path d="M435.377,39.871c0-1.563,0.848-2.132,2.086-2.132c1.229,0,2.09,0.568,2.09,2.132v2.278c0,1.563-0.861,2.129-2.09,2.129
					c-1.238,0-2.086-0.566-2.086-2.129V39.871z M436.633,42.308c0,0.711,0.33,0.905,0.83,0.905c0.508,0,0.821-0.194,0.821-0.905
					v-2.595c0-0.714-0.313-0.906-0.821-0.906c-0.5,0-0.83,0.192-0.83,0.906V42.308z"/>
				<polygon points="440.846,44.191 440.846,37.829 442.598,37.829 443.741,42.008 443.76,42.008 444.907,37.829 446.682,37.829 
					446.682,44.191 445.604,44.191 445.604,39.18 445.584,39.18 444.241,44.191 443.282,44.191 441.936,39.18 441.915,39.18 
					441.915,44.191 				"/>
				<path d="M448.084,37.829h1.776c1.357,0,2.133,0.55,2.133,1.634c0,0.556-0.284,1.015-0.819,1.334
					c0.696,0.427,0.977,0.764,0.977,1.561c0,1.27-0.887,1.833-2.217,1.833h-1.85V37.829L448.084,37.829z M449.342,40.354h0.444
					c0.563,0,0.939-0.319,0.939-0.745c0-0.462-0.283-0.784-0.877-0.784h-0.508L449.342,40.354L449.342,40.354z M449.342,43.195
					h0.537c0.655,0,0.998-0.373,0.998-0.923c0-0.624-0.435-0.926-1.091-0.926h-0.444V43.195L449.342,43.195z"/>
				<path d="M452.907,44.191l1.646-6.362h1.627l1.588,6.362h-1.211l-0.324-1.335h-1.75l-0.352,1.335H452.907z M454.721,41.771h1.254
					l-0.617-2.576h-0.02L454.721,41.771z"/>
				<polygon points="461.963,37.829 461.963,38.894 460.493,38.894 460.493,44.191 459.229,44.191 459.229,38.894 457.747,38.894 
					457.747,37.829 				"/>
				<polygon points="462.906,44.191 462.906,37.829 466.379,37.829 466.379,38.894 464.18,38.894 464.18,40.368 465.844,40.368 
					465.844,41.436 464.18,41.436 464.18,43.124 466.459,43.124 466.459,44.191 				"/>
				<path d="M470.646,44.191l-1.1-2.593h-0.609v2.593h-1.264v-6.362h1.827c1.533,0,2.255,0.709,2.255,1.9
					c0,0.8-0.296,1.369-0.998,1.617l1.239,2.844L470.646,44.191L470.646,44.191z M468.938,40.603h0.656
					c0.557,0,0.896-0.269,0.896-0.89c0-0.622-0.34-0.889-0.896-0.889h-0.656V40.603z"/>
				<path d="M475.23,44.191l1.643-6.362h1.628l1.598,6.362h-1.209l-0.324-1.335h-1.744l-0.371,1.335H475.23z M477.038,41.771h1.259
					l-0.611-2.576h-0.018L477.038,41.771z"/>
				<path d="M483.247,44.191l1.646-6.362h1.623l1.588,6.362h-1.199l-0.334-1.335h-1.744l-0.358,1.335H483.247z M485.059,41.771
					h1.258l-0.611-2.576h-0.02L485.059,41.771z"/>
				<rect x="489.059" y="37.829" width="1.266" height="6.362"/>
				<path d="M491.721,37.829h1.754c1.449,0,2.264,0.603,2.318,2.205v1.954c-0.056,1.617-0.869,2.203-2.318,2.203h-1.754V37.829z
					 M492.986,43.124h0.435c0.7,0,1.102-0.318,1.102-1.28v-1.67c0-0.905-0.316-1.28-1.102-1.28h-0.435V43.124z"/>
				<path d="M499.782,39.608c-0.203-0.609-0.479-0.858-0.922-0.858c-0.442,0-0.684,0.249-0.684,0.695
					c0,0.961,2.809,1.032,2.809,3.023c0,1.099-0.776,1.81-2.106,1.81c-1.019,0-1.818-0.531-2.162-1.793l1.256-0.249
					c0.141,0.765,0.59,1.048,0.979,1.048c0.443,0,0.775-0.283,0.775-0.765c0-1.207-2.826-1.224-2.826-3.007
					c0-1.081,0.687-1.772,1.996-1.772c1.125,0,1.812,0.639,2.033,1.546L499.782,39.608z"/>
				<polygon points="502.879,44.191 502.336,44.191 502.336,42.948 503.629,42.948 503.629,44.191 503.057,45.502 502.409,45.502 
									"/>
			</g>
			<g>
				<path d="M429.904,54.877l1.627-6.379h1.623l1.601,6.379h-1.209l-0.314-1.35h-1.756l-0.354,1.35H429.904z M431.695,52.461h1.254
					l-0.604-2.576h-0.021L431.695,52.461z"/>
				<polygon points="438.432,54.877 438.432,48.5 440.195,48.5 441.342,52.672 441.359,52.672 442.518,48.5 444.281,48.5 
					444.281,54.877 443.198,54.877 443.198,49.868 443.188,49.868 441.831,54.877 440.879,54.877 439.529,49.868 439.512,49.868 
					439.512,54.877 				"/>
				<path d="M445.221,54.877l1.643-6.379h1.629l1.586,6.379h-1.209l-0.311-1.35h-1.748l-0.369,1.35H445.221z M447.031,52.461h1.256
					l-0.608-2.576h-0.019L447.031,52.461z"/>
				<polygon points="450.959,54.877 450.959,48.5 452.223,48.5 452.223,53.793 454.256,53.793 454.256,54.877 				"/>
				<path d="M454.766,54.877L456.4,48.5h1.625l1.601,6.379h-1.212l-0.332-1.351h-1.735l-0.359,1.351h-1.221V54.877z M458.691,46.849
					l-1.352,1.293h-0.925l0.853-1.293H458.691z M456.568,52.461h1.252l-0.608-2.576h-0.017L456.568,52.461z"/>
				<path d="M463.469,54.877l-1.111-2.594h-0.6v2.594h-1.256V48.5h1.827c1.517,0,2.236,0.707,2.236,1.912
					c0,0.785-0.285,1.355-0.998,1.621l1.258,2.844H463.469z M461.758,51.271h0.646c0.563,0,0.904-0.269,0.904-0.888
					c0-0.604-0.342-0.877-0.904-0.877h-0.646V51.271z"/>
				<rect x="465.842" y="48.5" width="1.272" height="6.377"/>
				<path d="M468.057,54.877l1.646-6.379h1.629l1.587,6.379h-1.214l-0.317-1.35h-1.758l-0.349,1.35H468.057z M469.868,52.461h1.254
					l-0.616-2.576h-0.017L469.868,52.461z"/>
			</g>
			<g>
				<polygon points="429.801,65.693 429.801,59.314 433.266,59.314 433.266,60.396 431.057,60.396 431.057,61.853 432.74,61.853 
					432.74,62.937 431.057,62.937 431.057,64.607 433.357,64.607 433.357,65.693 				"/>
				<path d="M437.191,61.357c0-1.565,0.859-2.133,2.088-2.133c1.238,0,2.09,0.565,2.09,2.133v2.271c0,1.584-0.852,2.136-2.09,2.136
					c-1.229,0-2.088-0.552-2.088-2.136V61.357z M438.456,63.81c0,0.692,0.326,0.89,0.822,0.89c0.5,0,0.834-0.195,0.834-0.89v-2.612
					c0-0.697-0.334-0.892-0.834-0.892c-0.496,0-0.822,0.192-0.822,0.892V63.81z"/>
				<path d="M443.918,59.314v4.461c0,0.604,0.274,0.925,0.889,0.925c0.617,0,0.899-0.32,0.899-0.925v-4.461h1.261v4.478
					c0,1.389-0.851,1.973-2.16,1.973c-1.293,0-2.146-0.584-2.146-1.973v-4.478H443.918z"/>
				<polygon points="452.193,59.314 452.193,60.396 450.727,60.396 450.727,65.691 449.459,65.691 449.459,60.396 447.982,60.396 
					447.982,59.314 				"/>
				<path d="M456.104,65.693l-1.1-2.594h-0.603v2.594h-1.266v-6.379h1.832c1.521,0,2.25,0.709,2.25,1.912
					c0,0.784-0.293,1.354-0.998,1.623l1.24,2.844H456.104z M454.402,62.084h0.658c0.555,0,0.887-0.268,0.887-0.889
					c0-0.604-0.332-0.875-0.887-0.875h-0.658V62.084z"/>
				<path d="M457.969,65.693l1.643-6.383h1.619l1.598,6.383h-1.209l-0.313-1.353h-1.758l-0.359,1.353H457.969z M459.77,63.277h1.26
					l-0.61-2.575h-0.02L459.77,63.277z"/>
				<path d="M466.497,61.088c-0.204-0.604-0.489-0.856-0.924-0.856c-0.444,0-0.705,0.269-0.705,0.694
					c0,0.962,2.828,1.033,2.828,3.023c0,1.098-0.776,1.813-2.104,1.813c-1.035,0-1.832-0.531-2.164-1.777l1.248-0.271
					c0.139,0.787,0.6,1.05,0.979,1.05c0.437,0,0.775-0.283,0.775-0.763c0-1.19-2.828-1.209-2.828-2.985
					c0-1.104,0.672-1.793,1.988-1.793c1.125,0,1.815,0.655,2.041,1.545L466.497,61.088z"/>
			</g>
			<g>
				<path d="M430.2,70.372h1.756c1.449,0,2.255,0.588,2.31,2.203v1.957c-0.055,1.598-0.859,2.202-2.31,2.202H430.2V70.372z
					 M431.456,75.65h0.443c0.701,0,1.103-0.303,1.103-1.26v-1.675c0-0.903-0.308-1.28-1.103-1.28h-0.443V75.65z"/>
				<path d="M435.377,72.417c0-1.564,0.848-2.133,2.086-2.133c1.229,0,2.09,0.567,2.09,2.133v2.272c0,1.563-0.861,2.134-2.09,2.134
					c-1.238,0-2.086-0.57-2.086-2.134V72.417z M436.633,74.851c0,0.688,0.33,0.89,0.83,0.89c0.508,0,0.821-0.199,0.821-0.89v-2.597
					c0-0.711-0.313-0.905-0.821-0.905c-0.5,0-0.83,0.194-0.83,0.905V74.851z"/>
				<polygon points="440.76,76.734 440.76,70.372 444.227,70.372 444.227,71.435 442.027,71.435 442.027,72.913 443.704,72.913 
					443.704,73.978 442.027,73.978 442.027,75.65 444.318,75.65 444.318,76.734 				"/>
				<polygon points="445.604,76.734 445.604,70.372 446.986,70.372 448.752,74.138 448.768,74.138 448.768,70.372 449.918,70.372 
					449.918,76.734 448.704,76.734 446.773,72.627 446.756,72.627 446.756,76.734 				"/>
				<path d="M452.467,74.851c0,0.688,0.321,0.89,0.83,0.89c0.5,0,0.834-0.199,0.834-0.89V74.42h1.256v0.269
					c0,1.563-0.871,2.136-2.09,2.136c-1.238,0-2.086-0.572-2.086-2.136v-2.271c0-1.568,0.848-2.133,2.086-2.133
					c1.219,0,2.09,0.563,2.09,2.133v0.016h-1.256v-0.178c0-0.711-0.334-0.906-0.834-0.906c-0.509,0-0.83,0.195-0.83,0.906V74.851z
					 M452.217,78.157c0.211,0.067,0.453,0.143,0.69,0.143c0.205,0,0.511-0.09,0.511-0.34c0-0.193-0.177-0.318-0.382-0.318
					c-0.146,0-0.274,0.016-0.403,0.051l-0.205-0.158l0.549-0.799h0.488l-0.392,0.535l0.021,0.016
					c0.084-0.049,0.186-0.049,0.274-0.049c0.429,0,0.834,0.264,0.834,0.67c0,0.6-0.629,0.836-1.166,0.836
					c-0.352,0-0.684-0.086-0.995-0.215L452.217,78.157z"/>
				<path d="M456.143,76.734l1.646-6.362h1.628L461,76.734h-1.201l-0.32-1.351h-1.746l-0.371,1.351H456.143z M457.952,74.318h1.257
					l-0.619-2.577h-0.021L457.952,74.318z"/>
				<path d="M464.68,72.129c-0.213-0.586-0.5-0.852-0.926-0.852c-0.451,0-0.703,0.266-0.703,0.711c0,0.959,2.832,1.029,2.832,3.018
					c0,1.086-0.789,1.816-2.109,1.816c-1.035,0-1.83-0.535-2.17-1.797l1.246-0.248c0.146,0.762,0.609,1.035,0.979,1.035
					c0.445,0,0.775-0.273,0.775-0.748c0-1.209-2.826-1.227-2.826-3.006c0-1.102,0.687-1.775,1.996-1.775
					c1.127,0,1.812,0.633,2.031,1.545L464.68,72.129z"/>
			</g>
		</g>
		<path d="M471.07,13.591c-0.278-1.371-1.369-2.552-2.865-2.552c-3.133,0-3.957,3.956-4.09,6.24l0.063,0.07
			c1.188-1.617,2.75-2.298,4.815-2.298c1.836,0,3.691,0.824,4.904,2.115c1.137,1.258,1.65,2.96,1.65,4.574
			c0,4.181-3.021,7.5-7.472,7.5c-6.455,0-8.194-5.415-8.194-10.604c0-5.017,2.315-10.729,8.389-10.729
			c3.682,0,6.426,2.087,6.912,5.685H471.07z M464.521,21.997c0,1.912,1.273,3.813,3.441,3.813c2.077,0,3.256-1.9,3.256-3.755
			c0-1.928-1.031-3.854-3.256-3.854C465.646,18.2,464.521,19.984,464.521,21.997"/>
	</g>
	<g>
		<g>
			<path fill="#FDFDFC" d="M595.275,79.597c0,3.004-2.533,5.44-5.66,5.44H515.9c-3.129,0-5.664-2.438-5.664-5.44V5.443
				c0-3.001,2.535-5.443,5.664-5.443h73.715c3.127,0,5.66,2.442,5.66,5.443V79.597L595.275,79.597z"/>
			<g>
				<g>
					<path d="M519.48,44.812c-0.621,0-1.021-0.269-1.334-0.623c-0.334,0.181-0.725,0.229-1.168,0.229
						c-1.223,0-2.092-0.551-2.092-2.117v-2.301c0-1.564,0.869-2.134,2.092-2.134c1.24,0,2.094,0.569,2.094,2.134v2.301
						c0,0.515-0.084,0.925-0.26,1.228c0.176,0.122,0.391,0.211,0.668,0.211V44.812z M516.907,41.694
						c0.406,0.054,0.675,0.285,0.886,0.586h0.02v-2.438c0-0.695-0.313-0.892-0.834-0.892c-0.5,0-0.822,0.196-0.822,0.892v2.599
						c0,0.713,0.322,0.905,0.822,0.905c0.195,0,0.354-0.033,0.48-0.085c-0.164-0.249-0.347-0.445-0.552-0.516V41.694z"/>
					<path d="M521.635,37.958v4.467c0,0.609,0.266,0.925,0.881,0.925c0.629,0,0.908-0.316,0.908-0.925v-4.467h1.268v4.484
						c0,1.409-0.861,1.977-2.176,1.977c-1.297,0-2.148-0.567-2.148-1.977v-4.484H521.635z"/>
					<path d="M525.641,44.349l1.645-6.391h1.625l1.607,6.391h-1.227l-0.316-1.351h-1.756l-0.354,1.351H525.641z M527.448,41.908
						h1.258l-0.618-2.563h-0.019L527.448,41.908z"/>
					<polygon points="531.385,44.349 531.385,37.958 532.645,37.958 532.645,43.263 534.688,43.263 534.688,44.349 					"/>
					<rect x="535.717" y="37.958" width="1.27" height="6.391"/>
					<path d="M538.385,37.958h1.756c1.463,0,2.272,0.602,2.322,2.205v1.959c-0.05,1.621-0.859,2.227-2.322,2.227h-1.756V37.958z
						 M539.652,43.263h0.435c0.707,0,1.112-0.322,1.112-1.266v-1.69c0-0.892-0.315-1.267-1.112-1.267h-0.435V43.263z"/>
					<path d="M543.225,44.349l1.647-6.391h1.621l1.603,6.391h-1.213l-0.326-1.351h-1.752l-0.355,1.351H543.225z M545.031,41.908
						h1.267l-0.617-2.563h-0.019L545.031,41.908z"/>
					<path d="M548.965,37.958h1.768c1.455,0,2.26,0.602,2.316,2.205v1.959c-0.058,1.621-0.861,2.227-2.316,2.227h-1.768V37.958z
						 M550.23,43.263h0.447c0.692,0,1.098-0.322,1.098-1.266v-1.69c0-0.892-0.309-1.267-1.098-1.267h-0.447V43.263z"/>
					<polygon points="554.258,44.349 554.258,37.958 557.73,37.958 557.73,39.04 555.529,39.04 555.529,40.503 557.204,40.503 
						557.204,41.587 555.529,41.587 555.529,43.263 557.823,43.263 557.823,44.349 					"/>
				</g>
				<g>
					<path d="M514.887,48.958h1.766c1.441,0,2.26,0.602,2.316,2.205v1.959c-0.058,1.619-0.875,2.227-2.316,2.227h-1.766V48.958z
						 M516.154,54.258h0.435c0.703,0,1.108-0.317,1.108-1.264v-1.688c0-0.894-0.311-1.269-1.108-1.269h-0.435V54.258z"/>
					<polygon points="520.178,55.347 520.178,48.958 523.65,48.958 523.65,50.04 521.439,50.04 521.439,51.5 523.12,51.5 
						523.12,52.584 521.439,52.584 521.439,54.258 523.743,54.258 523.743,55.347 					"/>
					<polygon points="527.26,48.958 528.508,48.958 529.676,53.513 529.693,53.513 530.854,48.958 532.092,48.958 530.4,55.347 
						528.965,55.347 					"/>
					<rect x="533.059" y="48.958" width="1.264" height="6.393"/>
					<path d="M535.721,48.958h1.758c1.455,0,2.271,0.602,2.326,2.205v1.959c-0.055,1.619-0.871,2.227-2.326,2.227h-1.758V48.958z
						 M536.99,54.258h0.435c0.705,0,1.11-0.317,1.11-1.264v-1.688c0-0.894-0.313-1.269-1.11-1.269h-0.435V54.258z"/>
					<path d="M540.564,55.347l1.646-6.392h1.627l1.592,6.392h-1.211l-0.324-1.351h-1.746l-0.363,1.351H540.564z M542.381,52.907
						h1.256l-0.619-2.564h-0.021L542.381,52.907z"/>
				</g>
				<g>
					<polygon points="514.887,66.152 514.887,59.775 518.366,59.775 518.366,60.842 516.163,60.842 516.163,62.323 517.831,62.323 
						517.831,63.39 516.163,63.39 516.163,65.083 518.45,65.083 518.45,66.152 					"/>
					<path d="M525.379,66.152l-1.105-2.601h-0.602v2.601h-1.269v-6.377h1.83c1.539,0,2.263,0.716,2.263,1.906
						c0,0.784-0.298,1.368-1.005,1.618l1.24,2.853H525.379z M523.672,62.554h0.655c0.556,0,0.888-0.269,0.888-0.892
						c0-0.627-0.332-0.895-0.888-0.895h-0.655V62.554z"/>
					<polygon points="527.695,66.152 527.695,59.775 531.17,59.775 531.17,60.842 528.956,60.842 528.956,62.323 530.645,62.323 
						530.645,63.39 528.956,63.39 528.956,65.083 531.262,65.083 531.262,66.152 					"/>
					<path d="M535.27,61.54c-0.203-0.588-0.48-0.854-0.922-0.854c-0.447,0-0.697,0.267-0.697,0.709c0,0.963,2.832,1.035,2.832,3.028
						c0,1.088-0.785,1.818-2.121,1.818c-1.022,0-1.832-0.535-2.164-1.801l1.252-0.248c0.146,0.766,0.603,1.029,0.98,1.029
						c0.445,0,0.789-0.264,0.789-0.746c0-1.207-2.836-1.227-2.836-3.012c0-1.103,0.684-1.779,1.989-1.779
						c1.14,0,1.826,0.645,2.048,1.551L535.27,61.54z"/>
					<path d="M537.846,66.152v-6.379h1.822c1.563,0,2.323,0.718,2.323,1.908s-0.76,1.903-2.323,1.903h-0.564v2.566L537.846,66.152
						L537.846,66.152z M539.104,62.588h0.684c0.623,0,0.938-0.303,0.938-0.907c0-0.606-0.314-0.912-0.938-0.912h-0.684V62.588z"/>
					<polygon points="543.055,66.152 543.055,59.775 546.529,59.775 546.529,60.842 544.325,60.842 544.325,62.323 546,62.323 
						546,63.39 544.325,63.39 544.325,65.083 546.618,65.083 546.618,66.152 					"/>
					<rect x="547.906" y="59.775" width="1.271" height="6.377"/>
					<polygon points="554.413,59.775 554.413,60.842 552.936,60.842 552.936,66.152 551.661,66.152 551.661,60.842 550.191,60.842 
						550.191,59.775 					"/>
					<path d="M555.238,61.825c0-1.566,0.871-2.14,2.092-2.14c1.242,0,2.103,0.571,2.103,2.14v2.276c0,1.571-0.859,2.142-2.103,2.142
						c-1.221,0-2.092-0.568-2.092-2.142V61.825z M556.506,64.26c0,0.697,0.323,0.892,0.823,0.892c0.511,0,0.836-0.192,0.836-0.892
						v-2.598c0-0.713-0.325-0.91-0.836-0.91c-0.5,0-0.823,0.197-0.823,0.91V64.26z"/>
					<path d="M562.932,66.152l1.639-6.377h1.631l1.601,6.377h-1.218l-0.319-1.336h-1.748l-0.365,1.336H562.932z M564.736,63.726
						h1.26l-0.612-2.58h-0.017L564.736,63.726z"/>
					<path d="M568.561,61.825c0-1.566,0.871-2.14,2.102-2.14c1.229,0,2.093,0.571,2.093,2.14v2.276c0,1.571-0.863,2.142-2.093,2.142
						s-2.102-0.568-2.102-2.142V61.825z M569.825,64.26c0,0.697,0.328,0.892,0.836,0.892c0.511,0,0.82-0.192,0.82-0.892v-2.598
						c0-0.713-0.311-0.91-0.82-0.91c-0.508,0-0.836,0.197-0.836,0.91V64.26z"/>
				</g>
				<g>
					<g>
						<polygon points="514.887,76.963 514.887,70.586 516.652,70.586 517.801,74.771 517.82,74.771 518.979,70.586 520.745,70.586 
							520.745,76.963 519.663,76.963 519.663,71.943 519.645,71.943 518.295,76.963 517.34,76.963 515.988,71.943 515.967,71.943 
							515.967,76.963 						"/>
						<polygon points="522.146,76.963 522.146,70.586 525.616,70.586 525.616,71.657 523.409,71.657 523.409,73.133 525.096,73.133 
							525.096,74.204 523.409,74.204 523.409,75.894 525.706,75.894 525.706,76.963 						"/>
						<rect x="526.993" y="70.586" width="1.269" height="6.377"/>
						<path d="M529.551,72.638c0-1.568,0.858-2.142,2.09-2.142c1.227,0,2.092,0.572,2.092,2.142v2.274
							c0,1.57-0.865,2.142-2.092,2.142c-1.23,0-2.09-0.57-2.09-2.142V72.638z M530.809,75.075c0,0.696,0.324,0.893,0.832,0.893
							c0.512,0,0.836-0.195,0.836-0.893v-2.599c0-0.716-0.324-0.91-0.836-0.91c-0.508,0-0.832,0.194-0.832,0.91V75.075z"/>
					</g>
					<g>
						<path d="M537.125,76.961l1.637-6.373h1.631l1.602,6.373h-1.225l-0.313-1.338h-1.761l-0.35,1.338H537.125z M538.93,74.542
							h1.262l-0.623-2.565h-0.018L538.93,74.542z"/>
						<polygon points="542.939,76.961 542.939,70.588 544.715,70.588 545.861,74.773 545.879,74.773 547.031,70.588 548.799,70.588 
							548.799,76.961 547.715,76.961 547.715,71.958 547.695,71.958 546.344,76.961 545.391,76.961 544.036,71.958 544.021,71.958 
							544.021,76.961 						"/>
						<path d="M550.197,70.588h1.777c1.371,0,2.146,0.55,2.146,1.636c0,0.571-0.284,1.019-0.813,1.338
							c0.686,0.426,0.961,0.765,0.961,1.565c0,1.267-0.871,1.834-2.223,1.834h-1.851v-6.373H550.197z M551.463,73.12h0.436
							c0.574,0,0.947-0.322,0.947-0.748c0-0.468-0.279-0.765-0.871-0.765h-0.512V73.12z M551.463,75.965h0.53
							c0.664,0,1.009-0.373,1.009-0.928c0-0.604-0.437-0.908-1.104-0.908h-0.436L551.463,75.965L551.463,75.965z"/>
						<rect x="555.564" y="70.588" width="1.262" height="6.373"/>
						<polygon points="558.232,76.961 558.232,70.588 561.695,70.588 561.695,71.674 559.49,71.674 559.49,73.135 561.178,73.135 
							561.178,74.222 559.49,74.222 559.49,75.896 561.786,75.896 561.786,76.961 						"/>
						<polygon points="563.084,76.961 563.084,70.588 564.471,70.588 566.23,74.366 566.25,74.366 566.25,70.588 567.402,70.588 
							567.402,76.961 566.193,76.961 564.247,72.851 564.232,72.851 564.232,76.961 						"/>
						<polygon points="572.635,70.588 572.635,71.674 571.163,71.674 571.163,76.961 569.895,76.961 569.895,71.674 568.413,71.674 
							568.413,70.588 						"/>
						<polygon points="573.577,76.961 573.577,70.588 577.051,70.588 577.051,71.674 574.848,71.674 574.848,73.135 576.523,73.135 
							576.523,74.222 574.848,74.222 574.848,75.896 577.143,75.896 577.143,76.961 						"/>
					</g>
				</g>
			</g>
		</g>
		<path d="M560.245,11.658c-4.604,3.865-7.112,11.798-7.176,17.432h-4.768c0.502-6.244,3.196-12.299,7.366-17.122h-10.405V7.983
			h14.981L560.245,11.658L560.245,11.658z"/>
	</g>
	<g>
		<path fill="#FDFDFC" d="M680.314,79.597c0,3.002-2.529,5.44-5.658,5.44h-73.725c-3.117,0-5.656-2.438-5.656-5.44V5.444
			c0-3,2.539-5.444,5.656-5.444h73.725c3.129,0,5.658,2.444,5.658,5.444V79.597z"/>
		<g>
			<g>
				<g>
					<polygon points="604.301,38.091 604.301,39.153 602.818,39.153 602.818,44.463 601.551,44.463 601.551,39.153 600.07,39.153 
						600.07,38.091 					"/>
					<path d="M605.122,40.134c0-1.564,0.873-2.133,2.101-2.133c1.229,0,2.094,0.568,2.094,2.133v2.282
						c0,1.57-0.863,2.133-2.094,2.133c-1.228,0-2.101-0.563-2.101-2.133V40.134z M606.4,42.576c0,0.713,0.324,0.907,0.822,0.907
						c0.512,0,0.826-0.193,0.826-0.907v-2.599c0-0.717-0.314-0.91-0.826-0.91c-0.498,0-0.822,0.193-0.822,0.91V42.576z"/>
					<path d="M610.529,38.091h1.771c1.44,0,2.26,0.604,2.313,2.204v1.962c-0.053,1.621-0.871,2.208-2.313,2.208h-1.771V38.091z
						 M611.799,43.396h0.442c0.703,0,1.104-0.319,1.104-1.283V40.44c0-0.909-0.314-1.286-1.104-1.286h-0.442V43.396z"/>
					<path d="M615.711,40.134c0-1.564,0.858-2.133,2.102-2.133c1.223,0,2.086,0.568,2.086,2.133v2.282
						c0,1.57-0.863,2.133-2.086,2.133c-1.242,0-2.102-0.563-2.102-2.133V40.134z M616.979,42.576c0,0.713,0.324,0.907,0.834,0.907
						c0.5,0,0.824-0.193,0.824-0.907v-2.599c0-0.717-0.324-0.91-0.824-0.91c-0.51,0-0.834,0.193-0.834,0.91V42.576z"/>
					<polygon points="623.924,44.463 623.924,38.091 625.698,38.091 626.848,42.275 626.866,42.275 628.014,38.091 629.781,38.091 
						629.781,44.463 628.695,44.463 628.695,39.441 628.68,39.441 627.338,44.463 626.375,44.463 625.032,39.441 625.014,39.441 
						625.014,44.463 					"/>
					<path d="M632.529,38.091v4.448c0,0.624,0.271,0.945,0.879,0.945c0.621,0,0.906-0.321,0.906-0.945v-4.448h1.262v4.469
						c0,1.407-0.86,1.993-2.168,1.993c-1.297,0-2.153-0.586-2.153-1.993v-4.469H632.529z"/>
					<polygon points="637.057,44.463 637.057,38.091 638.443,38.091 640.2,41.865 640.221,41.865 640.221,38.091 641.379,38.091 
						641.379,44.463 640.163,44.463 638.221,40.35 638.202,40.35 638.202,44.463 					"/>
					<path d="M642.775,38.091h1.756c1.457,0,2.271,0.604,2.322,2.204v1.962c-0.051,1.621-0.865,2.208-2.322,2.208h-1.756V38.091z
						 M644.041,43.396h0.438c0.701,0,1.1-0.319,1.1-1.283V40.44c0-0.909-0.307-1.286-1.1-1.286h-0.438V43.396z"/>
					<path d="M647.959,40.134c0-1.564,0.864-2.133,2.09-2.133c1.229,0,2.092,0.568,2.092,2.133v2.282
						c0,1.57-0.861,2.133-2.092,2.133c-1.226,0-2.09-0.563-2.09-2.133V40.134z M649.227,42.576c0,0.713,0.322,0.907,0.822,0.907
						c0.502,0,0.823-0.193,0.823-0.907v-2.599c0-0.717-0.321-0.91-0.823-0.91c-0.5,0-0.822,0.193-0.822,0.91V42.576z"/>
				</g>
				<g>
					<polygon points="604.301,48.872 604.301,49.958 602.818,49.958 602.818,55.263 601.551,55.263 601.551,49.958 600.07,49.958 
						600.07,48.872 					"/>
					<path d="M608.217,55.263l-1.104-2.601h-0.61v2.601h-1.257V48.87h1.832c1.529,0,2.244,0.711,2.244,1.918
						c0,0.787-0.289,1.357-0.996,1.623l1.252,2.853H608.217z M606.502,51.65h0.655c0.566,0,0.902-0.271,0.902-0.894
						c0-0.604-0.336-0.875-0.902-0.875h-0.655V51.65z"/>
					<path d="M610.073,55.263l1.648-6.396h1.631l1.6,6.396h-1.213l-0.328-1.353h-1.754l-0.36,1.353H610.073z M611.893,52.84h1.258
						l-0.613-2.58h-0.018L611.893,52.84z"/>
					<path d="M615.823,48.872h1.785c1.35,0,2.129,0.553,2.129,1.657c0,0.548-0.278,1.015-0.813,1.313
						c0.7,0.431,0.973,0.785,0.973,1.566c0,1.264-0.881,1.854-2.223,1.854h-1.853L615.823,48.872L615.823,48.872z M617.092,51.402
						h0.444c0.563,0,0.941-0.325,0.941-0.75c0-0.467-0.285-0.771-0.887-0.771h-0.5L617.092,51.402L617.092,51.402z M617.092,54.249
						h0.528c0.662,0,1.017-0.371,1.017-0.926c0-0.607-0.443-0.91-1.101-0.91h-0.444V54.249z"/>
					<path d="M620.661,55.263l1.642-6.396h1.629l1.604,6.396h-1.215l-0.324-1.353h-1.75l-0.358,1.353H620.661z M622.467,52.84h1.262
						l-0.613-2.58h-0.018L622.467,52.84z"/>
					<polygon points="626.402,55.263 626.402,48.872 627.672,48.872 627.672,54.174 629.717,54.174 629.717,55.263 					"/>
					<polygon points="630.741,55.263 630.741,48.872 632.01,48.872 632.01,51.417 633.797,51.417 633.797,48.872 635.064,48.872 
						635.064,55.263 633.797,55.263 633.797,52.5 632.01,52.5 632.01,55.263 					"/>
					<path d="M636.01,55.263l1.647-6.396h1.629l1.601,6.396h-1.219l-0.318-1.353h-1.756l-0.353,1.353H636.01z M637.822,52.84h1.261
						l-0.621-2.58h-0.017L637.822,52.84z"/>
					<polygon points="641.831,55.263 641.831,48.872 643.219,48.872 644.977,52.665 644.993,52.665 644.993,48.872 646.154,48.872 
						646.154,55.263 644.939,55.263 643.01,51.131 642.984,51.131 642.984,55.263 					"/>
					<path d="M647.553,48.872h1.76c1.461,0,2.266,0.604,2.32,2.205v1.959c-0.056,1.621-0.859,2.229-2.32,2.229h-1.76V48.872z
						 M648.823,54.174h0.439c0.694,0,1.102-0.319,1.102-1.266v-1.689c0-0.891-0.313-1.264-1.102-1.264h-0.439V54.174z"/>
					<path d="M652.734,50.918c0-1.567,0.859-2.139,2.092-2.139c1.23,0,2.103,0.57,2.103,2.139v2.277
						c0,1.582-0.871,2.139-2.103,2.139s-2.092-0.557-2.092-2.139V50.918z M654.004,53.375c0,0.697,0.313,0.891,0.821,0.891
						c0.51,0,0.824-0.193,0.824-0.891v-2.617c0-0.697-0.313-0.893-0.824-0.893c-0.51,0-0.821,0.194-0.821,0.893V53.375z"/>
				</g>
				<g>
					<path d="M601,66.043V59.65h1.829c1.558,0,2.326,0.713,2.326,1.92c0,1.195-0.77,1.908-2.326,1.908h-0.563v2.565H601z
						 M602.266,62.459h0.686c0.623,0,0.929-0.301,0.929-0.891c0-0.604-0.306-0.906-0.929-0.906h-0.686V62.459z"/>
					<polygon points="606.217,66.043 606.217,59.65 609.689,59.65 609.689,60.738 607.488,60.738 607.488,62.198 609.172,62.198 
						609.172,63.282 607.488,63.282 607.488,64.958 609.782,64.958 609.782,66.043 					"/>
					<polygon points="610.997,66.043 610.997,59.65 612.262,59.65 612.262,64.958 614.297,64.958 614.297,66.043 					"/>
					<path d="M615.148,61.702c0-1.568,0.863-2.14,2.094-2.14c1.234,0,2.093,0.569,2.093,2.14v2.276c0,1.582-0.857,2.14-2.093,2.14
						c-1.229,0-2.094-0.558-2.094-2.14V61.702z M616.411,64.157c0,0.696,0.32,0.891,0.83,0.891c0.513,0,0.824-0.193,0.824-0.891
						v-2.615c0-0.701-0.313-0.896-0.824-0.896c-0.51,0-0.83,0.192-0.83,0.896V64.157z"/>
				</g>
				<g>
					<path d="M600.467,70.435h1.76c1.457,0,2.256,0.588,2.316,2.207v1.959c-0.062,1.603-0.859,2.205-2.316,2.205h-1.76V70.435z
						 M601.736,75.724h0.435c0.703,0,1.104-0.308,1.104-1.265v-1.676c0-0.906-0.313-1.283-1.104-1.283h-0.435V75.724z"/>
					<polygon points="605.754,76.806 605.754,70.435 609.232,70.435 609.232,71.5 607.021,71.5 607.021,72.98 608.706,72.98 
						608.706,74.047 607.021,74.047 607.021,75.724 609.316,75.724 609.316,76.806 					"/>
					<path d="M613.334,72.198c-0.214-0.589-0.488-0.855-0.937-0.855c-0.443,0-0.693,0.268-0.693,0.713
						c0,0.963,2.834,1.035,2.834,3.023c0,1.09-0.78,1.819-2.11,1.819c-1.029,0-1.83-0.532-2.174-1.797l1.245-0.252
						c0.158,0.764,0.613,1.034,0.98,1.034c0.447,0,0.787-0.271,0.787-0.748c0-1.211-2.832-1.227-2.832-3.012
						c0-1.102,0.688-1.779,1.998-1.779c1.133,0,1.815,0.638,2.039,1.55L613.334,72.198z"/>
					<polygon points="615.823,76.806 615.823,70.435 619.293,70.435 619.293,71.5 617.094,71.5 617.094,72.98 618.777,72.98 
						618.777,74.047 617.094,74.047 617.094,75.724 619.387,75.724 619.387,76.806 					"/>
					<polygon points="620.672,76.806 620.672,70.435 622.057,70.435 623.829,74.208 623.848,74.208 623.848,70.435 624.995,70.435 
						624.995,76.806 623.793,76.806 621.854,72.698 621.827,72.698 621.827,76.806 					"/>
					<polygon points="625.969,70.435 627.217,70.435 628.383,74.995 628.4,74.995 629.561,70.435 630.799,70.435 629.105,76.806 
						627.661,76.806 					"/>
					<path d="M631.573,72.482c0-1.565,0.863-2.138,2.092-2.138c1.232,0,2.103,0.57,2.103,2.138v2.278
						c0,1.564-0.869,2.138-2.103,2.138c-1.229,0-2.092-0.571-2.092-2.138V72.482z M632.846,74.922c0,0.691,0.322,0.89,0.82,0.89
						c0.512,0,0.825-0.196,0.825-0.89v-2.602c0-0.713-0.313-0.908-0.825-0.908c-0.498,0-0.82,0.195-0.82,0.908V74.922z"/>
					<polygon points="636.98,76.806 636.98,70.435 638.24,70.435 638.24,75.724 640.288,75.724 640.288,76.806 					"/>
					<polygon points="640.305,70.435 641.553,70.435 642.719,74.995 642.74,74.995 643.896,70.435 645.137,70.435 643.443,76.806 
						642.006,76.806 					"/>
					<rect x="646.094" y="70.435" width="1.271" height="6.371"/>
					<polygon points="648.838,76.806 648.838,70.435 650.613,70.435 651.762,74.622 651.771,74.622 652.92,70.435 654.695,70.435 
						654.695,76.806 653.613,76.806 653.613,71.788 653.596,71.788 652.241,76.806 651.288,76.806 649.939,71.788 649.916,71.788 
						649.916,76.806 					"/>
					<polygon points="656.094,76.806 656.094,70.435 659.566,70.435 659.566,71.5 657.359,71.5 657.359,72.98 659.047,72.98 
						659.047,74.047 657.359,74.047 657.359,75.724 659.656,75.724 659.656,76.806 					"/>
					<polygon points="660.943,76.806 660.943,70.435 662.331,70.435 664.1,74.208 664.107,74.208 664.107,70.435 665.268,70.435 
						665.268,76.806 664.063,76.806 662.116,72.698 662.1,72.698 662.1,76.806 					"/>
					<polygon points="670.502,70.435 670.502,71.5 669.034,71.5 669.034,76.806 667.756,76.806 667.756,71.5 666.284,71.5 
						666.284,70.435 					"/>
					<path d="M671.334,72.482c0-1.565,0.862-2.138,2.096-2.138c1.229,0,2.092,0.57,2.092,2.138v2.278
						c0,1.564-0.861,2.138-2.092,2.138c-1.232,0-2.096-0.571-2.096-2.138V72.482z M672.607,74.922c0,0.691,0.318,0.89,0.822,0.89
						c0.5,0,0.822-0.196,0.822-0.89v-2.602c0-0.713-0.322-0.908-0.822-0.908c-0.504,0-0.822,0.195-0.822,0.908V74.922z"/>
				</g>
			</g>
			<path d="M637.827,8.142c5.265,0,7.064,3.486,7.064,5.453c0,2.009-1.082,3.643-3.072,4.286v0.044
				c2.504,0.561,3.947,2.416,3.947,4.974c0,4.275-3.98,6.396-7.908,6.396c-4.078,0-8.037-1.969-8.037-6.366
				c0-2.587,1.513-4.412,3.99-5.003v-0.044c-2.063-0.561-3.123-2.192-3.123-4.188C630.689,10.023,634.381,8.142,637.827,8.142
				 M637.859,26.188c2.053,0,3.619-1.403,3.619-3.428c0-1.954-1.635-3.264-3.619-3.264c-2.094,0-3.746,1.139-3.746,3.235
				C634.113,24.824,635.807,26.188,637.859,26.188 M637.827,16.744c1.755,0,3.175-0.928,3.175-2.687
				c0-1.039-0.513-2.809-3.175-2.809c-1.723,0-3.233,1.01-3.233,2.809C634.594,15.844,636.105,16.744,637.827,16.744"/>
		</g>
	</g>
	<g>
		<path fill="#FDFDFC" d="M85.039,79.594c0,3.015-2.532,5.443-5.661,5.443H5.666C2.537,85.04,0,82.609,0,79.594V5.441
			C0,2.434,2.537,0,5.666,0h73.712c3.129,0,5.661,2.434,5.661,5.441V79.594z"/>
		<g>
			<path d="M4.562,55.439l1.667-6.485h1.656l1.626,6.485H8.277L7.958,54.06H6.172l-0.368,1.379H4.562z M6.396,52.967h1.28
				l-0.623-2.614H7.035L6.396,52.967z"/>
			<path d="M11.567,53.502c0,0.722,0.341,0.922,0.852,0.922c0.507,0,0.834-0.2,0.834-0.922v-0.418h1.288v0.263
				c0,1.601-0.873,2.17-2.122,2.17c-1.263,0-2.128-0.569-2.128-2.17v-2.318c0-1.603,0.865-2.178,2.128-2.178
				c1.249,0,2.122,0.575,2.122,2.178v0.021h-1.288v-0.182c0-0.714-0.327-0.916-0.834-0.916c-0.511,0-0.852,0.202-0.852,0.916V53.502
				z"/>
			<path d="M15.315,55.439l1.676-6.485h1.654l1.615,6.485h-1.222L18.7,54.06h-1.78l-0.361,1.379H15.315z M17.157,52.967h1.279
				l-0.623-2.614h-0.019L17.157,52.967z"/>
			<path d="M21.148,48.952h1.823c1.372,0,2.161,0.549,2.161,1.661c0,0.572-0.281,1.046-0.826,1.351
				c0.714,0.434,0.989,0.789,0.989,1.594c0,1.293-0.896,1.881-2.259,1.881h-1.89L21.148,48.952L21.148,48.952z M22.441,51.508h0.446
				c0.583,0,0.967-0.323,0.967-0.758c0-0.473-0.293-0.781-0.903-0.781h-0.51V51.508z M22.441,54.404h0.55
				c0.655,0,1.018-0.379,1.018-0.938c0-0.614-0.446-0.926-1.12-0.926h-0.446L22.441,54.404L22.441,54.404z"/>
			<path d="M26.076,55.439l1.664-6.485H29.4l1.623,6.485h-1.239l-0.322-1.379h-1.786l-0.355,1.379H26.076z M27.92,52.967h1.267
				l-0.628-2.614h-0.018L27.92,52.967z"/>
			<path d="M34.938,55.437l-1.119-2.644h-0.624v2.644h-1.287v-6.483h1.864c1.553,0,2.283,0.711,2.283,1.934
				c0,0.805-0.291,1.393-1.006,1.656l1.271,2.895L34.938,55.437L34.938,55.437z M33.195,51.763h0.671
				c0.563,0,0.911-0.271,0.911-0.896s-0.348-0.896-0.911-0.896h-0.671V51.763z"/>
			<path d="M41.249,53.502c0,0.722,0.33,0.922,0.837,0.922c0.511,0,0.838-0.2,0.838-0.922v-0.418h1.29v0.263
				c0,1.601-0.874,2.17-2.128,2.17c-1.252,0-2.134-0.569-2.134-2.17v-2.318c0-1.603,0.882-2.178,2.134-2.178
				c1.254,0,2.128,0.575,2.128,2.178v0.021h-1.29v-0.182c0-0.714-0.327-0.916-0.838-0.916c-0.507,0-0.837,0.202-0.837,0.916V53.502z
				"/>
			<path d="M45.331,51.029c0-1.603,0.876-2.178,2.135-2.178c1.245,0,2.129,0.575,2.129,2.178v2.318c0,1.601-0.884,2.17-2.129,2.17
				c-1.259,0-2.135-0.569-2.135-2.17V51.029z M46.622,53.502c0,0.722,0.327,0.922,0.844,0.922c0.507,0,0.839-0.2,0.839-0.922v-2.637
				c0-0.713-0.332-0.916-0.839-0.916c-0.517,0-0.844,0.203-0.844,0.916V53.502z"/>
			<polygon points="50.901,55.437 50.901,48.952 52.707,48.952 53.865,53.202 53.887,53.202 55.048,48.952 56.857,48.952 
				56.857,55.437 55.754,55.437 55.754,50.333 55.737,50.333 54.364,55.437 53.394,55.437 52.021,50.333 52.003,50.333 
				52.003,55.437 			"/>
		</g>
		<g>
			<path d="M4.562,66.127l1.681-6.487h1.652l1.617,6.487H8.278L7.96,64.75h-1.8l-0.355,1.379H4.562V66.127z M6.408,63.657h1.277
				l-0.63-2.613H7.038L6.408,63.657z"/>
			<polygon points="13.18,66.127 13.18,59.64 16.539,59.64 16.539,60.734 14.47,60.734 14.47,62.215 16.098,62.215 16.098,63.323 
				14.47,63.323 14.47,66.127 			"/>
			<path d="M17.403,61.717c0-1.602,0.876-2.178,2.125-2.178c1.256,0,2.131,0.576,2.131,2.178v2.318c0,1.6-0.875,2.17-2.131,2.17
				c-1.249,0-2.125-0.57-2.125-2.17V61.717z M18.692,64.193c0,0.722,0.335,0.923,0.836,0.923c0.512,0,0.843-0.201,0.843-0.923
				v-2.637c0-0.714-0.331-0.916-0.843-0.916c-0.501,0-0.836,0.202-0.836,0.916V64.193z"/>
			<polygon points="22.965,66.127 22.965,59.64 24.776,59.64 25.938,63.89 25.956,63.89 27.125,59.64 28.921,59.64 28.921,66.127 
				27.828,66.127 27.828,61.023 27.803,61.023 26.437,66.127 25.457,66.127 24.094,61.023 24.075,61.023 24.075,66.127 			"/>
			<polygon points="30.35,66.127 30.35,59.64 33.878,59.64 33.878,60.734 31.63,60.734 31.63,62.215 33.342,62.215 33.342,63.323 
				31.63,63.323 31.63,65.021 33.961,65.021 33.961,66.127 			"/>
		</g>
		<g>
			<polygon points="4.562,76.771 4.562,70.292 8.09,70.292 8.09,71.377 5.843,71.377 5.843,72.874 7.554,72.874 7.554,73.963 
				5.843,73.963 5.843,75.672 8.176,75.672 8.176,76.771 			"/>
			<path d="M11.74,76.771l1.669-6.479h1.65l1.628,6.479h-1.231l-0.341-1.364H13.35l-0.366,1.364H11.74z M13.574,74.31h1.282
				l-0.624-2.623h-0.019L13.574,74.31z"/>
			<polygon points="20.43,76.771 20.43,70.292 22.231,70.292 23.395,74.543 23.415,74.543 24.578,70.292 26.386,70.292 
				26.386,76.771 25.287,76.771 25.287,71.668 25.268,71.668 23.896,76.771 22.925,76.771 21.553,71.668 21.535,71.668 
				21.535,76.771 			"/>
			<rect x="27.884" y="70.292" width="1.286" height="6.479"/>
			<path d="M33.431,72.094c-0.213-0.608-0.486-0.877-0.938-0.877c-0.463,0-0.706,0.269-0.706,0.712c0,0.985,2.867,1.062,2.867,3.086
				c0,1.104-0.788,1.848-2.134,1.848c-1.053,0-1.862-0.543-2.223-1.827l1.281-0.252c0.147,0.776,0.61,1.059,0.999,1.059
				c0.449,0,0.788-0.293,0.788-0.771c0-1.229-2.869-1.25-2.869-3.059c0-1.113,0.688-1.809,2.022-1.809
				c1.146,0,1.854,0.649,2.066,1.573L33.431,72.094z"/>
			<path d="M35.965,76.771v-6.479h3.529v1.088H37.25v1.494h1.716v1.094H37.25v1.707h2.337v1.098L35.965,76.771L35.965,76.771z
				 M39.246,68.607l-1.372,1.315h-0.951l0.875-1.315H39.246z"/>
			<path d="M43.847,76.769l-1.12-2.644h-0.609v2.644h-1.3v-6.476h1.875c1.539,0,2.283,0.703,2.283,1.937
				c0,0.808-0.289,1.396-1.015,1.653l1.268,2.886H43.847z M42.116,73.109h0.656c0.566,0,0.915-0.272,0.915-0.897
				c0-0.633-0.349-0.904-0.915-0.904h-0.656V73.109z"/>
			<rect x="46.274" y="70.292" width="1.293" height="6.479"/>
			<path d="M48.522,76.771l1.675-6.479h1.655l1.617,6.479h-1.224l-0.328-1.364h-1.785l-0.367,1.364H48.522z M50.366,74.31h1.279
				l-0.632-2.623h-0.017L50.366,74.31z"/>
		</g>
		<path d="M47.49,28.974h-4.442V15.331H37.55v-3.222c3.09,0.071,5.938-0.958,6.406-4.175h3.534V28.974z"/>
	</g>
</g>
</svg>
