<?xml version="1.0" encoding="utf-8"?>
<!-- Generator: Adobe Illustrator 16.0.3, SVG Export Plug-In . SVG Version: 6.00 Build 0)  -->
<!DOCTYPE svg PUBLIC "-//W3C//DTD SVG 1.1//EN" "http://www.w3.org/Graphics/SVG/1.1/DTD/svg11.dtd">
<svg version="1.1" id="Camada_1" xmlns="http://www.w3.org/2000/svg" xmlns:xlink="http://www.w3.org/1999/xlink" x="0px" y="0px"
	 width="680px" height="85px" viewBox="0 0 680 85" enable-background="new 0 0 680 85" xml:space="preserve">
<g>
	<g>
		<path fill="#D7DF23" d="M170.001,79.559c0,3.016-2.529,5.441-5.655,5.441H90.655c-3.117,0-5.653-2.429-5.653-5.441V5.438
			C85.001,2.431,87.537,0,90.655,0h73.691c3.125,0,5.655,2.433,5.655,5.438V79.559z"/>
		<g>
			<polygon points="89.84,54.539 89.84,48.055 93.369,48.055 93.369,49.16 91.13,49.16 91.13,50.646 92.835,50.646 92.835,51.741 
				91.13,51.741 91.13,53.453 93.462,53.453 93.462,54.539 			"/>
			<path d="M94.695,48.055h1.789c1.488,0,2.311,0.615,2.364,2.246v1.992c-0.058,1.641-0.876,2.242-2.364,2.242h-1.789V48.055z
				 M95.985,53.453h0.453c0.706,0,1.121-0.328,1.121-1.302v-1.707c0-0.922-0.321-1.284-1.121-1.284h-0.453V53.453z"/>
			<path d="M101.437,48.055v4.535c0,0.625,0.29,0.951,0.914,0.951c0.617,0,0.914-0.326,0.914-0.951v-4.535h1.286v4.549
				c0,1.43-0.874,2.033-2.2,2.033c-1.329,0-2.196-0.604-2.196-2.033v-4.549H101.437z"/>
			<path d="M107.15,52.621c0,0.724,0.328,0.922,0.838,0.922c0.521,0,0.85-0.198,0.85-0.922v-0.438h1.291v0.271
				c0,1.611-0.873,2.185-2.141,2.185c-1.252,0-2.129-0.569-2.129-2.185v-2.315c0-1.597,0.877-2.173,2.129-2.173
				c1.268,0,2.141,0.576,2.141,2.173v0.021h-1.291v-0.182c0-0.719-0.328-0.914-0.85-0.914c-0.51,0-0.838,0.195-0.838,0.914V52.621z"
				/>
			<path d="M110.896,54.539l1.677-6.481h1.648l1.626,6.481h-1.233l-0.329-1.356h-1.776l-0.366,1.356H110.896z M112.732,52.086h1.291
				l-0.63-2.623h-0.021L112.732,52.086z"/>
			<path d="M117.909,52.621c0,0.724,0.33,0.922,0.853,0.922c0.505,0,0.835-0.198,0.835-0.922v-0.437h1.29v0.271
				c0,1.61-0.876,2.185-2.125,2.185c-1.253,0-2.128-0.57-2.128-2.185v-2.317c0-1.595,0.875-2.173,2.128-2.173
				c1.249,0,2.125,0.578,2.125,2.173v0.021h-1.29v-0.182c0-0.719-0.33-0.912-0.835-0.912c-0.521,0-0.853,0.193-0.853,0.912V52.621z
				 M117.654,55.989c0.219,0.07,0.461,0.152,0.699,0.152c0.225,0,0.516-0.082,0.516-0.345c0-0.199-0.167-0.336-0.376-0.336
				c-0.148,0-0.28,0.033-0.408,0.069l-0.212-0.182l0.559-0.813h0.496l-0.396,0.557l0.021,0.017c0.085-0.041,0.18-0.063,0.278-0.063
				c0.429,0,0.85,0.272,0.85,0.707c0,0.606-0.648,0.845-1.188,0.845c-0.355,0-0.688-0.101-1.014-0.228L117.654,55.989z"/>
			<path d="M121.668,54.539l1.667-6.481h1.651l1.628,6.481h-1.237l-0.32-1.356h-1.788l-0.358,1.356H121.668z M125.846,46.484
				c-0.121,0.566-0.368,1.084-1.036,1.084c-0.509,0-0.951-0.309-1.376-0.309c-0.235,0-0.374,0.162-0.42,0.369h-0.584
				c0.094-0.563,0.402-1.098,1.071-1.098c0.489,0,0.998,0.334,1.301,0.334c0.226,0,0.394-0.174,0.433-0.385h0.611V46.484
				L125.846,46.484z M123.502,52.086h1.277l-0.631-2.623h-0.019L123.502,52.086z"/>
			<path d="M127.39,50.137c0-1.596,0.877-2.172,2.126-2.172c1.254,0,2.136,0.576,2.136,2.172v2.316c0,1.611-0.882,2.184-2.136,2.184
				c-1.249,0-2.126-0.568-2.126-2.184V50.137z M128.68,52.621c0,0.724,0.33,0.922,0.836,0.922c0.51,0,0.842-0.198,0.842-0.922
				v-2.646c0-0.718-0.332-0.914-0.842-0.914c-0.506,0-0.836,0.196-0.836,0.914V52.621z"/>
			<path d="M135.663,48.055h1.815c1.376,0,2.177,0.563,2.177,1.666c0,0.58-0.294,1.033-0.829,1.357
				c0.704,0.436,0.988,0.787,0.988,1.596c0,1.285-0.894,1.861-2.26,1.861h-1.896L135.663,48.055L135.663,48.055z M136.955,50.629
				h0.453c0.569,0,0.956-0.326,0.956-0.764c0-0.479-0.282-0.789-0.896-0.789h-0.517v1.553H136.955z M136.955,53.518h0.547
				c0.667,0,1.023-0.373,1.023-0.943c0-0.623-0.443-0.922-1.117-0.922h-0.453V53.518z"/>
			<path d="M140.588,54.539l1.677-6.481h1.646l1.628,6.481h-1.23l-0.329-1.356h-1.78l-0.362,1.356H140.588z M144.591,46.373
				l-1.374,1.319h-0.943l0.868-1.319H144.591z M142.434,52.086h1.279l-0.633-2.623h-0.021L142.434,52.086z"/>
			<path d="M149.277,49.866c-0.208-0.616-0.487-0.879-0.939-0.879c-0.461,0-0.705,0.271-0.705,0.716c0,0.979,2.87,1.053,2.87,3.079
				c0,1.125-0.789,1.854-2.146,1.854c-1.044,0-1.853-0.551-2.202-1.83l1.271-0.264c0.143,0.778,0.608,1.069,0.999,1.069
				c0.45,0,0.791-0.291,0.791-0.776c0-1.226-2.873-1.24-2.873-3.063c0-1.104,0.688-1.812,2.021-1.812
				c1.147,0,1.856,0.649,2.072,1.574L149.277,49.866z"/>
			<rect x="151.885" y="48.055" width="1.288" height="6.48"/>
			<path d="M155.771,52.621c0,0.724,0.332,0.922,0.848,0.922c0.513,0,0.839-0.198,0.839-0.922v-0.438h1.282v0.271
				c0,1.611-0.878,2.185-2.121,2.185c-1.26,0-2.137-0.569-2.137-2.185v-2.315c0-1.597,0.877-2.173,2.137-2.173
				c1.243,0,2.121,0.576,2.121,2.173v0.021h-1.282v-0.182c0-0.719-0.326-0.914-0.839-0.914c-0.516,0-0.848,0.195-0.848,0.914V52.621
				z"/>
			<path d="M159.52,54.539l1.675-6.481h1.646l1.63,6.481h-1.233l-0.317-1.356h-1.788l-0.368,1.356H159.52z M161.362,52.086h1.271
				l-0.619-2.623h-0.019L161.362,52.086z"/>
		</g>
		<g>
			<path d="M89.84,58.834h1.789c1.477,0,2.304,0.616,2.358,2.256v2.002c-0.058,1.625-0.885,2.246-2.358,2.246H89.84V58.834
				L89.84,58.834z M91.129,64.234h0.44c0.716,0,1.12-0.32,1.12-1.287v-1.727c0-0.904-0.312-1.281-1.12-1.281h-0.44V64.234z"/>
			<polygon points="95.222,65.338 95.222,58.834 98.755,58.834 98.755,59.939 96.507,59.939 96.507,61.424 98.218,61.424 
				98.218,62.53 96.507,62.53 96.507,64.234 98.849,64.234 98.849,65.338 			"/>
			<path d="M107.415,65.805c-0.635,0-1.034-0.271-1.354-0.633c-0.34,0.182-0.726,0.244-1.178,0.244c-1.251,0-2.136-0.57-2.136-2.176
				v-2.316c0-1.604,0.885-2.172,2.136-2.172s2.125,0.566,2.125,2.172v2.316c0,0.533-0.084,0.941-0.271,1.271
				c0.188,0.123,0.396,0.203,0.683,0.203L107.415,65.805L107.415,65.805z M104.798,62.637c0.415,0.055,0.695,0.289,0.903,0.59h0.02
				v-2.453c0-0.727-0.331-0.928-0.838-0.928c-0.51,0-0.839,0.201-0.839,0.928v2.633c0,0.719,0.329,0.916,0.839,0.916
				c0.192,0,0.351-0.02,0.489-0.102c-0.181-0.244-0.355-0.443-0.574-0.506V62.637L104.798,62.637z"/>
			<path d="M109.607,58.834v4.545c0,0.617,0.282,0.942,0.902,0.942c0.634,0,0.923-0.325,0.923-0.942v-4.545h1.283v4.563
				c0,1.42-0.877,2.021-2.206,2.021c-1.327,0-2.193-0.601-2.193-2.021v-4.563H109.607z"/>
			<path d="M113.685,65.338l1.666-6.504h1.656l1.63,6.504h-1.235l-0.328-1.377h-1.79l-0.354,1.377H113.685z M115.528,62.875h1.272
				l-0.622-2.629h-0.021L115.528,62.875z"/>
			<polygon points="119.519,65.338 119.519,58.834 120.811,58.834 120.811,64.234 122.892,64.234 122.892,65.338 			"/>
			<rect x="123.926" y="58.834" width="1.291" height="6.504"/>
			<path d="M126.646,58.834h1.788c1.466,0,2.297,0.616,2.354,2.256v2.002c-0.06,1.625-0.891,2.246-2.354,2.246h-1.788V58.834z
				 M127.925,64.234h0.451c0.705,0,1.123-0.32,1.123-1.287v-1.727c0-0.904-0.313-1.281-1.123-1.281h-0.451V64.234z"/>
			<path d="M131.559,65.338l1.677-6.504h1.657l1.62,6.504h-1.224l-0.333-1.377h-1.785l-0.367,1.377H131.559z M133.403,62.875h1.283
				l-0.62-2.629h-0.021L133.403,62.875z"/>
			<path d="M137.409,58.834h1.793c1.471,0,2.301,0.616,2.349,2.256v2.002c-0.048,1.625-0.878,2.246-2.349,2.246h-1.793V58.834z
				 M138.693,64.234h0.447c0.713,0,1.128-0.32,1.128-1.287v-1.727c0-0.904-0.321-1.281-1.128-1.281h-0.447V64.234z"/>
			<polygon points="142.789,65.338 142.789,58.834 146.322,58.834 146.322,59.939 144.07,59.939 144.07,61.424 145.783,61.424 
				145.783,62.53 144.07,62.53 144.07,64.234 146.414,64.234 146.414,65.338 			"/>
		</g>
		<g>
			<g>
				<path d="M119.399,76.41v-6.505h1.864c1.583,0,2.365,0.726,2.365,1.957c0,1.213-0.782,1.938-2.365,1.938h-0.572v2.604h-1.292
					V76.41L119.399,76.41z M120.691,72.768h0.688c0.641,0,0.961-0.309,0.961-0.904c0-0.613-0.32-0.924-0.961-0.924h-0.688V72.768z"
					/>
				<path d="M123.908,76.41l1.665-6.505h1.657l1.629,6.505h-1.23l-0.332-1.378h-1.776l-0.365,1.378H123.908z M125.743,73.946h1.282
					l-0.624-2.627h-0.019L125.743,73.946z"/>
				<path d="M132.776,76.41l-1.119-2.646h-0.623v2.646h-1.29v-6.505h1.875c1.546,0,2.288,0.726,2.288,1.957
					c0,0.798-0.303,1.396-1.023,1.649l1.278,2.896h-1.386V76.41z M131.033,72.732h0.66c0.574,0,0.923-0.271,0.923-0.889
					c0-0.633-0.349-0.904-0.923-0.904h-0.66V72.732z"/>
				<path d="M134.67,76.41l1.676-6.505h1.657l1.615,6.505h-1.229l-0.331-1.378h-1.777l-0.355,1.378H134.67z M136.504,73.946h1.292
					l-0.638-2.627h-0.015L136.504,73.946z"/>
			</g>
			<polygon points="93.746,69.924 93.746,71.008 92.239,71.008 92.239,76.405 90.95,76.405 90.95,71.008 89.444,71.008 
				89.444,69.924 			"/>
			<path d="M94.582,72.008c0-1.604,0.89-2.174,2.129-2.174c1.263,0,2.139,0.568,2.139,2.174v2.314c0,1.598-0.876,2.176-2.139,2.176
				c-1.239,0-2.129-0.578-2.129-2.176V72.008L94.582,72.008z M95.874,74.487c0,0.713,0.326,0.916,0.837,0.916
				c0.519,0,0.849-0.203,0.849-0.916v-2.646c0-0.713-0.33-0.912-0.849-0.912c-0.511,0-0.837,0.199-0.837,0.912V74.487z"/>
			<path d="M100.072,69.924h1.801c1.477,0,2.306,0.607,2.36,2.248v1.99c-0.058,1.639-0.887,2.242-2.36,2.242h-1.801V69.924z
				 M101.369,75.321h0.441c0.709,0,1.12-0.336,1.12-1.305v-1.701c0-0.927-0.311-1.308-1.12-1.308h-0.441V75.321z"/>
			<path d="M105.354,72.008c0-1.604,0.875-2.174,2.125-2.174c1.255,0,2.129,0.568,2.129,2.174v2.314
				c0,1.598-0.874,2.176-2.129,2.176c-1.25,0-2.125-0.578-2.125-2.176V72.008z M106.643,74.487c0,0.713,0.32,0.916,0.836,0.916
				c0.511,0,0.838-0.203,0.838-0.916v-2.646c0-0.713-0.327-0.912-0.838-0.912c-0.516,0-0.836,0.199-0.836,0.912V74.487z"/>
			<path d="M113.693,71.734c-0.215-0.615-0.5-0.877-0.938-0.877c-0.464,0-0.721,0.271-0.721,0.713c0,0.979,2.882,1.043,2.882,3.08
				c0,1.113-0.788,1.848-2.146,1.848c-1.055,0-1.865-0.543-2.215-1.819l1.281-0.265c0.14,0.779,0.61,1.062,0.999,1.062
				c0.45,0,0.79-0.288,0.79-0.771c0-1.223-2.885-1.24-2.885-3.061c0-1.111,0.699-1.813,2.036-1.813c1.14,0,1.846,0.653,2.07,1.565
				L113.693,71.734z"/>
		</g>
		<path d="M120.07,16.104c-0.146-4.743,2.655-8.387,7.832-8.387c3.944,0,7.395,2.432,7.395,6.487c0,3.114-1.724,4.831-3.854,6.284
			c-2.124,1.453-4.646,2.641-6.225,4.773h10.202v3.61h-15.844c0.032-4.801,3.088-6.845,6.813-9.271
			c1.912-1.248,4.501-2.521,4.529-5.066c0-1.959-1.355-3.206-3.234-3.206c-2.591,0-3.419,2.58-3.419,4.773L120.07,16.104
			L120.07,16.104z"/>
	</g>
	<g>
		<path fill="#C7EAFB" d="M340.001,79.563c0,2.999-2.531,5.438-5.655,5.438h-73.682c-3.128,0-5.662-2.438-5.662-5.438V5.444
			c0-3.013,2.534-5.444,5.662-5.444h73.682c3.124,0,5.655,2.434,5.655,5.444V79.563z"/>
		<g>
			<path d="M263.026,55.234l-1.128-2.664h-0.629v2.664h-1.299v-6.551h1.878c1.565,0,2.313,0.727,2.313,1.971
				c0,0.803-0.306,1.4-1.023,1.66l1.27,2.92H263.026L263.026,55.234z M261.27,51.527h0.678c0.564,0,0.917-0.254,0.917-0.893
				c0-0.643-0.353-0.916-0.917-0.916h-0.678V51.527z"/>
			<polygon points="265.397,55.234 265.397,48.684 268.945,48.684 268.945,49.795 266.69,49.795 266.69,51.293 268.417,51.293 
				268.417,52.402 266.69,52.402 266.69,54.119 269.051,54.119 269.051,55.234 			"/>
			<path d="M270.295,48.684h1.802c1.489,0,2.314,0.617,2.371,2.262v2.021c-0.057,1.646-0.882,2.268-2.371,2.268h-1.802V48.684z
				 M271.593,54.119h0.446c0.722,0,1.138-0.328,1.138-1.294V51.09c0-0.911-0.324-1.295-1.138-1.295h-0.446V54.119z"/>
			<path d="M277.086,48.684v4.576c0,0.621,0.284,0.951,0.92,0.951c0.628,0,0.922-0.33,0.922-0.951v-4.576h1.299v4.576
				c0,1.439-0.881,2.063-2.221,2.063c-1.337,0-2.211-0.619-2.211-2.063v-4.576H277.086z"/>
			<polygon points="281.647,48.684 285.417,48.684 285.417,49.737 282.833,54.119 285.47,54.119 285.47,55.234 281.391,55.234 
				281.391,54.176 283.954,49.795 281.647,49.795 			"/>
			<rect x="286.631" y="48.684" width="1.3" height="6.551"/>
			<path d="M292.404,55.234l-1.129-2.664h-0.625v2.664h-1.291v-6.551h1.879c1.566,0,2.308,0.727,2.308,1.971
				c0,0.803-0.296,1.4-1.024,1.66l1.282,2.92H292.404L292.404,55.234z M290.65,51.527h0.677c0.564,0,0.92-0.254,0.92-0.893
				c0-0.643-0.354-0.916-0.92-0.916h-0.677V51.527z"/>
			<path d="M297.123,55.234l1.687-6.551h1.67l1.634,6.551h-1.242l-0.323-1.391h-1.802l-0.37,1.391H297.123z M298.979,52.752h1.288
				l-0.625-2.646h-0.026L298.979,52.752z"/>
		</g>
		<g>
			<polygon points="260.048,66.018 260.048,59.484 261.87,59.484 263.048,63.773 263.065,63.773 264.238,59.484 266.061,59.484 
				266.061,66.018 264.942,66.018 264.942,60.871 264.924,60.871 263.54,66.018 262.55,66.018 261.175,60.871 261.156,60.871 
				261.156,66.018 			"/>
			<path d="M267.372,61.582c0-1.606,0.895-2.188,2.144-2.188c1.272,0,2.146,0.579,2.146,2.188v2.336
				c0,1.606-0.872,2.188-2.146,2.188c-1.249,0-2.144-0.582-2.144-2.188V61.582z M268.671,64.084c0,0.728,0.33,0.912,0.844,0.912
				c0.521,0,0.854-0.187,0.854-0.912v-2.666c0-0.729-0.333-0.933-0.854-0.933c-0.514,0-0.844,0.201-0.844,0.933V64.084z"/>
			<path d="M275.964,66.018l-1.136-2.666H274.2v2.666h-1.291v-6.533h1.881c1.563,0,2.307,0.713,2.307,1.951
				c0,0.818-0.296,1.404-1.024,1.66l1.276,2.922H275.964z M274.201,62.328h0.674c0.576,0,0.922-0.271,0.922-0.91
				c0-0.638-0.346-0.914-0.922-0.914h-0.674V62.328z"/>
			<polygon points="282.264,59.484 282.264,60.575 280.744,60.575 280.744,66.018 279.456,66.018 279.456,60.575 277.938,60.575 
				277.938,59.484 			"/>
			<path d="M282.419,66.018l1.688-6.533h1.67l1.631,6.533h-1.241l-0.321-1.367h-1.813l-0.357,1.367H282.419z M284.276,63.537h1.291
				l-0.639-2.647h-0.021L284.276,63.537z"/>
			<polygon points="288.306,66.018 288.306,59.484 289.608,59.484 289.608,64.922 291.693,64.922 291.693,66.018 			"/>
			<rect x="292.75" y="59.484" width="1.296" height="6.533"/>
			<path d="M295.479,59.484h1.804c1.498,0,2.324,0.621,2.381,2.264v2.006c-0.057,1.645-0.883,2.266-2.381,2.266h-1.804V59.484z
				 M296.777,64.922h0.455c0.713,0,1.131-0.33,1.131-1.314v-1.715c0-0.932-0.32-1.316-1.131-1.316h-0.455V64.922z"/>
			<path d="M300.439,66.018l1.688-6.533h1.661l1.638,6.533h-1.242l-0.333-1.367h-1.789l-0.371,1.367H300.439z M302.29,63.537h1.301
				l-0.635-2.647h-0.021L302.29,63.537z"/>
			<path d="M306.321,59.484h1.813c1.489,0,2.313,0.621,2.37,2.264v2.006c-0.059,1.645-0.881,2.266-2.37,2.266h-1.813V59.484z
				 M307.622,64.922h0.454c0.712,0,1.131-0.33,1.131-1.314v-1.715c0-0.932-0.324-1.316-1.131-1.316h-0.454V64.922z"/>
			<polygon points="311.749,66.018 311.749,59.484 315.307,59.484 315.307,60.575 313.048,60.575 313.048,62.092 314.765,62.092 
				314.765,63.188 313.048,63.188 313.048,64.922 315.4,64.922 315.4,66.018 			"/>
		</g>
		<g>
			<rect x="260.166" y="70.262" width="1.301" height="6.533"/>
			<polygon points="262.973,76.797 262.973,70.262 264.389,70.262 266.198,74.131 266.22,74.131 266.22,70.262 267.403,70.262 
				267.403,76.797 266.157,76.797 264.178,72.582 264.161,72.582 264.161,76.797 			"/>
			<polygon points="268.836,76.797 268.836,70.262 272.223,70.262 272.223,71.355 270.136,71.355 270.136,72.873 271.769,72.873 
				271.769,73.967 270.136,73.967 270.136,76.797 			"/>
			<path d="M272.395,76.797l1.688-6.533h1.671l1.631,6.533h-1.242l-0.32-1.367h-1.804l-0.37,1.367H272.395z M274.253,74.316h1.288
				l-0.635-2.648h-0.019L274.253,74.316z"/>
			<polygon points="278.358,76.797 278.358,70.262 279.771,70.262 281.587,74.131 281.605,74.131 281.605,70.262 282.79,70.262 
				282.79,76.797 281.547,76.797 279.556,72.582 279.54,72.582 279.54,76.797 			"/>
			<polygon points="288.161,70.262 288.161,71.355 286.644,71.355 286.644,76.797 285.344,76.797 285.344,71.355 283.828,71.355 
				283.828,70.262 			"/>
			<rect x="289.195" y="70.262" width="1.288" height="6.533"/>
			<polygon points="291.925,76.797 291.925,70.262 293.222,70.262 293.222,75.703 295.314,75.703 295.314,76.797 			"/>
		</g>
		<path d="M298.561,24.236h-9.229v-3.902l9.479-12.242h3.951v12.638h2.905v3.509h-2.905v4.856h-4.204L298.561,24.236L298.561,24.236
			z M298.561,13.433h-0.098l-5.642,7.295h5.736L298.561,13.433L298.561,13.433z"/>
	</g>
	<g>
		<path fill="#F7941E" d="M255.002,79.563c0,2.997-2.522,5.438-5.657,5.438h-73.688c-3.12,0-5.656-2.439-5.656-5.438V5.444
			c0-3.013,2.536-5.444,5.656-5.444h73.688c3.134,0,5.657,2.434,5.657,5.444V79.563z"/>
		<g>
			<rect x="174.941" y="37.813" width="1.243" height="6.25"/>
			<path d="M180.657,43.539c-0.335,0.368-0.694,0.612-1.163,0.612c-1.207,0-2.051-0.56-2.051-2.097v-2.233
				c0-1.552,0.844-2.11,2.051-2.11c1.281,0,1.953,0.715,2.009,2.127h-1.249c0-0.802-0.313-1.063-0.76-1.063
				c-0.499,0-0.807,0.194-0.807,0.894v2.547c0,0.683,0.308,0.872,0.807,0.872c0.469,0,0.76-0.313,0.76-0.854v-0.38h-0.875v-0.997
				h2.124v3.21h-0.652L180.657,43.539z"/>
			<path d="M184.062,37.813v4.364c0,0.61,0.271,0.906,0.869,0.906c0.6,0,0.882-0.296,0.882-0.906v-4.364h1.241v4.384
				c0,1.359-0.854,1.955-2.123,1.955c-1.288,0-2.122-0.596-2.122-1.955v-4.384H184.062z"/>
			<path d="M187.98,44.064l1.617-6.25h1.597l1.563,6.25h-1.191l-0.316-1.312h-1.724l-0.343,1.312H187.98z M189.76,41.691h1.23
				l-0.605-2.531h-0.02L189.76,41.691z"/>
			<polygon points="193.606,44.064 193.606,37.813 194.851,37.813 194.851,43 196.855,43 196.855,44.064 			"/>
			<path d="M197.78,37.813h1.742c1.415,0,2.214,0.578,2.268,2.146v1.939c-0.054,1.567-0.853,2.164-2.268,2.164h-1.742V37.813z
				 M199.032,43h0.437c0.673,0,1.067-0.313,1.067-1.244v-1.637c0-0.891-0.298-1.256-1.067-1.256h-0.437V43z"/>
			<path d="M202.534,44.064l1.615-6.25h1.59l1.566,6.25h-1.188l-0.315-1.312h-1.728l-0.344,1.312H202.534z M204.314,41.691h1.227
				l-0.608-2.531h-0.019L204.314,41.691z"/>
			<path d="M208.159,37.813h1.727c1.434,0,2.226,0.578,2.275,2.146v1.939c-0.053,1.567-0.845,2.164-2.275,2.164h-1.727V37.813z
				 M209.402,43h0.428c0.688,0,1.093-0.313,1.093-1.244v-1.637c0-0.891-0.312-1.256-1.093-1.256h-0.428V43z"/>
			<polygon points="213.353,44.064 213.353,37.813 216.763,37.813 216.763,38.863 214.583,38.863 214.583,40.311 216.236,40.311 
				216.236,41.359 214.583,41.359 214.583,43 216.844,43 216.844,44.064 			"/>
			<polygon points="220.72,44.064 220.72,37.813 224.124,37.813 224.124,38.863 221.957,38.863 221.957,40.311 223.605,40.311 
				223.605,41.359 221.957,41.359 221.957,43 224.213,43 224.213,44.064 			"/>
			<polygon points="225.475,44.064 225.475,37.813 226.838,37.813 228.558,41.516 228.578,41.516 228.578,37.813 229.722,37.813 
				229.722,44.064 228.524,44.064 226.616,40.031 226.599,40.031 226.599,44.064 			"/>
			<polygon points="234.849,37.813 234.849,38.863 233.397,38.863 233.397,44.064 232.151,44.064 232.151,38.863 230.702,38.863 
				230.702,37.813 			"/>
			<path d="M238.687,44.064l-1.08-2.549h-0.6v2.549h-1.243v-6.25h1.798c1.506,0,2.212,0.684,2.212,1.873
				c0,0.766-0.288,1.342-0.979,1.585l1.227,2.792H238.687L238.687,44.064z M237.008,40.521h0.646c0.543,0,0.882-0.264,0.882-0.854
				c0-0.612-0.339-0.871-0.882-0.871h-0.646V40.521z"/>
			<polygon points="240.956,44.064 240.956,37.813 244.357,37.813 244.357,38.863 242.199,38.863 242.199,40.311 243.843,40.311 
				243.843,41.359 242.199,41.359 242.199,43 244.458,43 244.458,44.064 			"/>
			<g>
				<path d="M177.617,50.491c-0.216-0.596-0.479-0.855-0.906-0.855c-0.453,0-0.688,0.262-0.688,0.698
					c0,0.942,2.776,1.011,2.776,2.965c0,1.084-0.772,1.781-2.067,1.781c-1.018,0-1.799-0.521-2.135-1.763l1.225-0.244
					c0.146,0.75,0.603,1.027,0.965,1.027c0.438,0,0.771-0.277,0.771-0.746c0-1.19-2.776-1.207-2.776-2.955
					c0-1.063,0.663-1.739,1.952-1.739c1.106,0,1.784,0.627,2.005,1.519L177.617,50.491z"/>
				<polygon points="180.051,54.994 180.051,48.741 183.463,48.741 183.463,49.805 181.302,49.805 181.302,51.241 182.951,51.241 
					182.951,52.289 181.302,52.289 181.302,53.944 183.553,53.944 183.553,54.994 				"/>
				<polygon points="186.692,50.612 187.618,48.741 188.948,48.741 187.382,51.713 189.105,54.994 187.762,54.994 186.692,52.793 
					185.603,54.994 184.261,54.994 186.012,51.713 184.413,48.741 185.745,48.741 				"/>
				<path d="M189.822,50.752c0-1.537,0.848-2.094,2.043-2.094c1.215,0,2.061,0.557,2.061,2.094v2.23
					c0,1.537-0.846,2.096-2.061,2.096c-1.195,0-2.043-0.559-2.043-2.096V50.752z M191.064,53.143c0,0.697,0.312,0.871,0.801,0.871
					c0.507,0,0.816-0.174,0.816-0.871v-2.547c0-0.699-0.313-0.896-0.816-0.896c-0.489,0-0.801,0.193-0.801,0.896V53.143z"/>
				<path d="M197.859,50.491c-0.205-0.596-0.478-0.855-0.914-0.855c-0.436,0-0.681,0.262-0.681,0.698
					c0,0.942,2.776,1.011,2.776,2.965c0,1.084-0.772,1.781-2.079,1.781c-0.993,0-1.775-0.521-2.123-1.763l1.226-0.244
					c0.146,0.75,0.599,1.027,0.962,1.027c0.438,0,0.771-0.277,0.771-0.746c0-1.19-2.777-1.207-2.777-2.955
					c0-1.063,0.672-1.739,1.96-1.739c1.108,0,1.779,0.627,1.998,1.519L197.859,50.491z"/>
				<polygon points="202.988,54.994 202.988,48.741 206.393,48.741 206.393,49.805 204.223,49.805 204.223,51.241 205.877,51.241 
					205.877,52.289 204.223,52.289 204.223,53.944 206.472,53.944 206.472,54.994 				"/>
			</g>
			<g>
				<polygon points="174.542,59.387 175.768,59.387 176.912,63.859 176.929,63.859 178.055,59.387 179.279,59.387 177.618,65.637 
					176.204,65.637 				"/>
				<path d="M179.378,65.637l1.604-6.25h1.604l1.565,6.25h-1.198l-0.308-1.311h-1.716l-0.355,1.311H179.378z M181.157,63.262h1.229
					l-0.61-2.529h-0.017L181.157,63.262z"/>
				<polygon points="185.007,65.637 185.007,59.387 186.247,59.387 186.247,64.59 188.255,64.59 188.255,65.637 				"/>
				<path d="M189.071,61.396c0-1.537,0.855-2.094,2.063-2.094c1.208,0,2.059,0.557,2.059,2.094v2.232
					c0,1.533-0.851,2.094-2.059,2.094c-1.204,0-2.063-0.561-2.063-2.094V61.396z M190.322,63.789c0,0.698,0.312,0.873,0.812,0.873
					c0.498,0,0.808-0.175,0.808-0.873v-2.548c0-0.698-0.31-0.894-0.808-0.894c-0.5,0-0.812,0.191-0.812,0.894V63.789z"/>
				<path d="M197.289,65.637l-1.087-2.549h-0.58v2.549h-1.253v-6.25h1.798c1.508,0,2.215,0.684,2.215,1.869
					c0,0.787-0.288,1.346-0.98,1.588l1.219,2.793H197.289z M195.622,62.116h0.639c0.545,0,0.878-0.264,0.878-0.875
					c0-0.596-0.333-0.872-0.878-0.872h-0.639V62.116z"/>
				<rect x="199.633" y="59.387" width="1.244" height="6.25"/>
				<polygon points="202.235,59.387 205.842,59.387 205.842,60.383 203.368,64.59 205.895,64.59 205.895,65.637 201.983,65.637 
					201.983,64.625 204.443,60.453 202.235,60.453 				"/>
				<path d="M206.493,65.637l1.605-6.25h1.587l1.57,6.25h-1.188l-0.307-1.311h-1.729l-0.354,1.311H206.493z M208.255,63.262h1.229
					l-0.599-2.529h-0.021L208.255,63.262z"/>
				<path d="M213.245,63.789c0,0.698,0.324,0.873,0.813,0.873c0.49,0,0.818-0.175,0.818-0.873v-0.42h1.232v0.262
					c0,1.535-0.846,2.095-2.054,2.095c-1.207,0-2.05-0.56-2.05-2.095v-2.233c0-1.537,0.843-2.092,2.05-2.092
					c1.208,0,2.054,0.555,2.054,2.092v0.021h-1.232v-0.174c0-0.697-0.328-0.894-0.818-0.894c-0.489,0-0.813,0.192-0.813,0.894
					V63.789z M212.992,67.035c0.217,0.069,0.45,0.157,0.68,0.157c0.22,0,0.501-0.088,0.501-0.351c0-0.19-0.164-0.315-0.363-0.315
					c-0.146,0-0.273,0.037-0.398,0.069l-0.198-0.174l0.544-0.785h0.472l-0.38,0.521l0.021,0.021
					c0.076-0.039,0.183-0.058,0.278-0.058c0.407,0,0.81,0.265,0.81,0.685c0,0.573-0.615,0.799-1.145,0.799
					c-0.346,0-0.663-0.086-0.979-0.207L212.992,67.035z"/>
				<path d="M216.855,65.637l1.617-6.25h1.597l1.569,6.25h-1.188l-0.326-1.311h-1.715l-0.346,1.311H216.855z M220.903,57.873
					c-0.128,0.539-0.361,1.045-0.997,1.045c-0.489,0-0.928-0.297-1.335-0.297c-0.227,0-0.354,0.157-0.406,0.351h-0.563
					c0.09-0.541,0.398-1.048,1.036-1.048c0.47,0,0.961,0.313,1.252,0.313c0.217,0,0.379-0.157,0.418-0.362L220.903,57.873
					L220.903,57.873z M218.636,63.262h1.233l-0.603-2.529h-0.02L218.636,63.262z"/>
				<path d="M222.385,61.396c0-1.537,0.841-2.094,2.06-2.094c1.196,0,2.052,0.557,2.052,2.094v2.232
					c0,1.533-0.854,2.094-2.052,2.094c-1.219,0-2.06-0.561-2.06-2.094V61.396z M223.625,63.789c0,0.698,0.316,0.873,0.816,0.873
					c0.486,0,0.797-0.175,0.797-0.873v-2.548c0-0.698-0.311-0.894-0.797-0.894c-0.5,0-0.816,0.191-0.816,0.894V63.789z"/>
			</g>
			<g>
				<path d="M174.857,70.426h1.744c1.416,0,2.214,0.598,2.267,2.17v1.936c-0.053,1.57-0.851,2.162-2.267,2.162h-1.744V70.426z
					 M176.11,75.631h0.438c0.681,0,1.07-0.314,1.07-1.238v-1.66c0-0.873-0.302-1.238-1.07-1.238h-0.438V75.631z"/>
				<path d="M179.615,76.693l1.614-6.268h1.589l1.568,6.268h-1.189l-0.313-1.324h-1.726l-0.347,1.324H179.615z M181.385,74.319
					h1.243l-0.608-2.526h-0.019L181.385,74.319z"/>
				<polygon points="187.997,76.693 187.997,70.426 189.741,70.426 190.865,74.551 190.885,74.551 192.011,70.426 193.755,70.426 
					193.755,76.693 192.682,76.693 192.682,71.773 192.663,71.773 191.339,76.693 190.403,76.693 189.088,71.773 189.071,71.773 
					189.071,76.693 				"/>
				<path d="M196.43,70.426v4.385c0,0.594,0.271,0.904,0.879,0.904c0.598,0,0.87-0.313,0.87-0.904v-4.385h1.253v4.385
					c0,1.379-0.854,1.953-2.123,1.953c-1.29,0-2.122-0.574-2.122-1.953v-4.385H196.43z"/>
				<polygon points="200.792,76.693 200.792,70.426 202.045,70.426 202.045,75.631 204.041,75.631 204.041,76.693 				"/>
				<polygon points="205.049,76.693 205.049,70.426 206.291,70.426 206.291,72.924 208.053,72.924 208.053,70.426 209.287,70.426 
					209.287,76.693 208.053,76.693 208.053,73.989 206.291,73.989 206.291,76.693 				"/>
				<polygon points="210.656,76.693 210.656,70.426 214.06,70.426 214.06,71.494 211.899,71.494 211.899,72.924 213.551,72.924 
					213.551,73.989 211.899,73.989 211.899,75.631 214.15,75.631 214.15,76.693 				"/>
				<path d="M218.261,76.693l-1.079-2.545h-0.602v2.545h-1.232v-6.268h1.797c1.487,0,2.196,0.701,2.196,1.889
					c0,0.768-0.281,1.344-0.98,1.588l1.234,2.791H218.261z M216.581,73.152h0.638c0.555,0,0.89-0.264,0.89-0.855
					c0-0.607-0.335-0.871-0.89-0.871h-0.638V73.152z"/>
			</g>
		</g>
		<path d="M210.996,16.236c1.84,0.155,4.486-0.193,4.486-2.506c0-1.708-1.419-2.694-2.98-2.694c-2.145,0-3.278,1.532-3.254,3.618
			h-4.064c0.153-4.143,2.949-7.005,7.287-7.005c3.373,0,7.075,1.987,7.075,5.617c0,1.904-0.986,3.611-2.954,4.133v0.057
			c2.313,0.503,3.744,2.354,3.744,4.606c0,4.258-3.715,6.665-7.837,6.665c-4.728,0-7.923-2.714-7.826-7.395h4.063
			c0.094,2.213,1.238,4.006,3.706,4.006c1.921,0,3.438-1.273,3.438-3.193c0-3.066-2.813-3.009-4.884-3.009V16.236L210.996,16.236z"
			/>
	</g>
	<g>
		<path fill="#F8C1D9" d="M425,79.563c0,2.999-2.527,5.438-5.653,5.438h-73.691c-3.115,0-5.654-2.438-5.654-5.438V5.444
			c0-3.014,2.539-5.444,5.654-5.444h73.691C422.473,0,425,2.433,425,5.444V79.563z"/>
		<g>
			<g>
				<polygon points="344.706,55.461 344.706,49.004 346.487,49.004 347.649,53.248 347.67,53.248 348.83,49.004 350.626,49.004 
					350.626,55.461 349.527,55.461 349.527,50.389 349.512,50.389 348.146,55.461 347.182,55.461 345.816,50.389 345.798,50.389 
					345.798,55.461 				"/>
				<polygon points="351.942,55.461 351.942,49.004 355.445,49.004 355.445,50.098 353.225,50.098 353.225,51.575 354.924,51.575 
					354.924,52.67 353.225,52.67 353.225,54.362 355.54,54.362 355.54,55.461 				"/>
				<polygon points="356.672,55.461 356.672,49.004 357.957,49.004 357.957,54.362 360.015,54.362 360.015,55.461 				"/>
				<polygon points="360.958,55.461 360.958,49.004 362.25,49.004 362.25,51.575 364.055,51.575 364.055,49.004 365.332,49.004 
					365.332,55.461 364.055,55.461 364.055,52.67 362.25,52.67 362.25,55.461 				"/>
				<path d="M366.538,51.09c0-1.604,0.883-2.162,2.112-2.162c1.248,0,2.124,0.559,2.124,2.162v2.299c0,1.586-0.876,2.16-2.124,2.16
					c-1.229,0-2.112-0.574-2.112-2.16V51.09z M367.818,53.551c0,0.703,0.328,0.898,0.833,0.898c0.52,0,0.833-0.195,0.833-0.898
					v-2.623c0-0.719-0.313-0.92-0.833-0.92c-0.505,0-0.833,0.201-0.833,0.92V53.551z"/>
				<path d="M374.906,55.461l-1.113-2.627h-0.604v2.627h-1.28v-6.459h1.854c1.541,0,2.271,0.721,2.271,1.941
					c0,0.791-0.289,1.385-1.013,1.641l1.268,2.877H374.906z M373.188,51.809h0.654c0.569,0,0.906-0.271,0.906-0.881
					c0-0.631-0.337-0.9-0.906-0.9h-0.654V51.809z"/>
				<path d="M376.706,55.461l1.654-6.459h1.646l1.617,6.459h-1.229l-0.326-1.369h-1.773l-0.354,1.369H376.706z M378.537,53.012
					h1.264l-0.618-2.604h-0.018L378.537,53.012z"/>
				<path d="M385.42,55.461l-1.112-2.627h-0.616v2.627h-1.278v-6.459h1.856c1.543,0,2.272,0.721,2.272,1.941
					c0,0.791-0.303,1.385-1.012,1.641l1.263,2.877H385.42z M383.689,51.809h0.663c0.563,0,0.905-0.271,0.905-0.881
					c0-0.631-0.344-0.9-0.905-0.9h-0.663V51.809z"/>
			</g>
			<g>
				<path d="M344.706,66.164l1.661-6.459h1.646l1.621,6.459h-1.236l-0.324-1.369h-1.769l-0.366,1.369H344.706z M346.528,63.715
					h1.279l-0.628-2.604h-0.017L346.528,63.715z"/>
				<path d="M355.918,61.506c-0.221-0.594-0.495-0.865-0.938-0.865c-0.449,0-0.71,0.271-0.71,0.701c0,0.969,2.859,1.043,2.859,3.061
					c0,1.113-0.783,1.854-2.131,1.854c-1.039,0-1.854-0.541-2.188-1.813l1.254-0.271c0.159,0.793,0.615,1.063,1,1.063
					c0.438,0,0.786-0.289,0.786-0.754c0-1.227-2.864-1.242-2.864-3.043c0-1.113,0.694-1.799,2.021-1.799
					c1.144,0,1.837,0.648,2.061,1.563L355.918,61.506z"/>
				<path d="M357.89,66.164l1.664-6.459h1.638l1.619,6.459h-1.228l-0.329-1.369h-1.773l-0.354,1.369H357.89z M359.712,63.715h1.271
					l-0.615-2.604h-0.029L359.712,63.715z"/>
				<path d="M364.948,59.705v4.519c0,0.608,0.282,0.934,0.896,0.934c0.63,0,0.92-0.323,0.92-0.934v-4.519h1.271v4.53
					c0,1.425-0.87,2.019-2.189,2.019c-1.316,0-2.178-0.594-2.178-2.019v-4.53H364.948z M367.365,58.051l-1.359,1.291h-0.943
					l0.87-1.291H367.365z"/>
				<path d="M369.352,59.705h1.786c1.468,0,2.281,0.612,2.337,2.248v1.978c-0.056,1.625-0.869,2.233-2.337,2.233h-1.786V59.705z
					 M370.632,65.064h0.449c0.699,0,1.112-0.32,1.112-1.275V62.08c0-0.899-0.309-1.279-1.112-1.279h-0.449V65.064z"/>
				<polygon points="374.607,66.164 374.607,59.707 378.113,59.707 378.113,60.799 375.89,60.799 375.89,62.277 377.59,62.277 
					377.59,63.373 375.89,63.373 375.89,65.064 378.207,65.064 378.207,66.164 				"/>
			</g>
			<g>
				<path d="M344.706,70.439h1.783c1.459,0,2.281,0.609,2.331,2.229v1.979c-0.05,1.638-0.872,2.229-2.331,2.229h-1.783V70.439z
					 M345.983,75.799h0.441c0.706,0,1.107-0.324,1.107-1.293v-1.689c0-0.922-0.307-1.299-1.107-1.299h-0.441V75.799z"/>
				<path d="M349.501,76.877l1.662-6.438h1.638l1.616,6.438h-1.225l-0.331-1.346h-1.765l-0.363,1.346H349.501z M351.319,74.43h1.285
					l-0.629-2.604h-0.016L351.319,74.43z"/>
				<path d="M358.038,72.217c-0.206-0.592-0.484-0.842-0.938-0.842c-0.454,0-0.713,0.25-0.713,0.697
					c0,0.973,2.864,1.047,2.864,3.061c0,1.098-0.798,1.832-2.136,1.832c-1.034,0-1.84-0.541-2.188-1.813l1.254-0.256
					c0.148,0.774,0.616,1.043,1,1.043c0.438,0,0.781-0.269,0.781-0.752c0-1.224-2.845-1.224-2.845-3.041
					c0-1.099,0.682-1.799,2.007-1.799c1.14,0,1.833,0.647,2.059,1.565L358.038,72.217z"/>
				<path d="M366.333,76.34c-0.338,0.379-0.712,0.627-1.196,0.627c-1.244,0-2.112-0.574-2.112-2.156V72.51
					c0-1.584,0.868-2.158,2.112-2.158c1.312,0,2.012,0.717,2.063,2.191h-1.286c0-0.85-0.31-1.117-0.775-1.117
					c-0.508,0-0.832,0.199-0.832,0.92v2.629c0,0.717,0.324,0.916,0.832,0.916c0.484,0,0.775-0.342,0.775-0.898v-0.396h-0.892v-1.022
					h2.178v3.311h-0.67L366.333,76.34z"/>
				<polygon points="368.381,76.877 368.381,70.439 371.896,70.439 371.896,71.518 369.657,71.518 369.657,73.012 371.364,73.012 
					371.364,74.09 369.657,74.09 369.657,75.799 371.989,75.799 371.989,76.877 				"/>
				<path d="M375.955,72.217c-0.217-0.592-0.496-0.842-0.943-0.842c-0.448,0-0.699,0.25-0.699,0.697
					c0,0.973,2.856,1.047,2.856,3.061c0,1.098-0.784,1.832-2.141,1.832c-1.041,0-1.844-0.541-2.189-1.813l1.266-0.256
					c0.148,0.774,0.617,1.043,0.987,1.043c0.452,0,0.786-0.269,0.786-0.752c0-1.224-2.852-1.224-2.852-3.041
					c0-1.099,0.684-1.799,2.021-1.799c1.136,0,1.832,0.647,2.051,1.565L375.955,72.217z"/>
				<polygon points="382.258,70.439 382.258,71.518 380.76,71.518 380.76,76.877 379.477,76.877 379.477,71.518 377.982,71.518 
					377.982,70.439 				"/>
				<path d="M382.307,76.877l1.66-6.438h1.646l1.608,6.438h-1.211l-0.33-1.346h-1.775l-0.363,1.346H382.307z M384.134,74.43h1.271
					l-0.615-2.604h-0.02L384.134,74.43z"/>
				<polygon points="388.091,76.877 388.091,70.439 389.495,70.439 391.271,74.256 391.291,74.256 391.291,70.439 392.465,70.439 
					392.465,76.877 391.234,76.877 389.28,72.721 389.259,72.721 389.259,76.877 				"/>
				<polygon points="397.655,70.439 397.655,71.518 396.156,71.518 396.156,76.877 394.882,76.877 394.882,71.518 393.391,71.518 
					393.391,70.439 				"/>
				<polygon points="398.507,76.877 398.507,70.439 402.024,70.439 402.024,71.518 399.798,71.518 399.798,73.012 401.489,73.012 
					401.489,74.09 399.798,74.09 399.798,75.799 402.107,75.799 402.107,76.877 				"/>
				<path d="M406.08,72.217c-0.225-0.592-0.495-0.842-0.942-0.842c-0.456,0-0.703,0.25-0.703,0.697c0,0.973,2.854,1.047,2.854,3.061
					c0,1.098-0.784,1.832-2.132,1.832c-1.036,0-1.852-0.541-2.188-1.813l1.258-0.256c0.154,0.774,0.612,1.043,0.992,1.043
					c0.452,0,0.797-0.269,0.797-0.752c0-1.224-2.857-1.224-2.857-3.041c0-1.099,0.682-1.799,2.008-1.799
					c1.146,0,1.846,0.647,2.065,1.565L406.08,72.217z"/>
			</g>
		</g>
		<path d="M389.315,11.559h-8.873l-0.856,4.694l0.06,0.059c1.163-1.143,2.523-1.589,4.209-1.589c4.232,0,6.632,3.161,6.632,7.032
			c0,4.242-3.65,7.528-7.979,7.439c-4.173,0-7.926-2.214-7.981-6.555h4.355c0.217,1.827,1.632,3.1,3.535,3.1
			c2.272,0,3.714-1.928,3.714-3.984c0-2.155-1.386-3.871-3.714-3.871c-1.566,0-2.43,0.528-3.288,1.656h-3.938l2.123-11.438h12.006
			L389.315,11.559L389.315,11.559z"/>
	</g>
	<g>
		<path fill="#F15B40" d="M510,79.559c0,3.003-2.521,5.441-5.657,5.441h-73.687c-3.119,0-5.656-2.438-5.656-5.441V5.44
			c0-3.001,2.537-5.44,5.656-5.44h73.688C507.48,0,510,2.439,510,5.44V79.559z"/>
		<g>
			<g>
				<path d="M431.133,42.287c0,0.711,0.333,0.906,0.831,0.906c0.497,0,0.823-0.195,0.823-0.906v-0.428h1.264v0.27
					c0,1.563-0.857,2.129-2.087,2.129c-1.223,0-2.088-0.563-2.088-2.129v-2.276c0-1.563,0.865-2.133,2.088-2.133
					c1.229,0,2.087,0.567,2.087,2.133v0.02h-1.264v-0.178c0-0.714-0.326-0.906-0.823-0.906c-0.498,0-0.831,0.192-0.831,0.906V42.287
					z"/>
				<path d="M435.162,39.852c0-1.563,0.85-2.134,2.088-2.134c1.229,0,2.089,0.568,2.089,2.134v2.276c0,1.563-0.86,2.13-2.089,2.13
					c-1.238,0-2.088-0.564-2.088-2.13V39.852z M436.419,42.287c0,0.711,0.331,0.906,0.831,0.906c0.508,0,0.819-0.195,0.819-0.906
					v-2.595c0-0.714-0.313-0.906-0.819-0.906c-0.5,0-0.831,0.192-0.831,0.906V42.287z"/>
				<polygon points="440.631,44.172 440.631,37.81 442.383,37.81 443.528,41.987 443.547,41.987 444.694,37.81 446.467,37.81 
					446.467,44.172 445.39,44.172 445.39,39.159 445.368,39.159 444.027,44.172 443.068,44.172 441.722,39.159 441.701,39.159 
					441.701,44.172 				"/>
				<path d="M447.869,37.81h1.777c1.355,0,2.133,0.55,2.133,1.634c0,0.557-0.286,1.016-0.819,1.334
					c0.696,0.427,0.978,0.764,0.978,1.561c0,1.271-0.887,1.834-2.217,1.834h-1.852V37.81L447.869,37.81z M449.129,40.334h0.443
					c0.563,0,0.938-0.319,0.938-0.746c0-0.461-0.282-0.782-0.876-0.782h-0.508L449.129,40.334L449.129,40.334z M449.129,43.176
					h0.537c0.654,0,0.996-0.373,0.996-0.925c0-0.623-0.435-0.926-1.09-0.926h-0.443V43.176z"/>
				<path d="M452.694,44.172l1.646-6.362h1.627l1.589,6.362h-1.211l-0.324-1.337h-1.751l-0.353,1.337H452.694z M454.506,41.751
					h1.256l-0.617-2.576h-0.021L454.506,41.751z"/>
				<polygon points="461.749,37.81 461.749,38.873 460.28,38.873 460.28,44.172 459.015,44.172 459.015,38.873 457.533,38.873 
					457.533,37.81 				"/>
				<polygon points="462.691,44.172 462.691,37.81 466.166,37.81 466.166,38.873 463.966,38.873 463.966,40.348 465.63,40.348 
					465.63,41.415 463.966,41.415 463.966,43.105 466.243,43.105 466.243,44.172 				"/>
				<path d="M470.434,44.172l-1.101-2.595h-0.609v2.595h-1.265V37.81h1.828c1.531,0,2.254,0.709,2.254,1.898
					c0,0.801-0.295,1.369-0.997,1.617l1.239,2.845L470.434,44.172L470.434,44.172z M468.724,40.582h0.655
					c0.558,0,0.896-0.269,0.896-0.89c0-0.622-0.34-0.89-0.896-0.89h-0.655V40.582z"/>
				<path d="M475.017,44.172l1.644-6.362h1.626l1.601,6.362h-1.208l-0.324-1.337h-1.744l-0.372,1.337H475.017z M476.823,41.751
					h1.261l-0.611-2.576h-0.02L476.823,41.751z"/>
				<path d="M483.033,44.172l1.646-6.362h1.624l1.588,6.362h-1.199l-0.335-1.337h-1.743l-0.358,1.337H483.033z M484.846,41.751
					h1.257l-0.611-2.576h-0.019L484.846,41.751z"/>
				<rect x="488.846" y="37.81" width="1.265" height="6.362"/>
				<path d="M491.506,37.81h1.754c1.45,0,2.265,0.603,2.318,2.204v1.954c-0.057,1.618-0.868,2.204-2.318,2.204h-1.754V37.81z
					 M492.771,43.105h0.437c0.698,0,1.102-0.32,1.102-1.281v-1.67c0-0.905-0.316-1.28-1.102-1.28h-0.437V43.105z"/>
				<path d="M499.569,39.587c-0.203-0.607-0.479-0.856-0.922-0.856c-0.443,0-0.686,0.249-0.686,0.694c0,0.962,2.81,1.031,2.81,3.022
					c0,1.1-0.776,1.811-2.105,1.811c-1.02,0-1.817-0.529-2.161-1.794l1.255-0.248c0.142,0.766,0.592,1.048,0.979,1.048
					c0.443,0,0.776-0.282,0.776-0.765c0-1.207-2.827-1.225-2.827-3.008c0-1.081,0.688-1.771,1.996-1.771
					c1.126,0,1.811,0.639,2.032,1.546L499.569,39.587z"/>
				<polygon points="502.666,44.172 502.121,44.172 502.121,42.928 503.416,42.928 503.416,44.172 502.844,45.484 502.195,45.484 
									"/>
			</g>
			<g>
				<path d="M429.69,54.859l1.626-6.379h1.624l1.6,6.379h-1.209l-0.313-1.352h-1.756l-0.354,1.352H429.69z M431.48,52.443h1.255
					l-0.604-2.576h-0.021L431.48,52.443z"/>
				<polygon points="438.217,54.859 438.217,48.482 439.981,48.482 441.128,52.653 441.146,52.653 442.304,48.482 444.066,48.482 
					444.066,54.859 442.984,54.859 442.984,49.846 442.974,49.846 441.616,54.859 440.665,54.859 439.314,49.846 439.298,49.846 
					439.298,54.859 				"/>
				<path d="M445.006,54.859l1.645-6.379h1.628l1.587,6.379h-1.21l-0.311-1.352h-1.748l-0.369,1.352H445.006z M446.817,52.443h1.256
					l-0.608-2.576h-0.02L446.817,52.443z"/>
				<polygon points="450.743,54.859 450.743,48.482 452.009,48.482 452.009,53.775 454.043,53.775 454.043,54.859 				"/>
				<path d="M454.553,54.859l1.634-6.379h1.626l1.6,6.379H458.2l-0.331-1.352h-1.734l-0.358,1.352H454.553z M458.477,46.83
					l-1.352,1.293h-0.926l0.854-1.293H458.477z M456.354,52.443h1.253l-0.609-2.576h-0.017L456.354,52.443z"/>
				<path d="M463.255,54.859l-1.11-2.596h-0.601v2.596h-1.257v-6.377h1.828c1.517,0,2.236,0.707,2.236,1.912
					c0,0.783-0.286,1.354-0.998,1.619l1.258,2.846H463.255L463.255,54.859z M461.544,51.252h0.646c0.563,0,0.905-0.27,0.905-0.889
					c0-0.604-0.344-0.877-0.905-0.877h-0.646V51.252z"/>
				<rect x="465.628" y="48.482" width="1.271" height="6.377"/>
				<path d="M467.842,54.859l1.646-6.379h1.629l1.587,6.379h-1.213l-0.317-1.352h-1.758l-0.35,1.352H467.842z M469.654,52.443h1.254
					l-0.614-2.576h-0.019L469.654,52.443z"/>
			</g>
			<g>
				<polygon points="429.587,65.674 429.587,59.295 433.053,59.295 433.053,60.377 430.842,60.377 430.842,61.834 432.526,61.834 
					432.526,62.918 430.842,62.918 430.842,64.588 433.144,64.588 433.144,65.674 				"/>
				<path d="M436.978,61.338c0-1.566,0.858-2.135,2.087-2.135c1.239,0,2.09,0.566,2.09,2.135v2.271c0,1.584-0.851,2.136-2.09,2.136
					c-1.229,0-2.087-0.552-2.087-2.136V61.338z M438.242,63.791c0,0.692,0.326,0.89,0.821,0.89c0.5,0,0.834-0.195,0.834-0.89v-2.612
					c0-0.697-0.334-0.892-0.834-0.892c-0.495,0-0.821,0.192-0.821,0.892V63.791z"/>
				<path d="M443.702,59.295v4.461c0,0.604,0.276,0.924,0.892,0.924c0.616,0,0.898-0.32,0.898-0.924v-4.461h1.261v4.477
					c0,1.389-0.852,1.973-2.16,1.973c-1.293,0-2.146-0.584-2.146-1.973v-4.477H443.702z"/>
				<polygon points="451.979,59.295 451.979,60.377 450.514,60.377 450.514,65.672 449.244,65.672 449.244,60.377 447.768,60.377 
					447.768,59.295 				"/>
				<path d="M455.89,65.674l-1.101-2.596h-0.603v2.596h-1.267v-6.379h1.831c1.521,0,2.25,0.709,2.25,1.91
					c0,0.785-0.292,1.355-0.997,1.623l1.237,2.846H455.89z M454.188,62.066h0.657c0.555,0,0.887-0.27,0.887-0.891
					c0-0.604-0.332-0.875-0.887-0.875h-0.657V62.066z"/>
				<path d="M457.756,65.674l1.644-6.383h1.618l1.599,6.383h-1.21l-0.312-1.354h-1.76l-0.357,1.354H457.756z M459.556,63.258h1.26
					l-0.611-2.576h-0.018L459.556,63.258z"/>
				<path d="M466.282,61.069c-0.204-0.604-0.488-0.856-0.924-0.856c-0.443,0-0.704,0.269-0.704,0.694
					c0,0.962,2.828,1.033,2.828,3.022c0,1.099-0.775,1.813-2.104,1.813c-1.034,0-1.831-0.531-2.163-1.777l1.248-0.27
					c0.14,0.787,0.601,1.049,0.979,1.049c0.437,0,0.774-0.283,0.774-0.762c0-1.191-2.827-1.209-2.827-2.986
					c0-1.104,0.672-1.793,1.986-1.793c1.125,0,1.814,0.656,2.042,1.545L466.282,61.069z"/>
			</g>
			<g>
				<path d="M429.987,70.352h1.755c1.45,0,2.257,0.588,2.312,2.201v1.957c-0.055,1.6-0.858,2.203-2.312,2.203h-1.755V70.352z
					 M431.241,75.631h0.443c0.702,0,1.102-0.305,1.102-1.262v-1.674c0-0.902-0.306-1.281-1.102-1.281h-0.443V75.631z"/>
				<path d="M435.162,72.396c0-1.564,0.85-2.135,2.088-2.135c1.229,0,2.089,0.566,2.089,2.135v2.271c0,1.563-0.86,2.133-2.089,2.133
					c-1.238,0-2.088-0.568-2.088-2.133V72.396z M436.419,74.832c0,0.688,0.331,0.89,0.831,0.89c0.508,0,0.819-0.199,0.819-0.89
					v-2.597c0-0.711-0.313-0.905-0.819-0.905c-0.5,0-0.831,0.194-0.831,0.905V74.832z"/>
				<polygon points="440.547,76.715 440.547,70.352 444.013,70.352 444.013,71.416 441.813,71.416 441.813,72.893 443.49,72.893 
					443.49,73.959 441.813,73.959 441.813,75.631 444.104,75.631 444.104,76.715 				"/>
				<polygon points="445.39,76.715 445.39,70.352 446.772,70.352 448.537,74.119 448.555,74.119 448.555,70.352 449.702,70.352 
					449.702,76.715 448.49,76.715 446.56,72.609 446.543,72.609 446.543,76.715 				"/>
				<path d="M452.253,74.832c0,0.688,0.321,0.89,0.83,0.89c0.5,0,0.834-0.199,0.834-0.89v-0.431h1.256v0.269
					c0,1.563-0.87,2.136-2.09,2.136c-1.236,0-2.087-0.572-2.087-2.136v-2.271c0-1.567,0.851-2.133,2.087-2.133
					c1.22,0,2.09,0.563,2.09,2.133v0.017h-1.256v-0.179c0-0.711-0.334-0.905-0.834-0.905c-0.509,0-0.83,0.194-0.83,0.905V74.832z
					 M452.003,78.135c0.212,0.066,0.453,0.145,0.69,0.145c0.205,0,0.51-0.09,0.51-0.34c0-0.193-0.176-0.318-0.381-0.318
					c-0.146,0-0.274,0.017-0.403,0.051l-0.204-0.157l0.549-0.8h0.487l-0.393,0.535l0.021,0.017c0.084-0.05,0.187-0.05,0.274-0.05
					c0.429,0,0.834,0.266,0.834,0.671c0,0.601-0.629,0.836-1.166,0.836c-0.352,0-0.684-0.086-0.997-0.216L452.003,78.135z"/>
				<path d="M455.929,76.715l1.646-6.363h1.627l1.585,6.363h-1.2l-0.319-1.352h-1.746l-0.37,1.352H455.929z M457.739,74.299h1.256
					l-0.618-2.578h-0.021L457.739,74.299z"/>
				<path d="M464.465,72.111c-0.213-0.586-0.499-0.854-0.926-0.854c-0.45,0-0.702,0.268-0.702,0.711c0,0.959,2.831,1.027,2.831,3.02
					c0,1.086-0.789,1.814-2.107,1.814c-1.036,0-1.83-0.533-2.171-1.797l1.246-0.248c0.146,0.764,0.607,1.035,0.979,1.035
					c0.445,0,0.776-0.271,0.776-0.748c0-1.209-2.827-1.229-2.827-3.006c0-1.104,0.686-1.773,1.997-1.773
					c1.126,0,1.811,0.633,2.031,1.545L464.465,72.111z"/>
			</g>
		</g>
		<path d="M470.855,13.57c-0.278-1.371-1.369-2.552-2.865-2.552c-3.132,0-3.956,3.956-4.09,6.238l0.063,0.07
			c1.188-1.617,2.75-2.298,4.813-2.298c1.836,0,3.69,0.824,4.905,2.115c1.136,1.258,1.648,2.96,1.648,4.572
			c0,4.183-3.021,7.5-7.472,7.5c-6.456,0-8.193-5.413-8.193-10.604c0-5.018,2.314-10.73,8.39-10.73c3.681,0,6.425,2.089,6.91,5.687
			L470.855,13.57L470.855,13.57z M464.309,21.978c0,1.911,1.272,3.813,3.439,3.813c2.077,0,3.257-1.898,3.257-3.755
			c0-1.928-1.031-3.854-3.257-3.854C465.434,18.18,464.309,19.964,464.309,21.978"/>
	</g>
	<g>
		<g>
			<path fill="#8DC63F" d="M595,79.561c0,3.004-2.531,5.439-5.656,5.439h-73.683c-3.127,0-5.661-2.438-5.661-5.439V5.44
				c0-3.001,2.534-5.44,5.661-5.44h73.683C592.469,0,595,2.439,595,5.44V79.561z"/>
			<g>
				<g>
					<path d="M519.227,44.793c-0.621,0-1.021-0.269-1.334-0.623c-0.333,0.181-0.725,0.229-1.167,0.229
						c-1.225,0-2.094-0.551-2.094-2.118V39.98c0-1.564,0.869-2.135,2.094-2.135c1.238,0,2.093,0.569,2.093,2.135v2.301
						c0,0.516-0.083,0.926-0.26,1.229c0.177,0.12,0.391,0.211,0.668,0.211V44.793L519.227,44.793z M516.653,41.673
						c0.406,0.056,0.674,0.285,0.886,0.586h0.021v-2.437c0-0.694-0.313-0.892-0.834-0.892c-0.5,0-0.823,0.194-0.823,0.892v2.599
						c0,0.714,0.323,0.905,0.823,0.905c0.193,0,0.354-0.031,0.479-0.086c-0.162-0.249-0.347-0.444-0.552-0.515V41.673z"/>
					<path d="M521.381,37.938v4.467c0,0.608,0.268,0.925,0.883,0.925c0.628,0,0.906-0.315,0.906-0.925v-4.467h1.269v4.482
						c0,1.409-0.861,1.979-2.175,1.979c-1.297,0-2.148-0.568-2.148-1.979v-4.482H521.381z"/>
					<path d="M525.388,44.33l1.645-6.392h1.625l1.606,6.392h-1.228l-0.314-1.352h-1.757l-0.354,1.352H525.388z M527.195,41.889
						h1.258l-0.617-2.563h-0.021L527.195,41.889z"/>
					<polygon points="531.132,44.33 531.132,37.938 532.392,37.938 532.392,43.241 534.435,43.241 534.435,44.33 					"/>
					<rect x="535.464" y="37.938" width="1.271" height="6.392"/>
					<path d="M538.131,37.938h1.758c1.463,0,2.271,0.602,2.321,2.205v1.959c-0.051,1.62-0.858,2.228-2.321,2.228h-1.758V37.938z
						 M539.398,43.241h0.436c0.705,0,1.111-0.321,1.111-1.265v-1.69c0-0.892-0.314-1.267-1.111-1.267h-0.436V43.241z"/>
					<path d="M542.971,44.33l1.646-6.392h1.621l1.604,6.392h-1.213l-0.327-1.352h-1.751l-0.355,1.352H542.971z M544.776,41.889
						h1.269l-0.618-2.563h-0.02L544.776,41.889z"/>
					<path d="M548.711,37.938h1.77c1.454,0,2.259,0.602,2.314,2.205v1.959c-0.059,1.62-0.86,2.228-2.314,2.228h-1.77V37.938z
						 M549.978,43.241h0.445c0.691,0,1.1-0.321,1.1-1.265v-1.69c0-0.892-0.311-1.267-1.1-1.267h-0.445V43.241z"/>
					<polygon points="554.005,44.33 554.005,37.938 557.478,37.938 557.478,39.021 555.275,39.021 555.275,40.483 556.949,40.483 
						556.949,41.567 555.275,41.567 555.275,43.241 557.57,43.241 557.57,44.33 					"/>
				</g>
				<g>
					<path d="M514.633,48.938h1.768c1.439,0,2.259,0.602,2.314,2.205v1.959c-0.059,1.617-0.875,2.227-2.314,2.227h-1.768V48.938z
						 M515.899,54.239h0.436c0.702,0,1.107-0.317,1.107-1.264v-1.688c0-0.894-0.312-1.269-1.107-1.269h-0.436V54.239z"/>
					<polygon points="519.924,55.328 519.924,48.938 523.396,48.938 523.396,50.02 521.186,50.02 521.186,51.482 522.865,51.482 
						522.865,52.566 521.186,52.566 521.186,54.239 523.49,54.239 523.49,55.328 					"/>
					<polygon points="527.007,48.938 528.255,48.938 529.423,53.494 529.438,53.494 530.601,48.938 531.839,48.938 530.146,55.328 
						528.712,55.328 					"/>
					<rect x="532.805" y="48.938" width="1.265" height="6.393"/>
					<path d="M535.466,48.938h1.76c1.454,0,2.271,0.602,2.325,2.205v1.959c-0.058,1.617-0.871,2.227-2.325,2.227h-1.76V48.938z
						 M536.735,54.239h0.437c0.703,0,1.108-0.317,1.108-1.264v-1.688c0-0.894-0.313-1.269-1.108-1.269h-0.437V54.239z"/>
					<path d="M540.311,55.328l1.646-6.392h1.627l1.593,6.392h-1.211l-0.324-1.351h-1.746l-0.362,1.351H540.311z M542.127,52.885
						h1.256l-0.618-2.563h-0.021L542.127,52.885z"/>
				</g>
				<g>
					<polygon points="514.633,66.133 514.633,59.756 518.112,59.756 518.112,60.823 515.908,60.823 515.908,62.301 517.577,62.301 
						517.577,63.371 515.908,63.371 515.908,65.063 518.196,65.063 518.196,66.133 					"/>
					<path d="M525.126,66.133l-1.105-2.602h-0.603v2.602h-1.27v-6.377h1.831c1.538,0,2.261,0.715,2.261,1.904
						c0,0.785-0.297,1.369-1.003,1.619l1.239,2.854H525.126z M523.418,62.535h0.654c0.557,0,0.89-0.269,0.89-0.892
						c0-0.627-0.333-0.896-0.89-0.896h-0.654V62.535z"/>
					<polygon points="527.441,66.133 527.441,59.756 530.916,59.756 530.916,60.823 528.701,60.823 528.701,62.301 530.392,62.301 
						530.392,63.371 528.701,63.371 528.701,65.063 531.008,65.063 531.008,66.133 					"/>
					<path d="M535.016,61.52c-0.203-0.59-0.479-0.855-0.922-0.855c-0.446,0-0.696,0.269-0.696,0.711
						c0,0.963,2.832,1.033,2.832,3.027c0,1.088-0.786,1.818-2.121,1.818c-1.021,0-1.832-0.535-2.165-1.801l1.253-0.248
						c0.146,0.766,0.604,1.027,0.979,1.027c0.444,0,0.788-0.264,0.788-0.746c0-1.207-2.835-1.227-2.835-3.012
						c0-1.104,0.685-1.779,1.988-1.779c1.141,0,1.825,0.646,2.048,1.553L535.016,61.52z"/>
					<path d="M537.591,66.133v-6.379h1.822c1.563,0,2.322,0.717,2.322,1.906c0,1.191-0.759,1.904-2.322,1.904h-0.563v2.564
						L537.591,66.133L537.591,66.133z M538.851,62.569h0.684c0.622,0,0.938-0.303,0.938-0.907c0-0.606-0.314-0.912-0.938-0.912
						h-0.684V62.569z"/>
					<polygon points="542.801,66.133 542.801,59.756 546.274,59.756 546.274,60.823 544.071,60.823 544.071,62.301 545.744,62.301 
						545.744,63.371 544.071,63.371 544.071,65.063 546.365,65.063 546.365,66.133 					"/>
					<rect x="547.652" y="59.756" width="1.271" height="6.377"/>
					<polygon points="554.158,59.756 554.158,60.823 552.683,60.823 552.683,66.133 551.407,66.133 551.407,60.823 549.937,60.823 
						549.937,59.756 					"/>
					<path d="M554.983,61.803c0-1.564,0.871-2.141,2.093-2.141c1.241,0,2.104,0.572,2.104,2.141v2.275
						c0,1.572-0.859,2.143-2.104,2.143c-1.222,0-2.093-0.566-2.093-2.143V61.803z M556.252,64.241c0,0.697,0.322,0.892,0.823,0.892
						c0.512,0,0.836-0.192,0.836-0.892v-2.598c0-0.714-0.324-0.91-0.836-0.91c-0.501,0-0.823,0.196-0.823,0.91V64.241z"/>
					<path d="M562.678,66.133l1.639-6.377h1.631l1.603,6.377h-1.218l-0.32-1.336h-1.747l-0.364,1.336H562.678z M564.481,63.707h1.26
						l-0.61-2.58h-0.019L564.481,63.707z"/>
					<path d="M568.307,61.803c0-1.564,0.872-2.141,2.102-2.141c1.23,0,2.092,0.572,2.092,2.141v2.275
						c0,1.572-0.86,2.143-2.092,2.143c-1.229,0-2.102-0.566-2.102-2.143V61.803z M569.571,64.241c0,0.697,0.328,0.892,0.836,0.892
						c0.512,0,0.82-0.192,0.82-0.892v-2.598c0-0.714-0.312-0.91-0.82-0.91c-0.508,0-0.836,0.196-0.836,0.91V64.241z"/>
				</g>
				<g>
					<g>
						<polygon points="514.633,76.944 514.633,70.568 516.398,70.568 517.548,74.752 517.565,74.752 518.725,70.568 520.49,70.568 
							520.49,76.944 519.408,76.944 519.408,71.924 519.392,71.924 518.042,76.944 517.087,76.944 515.733,71.924 515.714,71.924 
							515.714,76.944 						"/>
						<polygon points="521.893,76.944 521.893,70.568 525.363,70.568 525.363,71.635 523.155,71.635 523.155,73.114 524.842,73.114 
							524.842,74.184 523.155,74.184 523.155,75.875 525.452,75.875 525.452,76.944 						"/>
						<rect x="526.739" y="70.568" width="1.271" height="6.377"/>
						<path d="M529.298,72.619c0-1.568,0.857-2.142,2.09-2.142c1.228,0,2.092,0.571,2.092,2.142v2.274
							c0,1.569-0.864,2.142-2.092,2.142c-1.229,0-2.09-0.57-2.09-2.142V72.619z M530.555,75.053c0,0.697,0.323,0.895,0.832,0.895
							c0.513,0,0.837-0.195,0.837-0.895v-2.6c0-0.715-0.324-0.908-0.837-0.908c-0.509,0-0.832,0.193-0.832,0.908V75.053z"/>
					</g>
					<g>
						<path d="M536.869,76.943l1.641-6.373h1.63l1.602,6.373h-1.225l-0.313-1.338h-1.76l-0.352,1.338H536.869z M538.675,74.523
							h1.263l-0.623-2.566h-0.019L538.675,74.523z"/>
						<polygon points="542.686,76.943 542.686,70.569 544.462,70.569 545.606,74.754 545.626,74.754 546.777,70.569 548.545,70.569 
							548.545,76.943 547.462,76.943 547.462,71.939 547.44,71.939 546.091,76.943 545.138,76.943 543.782,71.939 543.768,71.939 
							543.768,76.943 						"/>
						<path d="M549.942,70.569h1.778c1.37,0,2.146,0.55,2.146,1.636c0,0.571-0.283,1.019-0.813,1.338
							c0.686,0.427,0.962,0.765,0.962,1.565c0,1.267-0.871,1.834-2.224,1.834h-1.853L549.942,70.569L549.942,70.569z
							 M551.209,73.098h0.438c0.574,0,0.945-0.32,0.945-0.746c0-0.469-0.277-0.766-0.869-0.766h-0.514V73.098z M551.209,75.946h0.53
							c0.663,0,1.008-0.373,1.008-0.928c0-0.604-0.436-0.908-1.104-0.908h-0.438v1.836H551.209z"/>
						<rect x="555.311" y="70.569" width="1.262" height="6.373"/>
						<polygon points="557.978,76.943 557.978,70.569 561.44,70.569 561.44,71.655 559.235,71.655 559.235,73.116 560.924,73.116 
							560.924,74.203 559.235,74.203 559.235,75.877 561.532,75.877 561.532,76.943 						"/>
						<polygon points="562.828,76.943 562.828,70.569 564.216,70.569 565.978,74.344 565.994,74.344 565.994,70.569 567.148,70.569 
							567.148,76.943 565.938,76.943 563.992,72.832 563.978,72.832 563.978,76.943 						"/>
						<polygon points="572.382,70.569 572.382,71.655 570.908,71.655 570.908,76.943 569.642,76.943 569.642,71.655 568.158,71.655 
							568.158,70.569 						"/>
						<polygon points="573.323,76.943 573.323,70.569 576.798,70.569 576.798,71.655 574.594,71.655 574.594,73.116 576.27,73.116 
							576.27,74.203 574.594,74.203 574.594,75.877 576.889,75.877 576.889,76.943 						"/>
					</g>
				</g>
			</g>
		</g>
		<path d="M559.991,11.639c-4.604,3.864-7.112,11.798-7.176,17.432h-4.769c0.501-6.244,3.195-12.299,7.364-17.122h-10.404V7.964
			h14.981L559.991,11.639L559.991,11.639z"/>
	</g>
	<g>
		<path fill="#14B1E7" d="M680,79.561c0,3.001-2.527,5.439-5.654,5.439h-73.692c-3.115,0-5.653-2.438-5.653-5.439V5.44
			c0-2.999,2.538-5.44,5.653-5.44h73.69c3.128,0,5.655,2.441,5.655,5.44L680,79.561L680,79.561z"/>
		<g>
			<g>
				<g>
					<polygon points="604.008,38.07 604.008,39.132 602.524,39.132 602.524,44.444 601.257,44.444 601.257,39.132 599.776,39.132 
						599.776,38.07 					"/>
					<path d="M604.828,40.113c0-1.564,0.872-2.133,2.103-2.133c1.229,0,2.093,0.567,2.093,2.133v2.282
						c0,1.569-0.862,2.133-2.093,2.133c-1.229,0-2.103-0.563-2.103-2.133V40.113z M606.105,42.557c0,0.713,0.323,0.906,0.823,0.906
						c0.511,0,0.825-0.193,0.825-0.906v-2.601c0-0.717-0.314-0.91-0.825-0.91c-0.5,0-0.823,0.193-0.823,0.91V42.557z"/>
					<path d="M610.235,38.07h1.771c1.44,0,2.261,0.604,2.313,2.204v1.962c-0.053,1.621-0.87,2.208-2.313,2.208h-1.771V38.07z
						 M611.505,43.375h0.441c0.703,0,1.104-0.319,1.104-1.283V40.42c0-0.909-0.313-1.287-1.104-1.287h-0.441V43.375z"/>
					<path d="M615.416,40.113c0-1.564,0.859-2.133,2.104-2.133c1.222,0,2.085,0.567,2.085,2.133v2.282
						c0,1.569-0.863,2.133-2.085,2.133c-1.242,0-2.104-0.563-2.104-2.133V40.113z M616.686,42.557c0,0.713,0.323,0.906,0.834,0.906
						c0.499,0,0.822-0.193,0.822-0.906v-2.601c0-0.717-0.323-0.91-0.822-0.91c-0.511,0-0.834,0.193-0.834,0.91V42.557z"/>
					<polygon points="623.63,44.444 623.63,38.07 625.405,38.07 626.554,42.255 626.573,42.255 627.721,38.07 629.487,38.07 
						629.487,44.444 628.401,44.444 628.401,39.421 628.387,39.421 627.044,44.444 626.079,44.444 624.738,39.421 624.721,39.421 
						624.721,44.444 					"/>
					<path d="M632.235,38.07v4.448c0,0.624,0.271,0.944,0.879,0.944c0.62,0,0.905-0.32,0.905-0.944V38.07h1.262v4.469
						c0,1.408-0.859,1.994-2.167,1.994c-1.297,0-2.153-0.586-2.153-1.994V38.07H632.235z"/>
					<polygon points="636.764,44.444 636.764,38.07 638.148,38.07 639.906,41.846 639.926,41.846 639.926,38.07 641.085,38.07 
						641.085,44.444 639.868,44.444 637.926,40.329 637.908,40.329 637.908,44.444 					"/>
					<path d="M642.481,38.07h1.756c1.456,0,2.271,0.604,2.322,2.204v1.962c-0.053,1.621-0.866,2.208-2.322,2.208h-1.756V38.07z
						 M643.745,43.375h0.44c0.701,0,1.099-0.319,1.099-1.283V40.42c0-0.909-0.307-1.287-1.099-1.287h-0.44V43.375z"/>
					<path d="M647.663,40.113c0-1.564,0.865-2.133,2.093-2.133c1.229,0,2.092,0.567,2.092,2.133v2.282
						c0,1.569-0.86,2.133-2.092,2.133c-1.228,0-2.093-0.563-2.093-2.133V40.113z M648.933,42.557c0,0.713,0.322,0.906,0.822,0.906
						c0.502,0,0.822-0.193,0.822-0.906v-2.601c0-0.717-0.32-0.91-0.822-0.91c-0.5,0-0.822,0.193-0.822,0.91V42.557z"/>
				</g>
				<g>
					<polygon points="604.008,48.852 604.008,49.938 602.524,49.938 602.524,55.244 601.257,55.244 601.257,49.938 599.776,49.938 
						599.776,48.852 					"/>
					<path d="M607.923,55.244l-1.104-2.601h-0.611v2.601h-1.256v-6.394h1.832c1.529,0,2.244,0.711,2.244,1.918
						c0,0.786-0.29,1.354-0.997,1.622l1.253,2.854H607.923z M606.207,51.631h0.655c0.567,0,0.902-0.271,0.902-0.895
						c0-0.604-0.335-0.875-0.902-0.875h-0.655V51.631z"/>
					<path d="M609.779,55.244l1.647-6.396h1.632l1.6,6.396h-1.212l-0.328-1.353h-1.755l-0.358,1.353H609.779z M611.599,52.821h1.258
						l-0.613-2.58h-0.017L611.599,52.821z"/>
					<path d="M615.53,48.852h1.784c1.35,0,2.13,0.553,2.13,1.656c0,0.547-0.279,1.016-0.813,1.313
						c0.701,0.432,0.974,0.785,0.974,1.564c0,1.266-0.881,1.854-2.224,1.854h-1.853L615.53,48.852L615.53,48.852z M616.798,51.383
						h0.444c0.563,0,0.941-0.326,0.941-0.75c0-0.469-0.285-0.771-0.889-0.771h-0.5L616.798,51.383L616.798,51.383z M616.798,54.229
						h0.527c0.662,0,1.019-0.371,1.019-0.928c0-0.605-0.442-0.908-1.102-0.908h-0.444V54.229L616.798,54.229z"/>
					<path d="M620.367,55.244l1.643-6.396h1.629l1.604,6.396h-1.214l-0.324-1.353h-1.75l-0.357,1.353H620.367z M622.174,52.821
						h1.262l-0.612-2.58h-0.019L622.174,52.821z"/>
					<polygon points="626.108,55.244 626.108,48.852 627.378,48.852 627.378,54.155 629.423,54.155 629.423,55.244 					"/>
					<polygon points="630.447,55.244 630.447,48.852 631.716,48.852 631.716,51.396 633.503,51.396 633.503,48.852 634.771,48.852 
						634.771,55.244 633.503,55.244 633.503,52.48 631.716,52.48 631.716,55.244 					"/>
					<path d="M635.717,55.244l1.646-6.396h1.629l1.603,6.396h-1.221l-0.316-1.353h-1.756l-0.354,1.353H635.717z M637.527,52.821
						h1.26l-0.619-2.58h-0.018L637.527,52.821z"/>
					<polygon points="641.536,55.244 641.536,48.852 642.926,48.852 644.684,52.645 644.699,52.645 644.699,48.852 645.859,48.852 
						645.859,55.244 644.646,55.244 642.716,51.112 642.69,51.112 642.69,55.244 					"/>
					<path d="M647.26,48.852h1.76c1.461,0,2.267,0.604,2.32,2.203v1.959c-0.057,1.621-0.859,2.229-2.32,2.229h-1.76V48.852z
						 M648.529,54.155h0.44c0.691,0,1.101-0.319,1.101-1.267V51.2c0-0.891-0.313-1.264-1.101-1.264h-0.44V54.155z"/>
					<path d="M652.439,50.9c0-1.568,0.859-2.141,2.092-2.141c1.229,0,2.104,0.568,2.104,2.141v2.275c0,1.582-0.87,2.141-2.104,2.141
						c-1.229,0-2.092-0.559-2.092-2.141V50.9z M653.71,53.355c0,0.695,0.313,0.891,0.82,0.891c0.511,0,0.824-0.192,0.824-0.891
						v-2.617c0-0.697-0.313-0.895-0.824-0.895c-0.51,0-0.82,0.193-0.82,0.895V53.355z"/>
				</g>
				<g>
					<path d="M600.704,66.025v-6.396h1.831c1.559,0,2.325,0.713,2.325,1.92c0,1.195-0.771,1.908-2.325,1.908h-0.563v2.565h-1.27
						L600.704,66.025L600.704,66.025z M601.973,62.441h0.686c0.623,0,0.93-0.303,0.93-0.893c0-0.604-0.307-0.904-0.93-0.904h-0.686
						V62.441z"/>
					<polygon points="605.924,66.025 605.924,59.631 609.396,59.631 609.396,60.717 607.194,60.717 607.194,62.176 608.879,62.176 
						608.879,63.26 607.194,63.26 607.194,64.938 609.488,64.938 609.488,66.025 					"/>
					<polygon points="610.702,66.025 610.702,59.631 611.969,59.631 611.969,64.938 614.004,64.938 614.004,66.025 					"/>
					<path d="M614.854,61.68c0-1.566,0.862-2.139,2.093-2.139c1.234,0,2.093,0.568,2.093,2.139v2.277
						c0,1.58-0.855,2.139-2.093,2.139c-1.229,0-2.093-0.559-2.093-2.139V61.68z M616.117,64.135c0,0.695,0.32,0.893,0.829,0.893
						c0.515,0,0.824-0.193,0.824-0.893v-2.613c0-0.701-0.313-0.896-0.824-0.896c-0.509,0-0.829,0.192-0.829,0.896V64.135z"/>
				</g>
				<g>
					<path d="M600.173,70.416h1.762c1.457,0,2.256,0.588,2.313,2.207v1.959c-0.061,1.603-0.856,2.205-2.313,2.205h-1.762V70.416z
						 M601.442,75.705h0.436c0.701,0,1.104-0.308,1.104-1.265v-1.677c0-0.905-0.313-1.282-1.104-1.282h-0.436V75.705z"/>
					<polygon points="605.461,76.787 605.461,70.416 608.938,70.416 608.938,71.482 606.729,71.482 606.729,72.961 608.411,72.961 
						608.411,74.028 606.729,74.028 606.729,75.705 609.021,75.705 609.021,76.787 					"/>
					<path d="M613.039,72.176c-0.214-0.588-0.486-0.854-0.936-0.854c-0.444,0-0.693,0.269-0.693,0.714
						c0,0.963,2.834,1.034,2.834,3.021c0,1.092-0.779,1.819-2.109,1.819c-1.028,0-1.829-0.533-2.175-1.797l1.245-0.253
						c0.157,0.765,0.613,1.035,0.98,1.035c0.446,0,0.787-0.271,0.787-0.748c0-1.211-2.832-1.228-2.832-3.012
						c0-1.103,0.688-1.779,1.998-1.779c1.133,0,1.813,0.638,2.039,1.55L613.039,72.176z"/>
					<polygon points="615.53,76.787 615.53,70.416 618.998,70.416 618.998,71.482 616.8,71.482 616.8,72.961 618.483,72.961 
						618.483,74.028 616.8,74.028 616.8,75.705 619.094,75.705 619.094,76.787 					"/>
					<polygon points="620.378,76.787 620.378,70.416 621.764,70.416 623.534,74.189 623.555,74.189 623.555,70.416 624.701,70.416 
						624.701,76.787 623.498,76.787 621.56,72.676 621.533,72.676 621.533,76.787 					"/>
					<polygon points="625.675,70.416 626.924,70.416 628.09,74.973 628.105,74.973 629.267,70.416 630.506,70.416 628.813,76.787 
						627.367,76.787 					"/>
					<path d="M631.279,72.463c0-1.566,0.863-2.139,2.093-2.139c1.231,0,2.104,0.57,2.104,2.139v2.277
						c0,1.563-0.87,2.139-2.104,2.139c-1.229,0-2.093-0.572-2.093-2.139V72.463z M632.551,74.903c0,0.69,0.322,0.89,0.819,0.89
						c0.514,0,0.825-0.196,0.825-0.89v-2.603c0-0.713-0.313-0.907-0.825-0.907c-0.497,0-0.819,0.194-0.819,0.907V74.903z"/>
					<polygon points="636.687,76.787 636.687,70.416 637.945,70.416 637.945,75.705 639.993,75.705 639.993,76.787 					"/>
					<polygon points="640.012,70.416 641.26,70.416 642.426,74.973 642.445,74.973 643.604,70.416 644.844,70.416 643.148,76.787 
						641.712,76.787 					"/>
					<rect x="645.801" y="70.416" width="1.271" height="6.371"/>
					<polygon points="648.545,76.787 648.545,70.416 650.319,70.416 651.469,74.602 651.478,74.602 652.626,70.416 654.401,70.416 
						654.401,76.787 653.318,76.787 653.318,71.768 653.303,71.768 651.948,76.787 650.993,76.787 649.646,71.768 649.62,71.768 
						649.62,76.787 					"/>
					<polygon points="655.801,76.787 655.801,70.416 659.271,70.416 659.271,71.482 657.064,71.482 657.064,72.961 658.754,72.961 
						658.754,74.028 657.064,74.028 657.064,75.705 659.362,75.705 659.362,76.787 					"/>
					<polygon points="660.648,76.787 660.648,70.416 662.036,70.416 663.807,74.189 663.813,74.189 663.813,70.416 664.974,70.416 
						664.974,76.787 663.769,76.787 661.823,72.676 661.807,72.676 661.807,76.787 					"/>
					<polygon points="670.207,70.416 670.207,71.482 668.74,71.482 668.74,76.787 667.463,76.787 667.463,71.482 665.99,71.482 
						665.99,70.416 					"/>
					<path d="M671.039,72.463c0-1.566,0.863-2.139,2.099-2.139c1.229,0,2.091,0.57,2.091,2.139v2.277
						c0,1.563-0.86,2.139-2.091,2.139c-1.232,0-2.099-0.572-2.099-2.139V72.463z M672.313,74.903c0,0.69,0.317,0.89,0.822,0.89
						c0.5,0,0.821-0.196,0.821-0.89v-2.603c0-0.713-0.321-0.907-0.821-0.907c-0.505,0-0.822,0.194-0.822,0.907V74.903z"/>
				</g>
			</g>
			<path d="M637.532,8.121c5.266,0,7.064,3.486,7.064,5.453c0,2.01-1.081,3.643-3.072,4.286v0.044
				c2.504,0.561,3.947,2.416,3.947,4.975c0,4.274-3.98,6.396-7.908,6.396c-4.078,0-8.036-1.97-8.036-6.366
				c0-2.587,1.511-4.412,3.989-5.003v-0.044c-2.063-0.562-3.122-2.191-3.122-4.188C630.396,10.003,634.087,8.121,637.532,8.121
				 M637.564,26.168c2.053,0,3.619-1.401,3.619-3.428c0-1.954-1.635-3.264-3.619-3.264c-2.093,0-3.746,1.139-3.746,3.233
				S635.513,26.168,637.564,26.168 M637.532,16.725c1.754,0,3.175-0.929,3.175-2.688c0-1.039-0.513-2.809-3.175-2.809
				c-1.722,0-3.231,1.01-3.231,2.809C634.3,15.823,635.813,16.725,637.532,16.725"/>
		</g>
	</g>
	<g>
		<path fill="#FFDD00" d="M85,79.559C85,82.572,82.469,85,79.341,85H5.663C2.536,85,0,82.569,0,79.559V5.438
			C0,2.431,2.535,0,5.663,0h73.679c3.127,0,5.659,2.433,5.659,5.438L85,79.559L85,79.559z"/>
		<g>
			<path d="M4.543,55.42l1.667-6.486h1.653L9.49,55.42h-1.23L7.94,54.041H6.153L5.786,55.42H4.543z M6.378,52.948h1.277
				l-0.621-2.614h-0.02L6.378,52.948z"/>
			<path d="M11.548,53.484c0,0.721,0.34,0.922,0.851,0.922c0.507,0,0.834-0.201,0.834-0.922v-0.418h1.288v0.262
				c0,1.601-0.873,2.17-2.122,2.17c-1.262,0-2.128-0.569-2.128-2.17v-2.317c0-1.603,0.866-2.179,2.128-2.179
				c1.249,0,2.122,0.576,2.122,2.179v0.021h-1.288v-0.183c0-0.713-0.327-0.916-0.834-0.916c-0.511,0-0.851,0.203-0.851,0.916V53.484
				z"/>
			<path d="M15.296,55.42l1.675-6.486h1.655l1.612,6.486h-1.222l-0.339-1.379h-1.78l-0.359,1.379H15.296z M17.138,52.948h1.28
				l-0.623-2.614h-0.021L17.138,52.948z"/>
			<path d="M21.129,48.93h1.822c1.37,0,2.159,0.551,2.159,1.662c0,0.57-0.279,1.045-0.824,1.352
				c0.715,0.434,0.987,0.789,0.987,1.594c0,1.293-0.895,1.881-2.259,1.881h-1.889L21.129,48.93L21.129,48.93z M22.422,51.489h0.445
				c0.581,0,0.968-0.323,0.968-0.758c0-0.474-0.293-0.781-0.904-0.781h-0.509V51.489z M22.422,54.383h0.549
				c0.656,0,1.018-0.379,1.018-0.938c0-0.614-0.443-0.926-1.118-0.926h-0.445L22.422,54.383L22.422,54.383z"/>
			<path d="M26.057,55.42l1.664-6.486h1.66l1.623,6.486h-1.24l-0.322-1.379h-1.786l-0.354,1.379H26.057z M27.9,52.948h1.27
				l-0.628-2.614h-0.021L27.9,52.948z"/>
			<path d="M34.92,55.418l-1.119-2.644h-0.624v2.644h-1.288v-6.483h1.865c1.552,0,2.282,0.711,2.282,1.935
				c0,0.807-0.291,1.395-1.008,1.655L36.3,55.42L34.92,55.418L34.92,55.418z M33.176,51.744h0.67c0.563,0,0.912-0.271,0.912-0.896
				s-0.349-0.896-0.912-0.896h-0.67V51.744z"/>
			<path d="M41.229,53.484c0,0.721,0.33,0.922,0.837,0.922c0.513,0,0.838-0.201,0.838-0.922v-0.418h1.29v0.262
				c0,1.601-0.874,2.17-2.128,2.17c-1.252,0-2.134-0.569-2.134-2.17v-2.317c0-1.603,0.882-2.179,2.134-2.179
				c1.254,0,2.128,0.576,2.128,2.179v0.021h-1.29v-0.183c0-0.713-0.325-0.916-0.838-0.916c-0.507,0-0.837,0.203-0.837,0.916V53.484z
				"/>
			<path d="M45.312,51.008c0-1.604,0.876-2.18,2.135-2.18c1.245,0,2.129,0.576,2.129,2.18v2.316c0,1.602-0.884,2.17-2.129,2.17
				c-1.259,0-2.135-0.568-2.135-2.17V51.008z M46.603,53.484c0,0.721,0.327,0.922,0.844,0.922c0.509,0,0.841-0.201,0.841-0.922
				v-2.639c0-0.713-0.332-0.916-0.841-0.916c-0.517,0-0.844,0.203-0.844,0.916V53.484z"/>
			<polygon points="50.882,55.418 50.882,48.93 52.687,48.93 53.846,53.18 53.867,53.18 55.028,48.93 56.838,48.93 56.838,55.418 
				55.734,55.418 55.734,50.314 55.718,50.314 54.345,55.418 53.375,55.418 52.003,50.314 51.983,50.314 51.983,55.418 			"/>
		</g>
		<g>
			<path d="M4.543,66.109l1.68-6.488h1.653l1.614,6.488H8.26L7.94,64.73h-1.8l-0.354,1.379H4.543z M6.389,63.635h1.278l-0.631-2.611
				h-0.02L6.389,63.635z"/>
			<polygon points="13.16,66.109 13.16,59.621 16.52,59.621 16.52,60.715 14.449,60.715 14.449,62.196 16.078,62.196 16.078,63.301 
				14.449,63.301 14.449,66.109 			"/>
			<path d="M17.384,61.698c0-1.603,0.876-2.178,2.125-2.178c1.255,0,2.13,0.575,2.13,2.178v2.318c0,1.6-0.875,2.17-2.13,2.17
				c-1.249,0-2.125-0.57-2.125-2.17V61.698z M18.673,64.174c0,0.721,0.335,0.922,0.836,0.922c0.511,0,0.842-0.201,0.842-0.922
				v-2.639c0-0.713-0.331-0.916-0.842-0.916c-0.501,0-0.836,0.203-0.836,0.916V64.174z"/>
			<polygon points="22.945,66.109 22.945,59.621 24.757,59.621 25.919,63.871 25.937,63.871 27.105,59.621 28.901,59.621 
				28.901,66.109 27.809,66.109 27.809,61.004 27.782,61.004 26.418,66.109 25.437,66.109 24.073,61.004 24.056,61.004 
				24.056,66.109 			"/>
			<polygon points="30.33,66.109 30.33,59.621 33.858,59.621 33.858,60.715 31.61,60.715 31.61,62.196 33.322,62.196 33.322,63.301 
				31.61,63.301 31.61,65.002 33.941,65.002 33.941,66.109 			"/>
		</g>
		<g>
			<polygon points="4.543,76.752 4.543,70.271 8.07,70.271 8.07,71.359 5.823,71.359 5.823,72.854 7.534,72.854 7.534,73.944 
				5.823,73.944 5.823,75.653 8.156,75.653 8.156,76.752 			"/>
			<path d="M11.721,76.752l1.669-6.479h1.651l1.628,6.479h-1.232l-0.341-1.365H13.33l-0.365,1.365H11.721z M13.555,74.291h1.283
				l-0.624-2.623h-0.021L13.555,74.291z"/>
			<polygon points="20.41,76.752 20.41,70.271 22.212,70.271 23.376,74.525 23.395,74.525 24.559,70.271 26.365,70.271 
				26.365,76.752 25.268,76.752 25.268,71.65 25.248,71.65 23.877,76.752 22.905,76.752 21.532,71.65 21.516,71.65 21.516,76.752 
							"/>
			<rect x="27.864" y="70.273" width="1.286" height="6.479"/>
			<path d="M33.411,72.075c-0.215-0.608-0.485-0.877-0.938-0.877c-0.462,0-0.706,0.269-0.706,0.712c0,0.985,2.868,1.062,2.868,3.086
				c0,1.104-0.789,1.849-2.134,1.849c-1.056,0-1.863-0.544-2.226-1.828l1.281-0.252c0.147,0.776,0.611,1.059,0.999,1.059
				c0.45,0,0.788-0.293,0.788-0.771c0-1.229-2.869-1.25-2.869-3.061c0-1.111,0.688-1.81,2.022-1.81c1.146,0,1.854,0.649,2.064,1.573
				L33.411,72.075z"/>
			<path d="M35.945,76.752v-6.48h3.529v1.088H37.23v1.494h1.716v1.094H37.23v1.707h2.337v1.1L35.945,76.752L35.945,76.752z
				 M39.227,68.588l-1.372,1.314h-0.952l0.875-1.314H39.227z"/>
			<path d="M43.827,76.75l-1.119-2.644h-0.61v2.644h-1.299v-6.476h1.875c1.539,0,2.282,0.703,2.282,1.937
				c0,0.808-0.288,1.396-1.017,1.653l1.271,2.886H43.827z M42.097,73.09h0.657c0.563,0,0.915-0.273,0.915-0.898
				c0-0.633-0.352-0.904-0.915-0.904h-0.657V73.09z"/>
			<rect x="46.255" y="70.273" width="1.293" height="6.479"/>
			<path d="M48.504,76.752l1.675-6.479h1.655l1.616,6.479h-1.226l-0.328-1.365h-1.785l-0.365,1.365H48.504z M50.347,74.291h1.28
				l-0.633-2.623h-0.019L50.347,74.291z"/>
		</g>
		<path d="M47.471,28.953h-4.442V15.312h-5.498v-3.223c3.092,0.07,5.938-0.959,6.406-4.176h3.534V28.953z"/>
	</g>
</g>
</svg>
