<?xml version="1.0" encoding="utf-8"?>
<!-- Generator: Adobe Illustrator 16.0.3, SVG Export Plug-In . SVG Version: 6.00 Build 0)  -->
<!DOCTYPE svg PUBLIC "-//W3C//DTD SVG 1.1//EN" "http://www.w3.org/Graphics/SVG/1.1/DTD/svg11.dtd">
<svg version="1.1" id="Layer_1" xmlns="http://www.w3.org/2000/svg" xmlns:xlink="http://www.w3.org/1999/xlink" x="0px" y="0px"
	 width="1007.985px" height="50px" viewBox="0 0 1007.985 50" enable-background="new 0 0 1007.985 50" xml:space="preserve">
<g>
	<g>
		<g>
			<rect x="55.999" fill="#E3253C" width="55.999" height="49.998"/>
		</g>
		<g>
			<g>
				<path fill="#FFFFFF" d="M100.207,16.619c0-0.918,0.744-1.662,1.662-1.662c0.916,0,1.659,0.744,1.659,1.662
					s-0.743,1.662-1.659,1.662C100.951,18.281,100.207,17.537,100.207,16.619"/>
			</g>
			<g>
				<path fill="#FFFFFF" d="M103.808,18.921c1.128,0.102,2.011,1.05,2.011,2.207v0.552v0.241v3.812c0,0.354-0.288,0.644-0.643,0.644
					c-0.357,0-0.645-0.289-0.645-0.644v-3.955c0-0.148-0.044-0.35-0.314-0.35c-0.188,0-0.227,0.199-0.233,0.326v11.853
					c0,0.51-0.413,0.926-0.925,0.926c-0.513,0-0.927-0.416-0.927-0.926v-6.831c-0.003-0.075-0.027-0.271-0.263-0.271h-0.001
					c-0.236,0-0.265,0.195-0.268,0.271v6.831c0,0.51-0.412,0.926-0.924,0.926c-0.513,0-0.926-0.416-0.926-0.926V21.754
					c-0.006-0.127-0.046-0.326-0.232-0.326c-0.272,0-0.314,0.201-0.314,0.35v3.955c0,0.354-0.288,0.644-0.644,0.644
					s-0.644-0.289-0.644-0.644v-3.812V21.68v-0.552c0-1.157,0.884-2.105,2.014-2.207c0.036-0.005,0.077-0.01,0.121-0.01h1.817h1.813
					C103.729,18.911,103.769,18.916,103.808,18.921"/>
			</g>
			<g>
				<path fill="#FFFFFF" d="M90.329,17.492c0-0.869-0.702-1.575-1.571-1.575c-0.87,0-1.573,0.706-1.573,1.575
					c0,0.869,0.703,1.573,1.573,1.573C89.627,19.065,90.329,18.361,90.329,17.492"/>
			</g>
			<g>
				<path fill="#FFFFFF" d="M85.588,21.055l-1.308,4.257c0,0-0.232,0.779,0.429,0.975c0.659,0.196,0.859-0.565,0.859-0.565
					l1.054-3.553c0,0,0.058-0.273,0.264-0.214c0.205,0.059,0.128,0.351,0.128,0.351l-1.835,6.657h1.707v4.77
					c0,0.451,0.367,0.818,0.819,0.818s0.818-0.367,0.818-0.818v-4.77h0.234h0.231v4.77c0,0.451,0.365,0.818,0.818,0.818
					c0.454,0,0.821-0.367,0.821-0.818v-4.77h1.706l-1.834-6.657c0,0-0.077-0.292,0.128-0.351c0.206-0.06,0.264,0.214,0.264,0.214
					l1.054,3.553c0,0,0.2,0.763,0.858,0.565c0.663-0.193,0.429-0.975,0.429-0.975l-1.308-4.257c0,0-0.467-1.23-1.502-1.23h-1.666
					h-1.667C86.057,19.824,85.588,21.055,85.588,21.055"/>
			</g>
			<g>
				<path fill="#FFFFFF" d="M80.908,17.492c0-0.869-0.703-1.575-1.572-1.575s-1.573,0.706-1.573,1.575
					c0,0.869,0.704,1.573,1.573,1.573S80.908,18.361,80.908,17.492"/>
			</g>
			<g>
				<path fill="#FFFFFF" d="M76.167,21.055l-1.308,4.257c0,0-0.233,0.779,0.429,0.975c0.658,0.196,0.857-0.565,0.857-0.565
					l1.056-3.553c0,0,0.057-0.273,0.263-0.214c0.205,0.059,0.128,0.351,0.128,0.351l-1.835,6.657h1.707v4.77
					c0,0.451,0.368,0.818,0.82,0.818c0.453,0,0.818-0.367,0.818-0.818v-4.77h0.235h0.23v4.77c0,0.451,0.364,0.818,0.819,0.818
					c0.454,0,0.82-0.367,0.82-0.818v-4.77h1.706l-1.833-6.657c0,0-0.078-0.292,0.127-0.351c0.205-0.06,0.263,0.214,0.263,0.214
					l1.054,3.553c0,0,0.2,0.763,0.858,0.565c0.663-0.193,0.429-0.975,0.429-0.975l-1.308-4.257c0,0-0.466-1.23-1.501-1.23h-1.665
					h-1.669C76.635,19.824,76.167,21.055,76.167,21.055"/>
			</g>
			<g>
				<path fill="#FFFFFF" d="M95.611,26.294c0.725,0,1.31-0.586,1.31-1.31c0-0.725-0.585-1.309-1.31-1.309
					c-0.724,0-1.309,0.584-1.309,1.309C94.303,25.708,94.888,26.294,95.611,26.294"/>
			</g>
			<g>
				<path fill="#FFFFFF" d="M92.473,30.363c-0.063,0.152-0.116,0.477,0.191,0.618c0.36,0.166,0.561-0.183,0.561-0.183l0.712-2.271
					c0,0,0.123-0.151,0.123,0.005v5.344h0.004c0,0.373,0.299,0.672,0.672,0.672c0.371,0,0.671-0.299,0.671-0.672V31.77
					c0,0-0.038-0.298,0.201-0.298c0.24,0,0.204,0.298,0.204,0.298v2.108c0,0.371,0.301,0.672,0.672,0.672s0.674-0.301,0.674-0.672
					v-5.344c0-0.156,0.083-0.045,0.083-0.045l0.558,1.555c0,0,0.242,0.694,0.316,0.726c0.253,0.104,0.543-0.015,0.649-0.269
					c0.069-0.166,0.043-0.345-0.053-0.479l0.004-0.004c-0.016-0.052-0.834-2.056-0.93-2.337c-0.295-0.862-0.832-0.855-1.35-0.869
					c-0.519-0.014-0.828,0-0.828,0s-0.331-0.014-1.014,0.007c-0.683,0.021-0.898,0.371-1.65,2.308
					c-0.106,0.278-0.471,1.182-0.476,1.234L92.473,30.363z"/>
			</g>
			<g>
				<path fill="#FFFFFF" d="M66.86,16.619c0-0.918-0.745-1.662-1.662-1.662c-0.916,0-1.659,0.744-1.659,1.662
					s0.743,1.662,1.659,1.662C66.115,18.281,66.86,17.537,66.86,16.619"/>
			</g>
			<g>
				<path fill="#FFFFFF" d="M63.259,18.921c-1.127,0.102-2.012,1.05-2.012,2.207v0.552v0.241v3.812c0,0.354,0.289,0.644,0.646,0.644
					c0.355,0,0.644-0.289,0.644-0.644v-3.955c0-0.148,0.043-0.35,0.314-0.35c0.188,0,0.227,0.199,0.234,0.326v11.853
					c0,0.51,0.412,0.926,0.924,0.926c0.512,0,0.926-0.416,0.926-0.926v-6.831c0.003-0.075,0.028-0.271,0.264-0.271H65.2
					c0.235,0,0.265,0.195,0.267,0.271v6.831c0,0.51,0.412,0.926,0.924,0.926c0.513,0,0.926-0.416,0.926-0.926V21.754
					c0.006-0.127,0.048-0.326,0.233-0.326c0.272,0,0.313,0.201,0.313,0.35v3.955c0,0.354,0.289,0.644,0.645,0.644
					s0.644-0.289,0.644-0.644v-3.812V21.68v-0.552c0-1.157-0.884-2.105-2.013-2.207c-0.037-0.005-0.077-0.01-0.122-0.01H65.2h-1.813
					C63.338,18.911,63.298,18.916,63.259,18.921"/>
			</g>
			<g>
				<path fill="#FFFFFF" d="M60.335,34.285c-0.004,0-0.008,0-0.012,0c-0.035-0.008-0.059-0.041-0.053-0.078l1.476-7.816
					c0.007-0.036,0.041-0.061,0.076-0.053c0.035,0.007,0.059,0.041,0.052,0.076l-1.475,7.817
					C60.394,34.263,60.366,34.285,60.335,34.285z"/>
			</g>
			<g>
				<path fill="#FFFFFF" d="M69.938,25.609c-0.085-0.135-0.233-0.224-0.404-0.224c-0.263,0-0.477,0.214-0.477,0.476
					c0,0.076,0.047,0.21,0.047,0.21l1.319,2.388c0,0,0.081,0.166,0.081,0.315v5.129h0.003c0,0.358,0.288,0.646,0.646,0.646
					c0.355,0,0.644-0.286,0.644-0.646v-2.024c0,0-0.036-0.285,0.194-0.285s0.194,0.285,0.194,0.285v2.024
					c0,0.358,0.29,0.646,0.646,0.646c0.355,0,0.646-0.286,0.646-0.646v-5.129c0-0.149,0.08-0.315,0.08-0.315l1.221-2.205
					c0,0,0.148-0.315,0.148-0.393c0-0.262-0.213-0.476-0.477-0.476c-0.173,0-0.32,0.089-0.404,0.224l-0.005-0.003
					c-0.038,0.033-0.649,1.122-0.852,1.322c-0.213,0.216-0.403,0.192-0.403,0.192H71.99h-0.792c0,0-0.192,0.022-0.404-0.192
					c-0.204-0.2-0.813-1.289-0.852-1.322L69.938,25.609z"/>
			</g>
			<g>
				<path fill="#FFFFFF" d="M71.991,26.294c0.725,0,1.309-0.586,1.309-1.31c0-0.725-0.584-1.309-1.309-1.309
					c-0.724,0-1.309,0.584-1.309,1.309C70.683,25.708,71.268,26.294,71.991,26.294"/>
			</g>
			<g>
				<polygon fill="#FFFFFF" points="71.993,28.132 73.474,29.212 74.177,31.802 71.993,31.802 69.809,31.802 70.514,29.212 				"/>
			</g>
		</g>
	</g>
	<g>
		<g>
			<rect fill="#F1F1F1" width="55.999" height="49.998"/>
		</g>
	</g>
	<g>
		<g>
			<rect x="112.011" fill="#DDA63A" width="55.998" height="49.998"/>
		</g>
		<g>
			<g>
				<path fill="#FFFFFF" d="M133.942,38.978v0.845c-0.001,0.005-0.003,0.013-0.003,0.019c0,0.008,0.002,0.015,0.003,0.021
					c0.008,0.209,0.179,0.375,0.389,0.38c0.003,0,0.005,0.002,0.008,0.002s0.007-0.002,0.01-0.002h9.897
					c0.003,0,0.005,0.002,0.009,0.002c0.003,0,0.006-0.002,0.009-0.002c0.216-0.005,0.389-0.182,0.39-0.396
					c0-0.001,0.002-0.001,0.002-0.002c0,0-0.002-0.002-0.002-0.004v-0.954c5.572-1.826,9.746-6.343,10.664-11.847
					c0.002-0.012,0.003-0.021,0.006-0.031c0.003-0.021,0.005-0.037,0.005-0.057c0-0.221-0.179-0.399-0.4-0.399h-31.355h-0.188
					c-0.223,0-0.402,0.18-0.402,0.399l0.021,0.18C123.968,32.685,128.256,37.226,133.942,38.978"/>
			</g>
			<g>
				<path fill="#FFFFFF" d="M144.645,13.086c-0.13,0.185-3.177,4.572,0.068,8.12c1.488,1.629,1.359,3.065,0.934,4.036h2.082
					c0.422-1.434,0.248-3.23-1.442-5.077c-2.392-2.614,0.03-6.147,0.067-6.202c0.285-0.403,0.132-0.923-0.338-1.165
					C145.543,12.557,144.932,12.686,144.645,13.086"/>
			</g>
			<g>
				<path fill="#FFFFFF" d="M139.372,25.242h2.082c0.422-1.434,0.246-3.229-1.443-5.077c-2.393-2.614,0.027-6.146,0.066-6.204
					c0.283-0.401,0.133-0.921-0.34-1.163c-0.47-0.241-1.083-0.113-1.368,0.287c-0.131,0.186-3.182,4.573,0.067,8.121
					C139.925,22.835,139.796,24.271,139.372,25.242"/>
			</g>
			<g>
				<path fill="#FFFFFF" d="M132.093,13.086c-0.133,0.185-3.18,4.572,0.066,8.12c1.489,1.63,1.36,3.066,0.937,4.036h2.082
					c0.421-1.433,0.247-3.229-1.445-5.077c-2.392-2.614,0.03-6.147,0.068-6.204c0.283-0.401,0.132-0.921-0.34-1.163
					C132.991,12.555,132.378,12.685,132.093,13.086"/>
			</g>
		</g>
	</g>
	<g>
		<g>
			<rect x="168.009" fill="#4D9F46" width="55.998" height="49.996"/>
		</g>
		<g>
			<g>
				<path fill="#FFFFFF" d="M216.161,25.492c0-1.688-1.083-3.058-2.724-3.058c-0.82,0-1.81,0.898-2.348,1.451
					c-0.537-0.553-1.461-1.453-2.282-1.453c-1.641,0-2.791,1.37-2.791,3.059c0,0.844,0.333,1.608,0.871,2.161l4.205,4.215
					l4.201-4.209l-0.004-0.004C215.828,27.101,216.161,26.337,216.161,25.492"/>
			</g>
			<g>
				<path fill="#FFFFFF" d="M198.254,38.746c-0.014,0-0.028,0-0.043,0c-0.319-0.021-0.583-0.258-0.638-0.574l-2.137-12.442
					L192.2,31.73c-0.142,0.264-0.438,0.404-0.729,0.352c-0.294-0.052-0.521-0.285-0.563-0.58l-1.375-9.604l-2.513,5.646
					c-0.111,0.25-0.358,0.41-0.631,0.41h-9.771c-0.381,0-0.69-0.31-0.69-0.69c0-0.382,0.31-0.69,0.69-0.69h9.321l3.307-7.426
					c0.125-0.282,0.421-0.445,0.727-0.403c0.304,0.042,0.545,0.28,0.589,0.586l1.416,9.901l3.191-5.918
					c0.14-0.259,0.429-0.401,0.72-0.353c0.29,0.047,0.52,0.273,0.569,0.564l1.979,11.523l7.211-23.952
					c0.082-0.273,0.322-0.468,0.606-0.49c0.284-0.021,0.554,0.133,0.677,0.389l3.794,7.866c0.166,0.343,0.022,0.756-0.321,0.922
					c-0.343,0.166-0.757,0.021-0.923-0.322l-3.022-6.266l-7.545,25.063C198.827,38.548,198.557,38.746,198.254,38.746"/>
			</g>
		</g>
	</g>
	<g>
		<g>
			<rect x="224.007" fill="#C4202E" width="55.999" height="49.998"/>
		</g>
		<g>
			<g>
				<polygon fill="#FFFFFF" points="248.612,20.165 237.851,13.952 237.851,34.053 248.612,37.3 				"/>
			</g>
			<g>
				<polygon fill="#FFFFFF" points="249.796,20.206 249.796,37.307 260.627,34.05 260.627,13.952 				"/>
			</g>
			<g>
				<g>
					<path fill="#FFFFFF" d="M269.074,13.443c0-0.704-0.57-1.274-1.272-1.274c-0.704,0-1.273,0.57-1.273,1.274v1.372h2.546
						L269.074,13.443L269.074,13.443z"/>
				</g>
				<g>
					<polygon fill="#FFFFFF" points="266.845,33.696 266.528,33.696 267.802,38.146 269.073,33.696 268.757,33.696 269.073,33.696 
						269.073,15.813 268.757,15.813 268.441,15.813 268.106,15.813 267.473,15.813 267.161,15.813 266.845,15.813 266.527,15.813 
						266.527,33.696 					"/>
				</g>
				<g>
					<polygon fill="#FFFFFF" points="262.938,14.814 261.785,13.903 261.785,34.599 249.827,38.462 249.274,38.462 249.165,38.462 
						248.612,38.462 236.708,35.136 236.708,13.903 235.554,14.814 235.554,35.945 248.558,39.544 249.165,39.544 249.274,39.544 
						249.882,39.544 261.878,35.735 262.938,35.423 					"/>
				</g>
			</g>
		</g>
	</g>
	<g>
		<g>
			<rect x="280.004" fill="#EE412B" width="55.998" height="49.998"/>
		</g>
		<g>
			<path fill="#FFFFFF" d="M321.706,10.697h-7.457c-0.051,0-0.095,0.042-0.095,0.095v2.479c0,0.053,0.044,0.095,0.095,0.095h2.969
				l-3.297,3.298c-1.66-1.305-3.75-2.086-6.021-2.086c-5.385,0-9.768,4.382-9.768,9.768c0,4.959,3.715,9.062,8.507,9.684v2.854
				h-2.942c-0.054,0-0.096,0.043-0.096,0.095v2.656c0,0.053,0.042,0.095,0.096,0.095h2.942v2.811c0,0.053,0.042,0.096,0.095,0.096
				h2.654c0.053,0,0.097-0.043,0.097-0.096V39.73h2.94c0.053,0,0.095-0.042,0.095-0.095v-2.656c0-0.052-0.042-0.095-0.095-0.095
				h-2.94v-2.901c4.634-0.761,8.182-4.791,8.182-9.637c0-2.091-0.661-4.027-1.784-5.618l3.25-3.251v2.774
				c0,0.053,0.044,0.095,0.097,0.095h2.478c0.053,0,0.097-0.042,0.097-0.095v-7.458C321.803,10.739,321.759,10.697,321.706,10.697
				 M307.899,31.535c-3.965,0-7.188-3.227-7.188-7.189c0-3.965,3.224-7.189,7.188-7.189s7.189,3.225,7.189,7.189
				C315.089,28.309,311.864,31.535,307.899,31.535"/>
		</g>
		<g>
			<path fill="#FFFFFF" d="M312.29,21.394h-8.72c-0.053,0-0.095,0.039-0.095,0.085v2.111c0,0.049,0.042,0.087,0.095,0.087h8.72
				c0.055,0,0.097-0.038,0.097-0.087v-2.111C312.387,21.433,312.345,21.394,312.29,21.394"/>
		</g>
		<g>
			<path fill="#FFFFFF" d="M312.29,25.163h-8.72c-0.053,0-0.095,0.04-0.095,0.088v2.11c0,0.049,0.042,0.086,0.095,0.086h8.72
				c0.055,0,0.097-0.037,0.097-0.086v-2.11C312.387,25.203,312.345,25.163,312.29,25.163"/>
		</g>
	</g>
	<g>
		<g>
			<rect x="336.002" fill="#27BCE2" width="55.999" height="49.998"/>
		</g>
		<g>
			<path fill="#FFFFFF" d="M375.052,12.256c-0.051-0.056-0.119-0.086-0.196-0.086h-21.769c-0.075,0-0.145,0.03-0.195,0.086
				c-0.049,0.061-0.066,0.136-0.055,0.205l3.657,22.121c0.021,0.123,0.127,0.213,0.251,0.213h4.488l0.307,3.603l-1.889,0.003
				l4.396,4.395l4.405-4.403l-1.889,0.002l0.307-3.599h4.568c0.125,0,0.23-0.09,0.25-0.217l3.421-22.116
				C375.121,12.386,375.099,12.313,375.052,12.256 M366.639,29.964c0,0-0.989,1.016-2.597,0.906
				c-1.613,0.108-2.601-0.906-2.601-0.906c-1.631-1.629-1.05-3.656-0.481-4.704c0.351-0.655,2.855-4.419,3.071-4.738v-0.025
				c0,0,0.004,0.005,0.011,0.012l0.008-0.012v0.025c0.21,0.319,2.72,4.083,3.07,4.738C367.688,26.308,368.269,28.335,366.639,29.964
				 M373.544,16.909c-0.59-0.26-1.338-0.166-2.056,0.125c-2.7,1.095-4.539,1.489-7.38,0.599c-1.789-0.56-3.463-1.732-5.441-1.019
				c-1.313,0.473-2.537,0.924-4.021,0.911l-0.857-4.396h20.373L373.544,16.909z"/>
		</g>
	</g>
	<g>
		<g>
			<rect x="392.001" fill="#F9C314" width="55.998" height="49.996"/>
		</g>
		<g>
			<g>
				<path fill="#FFFFFF" d="M420.022,17.063c-4.856,0-8.793,3.938-8.793,8.794c0,4.859,3.937,8.795,8.793,8.795
					c4.855,0,8.793-3.936,8.793-8.795C428.815,21.001,424.878,17.063,420.022,17.063 M419.37,20.538
					c0-0.293,0.295-0.615,0.655-0.615s0.651,0.322,0.651,0.615v3.019c0,0.291-0.291,0.61-0.651,0.61s-0.655-0.319-0.655-0.61V20.538
					z M420.023,30.364c-2.525,0-4.574-2.048-4.574-4.573c0-2.054,1.353-3.791,3.215-4.369v1.702
					c-0.97,0.495-1.635,1.502-1.635,2.667c0,1.653,1.34,2.994,2.994,2.994s2.994-1.341,2.994-2.994c0-1.167-0.669-2.177-1.643-2.67
					v-1.701c1.866,0.576,3.223,2.315,3.223,4.372C424.598,28.316,422.55,30.364,420.023,30.364"/>
			</g>
			<g>
				<path fill="#FFFFFF" d="M409.928,25.78c0-0.398-0.354-0.722-0.676-0.722H405.4c-0.325,0-0.681,0.323-0.681,0.722
					c0,0.4,0.355,0.726,0.681,0.726h3.852C409.574,26.505,409.928,26.181,409.928,25.78"/>
			</g>
			<g>
				<path fill="#FFFFFF" d="M435.328,25.78c0-0.398-0.354-0.722-0.676-0.722h-3.852c-0.324,0-0.681,0.323-0.681,0.722
					c0,0.4,0.355,0.726,0.681,0.726h3.852C434.976,26.505,435.328,26.181,435.328,25.78"/>
			</g>
			<g>
				<path fill="#FFFFFF" d="M420.025,15.686c0.398,0,0.722-0.354,0.722-0.675v-3.853c0-0.324-0.323-0.681-0.722-0.681
					s-0.725,0.356-0.725,0.681v3.853C419.301,15.332,419.626,15.686,420.025,15.686"/>
			</g>
			<g>
				<path fill="#FFFFFF" d="M420.025,41.085c0.398,0,0.722-0.354,0.722-0.676v-3.85c0-0.324-0.323-0.682-0.722-0.682
					s-0.725,0.356-0.725,0.682v3.852C419.301,40.732,419.626,41.085,420.025,41.085"/>
			</g>
			<g>
				<path fill="#FFFFFF" d="M411.262,20.766c0.198-0.346,0.052-0.802-0.228-0.962l-3.343-1.913
					c-0.281-0.161-0.751-0.058-0.949,0.288c-0.198,0.347-0.051,0.806,0.231,0.968l3.342,1.912
					C410.595,21.219,411.063,21.112,411.262,20.766"/>
			</g>
			<g>
				<path fill="#FFFFFF" d="M433.308,33.382c0.197-0.346,0.053-0.801-0.229-0.961l-3.342-1.914c-0.282-0.16-0.752-0.057-0.949,0.289
					c-0.199,0.347-0.051,0.807,0.229,0.968l3.344,1.912C432.642,33.835,433.108,33.729,433.308,33.382"/>
			</g>
			<g>
				<path fill="#FFFFFF" d="M425.04,17.021c0.347,0.197,0.802,0.051,0.963-0.229l1.912-3.342c0.162-0.282,0.059-0.752-0.288-0.95
					s-0.806-0.051-0.967,0.231l-1.913,3.342C424.587,16.354,424.692,16.821,425.04,17.021"/>
			</g>
			<g>
				<path fill="#FFFFFF" d="M412.424,39.065c0.345,0.198,0.801,0.052,0.962-0.229l1.912-3.342c0.161-0.281,0.058-0.752-0.288-0.949
					c-0.347-0.198-0.807-0.051-0.967,0.23l-1.913,3.344C411.97,38.398,412.076,38.867,412.424,39.065"/>
			</g>
			<g>
				<path fill="#FFFFFF" d="M414.991,17.028c0.346-0.198,0.451-0.665,0.289-0.945l-1.919-3.339
					c-0.163-0.281-0.619-0.429-0.966-0.229c-0.347,0.198-0.45,0.67-0.287,0.951l1.919,3.338
					C414.188,17.083,414.645,17.228,414.991,17.028"/>
			</g>
			<g>
				<path fill="#FFFFFF" d="M427.654,39.048c0.346-0.198,0.448-0.666,0.289-0.944l-1.92-3.339c-0.162-0.282-0.62-0.43-0.966-0.23
					c-0.347,0.198-0.45,0.67-0.288,0.951l1.92,3.34C426.851,39.104,427.308,39.248,427.654,39.048"/>
			</g>
			<g>
				<path fill="#FFFFFF" d="M428.777,20.75c0.197,0.345,0.666,0.449,0.944,0.289l3.338-1.92c0.282-0.162,0.432-0.62,0.231-0.965
					c-0.199-0.347-0.67-0.451-0.951-0.289l-3.339,1.92C428.723,19.945,428.578,20.403,428.777,20.75"/>
			</g>
			<g>
				<path fill="#FFFFFF" d="M406.758,33.414c0.198,0.344,0.665,0.448,0.945,0.287l3.338-1.92c0.282-0.162,0.431-0.619,0.23-0.965
					c-0.198-0.347-0.67-0.45-0.95-0.289l-3.339,1.92C406.702,32.607,406.559,33.065,406.758,33.414"/>
			</g>
		</g>
	</g>
	<g>
		<g>
			<rect x="447.999" fill="#A11C43" width="55.998" height="49.996"/>
		</g>
		<g>
			<g>
				<path fill="#FFFFFF" d="M487.383,17.513l-6.099,5.801c-0.23,0.229-0.349,0.398-0.349,0.872v16.26
					c0,0.19,0.155,0.347,0.349,0.347h6.3c0.192,0,0.347-0.155,0.347-0.347V17.658C487.931,17.467,487.781,17.116,487.383,17.513"/>
			</g>
			<g>
				<path fill="#FFFFFF" d="M469.813,25.07l-6.1,5.803c-0.229,0.229-0.348,0.396-0.348,0.869v8.703c0,0.189,0.156,0.346,0.348,0.346
					h6.301c0.191,0,0.348-0.155,0.348-0.346V25.217C470.361,25.024,470.21,24.673,469.813,25.07"/>
			</g>
			<g>
				<path fill="#FFFFFF" d="M490.155,10.477c0.002-0.046-0.016-0.096-0.054-0.132c-0.03-0.031-0.071-0.046-0.11-0.049l-0.034,0.002
					l-0.05,0.002l-4.67,1.054l-0.085,0.009c-0.033,0.007-0.065,0.023-0.092,0.048c-0.068,0.069-0.068,0.182,0,0.251l0.054,0.053
					l1.065,1.066l-10.582,10.582l-4.887-4.888c-0.055-0.056-0.144-0.056-0.199,0l-1.326,1.326c-0.001,0-0.001,0.002-0.001,0.002
					l-7.834,7.833c-0.054,0.055-0.054,0.145,0,0.199l1.328,1.326c0.055,0.055,0.144,0.055,0.197,0l7.736-7.734l3.547,3.547
					c0.003,0.005,0.005,0.012,0.011,0.017l1.327,1.324c0.055,0.058,0.143,0.058,0.199,0l12.009-12.009l1.12,1.119
					c0.067,0.07,0.181,0.07,0.249,0c0.032-0.032,0.049-0.072,0.051-0.114l0.001-0.016l1.025-4.767L490.155,10.477z"/>
			</g>
			<g>
				<path fill="#FFFFFF" d="M478.633,26.089l-2.95,2.975c-0.057,0.047-0.139,0.045-0.189-0.007l-2.674-2.726
					c-0.489-0.487-0.596-0.093-0.596,0.1v14.014c0,0.19,0.153,0.348,0.346,0.348h6.302c0.189,0,0.347-0.156,0.347-0.348V26.199
					C479.217,26.007,479.065,25.655,478.633,26.089"/>
			</g>
		</g>
	</g>
	<g>
		<g>
			<rect x="503.997" fill="#F16A2B" width="56" height="49.996"/>
		</g>
		<g>
			<path fill="#FFFFFF" d="M547.325,27.431l-7.133-4.116V15.08c0-0.174-0.094-0.335-0.244-0.421l-7.373-4.258
				c-0.152-0.087-0.336-0.087-0.486,0l-7.375,4.258c-0.152,0.086-0.244,0.247-0.244,0.421v8.235l-7.131,4.116
				c-0.15,0.087-0.244,0.247-0.244,0.421v8.519c0,0.174,0.094,0.334,0.244,0.42l7.375,4.258c0.074,0.043,0.158,0.064,0.242,0.064
				s0.168-0.021,0.244-0.064l7.131-4.116l7.131,4.116c0.074,0.043,0.16,0.064,0.244,0.064s0.168-0.021,0.242-0.064l7.377-4.258
				c0.148-0.086,0.242-0.246,0.242-0.42v-8.519C547.567,27.678,547.475,27.518,547.325,27.431 M531.844,35.526l-5.916-3.416
				l5.916-3.415V35.526z M538.731,23.595l-5.914,3.415v-6.831L538.731,23.595z M531.844,27.01l-5.916-3.415l5.916-3.416V27.01z
				 M533.303,27.853l6.402-3.695l6.402,3.694l-6.402,3.696L533.303,27.853z M539.219,22.752l-5.916-3.416l5.916-3.414V22.752z
				 M531.358,19.336l-5.916,3.416v-6.83L531.358,19.336z M524.469,39.783l-6.4-3.695v-7.393l6.4,3.696V39.783z M525.442,39.783
				v-6.83l5.916,3.416L525.442,39.783z M546.594,36.087l-6.402,3.695v-7.392l6.402-3.696V36.087z"/>
		</g>
	</g>
	<g>
		<g>
			<rect x="559.997" fill="#DD1768" width="55.998" height="49.998"/>
		</g>
		<g>
			<g>
				<path fill="#FFFFFF" d="M594.19,27.63h-11.994c-0.072,0-0.129,0.059-0.129,0.13v2.718c0,0.073,0.057,0.131,0.129,0.131h11.994
					c0.072,0,0.131-0.058,0.131-0.131V27.76C594.321,27.688,594.264,27.63,594.19,27.63"/>
			</g>
			<g>
				<path fill="#FFFFFF" d="M594.321,22.65c0-0.072-0.059-0.131-0.131-0.131h-9.943h-2.051c-0.072,0-0.129,0.059-0.129,0.131v1.07
					v1.647c0,0.072,0.057,0.131,0.129,0.131h11.994c0.072,0,0.131-0.059,0.131-0.131V22.65z"/>
			</g>
			<g>
				<path fill="#FFFFFF" d="M601.26,23.714c-0.49-1.977-1.387-3.743-2.57-5.246l-0.025,0.021c0.385,0.573,0.729,1.18,1.023,1.82
					c1.557,2.854,2.031,6.296,1.051,9.663c-1.969,6.755-9.041,10.634-15.795,8.664c-2.84-0.828-5.168-2.561-6.771-4.79
					c-1.002-1.288-1.758-2.798-2.178-4.479c-1.604-6.445,2.32-12.971,8.768-14.573c3.986-0.992,7.996,0.139,10.859,2.666
					c0.025,0.022,0.051,0.046,0.078,0.068c0.076,0.059,0.168,0.1,0.271,0.1c0.115,0,0.219-0.047,0.301-0.117l0.049-0.047
					l1.525-1.508l0.102-0.099c0.057-0.077,0.096-0.169,0.096-0.271c0-0.12-0.047-0.227-0.121-0.31
					c-0.018-0.015-0.033-0.028-0.049-0.043c-3.523-3.147-8.484-4.562-13.416-3.335c-7.918,1.97-12.738,9.986-10.768,17.903
					c0.824,3.317,2.715,6.088,5.211,8.047c2.486,2.038,5.654,3.196,8.973,3.161c1.068-0.012,2.15-0.143,3.232-0.411
					C598.573,38.74,603.12,31.181,601.26,23.714"/>
			</g>
		</g>
	</g>
	<g>
		<g>
			<rect x="615.995" fill="#F89C28" width="55.998" height="49.998"/>
		</g>
		<g>
			<g>
				<path fill="#FFFFFF" d="M624.315,33.673h0.092h8.934c0.123,0,0.223-0.1,0.223-0.223c0-0.056-0.023-0.106-0.059-0.146
					l-0.014-0.013L629,27.481l-0.043-0.048c-0.041-0.044-0.1-0.072-0.164-0.072c-0.055,0-0.104,0.023-0.145,0.059l-0.027,0.031
					l-0.043,0.047l-4.381,5.748l-0.066,0.082c-0.023,0.034-0.039,0.078-0.039,0.123C624.092,33.574,624.192,33.673,624.315,33.673"
					/>
			</g>
			<g>
				<path fill="#FFFFFF" d="M633.313,34.494h-9.043c-0.123,0-0.223,0.1-0.223,0.221v7.076c0,0.123,0.1,0.224,0.223,0.224h2.91
					v-4.452c0-0.123,0.1-0.223,0.223-0.223h2.701c0.121,0,0.221,0.1,0.221,0.223v4.452h2.988c0.121,0,0.221-0.101,0.221-0.224
					v-7.076C633.534,34.593,633.436,34.494,633.313,34.494"/>
			</g>
			<g>
				<path fill="#FFFFFF" d="M664.569,32.641h-8.951c-0.121,0-0.219,0.094-0.219,0.213v9.038c0,0.117,0.098,0.212,0.219,0.212h8.951
					c0.121,0,0.219-0.095,0.219-0.212v-9.038C664.788,32.734,664.69,32.641,664.569,32.641 M659.67,38.541
					c0,0.119-0.098,0.215-0.219,0.215h-2.674c-0.121,0-0.221-0.096-0.221-0.215v-1.625c0-0.117,0.1-0.213,0.221-0.213h2.674
					c0.121,0,0.219,0.096,0.219,0.213V38.541z M659.67,35.537c0,0.118-0.098,0.215-0.219,0.215h-2.674
					c-0.121,0-0.221-0.097-0.221-0.215v-1.625c0-0.117,0.1-0.214,0.221-0.214h2.674c0.121,0,0.219,0.097,0.219,0.214V35.537z
					 M663.758,38.541c0,0.119-0.098,0.215-0.219,0.215h-2.674c-0.123,0-0.221-0.096-0.221-0.215v-1.625
					c0-0.117,0.098-0.213,0.221-0.213h2.674c0.121,0,0.219,0.096,0.219,0.213V38.541z M663.758,35.537
					c0,0.118-0.098,0.215-0.219,0.215h-2.674c-0.123,0-0.221-0.097-0.221-0.215v-1.625c0-0.117,0.098-0.214,0.221-0.214h2.674
					c0.121,0,0.219,0.097,0.219,0.214V35.537z"/>
			</g>
			<g>
				<path fill="#FFFFFF" d="M643.762,11.66h-8.76c-0.117,0-0.215,0.096-0.215,0.216v29.936c0,0.117,0.098,0.214,0.215,0.214h8.76
					c0.117,0,0.217-0.097,0.217-0.214V11.876C643.979,11.756,643.879,11.66,643.762,11.66 M638.551,38.615
					c0,0.063-0.053,0.114-0.113,0.114h-2.008c-0.063,0-0.113-0.051-0.113-0.114V36.38c0-0.063,0.051-0.114,0.113-0.114h2.008
					c0.063,0,0.113,0.051,0.113,0.114V38.615z M638.551,33.481c0,0.065-0.053,0.115-0.113,0.115h-2.008
					c-0.063,0-0.113-0.05-0.113-0.115v-2.233c0-0.064,0.051-0.115,0.113-0.115h2.008c0.063,0,0.113,0.051,0.113,0.115V33.481z
					 M638.551,28.35c0,0.063-0.053,0.114-0.113,0.114h-2.008c-0.063,0-0.113-0.051-0.113-0.114v-2.235
					c0-0.063,0.051-0.115,0.113-0.115h2.008c0.063,0,0.113,0.052,0.113,0.115V28.35z M638.551,23.217
					c0,0.063-0.053,0.114-0.113,0.114h-2.008c-0.063,0-0.113-0.051-0.113-0.114V20.98c0-0.063,0.051-0.113,0.113-0.113h2.008
					c0.063,0,0.113,0.051,0.113,0.113V23.217z M638.551,18.084c0,0.063-0.053,0.115-0.113,0.115h-2.008
					c-0.063,0-0.113-0.053-0.113-0.115v-2.235c0-0.064,0.051-0.115,0.113-0.115h2.008c0.063,0,0.113,0.051,0.113,0.115V18.084z
					 M642.485,38.615c0,0.063-0.053,0.114-0.115,0.114h-2.006c-0.064,0-0.115-0.051-0.115-0.114V36.38
					c0-0.063,0.051-0.114,0.115-0.114h2.006c0.063,0,0.115,0.051,0.115,0.114V38.615z M642.485,33.481
					c0,0.065-0.053,0.115-0.115,0.115h-2.006c-0.064,0-0.115-0.05-0.115-0.115v-2.233c0-0.064,0.051-0.115,0.115-0.115h2.006
					c0.063,0,0.115,0.051,0.115,0.115V33.481z M642.485,28.35c0,0.063-0.053,0.114-0.115,0.114h-2.006
					c-0.064,0-0.115-0.051-0.115-0.114v-2.235c0-0.063,0.051-0.115,0.115-0.115h2.006c0.063,0,0.115,0.052,0.115,0.115V28.35z
					 M642.485,23.217c0,0.063-0.053,0.114-0.115,0.114h-2.006c-0.064,0-0.115-0.051-0.115-0.114V20.98
					c0-0.063,0.051-0.113,0.115-0.113h2.006c0.063,0,0.115,0.051,0.115,0.113V23.217z M642.485,18.084
					c0,0.063-0.053,0.115-0.115,0.115h-2.006c-0.064,0-0.115-0.053-0.115-0.115v-2.235c0-0.064,0.051-0.115,0.115-0.115h2.006
					c0.063,0,0.115,0.051,0.115,0.115V18.084z"/>
			</g>
			<g>
				<path fill="#FFFFFF" d="M664.778,31.73c0,0.102-0.08,0.182-0.182,0.182h-9.008c-0.1,0-0.18-0.08-0.18-0.182v-1.8
					c0-0.101,0.08-0.181,0.18-0.181h9.008c0.102,0,0.182,0.08,0.182,0.181V31.73z"/>
			</g>
			<g>
				<path fill="#FFFFFF" d="M654.342,17.314c-0.027-0.097-0.115-0.168-0.221-0.168c-0.047,0-0.088,0.018-0.125,0.041
					c-0.004,0.005-0.01,0.007-0.016,0.011l-0.074,0.094l-8.609,10.92l-0.039,0.054c-0.045,0.044-0.072,0.104-0.074,0.171v0.016
					v13.404c0,0.118,0.096,0.213,0.215,0.213h8.75c0.119,0,0.215-0.095,0.215-0.213V17.403
					C654.362,17.371,654.354,17.341,654.342,17.314 M650.717,23.244l0.063-0.076c0.59-0.756,1.582-1.979,2.064-2.572l0.064-0.075
					c0.045-0.056,0.115-0.092,0.191-0.092c0.119,0,0.217,0.087,0.238,0.201v0.097v0.078v2.588c0,0.134-0.104,0.24-0.236,0.246
					c-0.006,0-0.008,0.002-0.012,0.002s-0.008-0.002-0.012-0.002h-2.043h-0.107c-0.004,0-0.008,0.002-0.012,0.002
					s-0.006-0.002-0.01-0.002c-0.133-0.006-0.238-0.112-0.238-0.246C650.668,23.337,650.688,23.286,650.717,23.244 M649.356,38.539
					c0,0.119-0.096,0.215-0.215,0.215h-2.611c-0.117,0-0.213-0.096-0.213-0.215v-1.634c0-0.118,0.096-0.214,0.213-0.214h2.611
					c0.119,0,0.215,0.096,0.215,0.214V38.539z M649.356,35.521c0,0.118-0.096,0.214-0.215,0.214h-2.611
					c-0.117,0-0.213-0.096-0.213-0.214v-1.635c0-0.119,0.096-0.215,0.213-0.215h2.611c0.119,0,0.215,0.096,0.215,0.215V35.521z
					 M649.356,32.501c0,0.117-0.096,0.213-0.215,0.213h-2.611c-0.117,0-0.213-0.096-0.213-0.213v-1.637
					c0-0.117,0.096-0.214,0.213-0.214h2.611c0.119,0,0.215,0.097,0.215,0.214V32.501z M649.362,25.884v0.078v3.521
					c0,0.119-0.098,0.215-0.213,0.215h-2.611c-0.119,0-0.215-0.096-0.215-0.215v-0.435V29.03c0.002-0.028,0.006-0.057,0.016-0.079
					c0.006-0.011,0.006-0.014,0.014-0.025c0.006-0.01,0.014-0.021,0.021-0.028c0.006-0.011,0.016-0.022,0.023-0.035
					c0.334-0.479,1.84-2.333,2.473-3.108l0.063-0.075c0.047-0.056,0.113-0.091,0.191-0.091c0.121,0,0.217,0.086,0.238,0.199V25.884z
					 M653.346,38.539c0,0.119-0.098,0.215-0.215,0.215h-2.607c-0.119,0-0.217-0.096-0.217-0.215v-1.634
					c0-0.118,0.098-0.214,0.217-0.214h2.607c0.117,0,0.215,0.096,0.215,0.214V38.539z M653.346,35.521
					c0,0.118-0.098,0.214-0.215,0.214h-2.607c-0.119,0-0.217-0.096-0.217-0.214v-1.635c0-0.119,0.098-0.215,0.217-0.215h2.607
					c0.117,0,0.215,0.096,0.215,0.215V35.521z M653.346,32.501c0,0.117-0.098,0.213-0.215,0.213h-2.607
					c-0.119,0-0.217-0.096-0.217-0.213v-1.637c0-0.117,0.098-0.214,0.217-0.214h2.607c0.117,0,0.215,0.097,0.215,0.214V32.501z
					 M653.346,29.48c0,0.118-0.098,0.214-0.215,0.214h-2.607c-0.119,0-0.217-0.096-0.217-0.214v-1.634
					c0-0.119,0.098-0.214,0.217-0.214h2.607c0.117,0,0.215,0.095,0.215,0.214V29.48z M653.346,26.46
					c0,0.119-0.098,0.215-0.215,0.215h-2.607c-0.119,0-0.217-0.096-0.217-0.215v-1.634c0-0.119,0.098-0.215,0.217-0.215h2.607
					c0.117,0,0.215,0.096,0.215,0.215V26.46z"/>
			</g>
		</g>
	</g>
	<g>
		<g>
			<rect x="671.993" fill="#BE8B2C" width="55.998" height="50"/>
		</g>
		<g>
			<path fill="#FFFFFF" d="M716.424,20.136c-2.447-1.932-5.381-2.141-6.527-2.141c-0.605,0-1.166,0.054-1.576,0.151l-0.162,0.038
				c-1.549,0.365-4.145,0.979-7.162,4.726l-0.088,0.11c-0.051,0.071-0.076,0.147-0.076,0.227c0,0.068,0.016,0.135,0.053,0.199
				l0.068,0.112c0.498,0.833,0.914,1.558,1.242,2.173c0.117,0.228,0.432,0.302,0.645,0.09c0.021-0.026,0.043-0.057,0.057-0.079
				c2.607-3.606,4.652-4.088,6.006-4.406l0.168-0.039c0.186-0.046,0.486-0.071,0.828-0.071c0.629,0,2.813,0.104,4.52,1.451
				c1.518,1.197,2.287,3.109,2.287,5.686c0,4.314-2.088,5.998-3.84,6.65c-0.668,0.249-1.391,0.376-2.143,0.376
				c-1.803,0-3.191-0.722-3.211-0.731l-0.125-0.061c-1.506-0.654-3.756-2.02-5.883-6.289c-4.359-8.757-8.021-9.587-10.447-10.136
				l-0.127-0.028c-0.186-0.042-0.711-0.141-1.563-0.141c-1.404,0-4.105,0.276-6.422,2.124c-1.58,1.261-3.465,3.711-3.465,8.217
				c0,2.747,0.564,4.561,2.016,6.468c0.271,0.372,2.799,3.635,7.65,3.635c0.719,0,1.465-0.072,2.215-0.217
				c0.885-0.17,2.252-0.607,3.777-1.727l1.275,1.149c0.143,0.13,0.391,0.117,0.518-0.024c0.064-0.064,0.098-0.153,0.094-0.241
				l0.984-6.076l0.002-0.071c-0.002-0.104-0.047-0.201-0.117-0.265c-0.066-0.062-0.148-0.095-0.258-0.095h-0.002l-5.916,1.636
				l-0.111,0.019c-0.076,0.018-0.143,0.055-0.189,0.109c-0.066,0.072-0.102,0.168-0.096,0.268c0.006,0.099,0.049,0.188,0.121,0.252
				l1.227,1.109c-0.646,0.395-1.289,0.656-1.916,0.777c-0.533,0.103-1.063,0.152-1.568,0.152c-3.354,0-5.002-2.199-5.07-2.293
				l-0.031-0.045c-1.021-1.34-1.365-2.479-1.365-4.521c0-2.583,0.758-4.497,2.246-5.688c1.66-1.324,3.795-1.427,4.41-1.427
				c0.336,0,0.643,0.025,0.838,0.07l0.131,0.029c1.938,0.438,4.588,1.038,8.264,8.421c1.939,3.896,4.375,6.445,7.434,7.789
				c0.357,0.183,2.254,1.088,4.688,1.088c1.137,0,2.234-0.195,3.271-0.58c1.787-0.668,5.943-2.946,5.943-9.686
				C719.942,23.858,718.03,21.403,716.424,20.136"/>
		</g>
	</g>
	<g>
		<g>
			<rect x="727.991" fill="#417F44" width="55.998" height="50"/>
		</g>
		<g>
			<path fill="#FFFFFF" d="M778.461,25.559c-1.58-2.218-8.73-11.07-22.021-11.07c-13.295,0-20.443,8.853-22.027,11.07
				c-0.066,0.095-0.125,0.177-0.172,0.246c0.047,0.071,0.105,0.153,0.172,0.249c1.584,2.217,8.732,11.07,22.027,11.07
				c13.291,0,20.441-8.854,22.021-11.07c0.07-0.096,0.127-0.178,0.172-0.249C778.588,25.735,778.532,25.653,778.461,25.559
				 M749.024,20.086c0.119-0.176,0.518-0.678,0.564-0.741c0.104-0.132,0.307-0.158,0.449-0.184c0.141-0.027,0.328,0.052,0.352,0.158
				s-0.055,0.518-0.125,0.588c-0.193,0.203-0.701,0.488-0.98,0.443C749.067,20.317,748.983,20.15,749.024,20.086 M748.547,21.03
				c0.021-0.024,0.041-0.045,0.049-0.056c0.168-0.19,0.5-0.231,0.73-0.267c0.23-0.04,0.537,0.076,0.574,0.229
				c0.041,0.152-0.576,0.432-0.689,0.536c-0.32,0.295-0.82,0.895-1.113,0.959c-0.096,0.021-0.176,0.008-0.238-0.024
				C748.051,21.929,748.282,21.467,748.547,21.03 M753.524,31.236c-0.182,0.708-0.391,0.963-0.57,1.188
				c-0.178,0.226-0.842,0.514-1.262,0.482c-0.422-0.031-0.48-1.156-0.48-1.734c0-0.198-0.283,0.394-0.43-0.811
				c-0.094-0.771-0.588,0.08-0.623-0.434s-0.283-0.41-0.543-0.73c-0.258-0.32-0.58,0.031-0.941,0.193
				c-0.357,0.158-0.211,0.242-0.721,0.083c-0.014-0.004-0.021-0.009-0.033-0.013c-0.469-1.107-0.729-2.326-0.729-3.604
				c0-0.313,0.018-0.62,0.047-0.924c0.018-0.031,0.035-0.061,0.057-0.087c0.49-0.579,0.48-0.715,0.48-0.715l0.541-0.188
				c0,0,0.865,0.134,1.518,0.379c0.537,0.201,1.383,0.656,1.873,0.456c0.355-0.146,0.635-0.341,0.602-0.637
				c-0.041-0.371-0.332-0.46-0.688-0.209c-0.131,0.092-0.408-0.561-0.627-0.526c-0.219,0.032,0.271,0.766,0.086,0.796
				c-0.186,0.032-0.559-0.764-0.623-0.893c-0.063-0.128-0.352-0.447-0.607-0.204c-0.547,0.519-1.436,0.487-1.611,0.621
				c-0.543,0.405-0.688-0.134-0.674-0.462c0.021-0.075,0.043-0.151,0.066-0.226c0.178-0.195,0.813-0.26,1.031-0.114
				c0.24,0.16,0.412-0.041,0.504-0.138c0.098-0.095,0.063-0.249,0.002-0.377c-0.061-0.129,0.121-0.223,0.244-0.256
				c0.125-0.033,0.537-0.322,0.703-0.419c0.166-0.095,1.02-0.199,1.404-0.007c0.385,0.193,0.736,0.035,0.926-0.187
				c0.236-0.281,0.537-0.495,0.672-0.56c0.133-0.063-0.332-0.497-0.713-0.023c-0.383,0.47-0.578,0.514-0.758,0.514
				c-0.182,0-1.248-0.267-1.381-0.604c-0.131-0.338,0.334-0.591,0.729-0.782c0.395-0.188,1.473-0.185,1.748-0.247
				c0.563-0.123,1.279-0.405,1.641-0.159c0.359,0.241-1.508,0.667-0.895,0.999c0.219,0.12,1.207-0.568,1.545-0.745
				c0.797-0.41-0.771-0.546-0.568-1.381c0.23-0.944-1.924-0.579-2.998-0.498c1.439-0.924,3.15-1.46,4.986-1.46
				c4.369,0,8.029,3.026,9.004,7.096c0.008,0.202-0.023,0.347-0.045,0.429c-0.084,0.334-0.717,0.621-1.084,0.083
				c-0.094-0.135-0.492-0.51-0.479,0.132s0.625,0.707,0.031,1.093c-0.59,0.385-0.697,0.292-0.973,0.389
				c-0.271,0.097-0.537,0.758-0.473,1.111s0.91,1.319,0.283,1.278c-0.146-0.011-1.252-0.767-1.436-1.252
				c-0.191-0.512-0.404-1.013-0.553-1.397c-0.152-0.385-0.541-0.483-0.873-0.257c-0.328,0.226,0.092,0.452-0.145,0.934
				c-0.236,0.48-0.406,0.911-0.754,0.514c-0.904-1.035-2.217-0.524-2.424-1.678c-0.109-0.625-0.648-0.564-1.098-0.919
				c-0.453-0.352-0.705-0.543-0.781-0.288c-0.066,0.224,1.416,1.399,1.521,1.7c0.158,0.446-0.443,0.841-0.885,0.946
				c-0.438,0.105-0.631-0.246-1.063-0.695c-0.43-0.448-0.619-0.77-0.648-0.417c-0.043,0.51,0.408,1.258,0.85,1.537
				c0.375,0.237,0.795,0.346,0.674,0.729c-0.123,0.387-0.002,0.168-0.422,0.584c-0.422,0.416-0.502,0.551-0.473,1.127
				c0.031,0.578-0.117,0.611-0.209,1.092C753.915,30.947,753.706,30.531,753.524,31.236 M763.458,27.544
				c0.311-0.025,0.779,0.406,0.596,0.572c-0.182,0.162-0.648,0.104-0.883-0.08C762.938,27.855,763.317,27.556,763.458,27.544
				 M763.063,27.259c-0.1-0.037-0.188-0.133-0.264-0.358c-0.076-0.228,0.115-0.356,0.303-0.267c0.189,0.097,0.438,0.381,0.438,0.531
				C763.54,27.317,763.167,27.298,763.063,27.259 M758.977,27.244c-0.184,0.162-0.65,0.104-0.887-0.08
				c-0.23-0.182,0.148-0.481,0.287-0.492C758.69,26.644,759.159,27.078,758.977,27.244 M755.196,29.082
				c-0.129,0.209-0.479,1.767-0.711,1.584c-0.234-0.182,0.096-1.807,0.162-1.93C755.014,28.065,755.805,28.099,755.196,29.082
				 M756.454,35.117c-0.904,0-1.777-0.132-2.604-0.373c-0.117-0.097-0.186-0.258-0.111-0.451c0.287-0.748,1.141-1.041,1.813-1.104
				c1.502-0.146,3.477,0.976,3.789,0.794c0.314-0.181,0.951-1.006,1.881-0.972c0.637,0.024,0.631,0.131,0.846,0.212
				C760.51,34.41,758.565,35.117,756.454,35.117 M762.985,32.421c-0.094-0.025-0.189-0.055-0.291-0.106
				c-0.506-0.258-0.445,0.154-0.693,0.063c-0.25-0.094,0.281-0.67-0.467-0.184c-0.742,0.487-0.541-0.074-0.867-0.898
				s0.373-1.766,0.959-1.979c0.805-0.291,1.305-0.352,1.682-0.443c1.111-0.276,1.348-0.938,1.551-0.535
				c0.037,0.074,0.072,0.146,0.107,0.215c0.064,0.119,0.141,0.361,0.145,0.603C764.635,30.393,763.907,31.505,762.985,32.421
				 M765.522,27.748c-0.248-0.068-1.289-1.506-0.467-2.452c0.137-0.155-0.275-0.613-0.164-0.623
				c0.449-0.034,0.689,0.245,0.809,0.647c0.008,0.177,0.016,0.355,0.016,0.536C765.715,26.503,765.647,27.137,765.522,27.748"/>
		</g>
	</g>
	<g>
		<g>
			<rect x="839.987" fill="#5BB947" width="56" height="49.998"/>
		</g>
		<g>
			<g>
				<path fill="#FFFFFF" d="M862.834,28.563c0.072,0,0.131,0.06,0.131,0.132v4.369c0,0.074-0.059,0.133-0.131,0.133h-1.77
					c-0.074,0-0.133-0.059-0.133-0.133v-4.369c0-0.072,0.059-0.132,0.133-0.132H862.834z"/>
			</g>
			<g>
				<path fill="#FFFFFF" d="M882.25,35.073h-29.137c-0.074,0-0.133,0.063-0.133,0.138v1.781c0,0.071,0.059,0.131,0.133,0.131h29.137
					c0.07,0,0.133-0.06,0.133-0.131V35.21C882.383,35.137,882.321,35.073,882.25,35.073"/>
			</g>
			<g>
				<path fill="#FFFFFF" d="M882.25,38.613h-29.137c-0.074,0-0.133,0.059-0.133,0.131v1.786c0,0.072,0.059,0.132,0.133,0.132h29.137
					c0.07,0,0.133-0.06,0.133-0.132v-1.786C882.383,38.671,882.321,38.613,882.25,38.613"/>
			</g>
			<g>
				<path fill="#FFFFFF" d="M876.706,23.727c-0.365-0.285-1.336-0.95-2.521-0.95c-0.846,0-1.635,0.334-2.34,0.995
					c-0.049,0.047-0.078,0.112-0.078,0.183v0.158c0,0.078,0.027,0.152,0.084,0.199c0.063,0.048,0.129,0.066,0.205,0.048
					c0.018-0.002,0.037-0.008,0.055-0.014c0.055-0.019,0.104-0.051,0.146-0.093c0.152-0.103,0.57-0.242,1.166-0.242
					c0.619,0,1.83,0.165,3.002,1.258l0.027,0.024c0.066,0.067,0.158,0.105,0.254,0.105c0.092,0,0.188-0.038,0.246-0.104l0.023-0.024
					c1.18-1.095,2.391-1.26,3.008-1.26c0.6,0,1.016,0.14,1.17,0.242c0.041,0.042,0.094,0.075,0.16,0.099
					c0.025,0.008,0.1,0.023,0.172,0.006c0.105-0.03,0.184-0.128,0.184-0.24v-0.141c0-0.066-0.029-0.134-0.078-0.18
					c-0.713-0.679-1.51-1.021-2.369-1.021C878.047,22.775,877.081,23.43,876.706,23.727"/>
			</g>
			<g>
				<path fill="#FFFFFF" d="M874.897,12.114c-0.063,0.028-0.105,0.085-0.127,0.153l-0.029,0.097
					c-0.021,0.076-0.008,0.157,0.039,0.219c0.045,0.06,0.107,0.096,0.18,0.099c0.014,0.001,0.027,0.005,0.037,0.001
					c0.049-0.001,0.096-0.013,0.141-0.035c0.025-0.006,0.078-0.021,0.178-0.021c0.129,0,1.305,0.04,2.082,1.359l0.01,0.02
					c0.041,0.076,0.105,0.129,0.186,0.149c0.023,0.007,0.066,0.014,0.092,0.014c0.055,0,0.109-0.014,0.148-0.036l0.02-0.009
					c0.426-0.213,0.865-0.322,1.301-0.322c0.734,0,1.215,0.301,1.328,0.426c0.021,0.042,0.057,0.08,0.098,0.108
					c0.023,0.015,0.068,0.037,0.094,0.046c0.014,0.003,0.029,0.005,0.043,0.006c0.008,0.002,0.02,0.002,0.027,0.002
					c0.039,0,0.078-0.01,0.115-0.029c0.059-0.03,0.104-0.084,0.123-0.149l0.023-0.086c0.008-0.021,0.01-0.045,0.01-0.07
					c0-0.046-0.012-0.09-0.033-0.125c-0.564-0.983-1.387-1.188-1.977-1.188c-0.438,0-0.822,0.114-1.049,0.197
					c-0.266-0.359-0.941-1.102-1.965-1.102C875.629,11.837,875.264,11.93,874.897,12.114"/>
			</g>
			<g>
				<path fill="#FFFFFF" d="M868.741,16.597l0.008,0.131c0.004,0.082,0.047,0.152,0.117,0.196c0.057,0.036,0.131,0.049,0.195,0.029
					c0.016-0.003,0.029-0.008,0.043-0.013c0.051-0.021,0.094-0.053,0.125-0.094c0.125-0.089,0.523-0.252,1.111-0.252
					c0.566,0,1.428,0.151,2.305,0.871l0.021,0.021c0.063,0.054,0.143,0.084,0.225,0.084h0.021c0.092-0.007,0.176-0.049,0.229-0.109
					l0.02-0.021c0.973-1.028,2.018-1.181,2.555-1.181c0.383,0,0.654,0.079,0.762,0.138c0.039,0.035,0.088,0.063,0.148,0.079
					c0.02,0.004,0.063,0.013,0.107,0.007c0.02-0.002,0.043-0.008,0.063-0.015c0.104-0.036,0.172-0.138,0.164-0.25l-0.006-0.114
					c-0.004-0.068-0.037-0.129-0.088-0.173c-0.58-0.487-1.205-0.734-1.863-0.734c-1.025,0-1.842,0.606-2.182,0.903
					c-0.311-0.211-1.063-0.646-1.943-0.646c-0.775,0-1.471,0.322-2.066,0.955C868.762,16.46,868.737,16.528,868.741,16.597"/>
			</g>
			<g>
				<path fill="#FFFFFF" d="M853.997,18.936c0-1.745,1.414-3.159,3.158-3.159c0.068,0,0.135,0.006,0.203,0.011
					c0.166-2.208,2.006-3.95,4.258-3.95c2.359,0,4.273,1.914,4.273,4.274c0,0.669-0.158,1.299-0.434,1.862
					c2.141,0.474,3.74,2.379,3.74,4.659c0,2.638-2.139,4.777-4.775,4.777c-0.193,0-6.373-0.037-6.373-0.037
					c-1.869,0-3.383-1.515-3.383-3.383c0-0.896,0.352-1.71,0.922-2.315C854.637,21.13,853.997,20.109,853.997,18.936"/>
			</g>
		</g>
	</g>
	<g>
		<g>
			<rect x="951.987" fill="#19486B" width="55.998" height="50"/>
		</g>
		<g>
			<g>
				<path fill="#FFFFFF" d="M995.235,24.385c0-4.214-3.352-7.657-7.527-7.81c-1.074-3.033-3.971-5.213-7.369-5.213
					c-3.395,0-6.293,2.18-7.367,5.213c-4.176,0.152-7.525,3.596-7.525,7.81c0,2.5,1.182,4.729,3.016,6.159
					c-0.199,0.689-0.309,1.416-0.309,2.17c0,4.308,3.506,7.813,7.814,7.813c1.635,0,3.154-0.507,4.41-1.368
					c1.242,0.83,2.732,1.315,4.336,1.315c4.311,0,7.814-3.506,7.814-7.813c0-0.736-0.104-1.449-0.297-2.125
					C994.057,29.104,995.235,26.88,995.235,24.385 M986.581,19.178c0,3.128-2.314,5.719-5.32,6.166
					c-0.049-0.314-0.082-0.634-0.082-0.959c0-3.129,2.316-5.72,5.32-6.166C986.549,18.531,986.581,18.851,986.581,19.178
					 M980.368,37.132c-1.168-1.135-1.896-2.719-1.896-4.471c0-1.726,0.705-3.289,1.84-4.42c1.168,1.135,1.896,2.719,1.896,4.473
					C982.208,34.438,981.504,36.001,980.368,37.132 M974.18,18.218c3.006,0.447,5.32,3.038,5.32,6.167
					c0,0.325-0.033,0.645-0.082,0.959c-3.006-0.447-5.32-3.038-5.32-6.166C974.098,18.851,974.131,18.531,974.18,18.218
					 M978.833,27.177c-1.025,2.041-3.137,3.449-5.574,3.449c-1.033,0-2.008-0.258-2.867-0.705c1.027-2.041,3.139-3.448,5.576-3.448
					C977,26.473,977.973,26.729,978.833,27.177 M981.827,27.134c0.863-0.453,1.844-0.715,2.887-0.715
					c2.453,0,4.574,1.429,5.596,3.492c-0.865,0.453-1.848,0.715-2.889,0.715C984.965,30.626,982.844,29.198,981.827,27.134
					 M980.338,12.937c2.559,0,4.758,1.547,5.723,3.753c-2.539,0.447-4.658,2.123-5.723,4.391c-1.061-2.268-3.182-3.943-5.721-4.391
					C975.583,14.483,977.782,12.937,980.338,12.937 M967.018,24.385c0-3.217,2.443-5.87,5.572-6.206
					c-0.041,0.327-0.064,0.661-0.064,0.999c0,2.284,0.984,4.343,2.553,5.772c-2.592,0.296-4.803,1.862-5.992,4.062
					C967.819,27.869,967.018,26.22,967.018,24.385 M969.725,32.714c0-0.443,0.049-0.877,0.137-1.293
					c1.027,0.498,2.182,0.777,3.396,0.777c1.369,0,2.654-0.354,3.773-0.975c-0.086,0.466-0.135,0.945-0.135,1.438
					c0,2.11,0.844,4.028,2.209,5.437c-0.924,0.541-1.994,0.856-3.141,0.856C972.524,38.955,969.725,36.155,969.725,32.714
					 M990.956,32.662c0,3.44-2.801,6.24-6.242,6.24c-1.121,0-2.168-0.3-3.078-0.818c1.328-1.4,2.146-3.291,2.146-5.369
					c0-0.512-0.053-1.012-0.146-1.495c1.123,0.624,2.412,0.979,3.785,0.979c1.221,0,2.379-0.281,3.408-0.785
					C990.911,31.818,990.956,32.235,990.956,32.662 M985.649,24.905c1.539-1.429,2.506-3.467,2.506-5.728
					c0-0.338-0.023-0.672-0.066-0.999c3.129,0.336,5.574,2.989,5.574,6.206c0,1.827-0.795,3.468-2.051,4.61
					C990.434,26.792,988.235,25.216,985.649,24.905"/>
			</g>
		</g>
	</g>
	<g>
		<g>
			<g>
				<rect x="895.987" fill="#00699D" width="56" height="50"/>
			</g>
		</g>
		<g>
			<path fill="#FFFFFF" d="M937.137,9.777c0,0-0.691,0.919-0.49,1.813c0.201,0.896,1.223,1.428,1.223,1.428s0.691-0.919,0.49-1.813
				C938.157,10.31,937.137,9.777,937.137,9.777"/>
		</g>
		<g>
			<path fill="#FFFFFF" d="M936.01,15.022c0,0,0.691-0.919,0.488-1.813c-0.201-0.896-1.221-1.427-1.221-1.427
				s-0.693,0.917-0.492,1.813C934.989,14.49,936.01,15.022,936.01,15.022"/>
		</g>
		<g>
			<path fill="#FFFFFF" d="M938.854,14.039c0,0,0.729,0.736,1.561,0.663c0.832-0.074,1.449-0.931,1.449-0.931
				s-0.73-0.736-1.563-0.662C939.469,13.183,938.854,14.039,938.854,14.039"/>
		</g>
		<g>
			<path fill="#FFFFFF" d="M940.049,10.104c-0.678,0.688-0.582,1.901-0.582,1.901s1.193,0.104,1.871-0.582
				c0.676-0.687,0.58-1.901,0.58-1.901S940.725,9.419,940.049,10.104"/>
		</g>
		<g>
			<path fill="#FFFFFF" d="M938.555,16.77c0.828,0.098,1.607-0.614,1.607-0.614s-0.564-0.87-1.391-0.968
				c-0.83-0.097-1.609,0.614-1.609,0.614S937.729,16.672,938.555,16.77"/>
		</g>
		<g>
			<path fill="#FFFFFF" d="M939.295,31.167h-6.193c-0.484,0-0.879,0.391-0.879,0.875c0,0.483,0.395,0.877,0.879,0.877h6.193
				c0.484,0,0.877-0.394,0.877-0.877C940.172,31.558,939.78,31.167,939.295,31.167"/>
		</g>
		<g>
			<path fill="#FFFFFF" d="M939.295,40.826h-6.193c-0.484,0-0.879,0.393-0.879,0.877c0,0.482,0.395,0.877,0.879,0.877h6.193
				c0.484,0,0.877-0.395,0.877-0.877C940.172,41.218,939.78,40.826,939.295,40.826"/>
		</g>
		<g>
			<path fill="#FFFFFF" d="M911.438,29.039c-0.146-0.045-0.289-0.084-0.432-0.109C911.006,28.929,911.167,28.978,911.438,29.039"/>
		</g>
		<g>
			<path fill="#FFFFFF" d="M939.067,33.531h-5.74c-0.273,0-0.498,0.225-0.498,0.499v1.737l-3.748,0.412l-5.473-0.125V32.71
				c0.727-0.094,1.455-0.238,2.178-0.441c5.27-1.487,6.418-5.844,6.305-8.858c-0.115-3.07,0.867-4.262,2.279-4.792
				c0.404-0.152,0.803-0.248,1.17-0.311c0.016,0.755,0.168,1.631,0.506,2.675c0.125-0.006,0.248-0.017,0.373-0.03
				c-0.355-1.068-0.508-1.947-0.516-2.696c0.729-0.087,1.248-0.038,1.248-0.038s-0.492-0.265-1.189-0.848
				c0.238-1.453,1.105-2.346,1.996-3.259c0.49-0.502,0.998-1.021,1.395-1.64l-0.311-0.2c-0.377,0.588-0.873,1.092-1.352,1.581
				c-0.869,0.891-1.748,1.8-2.047,3.244c-0.281-0.256-0.588-0.558-0.9-0.909c-1.299-1.457-2.973-0.387-5.357,1.835
				c-2.387,2.22-5.387,2.296-8.318-0.703c-3.867-3.959-7.24-3.937-9.553-3.712c1.582,0.674,2.137,2.152,2.938,5.911
				c0.838,3.943,2.955,5.729,5.852,5.974c-1.609,0.569-1.689,1.479-3.848,2.969c-1.686,1.162-4.057,0.795-5.018,0.576
				c1.764,0.551,3.854,2.401,5.725,3.045c1.088,0.375,2.236,0.606,3.412,0.701v3.2l-9.809-0.225v2.233l18.314-0.42l3.748,0.412
				v1.737c0,0.274,0.223,0.5,0.498,0.5h5.74c0.273,0,0.5-0.226,0.5-0.5V34.03C939.567,33.755,939.342,33.531,939.067,33.531
				 M921.477,32.832c0.408,0.006,0.818-0.006,1.229-0.033v3.236l-1.229-0.029V32.832z"/>
		</g>
		<g>
			<path fill="#FFFFFF" d="M910.231,37.625c0,0.472-0.328,0.854-0.732,0.854h-0.441c-0.404,0-0.732-0.382-0.732-0.854v-1.543
				c0-0.472,0.328-0.853,0.732-0.853h0.441c0.404,0,0.732,0.381,0.732,0.853V37.625z"/>
		</g>
	</g>
	<g>
		<g>
			<g>
				<rect x="783.989" fill="#1995D3" width="55.998" height="49.998"/>
			</g>
			<g>
				<path fill="#FFFFFF" d="M828.055,33.774c-0.754-1.021-5.631-7.239-12.471-7.239c-5.938,0-12.291,5.387-12.291,5.387
					s-2.387-4.885-7.268-5.354c-0.029,0-0.061-0.007-0.092-0.007h-0.029c-0.104,0.006-0.199,0.104-0.188,0.192
					c0.014,0.086,0.076,0.179,0.076,0.179c0.629,1.045,2.234,4.019,2.234,6.985c0,2.979-1.615,5.959-2.238,6.998l-0.043,0.066
					c-0.018,0.031-0.029,0.063-0.029,0.104c0,0.104,0.08,0.184,0.18,0.192l0.053-0.005c0.018,0,0.035,0,0.053-0.005
					c4.895-0.456,7.291-5.354,7.291-5.354s6.354,5.387,12.291,5.387c6.84,0,11.717-6.219,12.471-7.237
					c0.021-0.026,0.039-0.052,0.055-0.069c0.008-0.023,0.016-0.047,0.016-0.074s-0.008-0.055-0.016-0.074
					C828.094,33.824,828.077,33.8,828.055,33.774 M819.387,34.705c-1.102,0-1.996-0.896-1.996-1.996
					c0-1.104,0.895-1.994,1.996-1.994c1.105,0,1.998,0.892,1.998,1.994C821.385,33.81,820.493,34.705,819.387,34.705"/>
			</g>
			<g>
				<path fill="#FFFFFF" d="M802.846,20.961c0.016-0.022,0.029-0.039,0.053-0.054c0.031-0.021,0.066-0.037,0.107-0.037
					c0.049,0,0.1,0.021,0.133,0.055c0.002,0.003,0.006,0.006,0.01,0.009c3.729,3.553,7.639,0.673,8.451,0l0.08-0.076
					c0.023-0.01,0.047-0.013,0.074-0.013s0.055,0.003,0.078,0.013l0.08,0.076c0.813,0.673,4.723,3.553,8.451,0
					c0-0.003,0.004-0.006,0.008-0.009c0.035-0.034,0.08-0.055,0.131-0.055c0.043,0,0.078,0.017,0.109,0.037
					c0.021,0.015,0.037,0.031,0.055,0.054c0.723,0.711,3.846,3.399,7.148,0.528c0.035-0.035,0.059-0.081,0.059-0.138v-1.364
					c0-0.109-0.086-0.196-0.193-0.196c-0.016,0-0.027,0.006-0.043,0.009c-0.031,0.015-0.063,0.031-0.1,0.05
					c-1.016,0.509-4.164,1.715-7.021-0.985c-0.025-0.025-0.055-0.051-0.084-0.079c-0.025-0.015-0.051-0.019-0.084-0.019
					c-0.02,0-0.041,0.004-0.059,0.015c-0.043,0.011-0.076,0.038-0.1,0.073c-0.852,0.648-4.762,3.296-8.244,0.048l-0.051-0.051
					c-0.037-0.035-0.086-0.055-0.143-0.055c-0.051,0-0.102,0.02-0.135,0.055l-0.057,0.051c-3.479,3.248-7.395,0.601-8.244-0.048
					c-0.021-0.035-0.055-0.063-0.096-0.073c-0.021-0.011-0.043-0.015-0.063-0.015c-0.027,0-0.057,0.004-0.08,0.019
					c-0.027,0.028-0.057,0.054-0.086,0.079c-2.857,2.7-6.006,1.494-7.021,0.985c-0.035-0.019-0.068-0.035-0.1-0.05
					c-0.016-0.003-0.025-0.009-0.037-0.009c-0.109,0-0.197,0.087-0.197,0.196v1.364c0,0.057,0.021,0.103,0.057,0.138
					C798.997,24.36,802.122,21.672,802.846,20.961"/>
			</g>
		</g>
		<g>
			<path fill="#FFFFFF" d="M795.872,14.04c-0.014-0.003-0.025-0.009-0.037-0.009c-0.107,0-0.197,0.089-0.197,0.198v1.361
				c0,0.057,0.023,0.107,0.059,0.141c3.303,2.868,6.428,0.181,7.15-0.529c0.016-0.021,0.029-0.042,0.053-0.055
				c0.031-0.021,0.066-0.036,0.105-0.036c0.051,0,0.102,0.021,0.135,0.053c0.002,0.004,0.008,0.007,0.01,0.009
				c3.729,3.559,7.639,0.676,8.451,0l0.08-0.074c0.023-0.01,0.047-0.014,0.074-0.014s0.055,0.004,0.078,0.014l0.08,0.074
				c0.813,0.676,4.723,3.559,8.451,0c0-0.002,0.006-0.005,0.008-0.009c0.035-0.032,0.08-0.053,0.133-0.053
				c0.039,0,0.076,0.016,0.107,0.036c0.021,0.013,0.039,0.033,0.055,0.055c0.723,0.71,3.846,3.397,7.148,0.529
				c0.035-0.033,0.059-0.084,0.059-0.141v-1.361c0-0.109-0.086-0.198-0.193-0.198c-0.016,0-0.027,0.006-0.043,0.009
				c-0.029,0.018-0.063,0.034-0.1,0.052c-1.016,0.508-4.164,1.718-7.021-0.986c-0.027-0.025-0.057-0.051-0.084-0.079
				c-0.025-0.012-0.051-0.019-0.084-0.019c-0.02,0-0.041,0.006-0.059,0.01c-0.043,0.017-0.076,0.044-0.098,0.077
				c-0.854,0.648-4.764,3.296-8.246,0.048l-0.051-0.05c-0.035-0.032-0.086-0.059-0.141-0.059c-0.053,0-0.104,0.026-0.137,0.059
				l-0.057,0.05c-3.479,3.248-7.395,0.601-8.242-0.048c-0.023-0.033-0.057-0.061-0.1-0.077c-0.02-0.004-0.039-0.01-0.063-0.01
				c-0.027,0-0.055,0.007-0.082,0.019c-0.025,0.028-0.055,0.054-0.082,0.079c-2.859,2.704-6.006,1.494-7.021,0.986
				C795.938,14.074,795.903,14.058,795.872,14.04"/>
		</g>
	</g>
	<g>
		<g>
			<path fill="none" d="M18.104,31.977c-0.022-0.034-0.044-0.074-0.069-0.113c-0.548-0.831-0.991-1.715-1.32-2.655
				c-0.047-0.133-0.107-0.144-0.226-0.106c-0.722,0.213-1.446,0.419-2.165,0.623c-2.229,0.64-4.453,1.278-6.678,1.917
				c-0.234,0.066-0.246,0.021-0.157,0.295c0.674,2.052,1.639,3.962,2.874,5.736c0.086,0.121,0.146,0.13,0.262,0.039
				c1.702-1.299,3.408-2.592,5.115-3.889c0.749-0.57,1.495-1.139,2.245-1.708C18.031,32.08,18.095,32.053,18.104,31.977z
				 M6.397,25.218c-0.011,0.554,0.027,1.23,0.088,1.908c0.094,1.028,0.264,2.045,0.501,3.051c0.057,0.232,0.057,0.232,0.294,0.166
				c1.038-0.297,2.073-0.596,3.11-0.893c1.912-0.55,3.83-1.1,5.744-1.647c0.098-0.03,0.159-0.058,0.133-0.187
				c-0.21-0.979-0.287-1.972-0.254-2.973c0.004-0.114-0.028-0.162-0.152-0.172c-0.744-0.065-1.482-0.139-2.227-0.207
				c-1.136-0.102-2.265-0.201-3.401-0.305c-1.215-0.105-2.432-0.209-3.646-0.321c-0.117-0.011-0.15,0.021-0.162,0.136
				C6.393,24.212,6.397,24.653,6.397,25.218z M28.358,47.058c0.088-0.005,0.18-0.02,0.273-0.02c1.022,0.008,2.038-0.09,3.049-0.24
				c0.263-0.041,0.263-0.043,0.213-0.308c-0.317-1.665-0.63-3.331-0.943-4.999c-0.251-1.34-0.508-2.679-0.754-4.02
				c-0.023-0.126-0.07-0.16-0.193-0.145c-0.252,0.033-0.505,0.059-0.762,0.075c-0.69,0.046-1.389,0.045-2.081-0.024
				c-0.25-0.026-0.254-0.03-0.3,0.209c-0.312,1.673-0.631,3.344-0.944,5.017c-0.248,1.328-0.496,2.659-0.748,3.987
				c-0.039,0.222-0.037,0.222,0.197,0.256C26.359,46.982,27.354,47.053,28.358,47.058z M25.554,37.23
				c0.019-0.135-0.081-0.127-0.148-0.146c-0.901-0.224-1.768-0.541-2.595-0.963c-0.302-0.154-0.302-0.148-0.48,0.135
				c-1.591,2.578-3.187,5.156-4.779,7.731c-0.073,0.113-0.075,0.175,0.056,0.247c1.896,1.063,3.901,1.828,6.02,2.301
				c0.137,0.03,0.182-0.007,0.204-0.136c0.089-0.498,0.187-0.993,0.28-1.489c0.417-2.221,0.837-4.438,1.255-6.656
				C25.429,37.906,25.492,37.56,25.554,37.23z M15.98,23.124c0.197,0.033,0.188-0.094,0.203-0.188
				c0.158-0.923,0.427-1.809,0.787-2.669c0.094-0.224,0.094-0.224-0.127-0.338c-2.322-1.153-4.64-2.311-6.959-3.466
				c-0.424-0.209-0.852-0.419-1.275-0.637c-0.102-0.053-0.155-0.038-0.2,0.068c-0.086,0.209-0.185,0.41-0.272,0.615
				c-0.763,1.8-1.274,3.665-1.549,5.599C6.57,22.242,6.611,22.293,6.742,22.3c0.621,0.051,1.239,0.107,1.863,0.162
				c0.608,0.052,1.218,0.106,1.828,0.161c0.636,0.058,1.271,0.116,1.906,0.176c0.632,0.058,1.261,0.116,1.891,0.171
				C14.828,23.022,15.421,23.076,15.98,23.124z M42.674,8.451c-0.016-0.056-0.066-0.086-0.108-0.122
				c-0.576-0.487-1.171-0.942-1.79-1.368c-1.147-0.785-2.354-1.46-3.627-2.017c-0.202-0.089-0.211-0.087-0.275,0.08
				c-1.109,2.878-2.214,5.753-3.32,8.629c-0.048,0.12-0.052,0.187,0.085,0.25c0.882,0.415,1.705,0.928,2.46,1.546
				c0.088,0.076,0.146,0.063,0.217-0.021c0.128-0.145,0.263-0.285,0.395-0.428c0.615-0.668,1.229-1.34,1.845-2.011
				c0.97-1.06,1.938-2.117,2.907-3.177c0.382-0.42,0.765-0.838,1.146-1.259C42.633,8.521,42.667,8.499,42.674,8.451z M18.922,33.11
				c-0.026,0.019-0.064,0.04-0.094,0.063c-1.553,1.183-3.109,2.365-4.662,3.546c-0.907,0.688-1.815,1.378-2.725,2.062
				c-0.119,0.094-0.119,0.154-0.027,0.264c0.301,0.36,0.608,0.717,0.934,1.057c1.154,1.225,2.427,2.309,3.824,3.247
				c0.099,0.069,0.164,0.062,0.217-0.045c0.017-0.033,0.037-0.062,0.057-0.093c0.764-1.234,1.524-2.467,2.291-3.703
				c0.847-1.372,1.693-2.746,2.544-4.12c0.059-0.093,0.055-0.148-0.038-0.212c-0.172-0.116-0.34-0.242-0.504-0.373
				c-0.616-0.485-1.183-1.023-1.701-1.609C19.01,33.156,18.988,33.112,18.922,33.11z M13.205,9.228
				c-0.048,0.002-0.074,0.039-0.1,0.067c-0.331,0.335-0.67,0.661-0.985,1.01c-1.13,1.24-2.108,2.594-2.93,4.054
				c-0.104,0.193-0.106,0.193,0.091,0.291c1.348,0.671,2.699,1.342,4.051,2.014c1.405,0.7,2.807,1.4,4.21,2.102
				c0.11,0.059,0.17,0.052,0.232-0.058c0.507-0.844,1.101-1.616,1.796-2.307c0.074-0.075,0.088-0.129,0.01-0.215
				c-0.321-0.342-0.635-0.692-0.952-1.04c-0.828-0.911-1.659-1.819-2.49-2.729c-0.461-0.512-0.926-1.024-1.389-1.534
				c-0.474-0.521-0.95-1.041-1.429-1.56C13.288,9.285,13.258,9.242,13.205,9.228z M37.938,32.934
				c-0.054,0.011-0.085,0.057-0.116,0.095c-0.61,0.721-1.288,1.37-2.045,1.938c-0.192,0.144-0.192,0.144-0.067,0.347
				c0.299,0.476,0.592,0.957,0.89,1.435c1.319,2.139,2.64,4.276,3.962,6.42c0.06,0.103,0.104,0.104,0.198,0.043
				c1.062-0.726,2.043-1.541,2.96-2.433c0.626-0.606,1.201-1.255,1.748-1.93c0.132-0.162,0.132-0.162-0.041-0.29
				c-1.362-1.029-2.725-2.059-4.086-3.085c-1.084-0.813-2.164-1.634-3.246-2.443C38.048,32.99,38.002,32.944,37.938,32.934z
				 M27.792,7.939c0-1.527,0-3.056,0-4.586c0-0.23,0-0.231-0.229-0.23c-0.557,0.008-1.108,0.061-1.664,0.121
				c-1.56,0.171-3.08,0.512-4.569,1.017c-0.18,0.063-0.18,0.063-0.111,0.245c1.108,2.854,2.218,5.71,3.324,8.563
				c0.088,0.23,0.088,0.228,0.324,0.157c0.877-0.263,1.769-0.412,2.678-0.481c0.247-0.018,0.247-0.014,0.247-0.264
				C27.792,10.967,27.792,9.455,27.792,7.939z M31.504,37.149c0.055,0.3,0.111,0.621,0.173,0.942
				c0.515,2.729,1.028,5.459,1.542,8.188c0.04,0.222,0.044,0.224,0.266,0.168c2.056-0.493,3.999-1.271,5.833-2.329
				c0.185-0.106,0.185-0.106,0.066-0.297c-0.732-1.186-1.462-2.363-2.194-3.547c-0.889-1.439-1.777-2.881-2.662-4.32
				c-0.063-0.104-0.116-0.106-0.219-0.051c-0.429,0.234-0.862,0.446-1.313,0.628c-0.445,0.179-0.9,0.337-1.363,0.462
				C31.564,37.016,31.482,37.025,31.504,37.149z M43.706,9.4c-0.061,0.01-0.092,0.06-0.124,0.099
				c-0.479,0.516-0.952,1.032-1.426,1.548c-1.016,1.106-2.028,2.216-3.044,3.324c-0.589,0.644-1.183,1.287-1.771,1.93
				c-0.095,0.1-0.128,0.173-0.014,0.292c0.663,0.681,1.231,1.437,1.705,2.257c0.064,0.119,0.124,0.145,0.251,0.08
				c0.717-0.364,1.436-0.714,2.156-1.072c2.041-1.019,4.078-2.037,6.12-3.056c0.168-0.086,0.173-0.087,0.076-0.26
				c-0.376-0.679-0.78-1.341-1.227-1.979c-0.767-1.107-1.632-2.136-2.592-3.082C43.785,9.448,43.758,9.41,43.706,9.4z M40.736,23.26
				c0.589-0.053,1.175-0.106,1.756-0.159c0.717-0.067,1.435-0.138,2.148-0.206c0.587-0.055,1.167-0.11,1.754-0.164
				c0.707-0.069,1.411-0.137,2.117-0.204c0.495-0.045,0.985-0.096,1.479-0.137c0.141-0.013,0.181-0.069,0.157-0.208
				c-0.063-0.355-0.11-0.714-0.175-1.074c-0.317-1.742-0.846-3.418-1.567-5.034c-0.057-0.126-0.109-0.136-0.228-0.078
				c-0.811,0.407-1.62,0.806-2.432,1.21c-1.52,0.758-3.036,1.517-4.552,2.273c-0.45,0.225-0.897,0.447-1.345,0.671
				c-0.075,0.037-0.127,0.065-0.084,0.171c0.38,0.904,0.642,1.841,0.8,2.808C40.585,23.242,40.634,23.281,40.736,23.26z
				 M50.34,24.988c0.019-0.296-0.035-0.7-0.035-1.103c0-0.101-0.018-0.182-0.156-0.166c-0.538,0.056-1.075,0.1-1.612,0.153
				c-0.811,0.079-1.618,0.158-2.428,0.233c-0.816,0.079-1.636,0.148-2.455,0.228c-0.925,0.088-1.849,0.18-2.775,0.265
				c-0.126,0.009-0.159,0.052-0.159,0.176c0.018,0.918-0.058,1.825-0.24,2.726c-0.043,0.228-0.042,0.228,0.183,0.291
				c2.944,0.846,5.888,1.689,8.828,2.535c0.193,0.055,0.193,0.055,0.244-0.145C50.134,28.511,50.328,26.814,50.34,24.988z
				 M29.136,7.933c0,1.512,0,3.025,0,4.538c0,0.053,0,0.102,0,0.153c0,0.072,0.029,0.115,0.105,0.121
				c0.055,0.006,0.11,0.018,0.169,0.021c0.9,0.07,1.777,0.245,2.637,0.521c0.14,0.043,0.198,0.018,0.251-0.118
				c1.103-2.872,2.206-5.742,3.313-8.615c0.072-0.193,0.072-0.196-0.116-0.261c-0.475-0.163-0.956-0.309-1.437-0.438
				c-1.533-0.413-3.1-0.651-4.686-0.724c-0.236-0.012-0.236-0.008-0.236,0.229C29.136,4.887,29.136,6.409,29.136,7.933z
				 M20.705,15.367c0.029-0.021,0.064-0.036,0.095-0.061c0.757-0.586,1.566-1.079,2.437-1.47c0.101-0.048,0.123-0.096,0.082-0.201
				c-1.12-2.883-2.24-5.765-3.356-8.646c-0.07-0.187-0.07-0.187-0.261-0.102c-1.943,0.838-3.727,1.933-5.357,3.279
				c-0.101,0.085-0.121,0.137-0.024,0.239c0.906,0.989,1.812,1.988,2.714,2.979c0.596,0.652,1.19,1.309,1.786,1.961
				c0.587,0.641,1.171,1.283,1.759,1.923C20.611,15.307,20.641,15.352,20.705,15.367z M40.205,29.071
				c-0.121-0.026-0.149,0.037-0.171,0.101c-0.31,0.895-0.722,1.734-1.233,2.531c-0.047,0.076-0.04,0.127,0.032,0.178
				c0.09,0.061,0.172,0.13,0.259,0.192c1.16,0.872,2.324,1.743,3.479,2.619c1.234,0.931,2.464,1.861,3.694,2.796
				c0.107,0.08,0.164,0.071,0.238-0.044c0.274-0.419,0.548-0.836,0.803-1.269c0.806-1.373,1.454-2.813,1.95-4.326
				c0.039-0.12,0.014-0.178-0.107-0.211c-0.316-0.086-0.628-0.18-0.945-0.271c-2.416-0.693-4.835-1.387-7.252-2.078
				C40.692,29.212,40.433,29.138,40.205,29.071z"/>
		</g>
		<g>
			<path fill="#D38A31" d="M18.104,31.977c-0.01,0.076-0.073,0.104-0.119,0.14c-0.75,0.568-1.496,1.137-2.245,1.707
				c-1.707,1.297-3.413,2.59-5.115,3.889c-0.115,0.091-0.176,0.082-0.262-0.039c-1.235-1.774-2.2-3.686-2.874-5.736
				c-0.089-0.273-0.077-0.229,0.157-0.295c2.225-0.639,4.448-1.277,6.678-1.917c0.719-0.204,1.443-0.41,2.165-0.623
				c0.118-0.036,0.179-0.024,0.226,0.106c0.329,0.94,0.772,1.824,1.32,2.655C18.061,31.902,18.082,31.942,18.104,31.977z"/>
		</g>
		<g>
			<path fill="#2E7142" d="M6.397,25.218c0-0.564-0.005-1.006,0.028-1.442c0.012-0.114,0.045-0.146,0.162-0.136
				c1.214,0.112,2.431,0.216,3.646,0.321c1.137,0.104,2.266,0.203,3.401,0.305c0.744,0.068,1.482,0.142,2.227,0.207
				c0.124,0.01,0.156,0.058,0.152,0.172c-0.033,1.001,0.044,1.993,0.254,2.972c0.026,0.129-0.035,0.156-0.133,0.188
				c-1.914,0.549-3.832,1.099-5.744,1.648c-1.037,0.297-2.072,0.594-3.11,0.892c-0.237,0.067-0.237,0.067-0.294-0.166
				c-0.237-1.005-0.407-2.021-0.501-3.05C6.425,26.449,6.387,25.771,6.397,25.218z"/>
		</g>
		<g>
			<path fill="#D66D40" d="M28.358,47.058c-1.004-0.005-1.999-0.075-2.993-0.21c-0.234-0.034-0.236-0.034-0.197-0.255
				c0.252-1.329,0.5-2.66,0.748-3.988c0.313-1.673,0.633-3.344,0.944-5.016c0.046-0.24,0.05-0.236,0.3-0.211
				c0.692,0.07,1.391,0.072,2.081,0.025c0.257-0.018,0.51-0.042,0.762-0.076c0.123-0.016,0.17,0.02,0.193,0.146
				c0.246,1.341,0.503,2.68,0.754,4.021c0.313,1.666,0.626,3.332,0.943,4.998c0.05,0.264,0.05,0.266-0.213,0.309
				c-1.011,0.15-2.026,0.248-3.049,0.24C28.538,47.039,28.446,47.053,28.358,47.058z"/>
		</g>
		<g>
			<path fill="#CC367B" d="M25.554,37.23c-0.062,0.329-0.125,0.676-0.188,1.021c-0.418,2.22-0.838,4.438-1.255,6.656
				c-0.094,0.497-0.191,0.992-0.28,1.49c-0.022,0.129-0.067,0.166-0.204,0.137c-2.118-0.474-4.124-1.238-6.02-2.302
				c-0.131-0.071-0.129-0.134-0.056-0.247c1.593-2.576,3.188-5.154,4.779-7.73c0.179-0.284,0.179-0.289,0.48-0.135
				c0.827,0.42,1.693,0.738,2.595,0.963C25.473,37.104,25.572,37.096,25.554,37.23z"/>
		</g>
		<g>
			<path fill="#2473A5" d="M15.98,23.124c-0.56-0.048-1.152-0.102-1.75-0.153c-0.63-0.055-1.259-0.113-1.891-0.171
				c-0.635-0.06-1.271-0.118-1.906-0.176c-0.61-0.055-1.22-0.109-1.828-0.161c-0.624-0.055-1.242-0.111-1.863-0.162
				c-0.131-0.008-0.172-0.059-0.154-0.192c0.274-1.934,0.786-3.799,1.549-5.599c0.088-0.205,0.187-0.406,0.272-0.615
				c0.045-0.106,0.099-0.121,0.2-0.068c0.424,0.218,0.852,0.428,1.275,0.637c2.319,1.155,4.637,2.313,6.959,3.466
				c0.221,0.114,0.221,0.114,0.127,0.338c-0.36,0.86-0.629,1.746-0.787,2.669C16.169,23.03,16.178,23.157,15.98,23.124z"/>
		</g>
		<g>
			<path fill="#D59B33" d="M42.674,8.451c-0.007,0.048-0.041,0.07-0.066,0.103C42.226,8.975,37.325,14.332,36.71,15
				c-0.132,0.143-0.267,0.283-0.395,0.428c-0.07,0.083-0.129,0.098-0.217,0.021c-0.755-0.618-1.578-1.131-2.46-1.546
				c-0.137-0.063-0.133-0.13-0.085-0.25c1.106-2.876,2.211-5.751,3.32-8.629c0.064-0.167,0.073-0.169,0.275-0.08
				c1.272,0.557,2.479,1.231,3.627,2.017c0.619,0.426,1.214,0.881,1.79,1.368C42.607,8.365,42.658,8.396,42.674,8.451z"/>
		</g>
		<g>
			<path fill="#DF933D" d="M18.922,33.11c0.066,0.002,0.088,0.046,0.115,0.082c0.519,0.586,1.085,1.124,1.701,1.609
				c0.164,0.131,0.332,0.257,0.504,0.372c0.093,0.063,0.097,0.121,0.038,0.213c-0.851,1.374-1.697,2.748-2.544,4.119
				c-0.767,1.236-1.527,2.47-2.291,3.705c-0.02,0.029-0.04,0.059-0.057,0.092c-0.053,0.104-0.118,0.113-0.217,0.045
				c-1.397-0.939-2.67-2.021-3.824-3.247c-0.325-0.34-0.633-0.695-0.934-1.056c-0.092-0.109-0.092-0.172,0.027-0.265
				c0.909-0.684,1.817-1.374,2.725-2.062c1.553-1.182,3.109-2.363,4.662-3.547C18.857,33.15,18.896,33.128,18.922,33.11z"/>
		</g>
		<g>
			<path fill="#32A357" d="M13.205,9.228c0.053,0.015,0.083,0.058,0.115,0.096c0.479,0.52,5.938,6.521,6.26,6.862
				c0.078,0.086,0.064,0.14-0.01,0.215c-0.695,0.69-1.289,1.463-1.796,2.307c-0.063,0.109-0.122,0.116-0.232,0.058
				c-1.403-0.701-6.913-3.444-8.261-4.115c-0.197-0.098-0.194-0.098-0.091-0.291c0.821-1.46,1.8-2.813,2.93-4.054
				c0.315-0.349,0.654-0.675,0.985-1.01C13.131,9.267,13.157,9.229,13.205,9.228z"/>
		</g>
		<g>
			<path fill="#E7AB36" d="M37.938,32.934c0.064,0.011,0.11,0.057,0.156,0.095c1.082,0.811,2.162,1.629,3.246,2.443
				c1.361,1.025,2.724,2.056,4.086,3.085c0.173,0.128,0.173,0.128,0.041,0.29c-0.547,0.675-1.122,1.322-1.748,1.93
				c-0.917,0.891-1.898,1.707-2.96,2.432c-0.094,0.063-0.139,0.061-0.198-0.043c-1.322-2.143-2.643-4.28-3.962-6.418
				c-0.298-0.479-0.591-0.959-0.89-1.436c-0.125-0.203-0.125-0.203,0.067-0.348c0.757-0.565,1.435-1.215,2.045-1.937
				C37.853,32.99,37.884,32.944,37.938,32.934z"/>
		</g>
		<g>
			<path fill="#27375F" d="M27.792,12.48c0,0.25,0,0.246-0.247,0.264c-0.909,0.069-1.801,0.219-2.678,0.481
				c-0.236,0.07-0.236,0.073-0.324-0.157c-1.106-2.853-2.216-5.709-3.324-8.563C21.15,4.323,21.15,4.323,21.33,4.261
				c1.489-0.505,3.01-0.846,4.569-1.017c0.556-0.061,1.107-0.113,1.664-0.121c0.229-0.001,0.229,0,0.229,0.23
				C27.792,4.884,27.792,10.967,27.792,12.48z"/>
		</g>
		<g>
			<path fill="#982337" d="M31.504,37.149c-0.021-0.124,0.061-0.134,0.129-0.153c0.463-0.127,0.918-0.283,1.363-0.463
				c0.45-0.182,0.884-0.394,1.313-0.628c0.103-0.057,0.155-0.054,0.219,0.05c0.885,1.44,1.773,2.881,2.662,4.321
				c0.732,1.183,1.462,2.361,2.194,3.547c0.118,0.189,0.118,0.189-0.066,0.298c-1.834,1.058-3.777,1.834-5.833,2.328
				c-0.222,0.055-0.226,0.053-0.266-0.168c-0.514-2.729-1.027-5.46-1.542-8.189C31.615,37.771,31.559,37.449,31.504,37.149z"/>
		</g>
		<g>
			<path fill="#348F50" d="M43.706,9.4c0.052,0.01,0.079,0.048,0.111,0.081c0.96,0.946,1.825,1.975,2.592,3.082
				c0.446,0.638,0.851,1.3,1.227,1.979c0.097,0.173,0.092,0.174-0.076,0.26c-2.042,1.019-7.56,3.764-8.276,4.128
				c-0.127,0.064-0.187,0.039-0.251-0.08c-0.474-0.82-1.042-1.576-1.705-2.257c-0.114-0.119-0.081-0.192,0.014-0.292
				c0.589-0.643,5.762-6.286,6.241-6.802C43.614,9.46,43.646,9.41,43.706,9.4z"/>
		</g>
		<g>
			<path fill="#CB2E37" d="M40.736,23.26c-0.103,0.021-0.151-0.018-0.17-0.132c-0.158-0.967-0.42-1.903-0.8-2.808
				c-0.043-0.105,0.009-0.134,0.084-0.171c0.447-0.224,0.895-0.446,1.345-0.671c1.516-0.757,3.032-1.516,4.552-2.273
				c0.812-0.404,1.621-0.803,2.432-1.21c0.118-0.058,0.171-0.048,0.228,0.078c0.722,1.616,1.25,3.292,1.567,5.034
				c0.064,0.36,0.111,0.719,0.175,1.074c0.023,0.139-0.017,0.195-0.157,0.208C49.497,22.431,41.325,23.207,40.736,23.26z"/>
		</g>
		<g>
			<path fill="#D05142" d="M50.34,24.988c-0.012,1.826-0.206,3.522-0.606,5.193c-0.051,0.197-0.051,0.197-0.244,0.145
				c-2.94-0.846-5.884-1.689-8.828-2.535c-0.225-0.063-0.226-0.063-0.183-0.291c0.183-0.899,0.258-1.808,0.24-2.726
				c0-0.124,0.033-0.167,0.159-0.176c0.927-0.085,1.851-0.177,2.775-0.265c0.819-0.079,1.639-0.148,2.455-0.228
				c0.81-0.075,1.617-0.154,2.428-0.233c0.537-0.054,1.074-0.098,1.612-0.153c0.139-0.016,0.156,0.065,0.156,0.166
				C50.305,24.288,50.358,24.692,50.34,24.988z"/>
		</g>
		<g>
			<path fill="#CE3F42" d="M29.136,3.359c0-0.236,0-0.24,0.236-0.229c1.586,0.072,3.152,0.311,4.686,0.724
				c0.48,0.13,0.962,0.275,1.437,0.438c0.188,0.064,0.188,0.067,0.116,0.261c-1.106,2.873-2.21,5.743-3.313,8.615
				c-0.053,0.136-0.111,0.161-0.251,0.118c-0.859-0.276-1.736-0.451-2.637-0.521c-0.059-0.003-0.114-0.015-0.169-0.021
				c-0.076-0.006-0.105-0.049-0.105-0.121c0-0.052,0-0.101,0-0.153C29.136,10.958,29.136,4.887,29.136,3.359z"/>
		</g>
		<g>
			<path fill="#2B5379" d="M20.705,15.367c-0.064-0.016-0.094-0.061-0.127-0.097c-0.588-0.64-5.353-5.873-6.259-6.862
				c-0.097-0.103-0.076-0.154,0.024-0.239c1.631-1.347,3.414-2.441,5.357-3.279c0.19-0.085,0.19-0.085,0.261,0.102
				c1.116,2.88,2.236,5.762,3.356,8.645c0.041,0.105,0.019,0.153-0.082,0.201c-0.87,0.391-1.68,0.884-2.437,1.47
				C20.77,15.331,20.734,15.347,20.705,15.367z"/>
		</g>
		<g>
			<path fill="#1C9BBE" d="M40.205,29.071c0.228,0.066,0.487,0.142,0.746,0.218c2.417,0.691,4.836,1.385,7.252,2.078
				c0.317,0.092,0.629,0.187,0.945,0.271c0.121,0.033,0.146,0.091,0.107,0.211c-0.496,1.513-1.145,2.953-1.95,4.326
				c-0.255,0.433-0.528,0.85-0.803,1.269c-0.074,0.115-0.131,0.124-0.238,0.044c-1.23-0.935-2.46-1.865-3.694-2.796
				c-1.154-0.876-2.318-1.747-3.479-2.619c-0.087-0.063-0.169-0.133-0.259-0.192c-0.072-0.051-0.079-0.102-0.032-0.178
				c0.512-0.797,0.924-1.638,1.233-2.531C40.056,29.108,40.084,29.044,40.205,29.071z"/>
		</g>
	</g>
</g>
</svg>
