<?xml version="1.0" encoding="utf-8"?>
<!-- Generator: Adobe Illustrator 16.0.3, SVG Export Plug-In . SVG Version: 6.00 Build 0)  -->
<!DOCTYPE svg PUBLIC "-//W3C//DTD SVG 1.1//EN" "http://www.w3.org/Graphics/SVG/1.1/DTD/svg11.dtd">
<svg version="1.1" id="Layer_1" xmlns="http://www.w3.org/2000/svg" xmlns:xlink="http://www.w3.org/1999/xlink" x="0px" y="0px"
	 width="1007.985px" height="49.999px" viewBox="0 0 1007.985 49.999" enable-background="new 0 0 1007.985 49.999"
	 xml:space="preserve">
<g>
	<g>
		<g>
			<rect x="55.999" fill="#E3253C" width="55.999" height="49.997"/>
		</g>
		<g>
			<g>
				<path fill="#FFFFFF" d="M100.207,16.619c0-0.918,0.744-1.662,1.662-1.662c0.916,0,1.659,0.744,1.659,1.662
					s-0.743,1.662-1.659,1.662C100.951,18.281,100.207,17.537,100.207,16.619"/>
			</g>
			<g>
				<path fill="#FFFFFF" d="M103.808,18.921c1.128,0.102,2.011,1.05,2.011,2.207v0.552v0.241v3.812c0,0.354-0.288,0.644-0.643,0.644
					c-0.357,0-0.645-0.29-0.645-0.644v-3.955c0-0.148-0.044-0.35-0.314-0.35c-0.188,0-0.227,0.199-0.233,0.326v11.853
					c0,0.51-0.413,0.926-0.925,0.926c-0.513,0-0.927-0.416-0.927-0.926v-6.831c-0.003-0.075-0.027-0.271-0.263-0.271h-0.001
					c-0.236,0-0.265,0.195-0.268,0.271v6.831c0,0.51-0.412,0.926-0.924,0.926c-0.513,0-0.926-0.416-0.926-0.926V21.754
					c-0.006-0.127-0.046-0.326-0.232-0.326c-0.272,0-0.314,0.201-0.314,0.35v3.955c0,0.354-0.288,0.644-0.644,0.644
					c-0.356,0-0.644-0.29-0.644-0.644v-3.812V21.68v-0.552c0-1.157,0.884-2.105,2.014-2.207c0.036-0.005,0.077-0.01,0.121-0.01
					h1.817h1.813C103.729,18.911,103.769,18.916,103.808,18.921"/>
			</g>
			<g>
				<path fill="#FFFFFF" d="M90.329,17.492c0-0.869-0.702-1.575-1.571-1.575c-0.87,0-1.573,0.706-1.573,1.575
					s0.703,1.573,1.573,1.573C89.627,19.065,90.329,18.361,90.329,17.492"/>
			</g>
			<g>
				<path fill="#FFFFFF" d="M85.588,21.055l-1.308,4.257c0,0-0.232,0.78,0.429,0.975c0.659,0.196,0.859-0.566,0.859-0.566
					l1.054-3.553c0,0,0.058-0.273,0.264-0.214c0.205,0.059,0.128,0.351,0.128,0.351l-1.835,6.658h1.707v4.769
					c0,0.451,0.367,0.818,0.819,0.818s0.818-0.367,0.818-0.818v-4.769h0.234h0.231v4.769c0,0.451,0.365,0.818,0.818,0.818
					c0.454,0,0.821-0.367,0.821-0.818v-4.769h1.706l-1.834-6.658c0,0-0.077-0.292,0.128-0.351c0.206-0.06,0.264,0.214,0.264,0.214
					l1.054,3.553c0,0,0.2,0.763,0.858,0.566c0.663-0.194,0.429-0.975,0.429-0.975l-1.308-4.257c0,0-0.467-1.23-1.502-1.23h-1.666
					h-1.667C86.057,19.824,85.588,21.055,85.588,21.055"/>
			</g>
			<g>
				<path fill="#FFFFFF" d="M80.908,17.492c0-0.869-0.703-1.575-1.572-1.575s-1.573,0.706-1.573,1.575s0.704,1.573,1.573,1.573
					S80.908,18.361,80.908,17.492"/>
			</g>
			<g>
				<path fill="#FFFFFF" d="M76.167,21.055l-1.308,4.257c0,0-0.233,0.78,0.429,0.975c0.658,0.196,0.857-0.566,0.857-0.566
					l1.056-3.553c0,0,0.057-0.273,0.263-0.214c0.205,0.059,0.128,0.351,0.128,0.351l-1.835,6.658h1.707v4.769
					c0,0.451,0.368,0.818,0.82,0.818c0.453,0,0.818-0.367,0.818-0.818v-4.769h0.235h0.23v4.769c0,0.451,0.364,0.818,0.819,0.818
					c0.454,0,0.82-0.367,0.82-0.818v-4.769h1.706l-1.833-6.658c0,0-0.078-0.292,0.127-0.351c0.205-0.06,0.263,0.214,0.263,0.214
					l1.054,3.553c0,0,0.2,0.763,0.858,0.566c0.663-0.194,0.429-0.975,0.429-0.975l-1.308-4.257c0,0-0.466-1.23-1.501-1.23h-1.665
					h-1.669C76.635,19.824,76.167,21.055,76.167,21.055"/>
			</g>
			<g>
				<path fill="#FFFFFF" d="M95.611,26.295c0.725,0,1.31-0.586,1.31-1.31c0-0.725-0.585-1.309-1.31-1.309
					c-0.724,0-1.309,0.584-1.309,1.309C94.303,25.709,94.888,26.295,95.611,26.295"/>
			</g>
			<g>
				<path fill="#FFFFFF" d="M92.473,30.363c-0.063,0.152-0.116,0.477,0.191,0.618c0.36,0.166,0.561-0.183,0.561-0.183l0.712-2.27
					c0,0,0.123-0.151,0.123,0.005v5.344h0.004c0,0.372,0.299,0.672,0.672,0.672c0.371,0,0.671-0.3,0.671-0.672V31.77
					c0,0-0.038-0.298,0.201-0.298c0.24,0,0.204,0.298,0.204,0.298v2.108c0,0.372,0.301,0.672,0.672,0.672s0.674-0.3,0.674-0.672
					v-5.344c0-0.156,0.083-0.044,0.083-0.044l0.558,1.554c0,0,0.242,0.695,0.316,0.726c0.253,0.105,0.543-0.015,0.649-0.269
					c0.069-0.166,0.043-0.344-0.053-0.479l0.004-0.004c-0.016-0.051-0.834-2.056-0.93-2.337c-0.295-0.862-0.832-0.855-1.35-0.869
					c-0.519-0.013-0.828,0-0.828,0s-0.331-0.014-1.014,0.007s-0.898,0.371-1.65,2.308c-0.106,0.278-0.471,1.181-0.476,1.234
					L92.473,30.363z"/>
			</g>
			<g>
				<path fill="#FFFFFF" d="M66.86,16.619c0-0.918-0.745-1.662-1.662-1.662c-0.916,0-1.659,0.744-1.659,1.662
					s0.743,1.662,1.659,1.662C66.115,18.281,66.86,17.537,66.86,16.619"/>
			</g>
			<g>
				<path fill="#FFFFFF" d="M63.259,18.921c-1.127,0.102-2.012,1.05-2.012,2.207v0.552v0.241v3.812c0,0.354,0.289,0.644,0.646,0.644
					c0.355,0,0.644-0.29,0.644-0.644v-3.955c0-0.148,0.043-0.35,0.314-0.35c0.188,0,0.227,0.199,0.234,0.326v11.853
					c0,0.51,0.412,0.926,0.924,0.926s0.926-0.416,0.926-0.926v-6.831c0.003-0.075,0.028-0.271,0.264-0.271h0.001
					c0.235,0,0.265,0.195,0.267,0.271v6.831c0,0.51,0.412,0.926,0.924,0.926c0.513,0,0.926-0.416,0.926-0.926V21.754
					c0.006-0.127,0.048-0.326,0.233-0.326c0.272,0,0.313,0.201,0.313,0.35v3.955c0,0.354,0.289,0.644,0.645,0.644
					s0.644-0.29,0.644-0.644v-3.812V21.68v-0.552c0-1.157-0.884-2.105-2.013-2.207c-0.037-0.005-0.077-0.01-0.122-0.01h-1.817
					h-1.813C63.338,18.911,63.298,18.916,63.259,18.921"/>
			</g>
			<g>
				<path fill="#FFFFFF" d="M60.335,34.285c-0.004,0-0.008,0-0.012-0.001c-0.035-0.007-0.059-0.041-0.053-0.077l1.476-7.817
					c0.007-0.036,0.041-0.06,0.076-0.053s0.059,0.041,0.052,0.076l-1.475,7.818C60.394,34.263,60.366,34.285,60.335,34.285z"/>
			</g>
			<g>
				<path fill="#FFFFFF" d="M69.938,25.609c-0.085-0.135-0.233-0.224-0.404-0.224c-0.263,0-0.477,0.214-0.477,0.476
					c0,0.076,0.047,0.21,0.047,0.21l1.319,2.388c0,0,0.081,0.165,0.081,0.315v5.129h0.003c0,0.358,0.288,0.646,0.646,0.646
					c0.355,0,0.644-0.287,0.644-0.646v-2.024c0,0-0.036-0.286,0.194-0.286s0.194,0.286,0.194,0.286v2.024
					c0,0.358,0.29,0.646,0.646,0.646c0.355,0,0.646-0.287,0.646-0.646v-5.129c0-0.15,0.08-0.315,0.08-0.315l1.221-2.205
					c0,0,0.148-0.316,0.148-0.393c0-0.262-0.213-0.476-0.477-0.476c-0.173,0-0.32,0.089-0.404,0.224l-0.005-0.003
					c-0.038,0.033-0.649,1.122-0.852,1.322c-0.213,0.216-0.403,0.192-0.403,0.192h-0.795h-0.792c0,0-0.192,0.023-0.404-0.192
					c-0.204-0.2-0.813-1.289-0.852-1.322L69.938,25.609z"/>
			</g>
			<g>
				<path fill="#FFFFFF" d="M71.991,26.295c0.725,0,1.309-0.586,1.309-1.31c0-0.725-0.584-1.309-1.309-1.309
					c-0.724,0-1.309,0.584-1.309,1.309C70.683,25.709,71.268,26.295,71.991,26.295"/>
			</g>
			<g>
				<polygon fill="#FFFFFF" points="71.993,28.133 73.474,29.213 74.177,31.802 71.993,31.802 69.809,31.802 70.514,29.213 				"/>
			</g>
		</g>
	</g>
	<g>
		<g>
			<rect fill="#F1F1F1" width="55.999" height="49.997"/>
		</g>
	</g>
	<g>
		<g>
			<rect x="112.011" fill="#DDA63A" width="55.998" height="49.997"/>
		</g>
		<g>
			<g>
				<path fill="#FFFFFF" d="M133.942,38.978v0.845c-0.001,0.005-0.003,0.012-0.003,0.019s0.002,0.014,0.003,0.02
					c0.008,0.209,0.179,0.375,0.389,0.379c0.003,0,0.005,0.002,0.008,0.002s0.007-0.002,0.01-0.002h9.897
					c0.003,0,0.005,0.002,0.009,0.002c0.003,0,0.006-0.002,0.009-0.002c0.216-0.004,0.389-0.181,0.39-0.396
					c0-0.001,0.002-0.001,0.002-0.002c0,0-0.002-0.002-0.002-0.003v-0.955c5.572-1.826,9.746-6.343,10.664-11.846
					c0.002-0.012,0.003-0.022,0.006-0.032c0.003-0.02,0.005-0.037,0.005-0.056c0-0.221-0.179-0.4-0.4-0.4h-31.355h-0.188
					c-0.223,0-0.402,0.18-0.402,0.4l0.021,0.18C123.968,32.685,128.256,37.226,133.942,38.978"/>
			</g>
			<g>
				<path fill="#FFFFFF" d="M144.645,13.086c-0.13,0.185-3.177,4.572,0.068,8.12c1.488,1.629,1.359,3.065,0.934,4.036h2.082
					c0.422-1.434,0.248-3.23-1.442-5.077c-2.392-2.614,0.03-6.147,0.067-6.202c0.285-0.403,0.132-0.923-0.338-1.165
					C145.543,12.557,144.932,12.686,144.645,13.086"/>
			</g>
			<g>
				<path fill="#FFFFFF" d="M139.372,25.242h2.082c0.422-1.434,0.246-3.229-1.443-5.077c-2.393-2.614,0.027-6.146,0.066-6.204
					c0.283-0.401,0.133-0.921-0.34-1.163c-0.47-0.241-1.083-0.113-1.368,0.287c-0.131,0.186-3.182,4.573,0.067,8.121
					C139.925,22.835,139.796,24.271,139.372,25.242"/>
			</g>
			<g>
				<path fill="#FFFFFF" d="M132.093,13.086c-0.133,0.185-3.18,4.572,0.066,8.12c1.489,1.63,1.36,3.066,0.937,4.036h2.082
					c0.421-1.433,0.247-3.229-1.445-5.077c-2.392-2.614,0.03-6.147,0.068-6.204c0.283-0.401,0.132-0.921-0.34-1.163
					C132.991,12.555,132.378,12.685,132.093,13.086"/>
			</g>
		</g>
	</g>
	<g>
		<g>
			<rect x="168.009" fill="#4D9F46" width="55.998" height="49.996"/>
		</g>
		<g>
			<g>
				<path fill="#FFFFFF" d="M216.161,25.492c0-1.688-1.083-3.058-2.724-3.058c-0.82,0-1.81,0.898-2.348,1.451
					c-0.537-0.553-1.461-1.453-2.282-1.453c-1.641,0-2.791,1.37-2.791,3.059c0,0.844,0.333,1.608,0.871,2.161l4.205,4.215
					l4.201-4.209l-0.004-0.004C215.828,27.101,216.161,26.337,216.161,25.492"/>
			</g>
			<g>
				<path fill="#FFFFFF" d="M198.254,38.746c-0.014,0-0.028,0-0.043-0.001c-0.319-0.02-0.583-0.257-0.638-0.573l-2.137-12.443
					l-3.236,6.001c-0.142,0.264-0.438,0.404-0.729,0.352c-0.294-0.052-0.521-0.286-0.563-0.581l-1.375-9.604l-2.513,5.646
					c-0.111,0.249-0.358,0.41-0.631,0.41h-9.771c-0.381,0-0.69-0.31-0.69-0.691c0-0.381,0.31-0.69,0.69-0.69h9.321l3.307-7.426
					c0.125-0.282,0.421-0.445,0.727-0.403c0.304,0.042,0.545,0.28,0.589,0.586l1.416,9.901l3.191-5.918
					c0.14-0.259,0.429-0.401,0.72-0.353c0.29,0.047,0.52,0.273,0.569,0.564l1.979,11.523l7.211-23.952
					c0.082-0.273,0.322-0.468,0.606-0.49c0.284-0.021,0.554,0.133,0.677,0.389l3.794,7.866c0.166,0.343,0.022,0.756-0.321,0.922
					s-0.757,0.021-0.923-0.322l-3.022-6.266l-7.545,25.062C198.827,38.548,198.557,38.746,198.254,38.746"/>
			</g>
		</g>
	</g>
	<g>
		<g>
			<rect x="224.007" fill="#C4202E" width="55.999" height="49.997"/>
		</g>
		<g>
			<g>
				<polygon fill="#FFFFFF" points="248.612,20.165 237.851,13.952 237.851,34.053 248.612,37.3 				"/>
			</g>
			<g>
				<polygon fill="#FFFFFF" points="249.796,20.206 249.796,37.307 260.627,34.05 260.627,13.952 				"/>
			</g>
			<g>
				<g>
					<path fill="#FFFFFF" d="M269.074,13.443c0-0.704-0.57-1.274-1.272-1.274c-0.704,0-1.273,0.57-1.273,1.274v1.372h2.546V13.443z"
						/>
				</g>
				<g>
					<polygon fill="#FFFFFF" points="266.845,33.696 266.528,33.696 267.802,38.146 269.073,33.696 268.757,33.696 269.073,33.696 
						269.073,15.813 268.757,15.813 268.441,15.813 268.106,15.813 267.473,15.813 267.161,15.813 266.845,15.813 266.527,15.813 
						266.527,33.696 					"/>
				</g>
				<g>
					<polygon fill="#FFFFFF" points="262.938,14.814 261.785,13.903 261.785,34.599 249.827,38.462 249.274,38.462 249.165,38.462 
						248.612,38.462 236.708,35.136 236.708,13.903 235.554,14.814 235.554,35.945 248.558,39.545 249.165,39.545 249.274,39.545 
						249.882,39.545 261.878,35.735 262.938,35.424 					"/>
				</g>
			</g>
		</g>
	</g>
	<g>
		<g>
			<rect x="280.004" fill="#EE412B" width="55.998" height="49.998"/>
		</g>
		<g>
			<path fill="#FFFFFF" d="M321.706,10.697h-7.457c-0.051,0-0.095,0.042-0.095,0.095v2.479c0,0.053,0.044,0.095,0.095,0.095h2.969
				l-3.297,3.298c-1.66-1.305-3.75-2.086-6.021-2.086c-5.385,0-9.768,4.382-9.768,9.768c0,4.959,3.715,9.062,8.507,9.684v2.854
				h-2.942c-0.054,0-0.096,0.043-0.096,0.095v2.656c0,0.053,0.042,0.095,0.096,0.095h2.942v2.811c0,0.052,0.042,0.095,0.095,0.095
				h2.654c0.053,0,0.097-0.043,0.097-0.095v-2.811h2.94c0.053,0,0.095-0.042,0.095-0.095v-2.656c0-0.052-0.042-0.095-0.095-0.095
				h-2.94v-2.901c4.634-0.761,8.182-4.791,8.182-9.637c0-2.091-0.661-4.027-1.784-5.618l3.25-3.251v2.774
				c0,0.053,0.044,0.095,0.097,0.095h2.478c0.053,0,0.097-0.042,0.097-0.095v-7.458C321.803,10.739,321.759,10.697,321.706,10.697
				 M307.899,31.534c-3.965,0-7.188-3.226-7.188-7.189c0-3.965,3.224-7.189,7.188-7.189s7.189,3.225,7.189,7.189
				C315.089,28.309,311.864,31.534,307.899,31.534"/>
		</g>
		<g>
			<path fill="#FFFFFF" d="M312.29,21.394h-8.72c-0.053,0-0.095,0.039-0.095,0.085v2.111c0,0.049,0.042,0.087,0.095,0.087h8.72
				c0.055,0,0.097-0.038,0.097-0.087v-2.111C312.387,21.433,312.345,21.394,312.29,21.394"/>
		</g>
		<g>
			<path fill="#FFFFFF" d="M312.29,25.163h-8.72c-0.053,0-0.095,0.04-0.095,0.088v2.11c0,0.048,0.042,0.086,0.095,0.086h8.72
				c0.055,0,0.097-0.038,0.097-0.086v-2.11C312.387,25.203,312.345,25.163,312.29,25.163"/>
		</g>
	</g>
	<g>
		<g>
			<rect x="336.002" fill="#27BCE2" width="55.999" height="49.998"/>
		</g>
		<g>
			<path fill="#FFFFFF" d="M375.052,12.256c-0.051-0.056-0.119-0.086-0.196-0.086h-21.769c-0.075,0-0.145,0.03-0.195,0.086
				c-0.049,0.061-0.066,0.136-0.055,0.205l3.657,22.12c0.021,0.123,0.127,0.213,0.251,0.213h4.488l0.307,3.603l-1.889,0.003
				l4.396,4.395l4.405-4.404l-1.889,0.002l0.307-3.598h4.568c0.125,0,0.23-0.09,0.25-0.217l3.421-22.116
				C375.121,12.386,375.099,12.313,375.052,12.256 M366.639,29.964c0,0-0.989,1.016-2.597,0.906
				c-1.613,0.109-2.601-0.906-2.601-0.906c-1.631-1.629-1.05-3.656-0.481-4.704c0.351-0.655,2.855-4.419,3.071-4.738v-0.025
				c0,0,0.004,0.005,0.011,0.012l0.008-0.012v0.025c0.21,0.319,2.72,4.083,3.07,4.738C367.688,26.308,368.269,28.335,366.639,29.964
				 M373.544,16.909c-0.59-0.26-1.338-0.166-2.056,0.125c-2.7,1.095-4.539,1.489-7.38,0.599c-1.789-0.56-3.463-1.732-5.441-1.019
				c-1.313,0.473-2.537,0.924-4.021,0.911l-0.857-4.396h20.373L373.544,16.909z"/>
		</g>
	</g>
	<g>
		<g>
			<rect x="392.001" fill="#F9C314" width="55.998" height="49.996"/>
		</g>
		<g>
			<g>
				<path fill="#FFFFFF" d="M420.022,17.063c-4.856,0-8.793,3.938-8.793,8.794c0,4.859,3.937,8.795,8.793,8.795
					c4.855,0,8.793-3.936,8.793-8.795C428.815,21.001,424.878,17.063,420.022,17.063 M419.37,20.538
					c0-0.293,0.295-0.615,0.655-0.615s0.651,0.322,0.651,0.615v3.019c0,0.291-0.291,0.61-0.651,0.61s-0.655-0.319-0.655-0.61V20.538
					z M420.023,30.364c-2.525,0-4.574-2.048-4.574-4.574c0-2.053,1.353-3.79,3.215-4.368v1.702c-0.97,0.495-1.635,1.502-1.635,2.666
					c0,1.654,1.34,2.994,2.994,2.994s2.994-1.34,2.994-2.994c0-1.167-0.669-2.176-1.643-2.67v-1.701
					c1.866,0.576,3.223,2.315,3.223,4.371C424.598,28.316,422.55,30.364,420.023,30.364"/>
			</g>
			<g>
				<path fill="#FFFFFF" d="M409.928,25.78c0-0.398-0.354-0.722-0.676-0.722H405.4c-0.325,0-0.681,0.323-0.681,0.722
					c0,0.4,0.355,0.726,0.681,0.726h3.852C409.574,26.506,409.928,26.181,409.928,25.78"/>
			</g>
			<g>
				<path fill="#FFFFFF" d="M435.328,25.78c0-0.398-0.353-0.722-0.676-0.722h-3.851c-0.324,0-0.681,0.323-0.681,0.722
					c0,0.4,0.356,0.726,0.681,0.726h3.851C434.976,26.506,435.328,26.181,435.328,25.78"/>
			</g>
			<g>
				<path fill="#FFFFFF" d="M420.025,15.686c0.398,0,0.722-0.354,0.722-0.675v-3.853c0-0.324-0.323-0.681-0.722-0.681
					c-0.399,0-0.725,0.356-0.725,0.681v3.853C419.301,15.332,419.626,15.686,420.025,15.686"/>
			</g>
			<g>
				<path fill="#FFFFFF" d="M420.025,41.086c0.398,0,0.722-0.354,0.722-0.676V36.56c0-0.324-0.323-0.681-0.722-0.681
					c-0.399,0-0.725,0.356-0.725,0.681v3.851C419.301,40.732,419.626,41.086,420.025,41.086"/>
			</g>
			<g>
				<path fill="#FFFFFF" d="M411.262,20.766c0.198-0.346,0.052-0.802-0.228-0.962l-3.343-1.913
					c-0.281-0.161-0.751-0.058-0.949,0.288c-0.198,0.347-0.051,0.806,0.231,0.968l3.342,1.912
					C410.595,21.219,411.063,21.112,411.262,20.766"/>
			</g>
			<g>
				<path fill="#FFFFFF" d="M433.308,33.383c0.197-0.346,0.052-0.802-0.229-0.962l-3.342-1.913
					c-0.282-0.161-0.752-0.058-0.949,0.289c-0.199,0.346-0.051,0.806,0.23,0.967l3.343,1.912
					C432.642,33.836,433.108,33.729,433.308,33.383"/>
			</g>
			<g>
				<path fill="#FFFFFF" d="M425.04,17.021c0.347,0.197,0.802,0.051,0.963-0.229l1.912-3.342c0.162-0.282,0.059-0.752-0.288-0.95
					s-0.806-0.051-0.967,0.231l-1.913,3.342C424.587,16.354,424.692,16.821,425.04,17.021"/>
			</g>
			<g>
				<path fill="#FFFFFF" d="M412.424,39.065c0.345,0.198,0.801,0.052,0.962-0.229l1.912-3.342c0.161-0.281,0.058-0.752-0.288-0.949
					c-0.347-0.199-0.807-0.051-0.967,0.23l-1.913,3.343C411.97,38.398,412.076,38.867,412.424,39.065"/>
			</g>
			<g>
				<path fill="#FFFFFF" d="M414.991,17.028c0.346-0.198,0.451-0.665,0.289-0.945l-1.919-3.339
					c-0.163-0.281-0.619-0.429-0.966-0.229c-0.347,0.198-0.45,0.67-0.287,0.951l1.919,3.338
					C414.188,17.083,414.645,17.228,414.991,17.028"/>
			</g>
			<g>
				<path fill="#FFFFFF" d="M427.654,39.049c0.346-0.199,0.449-0.666,0.289-0.945l-1.92-3.339c-0.162-0.282-0.62-0.43-0.965-0.23
					c-0.347,0.198-0.451,0.67-0.288,0.951l1.919,3.339C426.851,39.104,427.308,39.248,427.654,39.049"/>
			</g>
			<g>
				<path fill="#FFFFFF" d="M428.777,20.75c0.198,0.345,0.666,0.449,0.945,0.289l3.338-1.92c0.282-0.162,0.431-0.62,0.231-0.965
					c-0.199-0.347-0.67-0.451-0.951-0.289l-3.339,1.92C428.723,19.945,428.578,20.403,428.777,20.75"/>
			</g>
			<g>
				<path fill="#FFFFFF" d="M406.758,33.413c0.198,0.345,0.665,0.449,0.945,0.288l3.338-1.92c0.282-0.162,0.431-0.619,0.23-0.965
					c-0.198-0.347-0.67-0.45-0.95-0.289l-3.339,1.92C406.702,32.607,406.559,33.065,406.758,33.413"/>
			</g>
		</g>
	</g>
	<g>
		<g>
			<rect x="447.999" fill="#A11C43" width="55.998" height="49.996"/>
		</g>
		<g>
			<g>
				<path fill="#FFFFFF" d="M487.383,17.513l-6.099,5.801c-0.23,0.229-0.348,0.398-0.348,0.872v16.26
					c0,0.19,0.155,0.347,0.348,0.347h6.3c0.192,0,0.347-0.156,0.347-0.347V17.658C487.931,17.467,487.781,17.116,487.383,17.513"/>
			</g>
			<g>
				<path fill="#FFFFFF" d="M469.813,25.07l-6.1,5.802c-0.229,0.229-0.348,0.397-0.348,0.87v8.703c0,0.189,0.156,0.346,0.348,0.346
					h6.301c0.191,0,0.347-0.156,0.347-0.346V25.217C470.361,25.024,470.21,24.673,469.813,25.07"/>
			</g>
			<g>
				<path fill="#FFFFFF" d="M490.155,10.477c0.002-0.046-0.015-0.096-0.053-0.132c-0.031-0.031-0.072-0.046-0.111-0.049
					l-0.034,0.002l-0.05,0.002l-4.67,1.054l-0.085,0.009c-0.033,0.007-0.065,0.023-0.091,0.048c-0.069,0.069-0.069,0.182,0,0.251
					l0.053,0.053l1.066,1.066l-10.582,10.582l-4.887-4.888c-0.055-0.056-0.144-0.056-0.199,0l-1.326,1.326
					c-0.001,0-0.001,0.002-0.001,0.002l-7.834,7.833c-0.054,0.055-0.054,0.145,0,0.199l1.328,1.326c0.054,0.056,0.143,0.056,0.197,0
					l7.736-7.734l3.547,3.547c0.003,0.005,0.005,0.012,0.011,0.017l1.327,1.324c0.055,0.057,0.143,0.057,0.199,0l12.009-12.009
					l1.12,1.119c0.068,0.07,0.181,0.07,0.249,0c0.032-0.032,0.049-0.072,0.051-0.114l0.001-0.016l1.025-4.767L490.155,10.477z"/>
			</g>
			<g>
				<path fill="#FFFFFF" d="M478.633,26.089l-2.95,2.975c-0.057,0.047-0.139,0.045-0.19-0.007l-2.674-2.725
					c-0.489-0.488-0.595-0.093-0.595,0.099v14.014c0,0.19,0.153,0.347,0.345,0.347h6.302c0.19,0,0.347-0.156,0.347-0.347V26.199
					C479.217,26.007,479.065,25.655,478.633,26.089"/>
			</g>
		</g>
	</g>
	<g>
		<g>
			<rect x="503.997" fill="#F16A2B" width="55.999" height="49.996"/>
		</g>
		<g>
			<path fill="#FFFFFF" d="M547.324,27.431l-7.133-4.116v-8.235c0-0.174-0.093-0.335-0.243-0.421l-7.374-4.258
				c-0.151-0.087-0.336-0.087-0.486,0l-7.375,4.258c-0.151,0.086-0.243,0.247-0.243,0.421v8.235l-7.132,4.116
				c-0.15,0.087-0.243,0.247-0.243,0.421v8.518c0,0.174,0.093,0.334,0.243,0.421l7.375,4.258c0.075,0.043,0.159,0.064,0.243,0.064
				s0.168-0.021,0.243-0.064l7.132-4.117l7.131,4.117c0.074,0.043,0.159,0.064,0.243,0.064s0.168-0.021,0.243-0.064l7.376-4.258
				c0.15-0.086,0.243-0.247,0.243-0.421v-8.518C547.567,27.678,547.475,27.518,547.324,27.431 M531.844,35.526l-5.915-3.416
				l5.915-3.415V35.526z M538.731,23.595l-5.914,3.415v-6.831L538.731,23.595z M531.844,27.01l-5.915-3.415l5.915-3.416V27.01z
				 M533.304,27.853l6.401-3.695l6.402,3.694l-6.402,3.697L533.304,27.853z M539.219,22.752l-5.915-3.416l5.915-3.414V22.752z
				 M531.357,19.336l-5.915,3.416v-6.83L531.357,19.336z M524.47,39.783l-6.402-3.695v-7.393l6.402,3.696V39.783z M525.442,39.783
				v-6.83l5.915,3.416L525.442,39.783z M546.595,36.088l-6.403,3.695v-7.392l6.403-3.696V36.088z"/>
		</g>
	</g>
	<g>
		<g>
			<rect x="559.996" fill="#DD1768" width="55.998" height="49.997"/>
		</g>
		<g>
			<g>
				<path fill="#FFFFFF" d="M594.19,27.63h-11.994c-0.072,0-0.13,0.059-0.13,0.13v2.718c0,0.073,0.058,0.131,0.13,0.131h11.994
					c0.073,0,0.131-0.058,0.131-0.131V27.76C594.321,27.688,594.264,27.63,594.19,27.63"/>
			</g>
			<g>
				<path fill="#FFFFFF" d="M594.321,22.65c0-0.072-0.058-0.131-0.131-0.131h-9.943h-2.051c-0.072,0-0.13,0.059-0.13,0.131v1.07
					v1.647c0,0.072,0.058,0.131,0.13,0.131h11.994c0.073,0,0.131-0.059,0.131-0.131V22.65z"/>
			</g>
			<g>
				<path fill="#FFFFFF" d="M601.261,23.714c-0.491-1.977-1.387-3.743-2.571-5.246l-0.026,0.021c0.385,0.573,0.73,1.18,1.024,1.82
					c1.556,2.854,2.032,6.296,1.051,9.663c-1.97,6.755-9.042,10.634-15.796,8.664c-2.839-0.828-5.168-2.561-6.771-4.79
					c-1.001-1.288-1.758-2.797-2.177-4.479c-1.604-6.445,2.32-12.971,8.767-14.573c3.986-0.992,7.997,0.139,10.86,2.666
					c0.025,0.022,0.051,0.046,0.077,0.068c0.077,0.059,0.169,0.1,0.272,0.1c0.116,0,0.219-0.047,0.301-0.117l0.048-0.047
					l1.526-1.508l0.101-0.099c0.057-0.077,0.097-0.169,0.097-0.271c0-0.12-0.048-0.227-0.122-0.31
					c-0.017-0.015-0.033-0.028-0.049-0.043c-3.522-3.147-8.484-4.562-13.415-3.335c-7.918,1.97-12.738,9.986-10.768,17.903
					c0.825,3.318,2.715,6.088,5.211,8.047c2.487,2.038,5.654,3.196,8.973,3.161c1.067-0.011,2.15-0.142,3.232-0.411
					C598.572,38.74,603.119,31.181,601.261,23.714"/>
			</g>
		</g>
	</g>
	<g>
		<g>
			<rect x="615.994" fill="#F89C28" width="55.998" height="49.997"/>
		</g>
		<g>
			<g>
				<path fill="#FFFFFF" d="M624.315,33.674h0.092h8.934c0.122,0,0.221-0.1,0.221-0.223c0-0.056-0.022-0.107-0.058-0.146
					l-0.013-0.013l-4.49-5.811l-0.044-0.048c-0.04-0.044-0.099-0.072-0.163-0.072c-0.056,0-0.105,0.023-0.146,0.058l-0.026,0.031
					l-0.043,0.047l-4.381,5.749l-0.067,0.082c-0.024,0.034-0.038,0.078-0.038,0.123C624.093,33.574,624.192,33.674,624.315,33.674"
					/>
			</g>
			<g>
				<path fill="#FFFFFF" d="M633.313,34.493h-9.043c-0.123,0-0.222,0.1-0.222,0.222v7.076c0,0.123,0.099,0.223,0.222,0.223h2.91
					v-4.452c0-0.123,0.099-0.222,0.222-0.222h2.702c0.122,0,0.221,0.099,0.221,0.222v4.452h2.988c0.122,0,0.221-0.1,0.221-0.223
					v-7.076C633.534,34.593,633.436,34.493,633.313,34.493"/>
			</g>
			<g>
				<path fill="#FFFFFF" d="M664.568,32.641h-8.95c-0.121,0-0.219,0.094-0.219,0.213v9.038c0,0.117,0.098,0.212,0.219,0.212h8.95
					c0.122,0,0.22-0.095,0.22-0.212v-9.038C664.788,32.734,664.69,32.641,664.568,32.641 M659.671,38.541
					c0,0.118-0.098,0.214-0.219,0.214h-2.674c-0.121,0-0.22-0.096-0.22-0.214v-1.625c0-0.118,0.099-0.214,0.22-0.214h2.674
					c0.121,0,0.219,0.096,0.219,0.214V38.541z M659.671,35.537c0,0.118-0.098,0.214-0.219,0.214h-2.674
					c-0.121,0-0.22-0.096-0.22-0.214v-1.626c0-0.117,0.099-0.213,0.22-0.213h2.674c0.121,0,0.219,0.096,0.219,0.213V35.537z
					 M663.758,38.541c0,0.118-0.097,0.214-0.219,0.214h-2.674c-0.122,0-0.22-0.096-0.22-0.214v-1.625
					c0-0.118,0.098-0.214,0.22-0.214h2.674c0.122,0,0.219,0.096,0.219,0.214V38.541z M663.758,35.537
					c0,0.118-0.097,0.214-0.219,0.214h-2.674c-0.122,0-0.22-0.096-0.22-0.214v-1.626c0-0.117,0.098-0.213,0.22-0.213h2.674
					c0.122,0,0.219,0.096,0.219,0.213V35.537z"/>
			</g>
			<g>
				<path fill="#FFFFFF" d="M643.762,11.66h-8.759c-0.117,0-0.215,0.096-0.215,0.216v29.936c0,0.117,0.098,0.214,0.215,0.214h8.759
					c0.118,0,0.216-0.097,0.216-0.214V11.876C643.978,11.756,643.88,11.66,643.762,11.66 M638.552,38.615
					c0,0.063-0.053,0.114-0.115,0.114h-2.006c-0.063,0-0.115-0.051-0.115-0.114V36.38c0-0.063,0.052-0.114,0.115-0.114h2.006
					c0.063,0,0.115,0.051,0.115,0.114V38.615z M638.552,33.481c0,0.065-0.053,0.115-0.115,0.115h-2.006
					c-0.063,0-0.115-0.05-0.115-0.115v-2.234c0-0.064,0.052-0.115,0.115-0.115h2.006c0.063,0,0.115,0.051,0.115,0.115V33.481z
					 M638.552,28.35c0,0.063-0.053,0.115-0.115,0.115h-2.006c-0.063,0-0.115-0.052-0.115-0.115v-2.235
					c0-0.064,0.052-0.115,0.115-0.115h2.006c0.063,0,0.115,0.051,0.115,0.115V28.35z M638.552,23.217
					c0,0.063-0.053,0.114-0.115,0.114h-2.006c-0.063,0-0.115-0.051-0.115-0.114V20.98c0-0.063,0.052-0.113,0.115-0.113h2.006
					c0.063,0,0.115,0.051,0.115,0.113V23.217z M638.552,18.084c0,0.063-0.053,0.115-0.115,0.115h-2.006
					c-0.063,0-0.115-0.053-0.115-0.115v-2.235c0-0.064,0.052-0.115,0.115-0.115h2.006c0.063,0,0.115,0.051,0.115,0.115V18.084z
					 M642.484,38.615c0,0.063-0.052,0.114-0.115,0.114h-2.005c-0.064,0-0.115-0.051-0.115-0.114V36.38
					c0-0.063,0.051-0.114,0.115-0.114h2.005c0.063,0,0.115,0.051,0.115,0.114V38.615z M642.484,33.481
					c0,0.065-0.052,0.115-0.115,0.115h-2.005c-0.064,0-0.115-0.05-0.115-0.115v-2.234c0-0.064,0.051-0.115,0.115-0.115h2.005
					c0.063,0,0.115,0.051,0.115,0.115V33.481z M642.484,28.35c0,0.063-0.052,0.115-0.115,0.115h-2.005
					c-0.064,0-0.115-0.052-0.115-0.115v-2.235c0-0.064,0.051-0.115,0.115-0.115h2.005c0.063,0,0.115,0.051,0.115,0.115V28.35z
					 M642.484,23.217c0,0.063-0.052,0.114-0.115,0.114h-2.005c-0.064,0-0.115-0.051-0.115-0.114V20.98
					c0-0.063,0.051-0.113,0.115-0.113h2.005c0.063,0,0.115,0.051,0.115,0.113V23.217z M642.484,18.084
					c0,0.063-0.052,0.115-0.115,0.115h-2.005c-0.064,0-0.115-0.053-0.115-0.115v-2.235c0-0.064,0.051-0.115,0.115-0.115h2.005
					c0.063,0,0.115,0.051,0.115,0.115V18.084z"/>
			</g>
			<g>
				<path fill="#FFFFFF" d="M664.777,31.73c0,0.102-0.08,0.181-0.18,0.181h-9.009c-0.1,0-0.18-0.079-0.18-0.181V29.93
					c0-0.1,0.08-0.18,0.18-0.18h9.009c0.1,0,0.18,0.08,0.18,0.18V31.73z"/>
			</g>
			<g>
				<path fill="#FFFFFF" d="M654.342,17.314c-0.028-0.097-0.114-0.168-0.22-0.168c-0.047,0-0.088,0.018-0.125,0.041
					c-0.005,0.005-0.011,0.007-0.017,0.011l-0.073,0.094l-8.609,10.921l-0.04,0.053c-0.044,0.044-0.072,0.104-0.074,0.171v0.015
					v13.405c0,0.118,0.096,0.213,0.215,0.213h8.75c0.119,0,0.214-0.095,0.214-0.213V17.403
					C654.362,17.371,654.354,17.341,654.342,17.314 M650.718,23.244l0.062-0.076c0.589-0.756,1.581-1.979,2.065-2.572l0.063-0.075
					c0.046-0.056,0.115-0.092,0.192-0.092c0.12,0,0.216,0.087,0.239,0.201v0.097v0.078v2.588c0,0.134-0.105,0.24-0.237,0.246
					c-0.005,0-0.008,0.002-0.012,0.002s-0.007-0.002-0.011-0.002h-2.044h-0.107c-0.004,0-0.007,0.002-0.011,0.002
					s-0.007-0.002-0.011-0.002c-0.133-0.006-0.238-0.112-0.238-0.246C650.669,23.337,650.688,23.286,650.718,23.244 M649.355,38.539
					c0,0.119-0.095,0.215-0.214,0.215h-2.611c-0.118,0-0.214-0.096-0.214-0.215v-1.634c0-0.118,0.096-0.214,0.214-0.214h2.611
					c0.119,0,0.214,0.096,0.214,0.214V38.539z M649.355,35.521c0,0.118-0.095,0.214-0.214,0.214h-2.611
					c-0.118,0-0.214-0.096-0.214-0.214v-1.635c0-0.119,0.096-0.214,0.214-0.214h2.611c0.119,0,0.214,0.095,0.214,0.214V35.521z
					 M649.355,32.501c0,0.117-0.095,0.213-0.214,0.213h-2.611c-0.118,0-0.214-0.096-0.214-0.213v-1.636
					c0-0.118,0.096-0.214,0.214-0.214h2.611c0.119,0,0.214,0.096,0.214,0.214V32.501z M649.362,25.884v0.078v3.521
					c0,0.119-0.097,0.215-0.214,0.215h-2.61c-0.119,0-0.215-0.096-0.215-0.215v-0.435v-0.018c0.001-0.029,0.006-0.057,0.016-0.08
					c0.005-0.01,0.006-0.013,0.014-0.025c0.005-0.01,0.013-0.02,0.02-0.028c0.006-0.011,0.016-0.023,0.023-0.035
					c0.334-0.479,1.84-2.333,2.473-3.108l0.063-0.076c0.046-0.055,0.114-0.091,0.192-0.091c0.12,0,0.216,0.087,0.238,0.2V25.884z
					 M653.347,38.539c0,0.119-0.098,0.215-0.215,0.215h-2.609c-0.119,0-0.216-0.096-0.216-0.215v-1.634
					c0-0.118,0.097-0.214,0.216-0.214h2.609c0.117,0,0.215,0.096,0.215,0.214V38.539z M653.347,35.521
					c0,0.118-0.098,0.214-0.215,0.214h-2.609c-0.119,0-0.216-0.096-0.216-0.214v-1.635c0-0.119,0.097-0.214,0.216-0.214h2.609
					c0.117,0,0.215,0.095,0.215,0.214V35.521z M653.347,32.501c0,0.117-0.098,0.213-0.215,0.213h-2.609
					c-0.119,0-0.216-0.096-0.216-0.213v-1.636c0-0.118,0.097-0.214,0.216-0.214h2.609c0.117,0,0.215,0.096,0.215,0.214V32.501z
					 M653.347,29.48c0,0.118-0.098,0.214-0.215,0.214h-2.609c-0.119,0-0.216-0.096-0.216-0.214v-1.634
					c0-0.119,0.097-0.214,0.216-0.214h2.609c0.117,0,0.215,0.095,0.215,0.214V29.48z M653.347,26.461
					c0,0.118-0.098,0.214-0.215,0.214h-2.609c-0.119,0-0.216-0.096-0.216-0.214v-1.635c0-0.119,0.097-0.215,0.216-0.215h2.609
					c0.117,0,0.215,0.096,0.215,0.215V26.461z"/>
			</g>
		</g>
	</g>
	<g>
		<g>
			<rect x="671.992" fill="#BE8B2C" width="55.999" height="49.999"/>
		</g>
		<g>
			<path fill="#FFFFFF" d="M716.425,20.136c-2.447-1.932-5.382-2.141-6.529-2.141c-0.605,0-1.166,0.054-1.576,0.151l-0.161,0.038
				c-1.55,0.365-4.144,0.979-7.163,4.726l-0.088,0.11c-0.051,0.071-0.076,0.147-0.076,0.227c0,0.068,0.017,0.135,0.053,0.199
				l0.068,0.112c0.498,0.833,0.914,1.558,1.242,2.173c0.118,0.228,0.433,0.302,0.646,0.09c0.021-0.027,0.042-0.057,0.056-0.079
				c2.608-3.607,4.653-4.088,6.005-4.406l0.168-0.039c0.187-0.046,0.488-0.071,0.828-0.071c0.629,0,2.814,0.104,4.52,1.451
				c1.518,1.197,2.287,3.11,2.287,5.686c0,4.314-2.088,5.998-3.84,6.65c-0.668,0.249-1.389,0.376-2.141,0.376
				c-1.804,0-3.192-0.722-3.211-0.731l-0.125-0.061c-1.507-0.654-3.756-2.019-5.883-6.289c-4.36-8.757-8.022-9.587-10.447-10.136
				l-0.128-0.028c-0.186-0.042-0.71-0.141-1.563-0.141c-1.404,0-4.105,0.276-6.421,2.124c-1.58,1.261-3.466,3.711-3.466,8.217
				c0,2.747,0.565,4.561,2.017,6.468c0.271,0.372,2.799,3.635,7.649,3.635c0.72,0,1.465-0.072,2.216-0.217
				c0.885-0.17,2.252-0.607,3.778-1.727l1.275,1.15c0.143,0.13,0.39,0.117,0.518-0.024c0.063-0.065,0.096-0.154,0.092-0.242
				l0.986-6.076l0.001-0.071c-0.001-0.104-0.047-0.202-0.118-0.265c-0.065-0.062-0.148-0.095-0.256-0.095h-0.003l-5.916,1.636
				l-0.112,0.019c-0.075,0.017-0.141,0.055-0.188,0.109c-0.067,0.073-0.102,0.168-0.096,0.268c0.005,0.098,0.049,0.188,0.12,0.252
				l1.227,1.109c-0.646,0.395-1.288,0.656-1.915,0.777c-0.533,0.103-1.063,0.153-1.569,0.153c-3.353,0-5.002-2.199-5.07-2.293
				l-0.032-0.045c-1.021-1.34-1.365-2.48-1.365-4.521c0-2.583,0.757-4.497,2.247-5.688c1.659-1.324,3.794-1.427,4.409-1.427
				c0.337,0,0.643,0.025,0.839,0.07l0.131,0.029c1.937,0.438,4.587,1.038,8.262,8.421c1.941,3.896,4.375,6.446,7.435,7.79
				c0.356,0.182,2.254,1.087,4.687,1.087c1.136,0,2.235-0.195,3.271-0.58c1.787-0.667,5.944-2.946,5.944-9.685
				C719.941,23.858,718.029,21.403,716.425,20.136"/>
		</g>
	</g>
	<g>
		<g>
			<rect x="727.991" fill="#417F44" width="55.998" height="49.999"/>
		</g>
		<g>
			<path fill="#FFFFFF" d="M778.462,25.559c-1.58-2.218-8.731-11.07-22.023-11.07c-13.294,0-20.442,8.853-22.026,11.07
				c-0.066,0.095-0.125,0.177-0.173,0.246c0.048,0.072,0.106,0.153,0.173,0.249c1.584,2.217,8.732,11.07,22.026,11.07
				c13.292,0,20.443-8.854,22.023-11.07c0.069-0.096,0.126-0.177,0.172-0.249C778.588,25.735,778.531,25.653,778.462,25.559
				 M749.023,20.086c0.12-0.176,0.519-0.678,0.566-0.741c0.103-0.132,0.306-0.158,0.448-0.184c0.141-0.027,0.329,0.052,0.352,0.158
				c0.024,0.106-0.055,0.518-0.124,0.588c-0.194,0.203-0.702,0.488-0.981,0.443C749.067,20.317,748.982,20.15,749.023,20.086
				 M748.548,21.03c0.021-0.024,0.041-0.045,0.049-0.056c0.167-0.19,0.5-0.231,0.73-0.267c0.23-0.04,0.537,0.076,0.574,0.229
				c0.04,0.152-0.577,0.432-0.69,0.536c-0.319,0.295-0.819,0.895-1.113,0.959c-0.096,0.021-0.175,0.008-0.239-0.024
				C748.052,21.929,748.282,21.467,748.548,21.03 M753.523,31.236c-0.18,0.708-0.39,0.963-0.569,1.187
				c-0.179,0.226-0.842,0.514-1.262,0.483c-0.422-0.032-0.48-1.156-0.48-1.734c0-0.199-0.283,0.393-0.43-0.811
				c-0.095-0.771-0.589,0.08-0.624-0.434c-0.035-0.513-0.282-0.41-0.542-0.73c-0.258-0.32-0.58,0.031-0.941,0.193
				c-0.359,0.159-0.211,0.243-0.722,0.083c-0.014-0.004-0.02-0.008-0.032-0.013c-0.47-1.107-0.729-2.326-0.729-3.604
				c0-0.313,0.018-0.62,0.047-0.924c0.018-0.031,0.035-0.061,0.057-0.087c0.49-0.579,0.479-0.715,0.479-0.715l0.541-0.188
				c0,0,0.866,0.134,1.518,0.379c0.537,0.201,1.383,0.656,1.874,0.456c0.354-0.146,0.634-0.341,0.601-0.637
				c-0.041-0.371-0.333-0.46-0.687-0.209c-0.131,0.092-0.409-0.561-0.627-0.526c-0.219,0.032,0.27,0.766,0.085,0.796
				c-0.186,0.032-0.559-0.764-0.623-0.893c-0.063-0.128-0.351-0.447-0.608-0.204c-0.546,0.519-1.434,0.487-1.611,0.621
				c-0.543,0.405-0.686-0.134-0.674-0.462c0.022-0.075,0.044-0.151,0.068-0.226c0.177-0.195,0.812-0.26,1.03-0.114
				c0.24,0.16,0.412-0.041,0.505-0.138c0.096-0.095,0.062-0.249,0.002-0.377c-0.061-0.129,0.12-0.223,0.243-0.256
				c0.125-0.033,0.538-0.322,0.703-0.419c0.166-0.095,1.021-0.199,1.405-0.007c0.384,0.193,0.736,0.035,0.925-0.187
				c0.236-0.281,0.537-0.495,0.672-0.56c0.134-0.063-0.331-0.497-0.713-0.023c-0.383,0.47-0.578,0.514-0.758,0.514
				s-1.248-0.267-1.381-0.604c-0.13-0.338,0.334-0.591,0.729-0.782c0.394-0.188,1.474-0.185,1.749-0.247
				c0.562-0.123,1.279-0.405,1.641-0.159c0.359,0.241-1.509,0.667-0.895,0.999c0.218,0.12,1.206-0.568,1.545-0.745
				c0.796-0.41-0.772-0.546-0.568-1.381c0.229-0.944-1.925-0.579-2.998-0.498c1.439-0.924,3.15-1.46,4.986-1.46
				c4.368,0,8.028,3.026,9.004,7.096c0.007,0.202-0.024,0.347-0.045,0.429c-0.084,0.334-0.717,0.621-1.084,0.083
				c-0.094-0.135-0.492-0.51-0.479,0.132s0.624,0.707,0.032,1.093c-0.591,0.385-0.699,0.292-0.974,0.389
				c-0.271,0.097-0.537,0.758-0.472,1.111c0.065,0.354,0.91,1.319,0.283,1.279c-0.146-0.011-1.253-0.767-1.435-1.252
				c-0.193-0.512-0.404-1.013-0.553-1.398c-0.152-0.385-0.542-0.483-0.873-0.257c-0.329,0.226,0.092,0.451-0.145,0.934
				c-0.236,0.48-0.406,0.911-0.754,0.514c-0.904-1.036-2.217-0.525-2.423-1.678c-0.111-0.625-0.649-0.564-1.099-0.919
				c-0.453-0.352-0.705-0.543-0.78-0.288c-0.067,0.224,1.415,1.399,1.521,1.7c0.158,0.446-0.443,0.841-0.884,0.947
				c-0.438,0.105-0.632-0.247-1.063-0.696c-0.431-0.448-0.619-0.77-0.649-0.417c-0.043,0.51,0.409,1.258,0.849,1.537
				c0.375,0.238,0.795,0.346,0.674,0.73c-0.122,0.386-0.002,0.168-0.422,0.583c-0.421,0.417-0.501,0.552-0.471,1.128
				c0.03,0.578-0.119,0.611-0.21,1.092C753.914,30.947,753.706,30.531,753.523,31.236 M763.457,27.544
				c0.312-0.025,0.779,0.406,0.596,0.572c-0.182,0.163-0.648,0.104-0.883-0.08C762.938,27.855,763.317,27.556,763.457,27.544
				 M763.063,27.259c-0.1-0.037-0.188-0.132-0.264-0.358c-0.075-0.228,0.115-0.357,0.303-0.267c0.189,0.097,0.438,0.381,0.438,0.532
				S763.166,27.299,763.063,27.259 M758.977,27.243c-0.183,0.163-0.651,0.104-0.886-0.08c-0.232-0.181,0.148-0.481,0.287-0.492
				C758.69,26.644,759.158,27.078,758.977,27.243 M755.195,29.082c-0.128,0.208-0.477,1.766-0.71,1.584
				c-0.235-0.182,0.095-1.807,0.162-1.93C755.014,28.065,755.805,28.099,755.195,29.082 M756.454,35.117
				c-0.905,0-1.777-0.132-2.603-0.373c-0.119-0.097-0.187-0.258-0.112-0.452c0.286-0.747,1.14-1.04,1.813-1.104
				c1.501-0.146,3.475,0.975,3.789,0.794s0.95-1.006,1.881-0.972c0.636,0.024,0.631,0.131,0.845,0.212
				C760.51,34.41,758.565,35.117,756.454,35.117 M762.984,32.422c-0.093-0.026-0.188-0.056-0.29-0.107
				c-0.506-0.258-0.445,0.154-0.693,0.063c-0.25-0.093,0.28-0.67-0.467-0.183c-0.743,0.487-0.542-0.075-0.867-0.898
				c-0.327-0.825,0.373-1.766,0.959-1.979c0.804-0.291,1.304-0.351,1.682-0.443c1.111-0.277,1.347-0.938,1.549-0.536
				c0.037,0.075,0.074,0.146,0.108,0.215c0.064,0.119,0.14,0.362,0.144,0.603C764.636,30.393,763.907,31.505,762.984,32.422
				 M765.521,27.747c-0.248-0.068-1.288-1.506-0.466-2.451c0.137-0.155-0.276-0.613-0.163-0.623
				c0.449-0.034,0.688,0.245,0.807,0.647c0.009,0.177,0.017,0.355,0.017,0.536C765.716,26.504,765.647,27.137,765.521,27.747"/>
		</g>
	</g>
	<g>
		<g>
			<rect x="839.987" fill="#5BB947" width="56" height="49.998"/>
		</g>
		<g>
			<g>
				<path fill="#FFFFFF" d="M862.834,28.563c0.072,0,0.132,0.059,0.132,0.132v4.369c0,0.074-0.06,0.133-0.132,0.133h-1.769
					c-0.074,0-0.133-0.059-0.133-0.133v-4.369c0-0.073,0.059-0.132,0.133-0.132H862.834z"/>
			</g>
			<g>
				<path fill="#FFFFFF" d="M882.25,35.073h-29.137c-0.073,0-0.133,0.063-0.133,0.137v1.781c0,0.072,0.06,0.131,0.133,0.131h29.137
					c0.071,0,0.134-0.059,0.134-0.131V35.21C882.384,35.137,882.321,35.073,882.25,35.073"/>
			</g>
			<g>
				<path fill="#FFFFFF" d="M882.25,38.613h-29.137c-0.073,0-0.133,0.059-0.133,0.131v1.786c0,0.072,0.06,0.132,0.133,0.132h29.137
					c0.071,0,0.134-0.06,0.134-0.132v-1.786C882.384,38.672,882.321,38.613,882.25,38.613"/>
			</g>
			<g>
				<path fill="#FFFFFF" d="M876.706,23.727c-0.365-0.285-1.336-0.95-2.521-0.95c-0.847,0-1.636,0.334-2.34,0.995
					c-0.05,0.047-0.078,0.112-0.078,0.183v0.158c0,0.078,0.026,0.152,0.084,0.199c0.062,0.048,0.128,0.066,0.204,0.048
					c0.018-0.002,0.038-0.008,0.055-0.014c0.054-0.019,0.104-0.051,0.146-0.093c0.153-0.103,0.57-0.242,1.167-0.242
					c0.618,0,1.83,0.165,3.002,1.258l0.027,0.024c0.066,0.067,0.157,0.105,0.254,0.105c0.092,0,0.187-0.038,0.246-0.104l0.023-0.024
					c1.179-1.095,2.39-1.26,3.007-1.26c0.601,0,1.017,0.14,1.17,0.242c0.042,0.042,0.094,0.075,0.161,0.099
					c0.025,0.008,0.1,0.023,0.171,0.006c0.107-0.03,0.184-0.128,0.184-0.24v-0.141c0-0.066-0.029-0.134-0.078-0.18
					c-0.712-0.679-1.509-1.021-2.368-1.021C878.048,22.775,877.08,23.43,876.706,23.727"/>
			</g>
			<g>
				<path fill="#FFFFFF" d="M874.897,12.114c-0.063,0.028-0.106,0.085-0.127,0.153l-0.029,0.097
					c-0.021,0.076-0.008,0.157,0.038,0.219c0.045,0.06,0.109,0.096,0.181,0.099c0.013,0.001,0.026,0.005,0.036,0.001
					c0.05-0.001,0.097-0.013,0.141-0.035c0.026-0.006,0.079-0.021,0.177-0.021c0.13,0,1.305,0.04,2.082,1.359l0.01,0.02
					c0.042,0.076,0.107,0.129,0.187,0.149c0.022,0.007,0.065,0.014,0.092,0.014c0.054,0,0.108-0.014,0.147-0.036l0.02-0.009
					c0.425-0.213,0.865-0.322,1.3-0.322c0.735,0,1.216,0.301,1.328,0.426c0.023,0.042,0.058,0.08,0.098,0.108
					c0.024,0.015,0.069,0.037,0.095,0.046c0.014,0.003,0.029,0.005,0.043,0.006c0.008,0.002,0.018,0.002,0.026,0.002
					c0.04,0,0.078-0.01,0.115-0.029c0.06-0.03,0.104-0.084,0.124-0.149l0.024-0.086c0.008-0.021,0.01-0.045,0.01-0.07
					c0-0.046-0.012-0.09-0.034-0.125c-0.565-0.983-1.387-1.188-1.976-1.188c-0.438,0-0.822,0.114-1.049,0.197
					c-0.267-0.359-0.941-1.102-1.965-1.102C875.63,11.837,875.264,11.93,874.897,12.114"/>
			</g>
			<g>
				<path fill="#FFFFFF" d="M868.741,16.597l0.008,0.131c0.004,0.082,0.047,0.152,0.117,0.196c0.057,0.036,0.131,0.049,0.195,0.029
					c0.015-0.003,0.03-0.008,0.043-0.013c0.05-0.021,0.093-0.053,0.125-0.094c0.125-0.089,0.523-0.252,1.112-0.252
					c0.565,0,1.427,0.151,2.304,0.871l0.021,0.021c0.063,0.054,0.143,0.084,0.225,0.084h0.021c0.092-0.007,0.177-0.049,0.229-0.109
					l0.02-0.021c0.972-1.028,2.018-1.181,2.555-1.181c0.382,0,0.653,0.079,0.76,0.138c0.04,0.035,0.089,0.063,0.15,0.079
					c0.018,0.004,0.061,0.013,0.107,0.007c0.019-0.002,0.043-0.008,0.062-0.015c0.104-0.036,0.172-0.138,0.165-0.25l-0.007-0.114
					c-0.004-0.068-0.036-0.129-0.088-0.173c-0.58-0.487-1.204-0.734-1.863-0.734c-1.025,0-1.842,0.606-2.182,0.903
					c-0.31-0.211-1.062-0.646-1.943-0.646c-0.775,0-1.471,0.322-2.066,0.955C868.762,16.46,868.737,16.528,868.741,16.597"/>
			</g>
			<g>
				<path fill="#FFFFFF" d="M853.996,18.936c0-1.745,1.415-3.159,3.159-3.159c0.068,0,0.135,0.006,0.203,0.011
					c0.165-2.208,2.005-3.95,4.257-3.95c2.36,0,4.274,1.914,4.274,4.274c0,0.669-0.159,1.299-0.433,1.862
					c2.14,0.474,3.74,2.379,3.74,4.659c0,2.638-2.139,4.776-4.776,4.776c-0.192,0-6.373-0.037-6.373-0.037
					c-1.869,0-3.383-1.514-3.383-3.382c0-0.897,0.352-1.71,0.922-2.315C854.638,21.13,853.996,20.109,853.996,18.936"/>
			</g>
		</g>
	</g>
	<g>
		<g>
			<rect x="951.986" fill="#19486B" width="55.999" height="49.999"/>
		</g>
		<g>
			<g>
				<path fill="#FFFFFF" d="M995.235,24.385c0-4.214-3.352-7.657-7.527-7.81c-1.074-3.033-3.972-5.213-7.369-5.213
					c-3.396,0-6.293,2.18-7.368,5.213c-4.176,0.152-7.526,3.596-7.526,7.81c0,2.5,1.182,4.729,3.016,6.16
					c-0.199,0.689-0.309,1.416-0.309,2.169c0,4.308,3.506,7.814,7.815,7.814c1.636,0,3.154-0.507,4.411-1.368
					c1.241,0.83,2.732,1.315,4.335,1.315c4.31,0,7.815-3.506,7.815-7.813c0-0.737-0.104-1.45-0.297-2.126
					C994.058,29.104,995.235,26.88,995.235,24.385 M986.581,19.178c0,3.128-2.314,5.719-5.321,6.166
					c-0.049-0.314-0.081-0.634-0.081-0.959c0-3.129,2.315-5.72,5.32-6.166C986.549,18.531,986.581,18.851,986.581,19.178
					 M980.368,37.133c-1.168-1.135-1.896-2.719-1.896-4.471c0-1.726,0.705-3.29,1.839-4.42c1.168,1.135,1.897,2.719,1.897,4.472
					C982.208,34.438,981.504,36.002,980.368,37.133 M974.181,18.218c3.004,0.447,5.32,3.038,5.32,6.167
					c0,0.325-0.033,0.645-0.082,0.959c-3.006-0.447-5.321-3.038-5.321-6.166C974.098,18.851,974.131,18.531,974.181,18.218
					 M978.833,27.177c-1.026,2.041-3.137,3.449-5.574,3.449c-1.033,0-2.008-0.258-2.867-0.704c1.027-2.042,3.138-3.449,5.575-3.449
					C977.001,26.473,977.974,26.729,978.833,27.177 M981.826,27.134c0.864-0.453,1.845-0.714,2.887-0.714
					c2.454,0,4.575,1.428,5.596,3.492c-0.866,0.453-1.847,0.714-2.888,0.714C984.966,30.626,982.845,29.198,981.826,27.134
					 M980.339,12.937c2.558,0,4.758,1.547,5.722,3.753c-2.539,0.447-4.658,2.123-5.722,4.391c-1.061-2.268-3.182-3.943-5.721-4.391
					C975.582,14.483,977.782,12.937,980.339,12.937 M967.018,24.385c0-3.217,2.444-5.87,5.572-6.206
					c-0.041,0.327-0.065,0.661-0.065,0.999c0,2.284,0.985,4.343,2.553,5.772c-2.592,0.296-4.803,1.862-5.992,4.062
					C967.819,27.869,967.018,26.22,967.018,24.385 M969.726,32.714c0-0.443,0.047-0.876,0.136-1.293
					c1.028,0.498,2.182,0.778,3.397,0.778c1.368,0,2.654-0.354,3.773-0.975c-0.087,0.466-0.135,0.946-0.135,1.438
					c0,2.11,0.844,4.028,2.209,5.436c-0.924,0.541-1.995,0.856-3.14,0.856C972.524,38.954,969.726,36.155,969.726,32.714
					 M990.955,32.662c0,3.44-2.8,6.24-6.242,6.24c-1.12,0-2.167-0.3-3.077-0.818c1.327-1.401,2.146-3.292,2.146-5.37
					c0-0.512-0.053-1.011-0.146-1.495c1.123,0.624,2.412,0.98,3.785,0.98c1.221,0,2.378-0.282,3.407-0.785
					C990.911,31.818,990.955,32.235,990.955,32.662 M985.649,24.905c1.539-1.429,2.506-3.467,2.506-5.728
					c0-0.338-0.024-0.672-0.066-0.999c3.129,0.336,5.573,2.989,5.573,6.206c0,1.827-0.794,3.468-2.051,4.61
					C990.435,26.792,988.235,25.216,985.649,24.905"/>
			</g>
		</g>
	</g>
	<g>
		<g>
			<g>
				<rect x="895.987" fill="#00699D" width="55.999" height="49.999"/>
			</g>
		</g>
		<g>
			<path fill="#FFFFFF" d="M937.137,9.777c0,0-0.691,0.919-0.49,1.813c0.202,0.896,1.223,1.428,1.223,1.428s0.691-0.919,0.49-1.813
				C938.157,10.31,937.137,9.777,937.137,9.777"/>
		</g>
		<g>
			<path fill="#FFFFFF" d="M936.01,15.022c0,0,0.691-0.919,0.489-1.813c-0.202-0.896-1.222-1.427-1.222-1.427
				s-0.692,0.917-0.491,1.813C934.989,14.49,936.01,15.022,936.01,15.022"/>
		</g>
		<g>
			<path fill="#FFFFFF" d="M938.853,14.039c0,0,0.73,0.736,1.562,0.663c0.831-0.074,1.448-0.931,1.448-0.931
				s-0.729-0.736-1.562-0.662C939.469,13.183,938.853,14.039,938.853,14.039"/>
		</g>
		<g>
			<path fill="#FFFFFF" d="M940.049,10.104c-0.677,0.688-0.581,1.901-0.581,1.901s1.192,0.104,1.87-0.582
				c0.677-0.687,0.581-1.901,0.581-1.901S940.726,9.419,940.049,10.104"/>
		</g>
		<g>
			<path fill="#FFFFFF" d="M938.556,16.77c0.828,0.098,1.607-0.614,1.607-0.614s-0.564-0.87-1.392-0.968
				c-0.829-0.097-1.608,0.614-1.608,0.614S937.728,16.672,938.556,16.77"/>
		</g>
		<g>
			<path fill="#FFFFFF" d="M939.296,31.167h-6.194c-0.485,0-0.878,0.391-0.878,0.875s0.393,0.877,0.878,0.877h6.194
				c0.484,0,0.876-0.393,0.876-0.877S939.78,31.167,939.296,31.167"/>
		</g>
		<g>
			<path fill="#FFFFFF" d="M939.296,40.826h-6.194c-0.485,0-0.878,0.392-0.878,0.876c0,0.483,0.393,0.877,0.878,0.877h6.194
				c0.484,0,0.876-0.394,0.876-0.877C940.172,41.218,939.78,40.826,939.296,40.826"/>
		</g>
		<g>
			<path fill="#FFFFFF" d="M911.438,29.039c-0.146-0.045-0.29-0.084-0.431-0.11C911.007,28.929,911.166,28.978,911.438,29.039"/>
		</g>
		<g>
			<path fill="#FFFFFF" d="M939.067,33.531h-5.74c-0.274,0-0.498,0.224-0.498,0.499v1.737l-3.748,0.412l-5.474-0.125v-3.344
				c0.728-0.093,1.455-0.238,2.178-0.441c5.27-1.487,6.419-5.844,6.305-8.858c-0.115-3.07,0.868-4.262,2.279-4.792
				c0.404-0.152,0.804-0.248,1.17-0.311c0.016,0.755,0.169,1.631,0.506,2.675c0.125-0.006,0.249-0.017,0.373-0.03
				c-0.355-1.068-0.508-1.947-0.516-2.696c0.729-0.087,1.249-0.038,1.249-0.038s-0.492-0.265-1.189-0.848
				c0.237-1.453,1.104-2.346,1.995-3.259c0.491-0.502,0.998-1.021,1.396-1.64l-0.311-0.2c-0.378,0.588-0.874,1.092-1.352,1.581
				c-0.87,0.891-1.748,1.8-2.046,3.244c-0.282-0.256-0.588-0.558-0.901-0.909c-1.3-1.457-2.973-0.387-5.357,1.835
				c-2.388,2.22-5.388,2.296-8.319-0.703c-3.867-3.959-7.24-3.937-9.553-3.712c1.582,0.674,2.136,2.152,2.937,5.911
				c0.839,3.943,2.956,5.729,5.852,5.974c-1.61,0.569-1.69,1.479-3.848,2.969c-1.686,1.163-4.057,0.796-5.018,0.577
				c1.765,0.55,3.854,2.401,5.725,3.045c1.089,0.375,2.237,0.606,3.413,0.7v3.201l-9.808-0.225v2.233l18.313-0.419l3.748,0.412
				v1.737c0,0.275,0.224,0.5,0.498,0.5h5.74c0.275,0,0.5-0.225,0.5-0.5V34.03C939.567,33.755,939.343,33.531,939.067,33.531
				 M921.477,32.831c0.409,0.007,0.818-0.006,1.229-0.033v3.236l-1.229-0.028V32.831z"/>
		</g>
		<g>
			<path fill="#FFFFFF" d="M910.231,37.625c0,0.471-0.328,0.853-0.733,0.853h-0.441c-0.404,0-0.733-0.382-0.733-0.853v-1.544
				c0-0.471,0.329-0.852,0.733-0.852h0.441c0.405,0,0.733,0.381,0.733,0.852V37.625z"/>
		</g>
	</g>
	<g>
		<g>
			<g>
				<rect x="783.989" fill="#1995D3" width="55.998" height="49.998"/>
			</g>
			<g>
				<path fill="#FFFFFF" d="M828.056,33.774c-0.754-1.021-5.632-7.239-12.471-7.239c-5.938,0-12.291,5.387-12.291,5.387
					s-2.387-4.885-7.268-5.354c-0.029,0-0.06-0.007-0.092-0.007h-0.03c-0.103,0.006-0.198,0.104-0.187,0.193
					c0.014,0.085,0.076,0.178,0.076,0.178c0.629,1.045,2.235,4.018,2.235,6.986c0,2.979-1.616,5.959-2.239,6.998l-0.042,0.066
					c-0.018,0.031-0.03,0.063-0.03,0.103c0,0.104,0.08,0.184,0.18,0.193l0.053-0.005c0.017,0,0.034,0,0.052-0.005
					c4.896-0.456,7.292-5.355,7.292-5.355s6.353,5.387,12.291,5.387c6.839,0,11.717-6.219,12.471-7.237
					c0.021-0.027,0.038-0.052,0.054-0.069c0.008-0.024,0.016-0.047,0.016-0.075c0-0.027-0.008-0.054-0.016-0.074
					C828.094,33.824,828.077,33.8,828.056,33.774 M819.388,34.704c-1.103,0-1.996-0.895-1.996-1.996
					c0-1.103,0.894-1.994,1.996-1.994c1.105,0,1.998,0.892,1.998,1.994C821.386,33.81,820.493,34.704,819.388,34.704"/>
			</g>
			<g>
				<path fill="#FFFFFF" d="M802.846,20.961c0.016-0.022,0.03-0.039,0.052-0.054c0.032-0.021,0.067-0.037,0.108-0.037
					c0.05,0,0.099,0.021,0.134,0.055c0.002,0.003,0.006,0.006,0.009,0.009c3.728,3.553,7.638,0.673,8.452,0l0.079-0.076
					c0.023-0.01,0.048-0.013,0.074-0.013c0.028,0,0.056,0.003,0.079,0.013l0.079,0.076c0.813,0.673,4.723,3.553,8.452,0
					c0-0.003,0.004-0.006,0.008-0.009c0.034-0.034,0.08-0.055,0.131-0.055c0.042,0,0.078,0.017,0.108,0.037
					c0.023,0.015,0.039,0.031,0.056,0.054c0.722,0.711,3.845,3.399,7.149,0.528c0.034-0.035,0.058-0.081,0.058-0.138v-1.364
					c0-0.109-0.087-0.196-0.194-0.196c-0.015,0-0.027,0.006-0.043,0.009c-0.03,0.015-0.063,0.031-0.099,0.05
					c-1.015,0.509-4.165,1.715-7.022-0.985c-0.026-0.025-0.055-0.051-0.083-0.079c-0.026-0.015-0.052-0.019-0.084-0.019
					c-0.02,0-0.041,0.004-0.059,0.015c-0.043,0.011-0.076,0.038-0.099,0.073c-0.853,0.648-4.763,3.296-8.245,0.048l-0.051-0.051
					c-0.036-0.035-0.086-0.055-0.142-0.055c-0.051,0-0.102,0.02-0.136,0.055l-0.055,0.051c-3.479,3.248-7.395,0.601-8.244-0.048
					c-0.023-0.035-0.056-0.063-0.097-0.073c-0.021-0.011-0.042-0.015-0.063-0.015c-0.027,0-0.055,0.004-0.08,0.019
					c-0.027,0.028-0.056,0.054-0.085,0.079c-2.858,2.7-6.006,1.494-7.021,0.985c-0.035-0.019-0.069-0.035-0.101-0.05
					c-0.015-0.003-0.025-0.009-0.037-0.009c-0.109,0-0.197,0.087-0.197,0.196v1.364c0,0.057,0.022,0.103,0.057,0.138
					C798.997,24.36,802.122,21.672,802.846,20.961"/>
			</g>
		</g>
		<g>
			<path fill="#FFFFFF" d="M795.872,14.04c-0.015-0.003-0.025-0.009-0.038-0.009c-0.107,0-0.196,0.089-0.196,0.198v1.361
				c0,0.057,0.022,0.107,0.058,0.141c3.302,2.868,6.427,0.181,7.15-0.529c0.015-0.021,0.03-0.042,0.052-0.055
				c0.032-0.021,0.067-0.036,0.107-0.036c0.051,0,0.1,0.021,0.134,0.053c0.003,0.004,0.007,0.007,0.01,0.009
				c3.729,3.559,7.638,0.676,8.452,0l0.079-0.074c0.023-0.01,0.048-0.014,0.075-0.014s0.055,0.004,0.077,0.014l0.081,0.074
				c0.813,0.676,4.723,3.559,8.451,0c0-0.002,0.006-0.005,0.008-0.009c0.034-0.032,0.08-0.053,0.133-0.053
				c0.039,0,0.076,0.016,0.107,0.036c0.022,0.013,0.038,0.033,0.055,0.055c0.723,0.71,3.846,3.397,7.148,0.529
				c0.035-0.033,0.058-0.084,0.058-0.141v-1.361c0-0.109-0.086-0.198-0.193-0.198c-0.015,0-0.027,0.006-0.043,0.009
				c-0.03,0.018-0.062,0.034-0.099,0.052c-1.016,0.508-4.164,1.718-7.022-0.986c-0.027-0.025-0.056-0.051-0.083-0.079
				c-0.026-0.012-0.052-0.019-0.084-0.019c-0.02,0-0.041,0.006-0.059,0.01c-0.043,0.017-0.076,0.044-0.099,0.077
				c-0.853,0.648-4.763,3.296-8.245,0.048l-0.051-0.05c-0.036-0.032-0.086-0.059-0.141-0.059c-0.052,0-0.103,0.026-0.137,0.059
				l-0.055,0.05c-3.479,3.248-7.395,0.601-8.244-0.048c-0.023-0.033-0.056-0.061-0.098-0.077c-0.02-0.004-0.04-0.01-0.063-0.01
				c-0.027,0-0.055,0.007-0.082,0.019c-0.025,0.028-0.055,0.054-0.082,0.079c-2.859,2.704-6.007,1.494-7.022,0.986
				C795.937,14.074,795.903,14.058,795.872,14.04"/>
		</g>
	</g>
	<g>
		<g>
			<path fill-rule="evenodd" clip-rule="evenodd" fill="none" d="M18.104,31.977c-0.022-0.034-0.044-0.074-0.069-0.113
				c-0.548-0.831-0.991-1.715-1.32-2.655c-0.047-0.133-0.107-0.144-0.226-0.107c-0.722,0.213-1.446,0.419-2.165,0.623
				c-2.229,0.64-4.453,1.278-6.678,1.917c-0.234,0.066-0.246,0.021-0.157,0.295c0.674,2.052,1.639,3.962,2.874,5.736
				c0.086,0.121,0.146,0.13,0.262,0.039c1.702-1.298,3.408-2.591,5.115-3.888c0.749-0.57,1.495-1.139,2.245-1.708
				C18.031,32.08,18.095,32.053,18.104,31.977z M6.397,25.218c-0.011,0.554,0.027,1.231,0.088,1.909
				c0.094,1.028,0.264,2.045,0.501,3.05c0.057,0.233,0.057,0.233,0.294,0.166c1.038-0.297,2.073-0.595,3.11-0.892
				c1.912-0.55,3.83-1.1,5.744-1.648c0.098-0.03,0.159-0.058,0.133-0.187c-0.21-0.979-0.287-1.971-0.254-2.972
				c0.004-0.114-0.028-0.162-0.152-0.172c-0.744-0.065-1.482-0.139-2.227-0.207c-1.136-0.102-2.265-0.201-3.401-0.305
				c-1.215-0.105-2.432-0.209-3.646-0.321c-0.117-0.011-0.15,0.021-0.162,0.136C6.393,24.212,6.397,24.653,6.397,25.218z
				 M28.358,47.058c0.088-0.005,0.18-0.019,0.273-0.019c1.022,0.008,2.038-0.09,3.049-0.24c0.263-0.042,0.263-0.044,0.213-0.308
				c-0.317-1.666-0.63-3.332-0.943-4.999c-0.251-1.34-0.508-2.679-0.754-4.02c-0.023-0.126-0.07-0.16-0.193-0.145
				c-0.252,0.034-0.505,0.059-0.762,0.076c-0.69,0.046-1.389,0.045-2.081-0.025c-0.25-0.026-0.254-0.03-0.3,0.21
				c-0.312,1.672-0.631,3.343-0.944,5.016c-0.248,1.328-0.496,2.659-0.748,3.988c-0.039,0.221-0.037,0.221,0.197,0.255
				C26.359,46.982,27.354,47.053,28.358,47.058z M25.554,37.23c0.019-0.135-0.081-0.127-0.148-0.146
				c-0.901-0.224-1.768-0.542-2.595-0.963c-0.302-0.154-0.302-0.149-0.48,0.135c-1.591,2.577-3.187,5.155-4.779,7.731
				c-0.073,0.113-0.075,0.175,0.056,0.247c1.896,1.063,3.901,1.828,6.02,2.301c0.137,0.03,0.182-0.007,0.204-0.136
				c0.089-0.498,0.187-0.993,0.28-1.49c0.417-2.22,0.837-4.438,1.255-6.656C25.429,37.906,25.492,37.56,25.554,37.23z M15.98,23.124
				c0.197,0.033,0.188-0.094,0.203-0.188c0.158-0.923,0.427-1.809,0.787-2.669c0.094-0.224,0.094-0.224-0.127-0.338
				c-2.322-1.153-4.64-2.311-6.959-3.466c-0.424-0.209-0.852-0.419-1.275-0.637c-0.102-0.053-0.155-0.038-0.2,0.068
				c-0.086,0.209-0.185,0.41-0.272,0.615c-0.763,1.8-1.274,3.665-1.549,5.599c-0.018,0.134,0.023,0.185,0.154,0.192
				c0.621,0.051,1.239,0.107,1.863,0.162c0.608,0.052,1.218,0.106,1.828,0.161c0.636,0.058,1.271,0.116,1.906,0.176
				c0.632,0.058,1.261,0.116,1.891,0.171C14.828,23.022,15.421,23.076,15.98,23.124z M42.674,8.451
				c-0.016-0.056-0.066-0.086-0.108-0.122c-0.576-0.487-1.171-0.942-1.79-1.368c-1.147-0.785-2.354-1.46-3.627-2.017
				c-0.202-0.089-0.211-0.087-0.275,0.08c-1.109,2.878-2.214,5.753-3.32,8.629c-0.048,0.12-0.052,0.187,0.085,0.25
				c0.882,0.415,1.705,0.928,2.46,1.546c0.088,0.076,0.146,0.062,0.217-0.021c0.128-0.145,0.263-0.285,0.395-0.428
				c0.615-0.668,1.229-1.34,1.845-2.011c0.97-1.06,1.938-2.117,2.907-3.177c0.382-0.42,0.765-0.838,1.146-1.259
				C42.633,8.521,42.667,8.499,42.674,8.451z M18.922,33.11c-0.026,0.018-0.064,0.04-0.094,0.063
				c-1.553,1.183-3.109,2.365-4.662,3.546c-0.907,0.688-1.815,1.378-2.725,2.062c-0.119,0.093-0.119,0.154-0.027,0.264
				c0.301,0.36,0.608,0.716,0.934,1.056c1.154,1.225,2.427,2.308,3.824,3.247c0.099,0.069,0.164,0.061,0.217-0.045
				c0.017-0.033,0.037-0.062,0.057-0.092c0.764-1.235,1.524-2.468,2.291-3.704c0.847-1.372,1.693-2.746,2.544-4.12
				c0.059-0.092,0.055-0.148-0.038-0.212c-0.172-0.116-0.34-0.242-0.504-0.373c-0.616-0.485-1.183-1.023-1.701-1.609
				C19.01,33.156,18.988,33.112,18.922,33.11z M13.205,9.228c-0.048,0.002-0.074,0.039-0.1,0.067
				c-0.331,0.335-0.67,0.661-0.985,1.01c-1.13,1.24-2.108,2.594-2.93,4.054c-0.104,0.193-0.106,0.193,0.091,0.291
				c1.348,0.671,2.699,1.342,4.051,2.014c1.405,0.7,2.807,1.4,4.21,2.102c0.11,0.059,0.17,0.052,0.232-0.058
				c0.507-0.844,1.101-1.616,1.796-2.307c0.074-0.075,0.088-0.129,0.01-0.215c-0.321-0.342-0.635-0.692-0.952-1.04
				c-0.828-0.911-1.659-1.819-2.49-2.729c-0.461-0.512-0.926-1.024-1.389-1.534c-0.474-0.521-0.95-1.041-1.429-1.56
				C13.288,9.285,13.258,9.242,13.205,9.228z M37.938,32.934c-0.054,0.011-0.085,0.057-0.116,0.095
				c-0.61,0.721-1.288,1.37-2.045,1.937c-0.192,0.144-0.192,0.144-0.067,0.347c0.299,0.476,0.592,0.957,0.89,1.435
				c1.319,2.138,2.64,4.276,3.962,6.419c0.06,0.103,0.104,0.104,0.198,0.043c1.062-0.725,2.043-1.541,2.96-2.432
				c0.626-0.607,1.201-1.255,1.748-1.93c0.132-0.162,0.132-0.162-0.041-0.29c-1.362-1.029-2.725-2.059-4.086-3.085
				c-1.084-0.814-2.164-1.633-3.246-2.443C38.048,32.99,38.002,32.944,37.938,32.934z M27.792,7.939c0-1.527,0-3.056,0-4.586
				c0-0.23,0-0.231-0.229-0.23c-0.557,0.008-1.108,0.061-1.664,0.121c-1.56,0.171-3.08,0.512-4.569,1.017
				c-0.18,0.063-0.18,0.063-0.111,0.245c1.108,2.854,2.218,5.71,3.324,8.563c0.088,0.23,0.088,0.228,0.324,0.157
				c0.877-0.263,1.769-0.412,2.678-0.481c0.247-0.018,0.247-0.014,0.247-0.264C27.792,10.967,27.792,9.455,27.792,7.939z
				 M31.504,37.149c0.055,0.3,0.111,0.621,0.173,0.942c0.515,2.729,1.028,5.459,1.542,8.189c0.04,0.221,0.044,0.223,0.266,0.168
				c2.056-0.494,3.999-1.271,5.833-2.329c0.185-0.107,0.185-0.107,0.066-0.297c-0.732-1.186-1.462-2.364-2.194-3.547
				c-0.889-1.44-1.777-2.881-2.662-4.321c-0.063-0.104-0.116-0.106-0.219-0.05c-0.429,0.234-0.862,0.446-1.313,0.628
				c-0.445,0.179-0.9,0.336-1.363,0.462C31.564,37.016,31.482,37.025,31.504,37.149z M43.706,9.4
				c-0.061,0.01-0.092,0.06-0.124,0.099c-0.479,0.516-0.952,1.032-1.426,1.548c-1.016,1.106-2.028,2.216-3.044,3.324
				c-0.589,0.644-1.183,1.287-1.771,1.93c-0.095,0.1-0.128,0.173-0.014,0.292c0.663,0.681,1.231,1.437,1.705,2.257
				c0.064,0.119,0.124,0.145,0.251,0.08c0.717-0.364,1.436-0.714,2.156-1.072c2.041-1.019,4.078-2.037,6.12-3.056
				c0.168-0.086,0.173-0.087,0.076-0.26c-0.376-0.679-0.78-1.341-1.227-1.979c-0.767-1.107-1.632-2.136-2.592-3.082
				C43.785,9.448,43.758,9.41,43.706,9.4z M40.736,23.26c0.589-0.053,1.175-0.106,1.756-0.159c0.717-0.067,1.435-0.138,2.148-0.206
				c0.587-0.055,1.167-0.11,1.754-0.164c0.707-0.069,1.411-0.137,2.117-0.204c0.495-0.045,0.985-0.096,1.479-0.137
				c0.141-0.013,0.181-0.069,0.157-0.208c-0.063-0.355-0.11-0.714-0.175-1.074c-0.317-1.742-0.846-3.418-1.567-5.034
				c-0.057-0.126-0.109-0.136-0.228-0.078c-0.811,0.407-1.62,0.806-2.432,1.21c-1.52,0.758-3.036,1.517-4.552,2.273
				c-0.45,0.225-0.897,0.447-1.345,0.671c-0.075,0.037-0.127,0.065-0.084,0.171c0.38,0.904,0.642,1.841,0.8,2.808
				C40.585,23.242,40.634,23.281,40.736,23.26z M50.34,24.988c0.019-0.296-0.035-0.7-0.035-1.103c0-0.101-0.018-0.182-0.156-0.166
				c-0.538,0.056-1.075,0.1-1.612,0.153c-0.811,0.079-1.618,0.158-2.428,0.233c-0.816,0.079-1.636,0.148-2.455,0.228
				c-0.925,0.088-1.849,0.18-2.775,0.265c-0.126,0.009-0.159,0.052-0.159,0.176c0.018,0.918-0.058,1.825-0.24,2.726
				c-0.043,0.227-0.042,0.227,0.183,0.29c2.944,0.846,5.888,1.69,8.828,2.535c0.193,0.055,0.193,0.055,0.244-0.144
				C50.134,28.511,50.328,26.814,50.34,24.988z M29.136,7.933c0,1.512,0,3.025,0,4.538c0,0.053,0,0.102,0,0.153
				c0,0.072,0.029,0.115,0.105,0.121c0.055,0.006,0.11,0.018,0.169,0.021c0.9,0.07,1.777,0.245,2.637,0.521
				c0.14,0.043,0.198,0.018,0.251-0.118c1.103-2.872,2.206-5.742,3.313-8.615c0.072-0.193,0.072-0.196-0.116-0.261
				c-0.475-0.163-0.956-0.309-1.437-0.438c-1.533-0.413-3.1-0.651-4.686-0.724c-0.236-0.012-0.236-0.008-0.236,0.229
				C29.136,4.887,29.136,6.409,29.136,7.933z M20.705,15.367c0.029-0.021,0.064-0.036,0.095-0.061
				c0.757-0.586,1.566-1.079,2.437-1.47c0.101-0.048,0.123-0.096,0.082-0.201c-1.12-2.883-2.24-5.765-3.356-8.645
				c-0.07-0.187-0.07-0.187-0.261-0.102c-1.943,0.838-3.727,1.933-5.357,3.279c-0.101,0.085-0.121,0.137-0.024,0.239
				c0.906,0.989,1.812,1.988,2.714,2.979c0.596,0.652,1.19,1.309,1.786,1.961c0.587,0.641,1.171,1.283,1.759,1.923
				C20.611,15.307,20.641,15.352,20.705,15.367z M40.205,29.071c-0.121-0.027-0.149,0.037-0.171,0.101
				c-0.31,0.894-0.722,1.734-1.233,2.53c-0.047,0.077-0.04,0.128,0.032,0.179c0.09,0.06,0.172,0.129,0.259,0.192
				c1.16,0.872,2.324,1.743,3.479,2.619c1.234,0.93,2.464,1.861,3.694,2.796c0.107,0.08,0.164,0.071,0.238-0.044
				c0.274-0.419,0.548-0.836,0.803-1.269c0.806-1.373,1.454-2.813,1.95-4.326c0.039-0.12,0.014-0.178-0.107-0.211
				c-0.316-0.086-0.628-0.18-0.945-0.271c-2.416-0.694-4.835-1.387-7.252-2.078C40.692,29.213,40.433,29.138,40.205,29.071z"/>
		</g>
		<g>
			<path fill-rule="evenodd" clip-rule="evenodd" fill="#D38A31" d="M18.104,31.977c-0.01,0.076-0.073,0.104-0.119,0.139
				c-0.75,0.569-1.496,1.138-2.245,1.708c-1.707,1.297-3.413,2.59-5.115,3.888c-0.115,0.091-0.176,0.082-0.262-0.039
				c-1.235-1.774-2.2-3.685-2.874-5.736c-0.089-0.274-0.077-0.229,0.157-0.295c2.225-0.639,4.448-1.277,6.678-1.917
				c0.719-0.204,1.443-0.41,2.165-0.623c0.118-0.036,0.179-0.025,0.226,0.107c0.329,0.94,0.772,1.824,1.32,2.655
				C18.061,31.902,18.082,31.942,18.104,31.977z"/>
		</g>
		<g>
			<path fill-rule="evenodd" clip-rule="evenodd" fill="#2E7142" d="M6.397,25.218c0-0.564-0.005-1.006,0.028-1.442
				c0.012-0.114,0.045-0.146,0.162-0.136c1.214,0.112,2.431,0.216,3.646,0.321c1.137,0.104,2.266,0.203,3.401,0.305
				c0.744,0.068,1.482,0.142,2.227,0.207c0.124,0.01,0.156,0.058,0.152,0.172c-0.033,1.001,0.044,1.993,0.254,2.972
				c0.026,0.129-0.035,0.156-0.133,0.187c-1.914,0.549-3.832,1.099-5.744,1.648c-1.037,0.297-2.072,0.595-3.11,0.892
				c-0.237,0.067-0.237,0.067-0.294-0.166c-0.237-1.005-0.407-2.021-0.501-3.05C6.425,26.449,6.387,25.771,6.397,25.218z"/>
		</g>
		<g>
			<path fill-rule="evenodd" clip-rule="evenodd" fill="#D66D40" d="M28.358,47.058c-1.004-0.005-1.999-0.075-2.993-0.21
				c-0.234-0.034-0.236-0.034-0.197-0.255c0.252-1.329,0.5-2.66,0.748-3.988c0.313-1.673,0.633-3.344,0.944-5.016
				c0.046-0.24,0.05-0.236,0.3-0.21c0.692,0.07,1.391,0.071,2.081,0.025c0.257-0.018,0.51-0.042,0.762-0.076
				c0.123-0.016,0.17,0.019,0.193,0.145c0.246,1.341,0.503,2.68,0.754,4.02c0.313,1.667,0.626,3.333,0.943,4.999
				c0.05,0.264,0.05,0.266-0.213,0.308c-1.011,0.15-2.026,0.248-3.049,0.24C28.538,47.039,28.446,47.053,28.358,47.058z"/>
		</g>
		<g>
			<path fill-rule="evenodd" clip-rule="evenodd" fill="#CC367B" d="M25.554,37.23c-0.062,0.329-0.125,0.676-0.188,1.022
				c-0.418,2.219-0.838,4.437-1.255,6.656c-0.094,0.497-0.191,0.992-0.28,1.49c-0.022,0.129-0.067,0.166-0.204,0.136
				c-2.118-0.473-4.124-1.238-6.02-2.301c-0.131-0.072-0.129-0.134-0.056-0.247c1.593-2.576,3.188-5.154,4.779-7.731
				c0.179-0.284,0.179-0.289,0.48-0.135c0.827,0.421,1.693,0.739,2.595,0.963C25.473,37.104,25.572,37.096,25.554,37.23z"/>
		</g>
		<g>
			<path fill-rule="evenodd" clip-rule="evenodd" fill="#2473A5" d="M15.98,23.124c-0.56-0.048-1.152-0.102-1.75-0.153
				c-0.63-0.055-1.259-0.113-1.891-0.171c-0.635-0.06-1.271-0.118-1.906-0.176c-0.61-0.055-1.22-0.109-1.828-0.161
				c-0.624-0.055-1.242-0.111-1.863-0.162c-0.131-0.008-0.172-0.059-0.154-0.192c0.274-1.934,0.786-3.799,1.549-5.599
				c0.088-0.205,0.187-0.406,0.272-0.615c0.045-0.106,0.099-0.121,0.2-0.068c0.424,0.218,0.852,0.428,1.275,0.637
				c2.319,1.155,4.637,2.313,6.959,3.466c0.221,0.114,0.221,0.114,0.127,0.338c-0.36,0.86-0.629,1.746-0.787,2.669
				C16.169,23.03,16.178,23.157,15.98,23.124z"/>
		</g>
		<g>
			<path fill-rule="evenodd" clip-rule="evenodd" fill="#D59B33" d="M42.674,8.451c-0.007,0.048-0.041,0.07-0.066,0.103
				c-0.382,0.421-5.283,5.778-5.898,6.446c-0.132,0.143-0.267,0.283-0.395,0.428c-0.07,0.083-0.129,0.098-0.217,0.021
				c-0.755-0.618-1.578-1.131-2.46-1.546c-0.137-0.063-0.133-0.13-0.085-0.25c1.106-2.876,2.211-5.751,3.32-8.629
				c0.064-0.167,0.073-0.169,0.275-0.08c1.272,0.557,2.479,1.231,3.627,2.017c0.619,0.426,1.214,0.881,1.79,1.368
				C42.607,8.365,42.658,8.396,42.674,8.451z"/>
		</g>
		<g>
			<path fill-rule="evenodd" clip-rule="evenodd" fill="#DF933D" d="M18.922,33.11c0.066,0.002,0.088,0.046,0.115,0.082
				c0.519,0.586,1.085,1.124,1.701,1.609c0.164,0.131,0.332,0.257,0.504,0.373c0.093,0.063,0.097,0.12,0.038,0.212
				c-0.851,1.374-1.697,2.748-2.544,4.12c-0.767,1.236-1.527,2.469-2.291,3.704c-0.02,0.03-0.04,0.059-0.057,0.092
				c-0.053,0.105-0.118,0.114-0.217,0.045c-1.397-0.939-2.67-2.022-3.824-3.247c-0.325-0.34-0.633-0.695-0.934-1.056
				c-0.092-0.109-0.092-0.171,0.027-0.264c0.909-0.684,1.817-1.374,2.725-2.062c1.553-1.181,3.109-2.363,4.662-3.546
				C18.857,33.15,18.896,33.128,18.922,33.11z"/>
		</g>
		<g>
			<path fill-rule="evenodd" clip-rule="evenodd" fill="#32A357" d="M13.205,9.228c0.053,0.015,0.083,0.058,0.115,0.096
				c0.479,0.519,5.938,6.521,6.26,6.862c0.078,0.086,0.064,0.14-0.01,0.215c-0.695,0.69-1.289,1.463-1.796,2.307
				c-0.063,0.109-0.122,0.116-0.232,0.058c-1.403-0.701-6.913-3.444-8.261-4.115c-0.197-0.098-0.194-0.098-0.091-0.291
				c0.821-1.46,1.8-2.813,2.93-4.054c0.315-0.349,0.654-0.675,0.985-1.01C13.131,9.267,13.157,9.229,13.205,9.228z"/>
		</g>
		<g>
			<path fill-rule="evenodd" clip-rule="evenodd" fill="#E7AB36" d="M37.938,32.934c0.064,0.011,0.11,0.057,0.156,0.095
				c1.082,0.811,2.162,1.629,3.246,2.443c1.361,1.026,2.724,2.056,4.086,3.085c0.173,0.128,0.173,0.128,0.041,0.29
				c-0.547,0.675-1.122,1.322-1.748,1.93c-0.917,0.891-1.898,1.707-2.96,2.432c-0.094,0.062-0.139,0.06-0.198-0.043
				c-1.322-2.143-2.643-4.281-3.962-6.419c-0.298-0.478-0.591-0.959-0.89-1.435c-0.125-0.203-0.125-0.203,0.067-0.347
				c0.757-0.566,1.435-1.216,2.045-1.937C37.853,32.99,37.884,32.944,37.938,32.934z"/>
		</g>
		<g>
			<path fill-rule="evenodd" clip-rule="evenodd" fill="#27375F" d="M27.792,12.48c0,0.25,0,0.246-0.247,0.264
				c-0.909,0.069-1.801,0.219-2.678,0.481c-0.236,0.07-0.236,0.073-0.324-0.157c-1.106-2.853-2.216-5.709-3.324-8.563
				C21.15,4.323,21.15,4.323,21.33,4.261c1.489-0.505,3.01-0.846,4.569-1.017c0.556-0.061,1.107-0.113,1.664-0.121
				c0.229-0.001,0.229,0,0.229,0.23C27.792,4.884,27.792,10.967,27.792,12.48z"/>
		</g>
		<g>
			<path fill-rule="evenodd" clip-rule="evenodd" fill="#982337" d="M31.504,37.149c-0.021-0.124,0.061-0.134,0.129-0.154
				c0.463-0.126,0.918-0.283,1.363-0.462c0.45-0.182,0.884-0.394,1.313-0.628c0.103-0.057,0.155-0.054,0.219,0.05
				c0.885,1.44,1.773,2.881,2.662,4.321c0.732,1.183,1.462,2.361,2.194,3.547c0.118,0.189,0.118,0.189-0.066,0.297
				c-1.834,1.058-3.777,1.835-5.833,2.329c-0.222,0.055-0.226,0.053-0.266-0.168c-0.514-2.73-1.027-5.46-1.542-8.189
				C31.615,37.771,31.559,37.449,31.504,37.149z"/>
		</g>
		<g>
			<path fill-rule="evenodd" clip-rule="evenodd" fill="#348F50" d="M43.706,9.4c0.052,0.01,0.079,0.048,0.111,0.081
				c0.96,0.946,1.825,1.975,2.592,3.082c0.446,0.638,0.851,1.3,1.227,1.979c0.097,0.173,0.092,0.174-0.076,0.26
				c-2.042,1.019-7.56,3.764-8.276,4.128c-0.127,0.064-0.187,0.039-0.251-0.08c-0.474-0.82-1.042-1.576-1.705-2.257
				c-0.114-0.119-0.081-0.192,0.014-0.292c0.589-0.643,5.762-6.286,6.241-6.802C43.614,9.46,43.646,9.41,43.706,9.4z"/>
		</g>
		<g>
			<path fill-rule="evenodd" clip-rule="evenodd" fill="#CB2E37" d="M40.736,23.26c-0.103,0.021-0.151-0.018-0.17-0.132
				c-0.158-0.967-0.42-1.903-0.8-2.808c-0.043-0.105,0.009-0.134,0.084-0.171c0.447-0.224,0.895-0.446,1.345-0.671
				c1.516-0.757,3.032-1.516,4.552-2.273c0.812-0.404,1.621-0.803,2.432-1.21c0.118-0.058,0.171-0.048,0.228,0.078
				c0.722,1.616,1.25,3.292,1.567,5.034c0.064,0.36,0.111,0.719,0.175,1.074c0.023,0.139-0.017,0.195-0.157,0.208
				C49.497,22.431,41.325,23.207,40.736,23.26z"/>
		</g>
		<g>
			<path fill-rule="evenodd" clip-rule="evenodd" fill="#D05142" d="M50.34,24.988c-0.012,1.826-0.206,3.522-0.606,5.193
				c-0.051,0.198-0.051,0.198-0.244,0.144c-2.94-0.845-5.884-1.689-8.828-2.535c-0.225-0.063-0.226-0.063-0.183-0.29
				c0.183-0.9,0.258-1.808,0.24-2.726c0-0.124,0.033-0.167,0.159-0.176c0.927-0.085,1.851-0.177,2.775-0.265
				c0.819-0.079,1.639-0.148,2.455-0.228c0.81-0.075,1.617-0.154,2.428-0.233c0.537-0.054,1.074-0.098,1.612-0.153
				c0.139-0.016,0.156,0.065,0.156,0.166C50.305,24.288,50.358,24.692,50.34,24.988z"/>
		</g>
		<g>
			<path fill-rule="evenodd" clip-rule="evenodd" fill="#CE3F42" d="M29.136,3.359c0-0.236,0-0.24,0.236-0.229
				c1.586,0.072,3.152,0.311,4.686,0.724c0.48,0.13,0.962,0.275,1.437,0.438c0.188,0.064,0.188,0.067,0.116,0.261
				c-1.106,2.873-2.21,5.743-3.313,8.615c-0.053,0.136-0.111,0.161-0.251,0.118c-0.859-0.276-1.736-0.451-2.637-0.521
				c-0.059-0.003-0.114-0.015-0.169-0.021c-0.076-0.006-0.105-0.049-0.105-0.121c0-0.052,0-0.101,0-0.153
				C29.136,10.958,29.136,4.887,29.136,3.359z"/>
		</g>
		<g>
			<path fill-rule="evenodd" clip-rule="evenodd" fill="#2B5379" d="M20.705,15.367c-0.064-0.016-0.094-0.061-0.127-0.097
				c-0.588-0.64-5.353-5.873-6.259-6.862c-0.097-0.103-0.076-0.154,0.024-0.239c1.631-1.347,3.414-2.441,5.357-3.279
				c0.19-0.085,0.19-0.085,0.261,0.102c1.116,2.88,2.236,5.762,3.356,8.645c0.041,0.105,0.019,0.153-0.082,0.201
				c-0.87,0.391-1.68,0.884-2.437,1.47C20.77,15.331,20.734,15.347,20.705,15.367z"/>
		</g>
		<g>
			<path fill-rule="evenodd" clip-rule="evenodd" fill="#1C9BBE" d="M40.205,29.071c0.228,0.066,0.487,0.142,0.746,0.218
				c2.417,0.691,4.836,1.384,7.252,2.078c0.317,0.092,0.629,0.186,0.945,0.271c0.121,0.033,0.146,0.091,0.107,0.211
				c-0.496,1.513-1.145,2.953-1.95,4.326c-0.255,0.433-0.528,0.85-0.803,1.269c-0.074,0.115-0.131,0.124-0.238,0.044
				c-1.23-0.935-2.46-1.866-3.694-2.796c-1.154-0.876-2.318-1.747-3.479-2.619c-0.087-0.063-0.169-0.133-0.259-0.192
				c-0.072-0.051-0.079-0.102-0.032-0.179c0.512-0.796,0.924-1.637,1.233-2.53C40.056,29.108,40.084,29.044,40.205,29.071z"/>
		</g>
	</g>
</g>
</svg>
