<?xml version="1.0" encoding="utf-8"?>
<!-- Generator: Adobe Illustrator 16.0.3, SVG Export Plug-In . SVG Version: 6.00 Build 0)  -->
<!DOCTYPE svg PUBLIC "-//W3C//DTD SVG 1.1//EN" "http://www.w3.org/Graphics/SVG/1.1/DTD/svg11.dtd">
<svg version="1.1" id="Camada_1" xmlns="http://www.w3.org/2000/svg" xmlns:xlink="http://www.w3.org/1999/xlink" x="0px" y="0px"
	 width="160px" height="30px" viewBox="-5.748 -5.302 160 30" enable-background="new -5.748 -5.302 160 30" xml:space="preserve">
<g opacity="0.9">
	<path fill="#FFFFFF" d="M90.958,16.517c-0.402-0.515-0.605-1.128-0.605-1.844c0-0.484,0.1-1.003,0.289-1.56l0.395-1.118
		c0.09-0.251,0.266-0.377,0.527-0.377h1.798c1.426,0,2.36,0.029,2.814,0.092c0.677,0.09,1.156,0.31,1.438,0.664
		c0.443,0.534,0.666,1.159,0.666,1.875c0,0.474-0.101,0.978-0.302,1.512l-0.409,1.135c-0.092,0.253-0.284,0.378-0.573,0.378H95.18
		c-1.26,0-2.131-0.029-2.616-0.09C91.765,17.082,91.23,16.861,90.958,16.517z M91.428,10.86l1.934-5.289
		c0.094-0.253,0.295-0.38,0.608-0.38h7.85c0.079,0.01,0.121,0.051,0.121,0.12c0,0.062-0.042,0.147-0.121,0.26
		c-1.343,1.869-2.748,3.253-4.223,4.153c-1.753,1.072-3.765,1.575-6.033,1.516c-0.109-0.009-0.167-0.069-0.167-0.183
		C91.396,11.008,91.405,10.942,91.428,10.86z M98.051,10.5c0.152-0.403,0.408-0.729,0.768-0.975
		c0.357-0.248,0.756-0.372,1.191-0.372c0.576,0,1.069,0.204,1.473,0.612c0.406,0.407,0.608,0.896,0.608,1.459
		c0,0.575-0.203,1.066-0.608,1.476c-0.403,0.407-0.896,0.612-1.473,0.612c-0.577,0-1.069-0.205-1.48-0.612
		c-0.408-0.409-0.611-0.9-0.611-1.476C97.918,10.983,97.961,10.74,98.051,10.5z M108.563,11.618l-1.938,5.276
		c-0.088,0.253-0.291,0.378-0.604,0.378h-7.82c-0.078,0-0.121-0.036-0.121-0.105c0-0.071,0.043-0.161,0.121-0.272
		c1.342-1.867,2.749-3.247,4.22-4.143c1.745-1.069,3.747-1.573,6.005-1.513c0.111,0.011,0.166,0.07,0.166,0.182
		C108.594,11.481,108.584,11.547,108.563,11.618z M109.062,5.948c0.414,0.515,0.621,1.13,0.621,1.845
		c0,0.484-0.097,1.003-0.289,1.558l-0.406,1.132c-0.091,0.243-0.269,0.364-0.53,0.364h-1.799c-1.414,0-2.344-0.031-2.799-0.091
		c-0.686-0.091-1.165-0.309-1.438-0.649c-0.441-0.545-0.664-1.174-0.664-1.891c0-0.465,0.097-0.968,0.289-1.514l0.408-1.134
		c0.09-0.251,0.287-0.377,0.589-0.377h1.814c1.251,0,2.123,0.031,2.615,0.09C108.26,5.393,108.789,5.614,109.062,5.948z"/>
	<path fill="#FFFFFF" d="M113.598,5.207h3.42l-4.268,12.098h-3.555L113.598,5.207z M119.268,5.207h4.34
		c1.221,0,2.361,0.09,3.434,0.271c0.854,0.143,1.285,0.61,1.285,1.407c0,0.12-0.01,0.246-0.031,0.377l-0.029,0.183
		c-0.131,0.946-0.54,1.723-1.223,2.327c-0.627,0.545-1.438,0.912-2.437,1.104c0.787,0.211,1.326,0.479,1.618,0.8
		c0.374,0.394,0.503,0.959,0.393,1.694c-0.171,1.148-0.816,2.106-1.935,2.873c-1.028,0.708-2.147,1.061-3.356,1.061h-6.457
		L119.268,5.207z M121.279,14.794c0.373,0.008,0.738-0.148,1.096-0.478c0.357-0.328,0.563-0.678,0.614-1.052
		c0.091-0.615-0.313-0.927-1.21-0.937h-1.71l-0.892,2.465L121.279,14.794L121.279,14.794z M122.957,9.668
		c0.354,0.01,0.676-0.093,0.969-0.309c0.293-0.217,0.494-0.495,0.605-0.835c0.01-0.04,0.018-0.096,0.029-0.165
		c0.102-0.672-0.275-1.012-1.135-1.021l-1.692-0.017l-0.757,2.346H122.957z M128.023,12.693c0.414-2.351,1.469-4.227,3.168-5.634
		c1.697-1.406,3.741-2.11,6.131-2.11c0.665,0,1.23,0.03,1.694,0.092c0.726,0.091,1.381,0.322,1.965,0.694
		c0.453,0.313,0.679,0.808,0.679,1.482c0,0.483-0.101,0.998-0.302,1.542h-3.28c0.01-0.559-0.152-0.947-0.482-1.161
		c-0.262-0.183-0.692-0.275-1.287-0.275c-1.028,0-2.006,0.506-2.934,1.514c-0.816,0.886-1.371,1.87-1.664,2.947
		c-0.021,0.051-0.035,0.106-0.045,0.167l-0.029,0.197c-0.021,0.161-0.031,0.322-0.031,0.483c-0.01,0.755,0.191,1.399,0.605,1.936
		c0.332,0.434,0.877,0.648,1.633,0.648c0.705,0,1.385-0.136,2.041-0.408l0.666-1.98h-2.359l0.893-2.494h5.793l-2.283,6.563
		c-2.563,0.452-4.528,0.681-5.898,0.681h-0.333c-1.843,0.009-3.084-0.444-3.721-1.361c-0.461-0.695-0.694-1.526-0.694-2.496
		c0-0.321,0.025-0.661,0.076-1.012V12.693L128.023,12.693z M144.928,5.207h9.33l-0.879,2.358h-5.773l-0.893,2.372h5.396
		l-0.875,2.497h-5.398l-0.877,2.36h5.928l-0.907,2.511h-9.33L144.928,5.207z"/>
</g>
<g>
	<path fill="#FFFFFF" d="M-5.748,24.683l14.656-3.952V-5.302L-5.748-1.349V24.683z M-3.365,4.631c0-0.13,0.106-0.265,0.236-0.299
		l5.267-1.402c1.04-0.276,1.975-0.332,2.78-0.161c0.814,0.173,1.453,0.566,1.903,1.167c0.447,0.603,0.674,1.37,0.674,2.278
		c0,1.355-0.494,2.586-1.468,3.661c-0.961,1.056-2.287,1.816-3.944,2.259L0.29,12.613v4.24c0,0.133-0.106,0.266-0.238,0.301
		l-3.181,0.848c-0.13,0.033-0.236-0.043-0.236-0.174V4.631z"/>
	<path fill="#FFFFFF" d="M3.383,8.463C3.66,8.126,3.794,7.719,3.794,7.219c0-0.56-0.144-0.953-0.438-1.202
		C3.067,5.774,2.68,5.72,2.171,5.851L0.29,6.35v3.332l1.848-0.49C2.688,9.044,3.106,8.801,3.383,8.463z"/>
	<polygon fill="#FFFFFF" points="16.064,7.984 15.147,11.07 16.794,11.416 	"/>
	<path fill="#FFFFFF" d="M10.095,20.731l11.651,3.952V-1.349L10.095-5.302V20.731z M10.906,14.89l3.992-11.396
		c0.026-0.082,0.096-0.124,0.171-0.109l2.246,0.47c0.074,0.017,0.14,0.086,0.163,0.178l3.295,12.896
		c0.013,0.033,0.019,0.07,0.018,0.108c-0.002,0.122-0.085,0.203-0.182,0.181c-0.002,0-0.002,0-0.003,0L18.04,16.68
		c-0.079-0.017-0.146-0.091-0.167-0.188l-0.476-2.229l-3.011-0.631l-0.596,2.006c-0.025,0.087-0.096,0.135-0.174,0.118l-2.552-0.535
		c-0.059-0.015-0.112-0.058-0.143-0.124S10.885,14.954,10.906,14.89z"/>
	<path fill="#FFFFFF" d="M22.932,24.687l14.656-3.953V-5.299L22.932-1.346V24.687z M28.671,3.232l1.64-3.423
		c0.039-0.083,0.11-0.145,0.187-0.165l3.038-0.751c0.087-0.021,0.169,0.017,0.207,0.099c0.037,0.08,0.023,0.189-0.034,0.278
		l-2.329,3.599c-0.043,0.063-0.103,0.109-0.167,0.125c0,0,0,0-0.001,0L28.864,3.57c-0.08,0.02-0.155-0.011-0.195-0.082
		C28.628,3.419,28.629,3.319,28.671,3.232z M28.702,4.094l2.987-0.738c0.124-0.031,0.224,0.057,0.227,0.196l0.194,13.963
		c0.001,0.14-0.097,0.278-0.221,0.31l-2.986,0.736c-0.123,0.031-0.223-0.057-0.227-0.195L28.481,4.401
		C28.479,4.262,28.578,4.126,28.702,4.094z"/>
	<path fill="#FFFFFF" d="M38.668,20.731l11.651,3.952V-1.349L38.668-5.302V20.731z M40.363,10.207l2.424,1.145
		c0.101,0.048,0.178,0.203,0.175,0.345c-0.015,0.698,0.095,1.269,0.325,1.7c0.237,0.434,0.646,0.793,1.221,1.064
		c0.357,0.168,0.643,0.192,0.847,0.072c0.189-0.112,0.285-0.344,0.292-0.711c0.009-0.432-0.083-0.805-0.286-1.139
		c-0.228-0.374-0.647-0.861-1.247-1.439c-0.626-0.608-1.147-1.158-1.546-1.639c-1.338-1.607-2-3.294-1.963-5.008
		c0.02-0.859,0.211-1.544,0.573-2.039c0.355-0.49,0.854-0.771,1.483-0.836c0.618-0.065,1.316,0.083,2.074,0.442
		c0.744,0.35,1.417,0.866,2.001,1.53c0.592,0.675,1.053,1.465,1.372,2.347c0.32,0.887,0.472,1.811,0.453,2.742
		c-0.003,0.145-0.087,0.223-0.186,0.175l-2.41-1.136c-0.101-0.048-0.178-0.203-0.176-0.347c0.011-0.518-0.083-0.953-0.29-1.331
		c-0.209-0.381-0.508-0.665-0.887-0.844c-0.389-0.183-0.7-0.208-0.92-0.07c-0.21,0.129-0.316,0.357-0.323,0.7
		c-0.006,0.29,0.101,0.604,0.325,0.965c0.252,0.404,0.716,0.93,1.379,1.558c0.696,0.659,1.274,1.291,1.721,1.884
		c1.119,1.487,1.667,3.093,1.631,4.775c-0.029,1.35-0.41,2.257-1.132,2.696c-0.705,0.432-1.667,0.365-2.853-0.195
		c-0.834-0.394-1.597-0.977-2.266-1.729c-0.678-0.766-1.193-1.633-1.528-2.57c-0.333-0.939-0.492-1.927-0.47-2.931
		C40.182,10.24,40.264,10.159,40.363,10.207z"/>
	<path fill="#FFFFFF" d="M51.505,24.699l14.657-3.954V-5.286L51.505-1.334V24.699z M53.572,4.525c0-0.13,0.107-0.268,0.237-0.304
		l9.105-2.548c0.132-0.037,0.238,0.04,0.238,0.17V4.3c0,0.131-0.106,0.267-0.238,0.305l-5.688,1.591v2.309l4.766-1.334
		c0.13-0.036,0.235,0.041,0.235,0.172v2.355c0,0.133-0.104,0.268-0.235,0.303l-4.766,1.334v2.682l5.671-1.589
		c0.129-0.035,0.235,0.04,0.235,0.17v2.45c0,0.133-0.106,0.268-0.235,0.303l-9.088,2.545c-0.13,0.037-0.237-0.042-0.237-0.172V4.525
		z"/>
	<path fill="#FFFFFF" d="M67.347-5.286v26.032l11.652,3.954V-1.334L67.347-5.286z M77.075,8.958l-2.408-1.136
		c-0.102-0.048-0.178-0.203-0.176-0.347c0.011-0.518-0.083-0.953-0.29-1.331c-0.208-0.381-0.508-0.665-0.889-0.844
		c-0.388-0.183-0.697-0.208-0.92-0.07c-0.209,0.129-0.314,0.357-0.322,0.7c-0.005,0.29,0.101,0.604,0.324,0.965
		c0.252,0.404,0.716,0.93,1.381,1.558c0.695,0.659,1.274,1.291,1.72,1.884c1.117,1.487,1.665,3.093,1.63,4.775
		c-0.028,1.35-0.409,2.257-1.132,2.696c-0.705,0.432-1.664,0.365-2.853-0.195c-0.834-0.394-1.597-0.977-2.266-1.729
		c-0.678-0.766-1.194-1.633-1.527-2.57c-0.334-0.939-0.493-1.927-0.472-2.931c0.003-0.143,0.087-0.224,0.187-0.176l2.424,1.145
		c0.1,0.048,0.178,0.203,0.175,0.345c-0.015,0.698,0.095,1.269,0.325,1.7c0.235,0.434,0.646,0.793,1.222,1.064
		c0.357,0.168,0.644,0.192,0.846,0.072c0.19-0.112,0.284-0.344,0.294-0.711c0.008-0.432-0.085-0.805-0.288-1.139
		c-0.226-0.374-0.645-0.861-1.245-1.439c-0.626-0.608-1.148-1.158-1.546-1.639c-1.338-1.607-2-3.294-1.962-5.008
		c0.018-0.859,0.209-1.544,0.572-2.039c0.354-0.49,0.854-0.771,1.482-0.836c0.619-0.065,1.316,0.083,2.075,0.442
		c0.742,0.35,1.416,0.866,1.999,1.53c0.593,0.675,1.054,1.465,1.372,2.347c0.32,0.887,0.472,1.811,0.452,2.742
		C77.258,8.928,77.175,9.006,77.075,8.958z"/>
</g>
</svg>
