<?xml version="1.0" encoding="utf-8"?>
<!-- Generator: Adobe Illustrator 16.0.3, SVG Export Plug-In . SVG Version: 6.00 Build 0)  -->
<!DOCTYPE svg PUBLIC "-//W3C//DTD SVG 1.1//EN" "http://www.w3.org/Graphics/SVG/1.1/DTD/svg11.dtd">
<svg version="1.1" id="Camada_1" xmlns="http://www.w3.org/2000/svg" xmlns:xlink="http://www.w3.org/1999/xlink" x="0px" y="0px"
	 width="148.504px" height="19.397px" viewBox="0 0 148.504 19.397" enable-background="new 0 0 148.504 19.397"
	 xml:space="preserve">
<g>
	<defs>
		<rect id="SVGID_1_" x="258.463" y="-8.41" width="319.281" height="479.86"/>
	</defs>
	<clipPath id="SVGID_2_">
		<use xlink:href="#SVGID_1_"  overflow="visible"/>
	</clipPath>
</g>
<g>
	<defs>
		<rect id="SVGID_3_" x="259.463" y="-7.91" width="319.281" height="479.86"/>
	</defs>
	<clipPath id="SVGID_4_">
		<use xlink:href="#SVGID_3_"  overflow="visible"/>
	</clipPath>
</g>
<g>
	<g opacity="0.9">
		<path fill="#FFFFFF" d="M83.063,16.517c-0.403-0.515-0.606-1.128-0.606-1.844c0-0.484,0.099-1.003,0.289-1.559l0.395-1.119
			c0.09-0.251,0.265-0.377,0.527-0.377h1.797c1.426,0,2.36,0.03,2.815,0.092c0.676,0.09,1.156,0.31,1.438,0.664
			c0.443,0.534,0.666,1.159,0.666,1.875c0,0.474-0.101,0.978-0.302,1.512l-0.409,1.135c-0.092,0.253-0.285,0.378-0.574,0.378h-1.816
			c-1.259,0-2.131-0.03-2.615-0.09C83.869,17.082,83.335,16.861,83.063,16.517z M83.532,10.86l1.933-5.289
			c0.094-0.253,0.295-0.38,0.608-0.38h7.849c0.079,0.009,0.121,0.05,0.121,0.12c0,0.061-0.042,0.147-0.121,0.26
			C92.58,7.44,91.175,8.824,89.7,9.724c-1.753,1.072-3.764,1.575-6.032,1.516c-0.11-0.009-0.167-0.07-0.167-0.183
			C83.501,11.008,83.51,10.942,83.532,10.86z M90.155,10.5c0.151-0.403,0.407-0.729,0.767-0.974
			c0.358-0.248,0.756-0.372,1.192-0.372c0.576,0,1.068,0.204,1.471,0.612c0.406,0.407,0.608,0.895,0.608,1.459
			c0,0.575-0.203,1.066-0.608,1.475c-0.403,0.408-0.896,0.613-1.471,0.613c-0.578,0-1.07-0.205-1.481-0.613
			c-0.408-0.409-0.612-0.9-0.612-1.475C90.021,10.983,90.064,10.74,90.155,10.5z M100.664,11.618l-1.937,5.277
			c-0.088,0.253-0.292,0.378-0.604,0.378h-7.818c-0.079,0-0.121-0.036-0.121-0.106c0-0.071,0.042-0.161,0.121-0.272
			c1.342-1.867,2.748-3.247,4.219-4.143c1.744-1.069,3.746-1.573,6.003-1.512c0.112,0.01,0.167,0.07,0.167,0.181
			C100.695,11.481,100.685,11.547,100.664,11.618z M101.163,5.948c0.414,0.514,0.621,1.129,0.621,1.844
			c0,0.485-0.097,1.003-0.289,1.558l-0.406,1.132c-0.091,0.243-0.269,0.364-0.53,0.364H98.76c-1.414,0-2.344-0.031-2.799-0.091
			c-0.686-0.091-1.165-0.308-1.437-0.649c-0.442-0.545-0.665-1.174-0.665-1.891c0-0.465,0.097-0.968,0.289-1.514l0.408-1.133
			c0.09-0.251,0.287-0.377,0.589-0.377h1.814c1.251,0,2.123,0.031,2.615,0.09C100.362,5.393,100.89,5.614,101.163,5.948z"/>
		<path fill="#FFFFFF" d="M105.699,5.207h3.42l-4.267,12.098h-3.555L105.699,5.207z M111.369,5.207h4.34
			c1.22,0,2.362,0.09,3.434,0.272c0.854,0.142,1.285,0.61,1.285,1.407c0,0.12-0.01,0.246-0.031,0.377l-0.03,0.183
			c-0.131,0.946-0.54,1.722-1.223,2.327c-0.627,0.545-1.438,0.912-2.436,1.104c0.787,0.211,1.326,0.479,1.618,0.8
			c0.374,0.394,0.503,0.959,0.393,1.694c-0.171,1.149-0.816,2.107-1.935,2.873c-1.028,0.708-2.148,1.061-3.356,1.061h-6.457
			L111.369,5.207z M113.381,14.794c0.373,0.008,0.738-0.148,1.096-0.477c0.357-0.328,0.562-0.678,0.614-1.052
			c0.09-0.615-0.313-0.927-1.21-0.937h-1.71l-0.891,2.465H113.381z M115.058,9.668c0.354,0.01,0.676-0.093,0.97-0.308
			c0.292-0.217,0.493-0.495,0.605-0.835c0.01-0.04,0.018-0.096,0.029-0.165c0.101-0.672-0.276-1.012-1.134-1.021l-1.693-0.016
			l-0.757,2.345H115.058z M120.125,12.693c0.414-2.351,1.469-4.227,3.168-5.634c1.697-1.406,3.741-2.11,6.131-2.11
			c0.665,0,1.23,0.03,1.694,0.091c0.726,0.091,1.381,0.323,1.965,0.695c0.453,0.313,0.679,0.807,0.679,1.482
			c0,0.483-0.101,0.998-0.302,1.542h-3.281c0.01-0.559-0.151-0.947-0.481-1.161c-0.263-0.183-0.693-0.275-1.288-0.275
			c-1.028,0-2.006,0.505-2.934,1.513c-0.816,0.886-1.371,1.87-1.664,2.947c-0.02,0.051-0.035,0.107-0.044,0.167l-0.03,0.198
			c-0.02,0.161-0.031,0.322-0.031,0.483c-0.009,0.755,0.192,1.4,0.606,1.936c0.332,0.433,0.876,0.648,1.632,0.648
			c0.705,0,1.385-0.136,2.042-0.408l0.665-1.981h-2.359l0.893-2.494h5.793l-2.284,6.563c-2.562,0.452-4.528,0.68-5.898,0.68h-0.333
			c-1.843,0.009-3.084-0.444-3.721-1.361c-0.461-0.695-0.694-1.526-0.694-2.496c0-0.321,0.025-0.661,0.076-1.012V12.693z
			 M137.03,5.207h9.33l-0.879,2.359h-5.774l-0.892,2.372h5.396l-0.875,2.497h-5.398l-0.877,2.36h5.927l-0.907,2.511h-9.33
			L137.03,5.207z"/>
	</g>
	<g opacity="0.9">
		<path fill="#FFFFFF" d="M1.19,4.366c0.554-0.048,1.115-0.087,1.682-0.117S4.011,4.204,4.59,4.204c0.603,0,1.215,0.06,1.835,0.181
			c0.622,0.121,1.182,0.347,1.683,0.678c0.5,0.332,0.907,0.793,1.221,1.384c0.314,0.59,0.47,1.356,0.47,2.296
			c0,0.941-0.156,1.703-0.47,2.289c-0.314,0.584-0.717,1.045-1.211,1.383c-0.495,0.337-1.046,0.566-1.655,0.687
			c-0.609,0.121-1.209,0.181-1.8,0.181c-0.157,0-0.304-0.003-0.443-0.009c-0.138-0.006-0.268-0.015-0.389-0.027v4.177
			c-0.229,0.037-0.451,0.061-0.668,0.073c-0.217,0.012-0.428,0.018-0.633,0.018c-0.193,0-0.404-0.006-0.633-0.018
			c-0.229-0.012-0.464-0.036-0.706-0.073V4.366z M3.83,11.059c0.146,0.024,0.281,0.036,0.408,0.036c0.126,0,0.28,0,0.461,0
			c0.301,0,0.596-0.039,0.886-0.118c0.289-0.078,0.545-0.208,0.769-0.388c0.223-0.182,0.4-0.42,0.534-0.715
			c0.133-0.295,0.199-0.66,0.199-1.094c0-0.445-0.066-0.823-0.199-1.13C6.754,7.342,6.576,7.095,6.354,6.907
			C6.13,6.721,5.874,6.588,5.585,6.51C5.295,6.432,5,6.392,4.699,6.392c-0.133,0-0.257,0.003-0.371,0.01
			C4.213,6.408,4.047,6.422,3.83,6.447V11.059z"/>
		<path fill="#FFFFFF" d="M17.287,4.421c0.253-0.036,0.494-0.063,0.723-0.081c0.229-0.018,0.482-0.028,0.759-0.028
			c0.241,0,0.477,0.01,0.706,0.028c0.229,0.018,0.482,0.045,0.759,0.081l4.069,13.003c-0.495,0.073-0.977,0.109-1.447,0.109
			c-0.458,0-0.903-0.036-1.338-0.109l-0.723-2.604h-4.305l-0.742,2.604c-0.434,0.073-0.85,0.109-1.248,0.109
			c-0.446,0-0.886-0.036-1.32-0.109L17.287,4.421z M20.18,12.632L18.679,7.17l-1.573,5.462H20.18z"/>
		<path fill="#FFFFFF" d="M31.013,1.419c0.265-0.037,0.558-0.066,0.877-0.091c0.32-0.023,0.642-0.036,0.968-0.036
			c0.313,0,0.614,0.013,0.904,0.036c0.289,0.024,0.536,0.054,0.742,0.091L31.846,3.3c-0.217,0.048-0.435,0.078-0.652,0.09
			c-0.217,0.013-0.428,0.019-0.633,0.019c-0.446,0-0.886-0.036-1.32-0.108L31.013,1.419z M29.385,4.421
			c0.446-0.073,0.886-0.109,1.32-0.109c0.435,0,0.88,0.036,1.338,0.109v13.003c-0.458,0.073-0.897,0.109-1.319,0.109
			c-0.447,0-0.893-0.036-1.339-0.109V4.421z"/>
		<path fill="#FFFFFF" d="M40.562,11.402c-0.41-0.156-0.777-0.328-1.104-0.516c-0.325-0.187-0.602-0.41-0.832-0.668
			c-0.229-0.26-0.406-0.57-0.534-0.932c-0.126-0.362-0.19-0.796-0.19-1.302c0-0.616,0.106-1.158,0.317-1.627
			c0.211-0.471,0.509-0.865,0.895-1.185c0.386-0.319,0.851-0.561,1.393-0.723c0.542-0.163,1.151-0.244,1.826-0.244
			c0.615,0,1.19,0.054,1.728,0.162c0.537,0.109,1.1,0.266,1.691,0.471c-0.072,0.699-0.265,1.386-0.579,2.062
			c-0.181-0.072-0.365-0.145-0.551-0.217c-0.187-0.072-0.386-0.133-0.597-0.181c-0.211-0.047-0.449-0.087-0.715-0.117
			c-0.265-0.03-0.566-0.045-0.904-0.045c-0.205,0-0.414,0.019-0.625,0.054c-0.211,0.037-0.401,0.104-0.569,0.199
			c-0.169,0.097-0.308,0.239-0.416,0.425c-0.108,0.188-0.163,0.432-0.163,0.732c0,0.242,0.042,0.443,0.127,0.606
			c0.084,0.163,0.198,0.301,0.343,0.416s0.308,0.211,0.488,0.29c0.181,0.079,0.362,0.154,0.543,0.226l1.085,0.416
			c0.458,0.181,0.874,0.368,1.248,0.561c0.374,0.193,0.69,0.431,0.949,0.714c0.26,0.284,0.461,0.627,0.606,1.032
			c0.145,0.404,0.217,0.901,0.217,1.492c0,0.615-0.111,1.176-0.335,1.682c-0.223,0.506-0.545,0.94-0.967,1.302
			c-0.421,0.362-0.943,0.645-1.564,0.85c-0.622,0.205-1.335,0.307-2.143,0.307c-0.397,0-0.754-0.012-1.067-0.036
			c-0.313-0.024-0.612-0.063-0.895-0.118c-0.283-0.054-0.563-0.124-0.841-0.208c-0.277-0.084-0.567-0.186-0.868-0.307
			c0.036-0.35,0.103-0.715,0.199-1.095c0.097-0.379,0.211-0.762,0.344-1.148c0.506,0.205,0.982,0.359,1.429,0.461
			c0.445,0.103,0.922,0.154,1.428,0.154c0.76,0,1.357-0.142,1.792-0.425c0.433-0.283,0.65-0.714,0.65-1.293
			c0-0.29-0.051-0.53-0.154-0.724c-0.102-0.193-0.235-0.355-0.397-0.488c-0.162-0.133-0.346-0.244-0.551-0.335
			c-0.205-0.09-0.416-0.177-0.633-0.262L40.562,11.402z"/>
		<path fill="#FFFFFF" d="M51.757,4.421h7.379c0.073,0.362,0.108,0.729,0.108,1.103c0,0.398-0.036,0.778-0.108,1.14h-4.738v2.821
			h3.762c0.072,0.386,0.108,0.76,0.108,1.121c0,0.386-0.036,0.766-0.108,1.14h-3.762v3.437h4.865
			c0.073,0.362,0.108,0.729,0.108,1.103c0,0.398-0.036,0.778-0.108,1.139h-7.505V4.421z"/>
		<path fill="#FFFFFF" d="M67.347,11.402c-0.411-0.156-0.778-0.328-1.103-0.516c-0.326-0.187-0.603-0.41-0.833-0.668
			c-0.229-0.26-0.406-0.57-0.533-0.932c-0.126-0.362-0.19-0.796-0.19-1.302c0-0.616,0.105-1.158,0.317-1.627
			c0.21-0.471,0.509-0.865,0.895-1.185c0.387-0.319,0.851-0.561,1.393-0.723c0.542-0.163,1.151-0.244,1.827-0.244
			c0.615,0,1.19,0.054,1.727,0.162c0.537,0.109,1.1,0.266,1.691,0.471c-0.072,0.699-0.265,1.386-0.579,2.062
			c-0.181-0.072-0.365-0.145-0.552-0.217S71.021,6.549,70.811,6.5c-0.211-0.047-0.45-0.087-0.714-0.117
			c-0.266-0.03-0.567-0.045-0.905-0.045c-0.205,0-0.413,0.019-0.624,0.054c-0.21,0.037-0.401,0.104-0.569,0.199
			c-0.169,0.097-0.308,0.239-0.417,0.425c-0.108,0.188-0.163,0.432-0.163,0.732c0,0.242,0.042,0.443,0.126,0.606
			c0.084,0.163,0.199,0.301,0.343,0.416c0.145,0.115,0.308,0.211,0.488,0.29c0.181,0.079,0.362,0.154,0.543,0.226l1.085,0.416
			c0.458,0.181,0.874,0.368,1.248,0.561s0.69,0.431,0.95,0.714c0.259,0.284,0.461,0.627,0.605,1.032
			c0.145,0.404,0.217,0.901,0.217,1.492c0,0.615-0.111,1.176-0.334,1.682c-0.224,0.506-0.546,0.94-0.967,1.302
			c-0.422,0.362-0.944,0.645-1.564,0.85c-0.622,0.205-1.336,0.307-2.144,0.307c-0.398,0-0.753-0.012-1.067-0.036
			c-0.313-0.024-0.612-0.063-0.896-0.118c-0.283-0.054-0.563-0.124-0.84-0.208c-0.277-0.084-0.567-0.186-0.868-0.307
			c0.036-0.35,0.103-0.715,0.199-1.095c0.096-0.379,0.211-0.762,0.343-1.148c0.506,0.205,0.982,0.359,1.429,0.461
			c0.446,0.103,0.922,0.154,1.429,0.154c0.759,0,1.356-0.142,1.791-0.425c0.434-0.283,0.65-0.714,0.65-1.293
			c0-0.29-0.051-0.53-0.153-0.724c-0.103-0.193-0.235-0.355-0.398-0.488c-0.163-0.133-0.346-0.244-0.552-0.335
			c-0.205-0.09-0.416-0.177-0.633-0.262L67.347,11.402z"/>
	</g>
</g>
</svg>
