<?xml version="1.0" encoding="UTF-8"?>
<!DOCTYPE svg PUBLIC "-//W3C//DTD SVG 1.1//EN" "http://www.w3.org/Graphics/SVG/1.1/DTD/svg11.dtd">
<svg version="1.2" width="56.44mm" height="10.58mm" viewBox="0 0 5644 1058" preserveAspectRatio="xMidYMid" fill-rule="evenodd" stroke-width="28.222" stroke-linejoin="round" xmlns="http://www.w3.org/2000/svg" xmlns:ooo="http://xml.openoffice.org/svg/export" xmlns:xlink="http://www.w3.org/1999/xlink" xmlns:presentation="http://sun.com/xmlns/staroffice/presentation" xmlns:smil="http://www.w3.org/2001/SMIL20/" xmlns:anim="urn:oasis:names:tc:opendocument:xmlns:animation:1.0" xml:space="preserve">
 <defs class="ClipPathGroup">
  <clipPath id="presentation_clip_path" clipPathUnits="userSpaceOnUse">
   <rect x="0" y="0" width="5644" height="1058"/>
  </clipPath>
  <clipPath id="presentation_clip_path_shrink" clipPathUnits="userSpaceOnUse">
   <rect x="5" y="1" width="5633" height="1056"/>
  </clipPath>
 </defs>
 <defs class="TextShapeIndex">
  <g ooo:slide="id1" ooo:id-list="id3 id4 id5 id6 id7 id8 id9 id10 id11 id12 id13 id14 id15 id16 id17 id18"/>
 </defs>
 <defs class="EmbeddedBulletChars">
  <g id="bullet-char-template-57356" transform="scale(0.00048828125,-0.00048828125)">
   <path d="M 580,1141 L 1163,571 580,0 -4,571 580,1141 Z"/>
  </g>
  <g id="bullet-char-template-57354" transform="scale(0.00048828125,-0.00048828125)">
   <path d="M 8,1128 L 1137,1128 1137,0 8,0 8,1128 Z"/>
  </g>
  <g id="bullet-char-template-10146" transform="scale(0.00048828125,-0.00048828125)">
   <path d="M 174,0 L 602,739 174,1481 1456,739 174,0 Z M 1358,739 L 309,1346 659,739 1358,739 Z"/>
  </g>
  <g id="bullet-char-template-10132" transform="scale(0.00048828125,-0.00048828125)">
   <path d="M 2015,739 L 1276,0 717,0 1260,543 174,543 174,936 1260,936 717,1481 1274,1481 2015,739 Z"/>
  </g>
  <g id="bullet-char-template-10007" transform="scale(0.00048828125,-0.00048828125)">
   <path d="M 0,-2 C -7,14 -16,27 -25,37 L 356,567 C 262,823 215,952 215,954 215,979 228,992 255,992 264,992 276,990 289,987 310,991 331,999 354,1012 L 381,999 492,748 772,1049 836,1024 860,1049 C 881,1039 901,1025 922,1006 886,937 835,863 770,784 769,783 710,716 594,584 L 774,223 C 774,196 753,168 711,139 L 727,119 C 717,90 699,76 672,76 641,76 570,178 457,381 L 164,-76 C 142,-110 111,-127 72,-127 30,-127 9,-110 8,-76 1,-67 -2,-52 -2,-32 -2,-23 -1,-13 0,-2 Z"/>
  </g>
  <g id="bullet-char-template-10004" transform="scale(0.00048828125,-0.00048828125)">
   <path d="M 285,-33 C 182,-33 111,30 74,156 52,228 41,333 41,471 41,549 55,616 82,672 116,743 169,778 240,778 293,778 328,747 346,684 L 369,508 C 377,444 397,411 428,410 L 1163,1116 C 1174,1127 1196,1133 1229,1133 1271,1133 1292,1118 1292,1087 L 1292,965 C 1292,929 1282,901 1262,881 L 442,47 C 390,-6 338,-33 285,-33 Z"/>
  </g>
  <g id="bullet-char-template-9679" transform="scale(0.00048828125,-0.00048828125)">
   <path d="M 813,0 C 632,0 489,54 383,161 276,268 223,411 223,592 223,773 276,916 383,1023 489,1130 632,1184 813,1184 992,1184 1136,1130 1245,1023 1353,916 1407,772 1407,592 1407,412 1353,268 1245,161 1136,54 992,0 813,0 Z"/>
  </g>
  <g id="bullet-char-template-8226" transform="scale(0.00048828125,-0.00048828125)">
   <path d="M 346,457 C 273,457 209,483 155,535 101,586 74,649 74,723 74,796 101,859 155,911 209,963 273,989 346,989 419,989 480,963 531,910 582,859 608,796 608,723 608,648 583,586 532,535 482,483 420,457 346,457 Z"/>
  </g>
  <g id="bullet-char-template-8211" transform="scale(0.00048828125,-0.00048828125)">
   <path d="M -4,459 L 1135,459 1135,606 -4,606 -4,459 Z"/>
  </g>
  <g id="bullet-char-template-61548" transform="scale(0.00048828125,-0.00048828125)">
   <path d="M 173,740 C 173,903 231,1043 346,1159 462,1274 601,1332 765,1332 928,1332 1067,1274 1183,1159 1299,1043 1357,903 1357,740 1357,577 1299,437 1183,322 1067,206 928,148 765,148 601,148 462,206 346,322 231,437 173,577 173,740 Z"/>
  </g>
 </defs>
 <defs class="TextEmbeddedBitmaps"/>
 <g>
  <g id="id2" class="Master_Slide">
   <g id="bg-id2" class="Background"/>
   <g id="bo-id2" class="BackgroundObjects"/>
  </g>
 </g>
 <g class="SlideGroup">
  <g>
   <g id="container-id1">
    <g id="id1" class="Slide" clip-path="url(#presentation_clip_path)">
     <g class="Page">
      <g class="com.sun.star.drawing.ClosedBezierShape">
       <g id="id3">
        <rect class="BoundingBox" stroke="none" fill="none" x="0" y="0" width="519" height="1060"/>
        <path fill="rgb(255,255,255)" stroke="none" d="M 0,1059 L 518,919 518,0 0,140 0,1059 Z M 84,351 C 84,346 88,341 93,340 L 279,291 C 315,281 349,279 377,285 406,291 428,305 444,326 460,348 468,375 468,407 468,454 451,498 416,536 382,573 335,600 277,616 L 213,633 213,782 C 213,787 210,792 205,793 L 93,823 C 88,824 84,821 84,817 L 84,351 Z"/>
       </g>
      </g>
      <g class="com.sun.star.drawing.ClosedBezierShape">
       <g id="id4">
        <rect class="BoundingBox" stroke="none" fill="none" x="213" y="391" width="126" height="140"/>
        <path fill="rgb(255,255,255)" stroke="none" d="M 323,486 C 333,474 338,460 338,442 338,422 332,408 322,399 312,391 298,389 280,393 L 213,411 213,530 279,512 C 298,507 313,498 323,486 Z"/>
       </g>
      </g>
      <g class="com.sun.star.drawing.PolyPolygonShape">
       <g id="id5">
        <rect class="BoundingBox" stroke="none" fill="none" x="737" y="469" width="60" height="123"/>
        <path fill="rgb(255,255,255)" stroke="none" d="M 770,469 L 737,579 796,591 770,469 Z"/>
       </g>
      </g>
      <g class="com.sun.star.drawing.ClosedBezierShape">
       <g id="id6">
        <rect class="BoundingBox" stroke="none" fill="none" x="559" y="0" width="413" height="1060"/>
        <path fill="rgb(255,255,255)" stroke="none" d="M 559,919 L 971,1059 971,140 559,0 559,919 Z M 588,713 L 729,311 C 730,308 732,306 735,307 L 814,323 C 817,324 819,326 820,330 L 937,785 C 937,786 937,787 937,789 937,793 934,796 931,795 L 931,795 840,776 C 837,776 835,773 834,770 L 817,691 711,669 690,739 C 689,742 686,744 684,744 L 593,725 C 591,724 589,723 588,720 587,718 587,715 588,713 Z"/>
       </g>
      </g>
      <g class="com.sun.star.drawing.ClosedBezierShape">
       <g id="id7">
        <rect class="BoundingBox" stroke="none" fill="none" x="1012" y="0" width="519" height="1060"/>
        <path fill="rgb(255,255,255)" stroke="none" d="M 1012,1059 L 1530,919 1530,0 1012,140 1012,1059 Z M 1215,301 L 1273,180 C 1274,177 1277,175 1279,175 L 1387,148 C 1390,147 1393,149 1394,152 1395,154 1395,158 1393,161 L 1311,288 C 1309,291 1307,292 1305,293 L 1305,293 1222,313 C 1219,314 1216,313 1215,310 1213,308 1213,304 1215,301 Z M 1216,332 L 1322,306 C 1326,305 1329,308 1330,313 L 1336,806 C 1336,811 1333,815 1329,817 L 1223,843 C 1219,844 1215,841 1215,836 L 1208,343 C 1208,338 1212,333 1216,332 Z"/>
       </g>
      </g>
      <g class="com.sun.star.drawing.ClosedBezierShape">
       <g id="id8">
        <rect class="BoundingBox" stroke="none" fill="none" x="1566" y="0" width="414" height="1060"/>
        <path fill="rgb(255,255,255)" stroke="none" d="M 1567,919 L 1979,1059 1979,140 1567,0 1567,919 Z M 1627,548 L 1713,588 C 1716,590 1719,595 1719,600 1718,625 1722,645 1730,660 1739,676 1753,688 1774,698 1786,704 1796,705 1803,700 1810,696 1814,688 1814,675 1814,660 1811,647 1804,635 1796,622 1781,605 1760,584 1737,563 1719,543 1705,526 1658,470 1634,410 1635,350 1636,319 1643,295 1656,278 1668,260 1686,250 1708,248 1730,246 1755,251 1782,264 1808,276 1832,294 1852,318 1873,341 1890,369 1901,400 1912,432 1918,464 1917,497 1917,502 1914,505 1910,504 L 1825,463 C 1821,462 1819,456 1819,451 1819,433 1816,417 1809,404 1801,391 1791,381 1777,374 1763,368 1752,367 1745,372 1737,376 1733,384 1733,397 1733,407 1737,418 1745,431 1754,445 1770,463 1794,486 1818,509 1839,531 1854,552 1894,605 1913,661 1912,721 1911,768 1898,801 1872,816 1847,831 1813,829 1771,809 1742,795 1715,775 1691,748 1667,721 1649,690 1637,657 1625,624 1620,589 1620,554 1621,549 1623,546 1627,548 Z"/>
       </g>
      </g>
      <g class="com.sun.star.drawing.ClosedBezierShape">
       <g id="id9">
        <rect class="BoundingBox" stroke="none" fill="none" x="2020" y="1" width="519" height="1060"/>
        <path fill="rgb(255,255,255)" stroke="none" d="M 2020,1060 L 2538,920 2538,1 2020,141 2020,1060 Z M 2093,347 C 2093,343 2097,338 2101,337 L 2423,247 C 2428,245 2432,248 2432,253 L 2432,339 C 2432,344 2428,349 2423,350 L 2222,406 2222,488 2391,441 C 2395,440 2399,442 2399,447 L 2399,530 C 2399,535 2395,540 2391,541 L 2222,588 2222,683 2423,627 C 2427,625 2431,628 2431,633 L 2431,719 C 2431,724 2427,728 2423,730 L 2101,820 C 2097,821 2093,818 2093,814 L 2093,347 Z"/>
       </g>
      </g>
      <g class="com.sun.star.drawing.ClosedBezierShape">
       <g id="id10">
        <rect class="BoundingBox" stroke="none" fill="none" x="2578" y="1" width="414" height="1060"/>
        <path fill="rgb(255,255,255)" stroke="none" d="M 2579,1 L 2579,920 2991,1060 2991,141 2579,1 Z M 2923,504 L 2838,464 C 2834,462 2832,457 2832,452 2832,433 2829,418 2821,405 2814,391 2803,381 2790,375 2776,368 2765,367 2757,372 2750,377 2746,385 2746,397 2746,407 2750,418 2757,431 2766,445 2783,464 2806,486 2831,509 2851,532 2867,553 2907,605 2926,662 2925,721 2924,769 2910,801 2885,816 2860,832 2826,829 2784,810 2754,796 2727,775 2704,749 2680,721 2662,691 2650,658 2638,625 2632,590 2633,554 2633,549 2636,546 2640,548 L 2725,589 C 2729,590 2732,596 2732,601 2731,625 2735,646 2743,661 2751,676 2766,689 2786,698 2799,704 2809,705 2816,701 2823,697 2826,689 2827,676 2827,660 2824,647 2816,635 2808,622 2794,605 2772,585 2750,563 2732,544 2718,527 2670,470 2647,411 2648,350 2649,320 2656,295 2669,278 2681,261 2699,251 2721,248 2743,246 2767,251 2794,264 2821,276 2844,295 2865,318 2886,342 2902,370 2914,401 2925,432 2930,465 2930,498 2929,503 2927,506 2923,504 Z"/>
       </g>
      </g>
      <g class="com.sun.star.drawing.ClosedBezierShape">
       <g id="id11">
        <rect class="BoundingBox" stroke="none" fill="none" x="9" y="0" width="519" height="1060"/>
        <path fill="rgb(255,255,255)" stroke="none" d="M 9,1059 L 527,919 527,0 9,140 9,1059 Z M 93,351 C 93,346 97,341 102,340 L 288,291 C 324,281 358,279 386,285 415,291 437,305 453,326 469,348 477,375 477,407 477,454 460,498 425,536 391,573 344,600 286,616 L 222,633 222,782 C 222,787 219,792 214,793 L 102,823 C 97,824 93,821 93,817 L 93,351 Z"/>
       </g>
      </g>
      <g class="com.sun.star.drawing.ClosedBezierShape">
       <g id="id12">
        <rect class="BoundingBox" stroke="none" fill="none" x="222" y="391" width="126" height="140"/>
        <path fill="rgb(255,255,255)" stroke="none" d="M 332,486 C 342,474 347,460 347,442 347,422 341,408 331,399 321,391 307,389 289,393 L 222,411 222,530 288,512 C 307,507 322,498 332,486 Z"/>
       </g>
      </g>
      <g class="com.sun.star.drawing.PolyPolygonShape">
       <g id="id13">
        <rect class="BoundingBox" stroke="none" fill="none" x="746" y="469" width="60" height="123"/>
        <path fill="rgb(255,255,255)" stroke="none" d="M 779,469 L 746,579 805,591 779,469 Z"/>
       </g>
      </g>
      <g class="com.sun.star.drawing.ClosedBezierShape">
       <g id="id14">
        <rect class="BoundingBox" stroke="none" fill="none" x="568" y="0" width="413" height="1060"/>
        <path fill="rgb(255,255,255)" stroke="none" d="M 568,919 L 980,1059 980,140 568,0 568,919 Z M 597,713 L 738,311 C 739,308 741,306 744,307 L 823,323 C 826,324 828,326 829,330 L 946,785 C 946,786 946,787 946,789 946,793 943,796 940,795 L 940,795 849,776 C 846,776 844,773 843,770 L 826,691 720,669 699,739 C 698,742 695,744 693,744 L 602,725 C 600,724 598,723 597,720 596,718 596,715 597,713 Z"/>
       </g>
      </g>
      <g class="com.sun.star.drawing.ClosedBezierShape">
       <g id="id15">
        <rect class="BoundingBox" stroke="none" fill="none" x="1021" y="0" width="519" height="1060"/>
        <path fill="rgb(255,255,255)" stroke="none" d="M 1021,1059 L 1539,919 1539,0 1021,140 1021,1059 Z M 1224,301 L 1282,180 C 1283,177 1286,175 1288,175 L 1396,148 C 1399,147 1402,149 1403,152 1404,154 1404,158 1402,161 L 1320,288 C 1318,291 1316,292 1314,293 L 1314,293 1231,313 C 1228,314 1225,313 1224,310 1222,308 1222,304 1224,301 Z M 1225,332 L 1331,306 C 1335,305 1338,308 1339,313 L 1345,806 C 1345,811 1342,815 1338,817 L 1232,843 C 1228,844 1224,841 1224,836 L 1217,343 C 1217,338 1221,333 1225,332 Z"/>
       </g>
      </g>
      <g class="com.sun.star.drawing.ClosedBezierShape">
       <g id="id16">
        <rect class="BoundingBox" stroke="none" fill="none" x="1575" y="0" width="414" height="1060"/>
        <path fill="rgb(255,255,255)" stroke="none" d="M 1576,919 L 1988,1059 1988,140 1576,0 1576,919 Z M 1636,548 L 1722,588 C 1725,590 1728,595 1728,600 1727,625 1731,645 1739,660 1748,676 1762,688 1783,698 1795,704 1805,705 1812,700 1819,696 1823,688 1823,675 1823,660 1820,647 1813,635 1805,622 1790,605 1769,584 1746,563 1728,543 1714,526 1667,470 1643,410 1644,350 1645,319 1652,295 1665,278 1677,260 1695,250 1717,248 1739,246 1764,251 1791,264 1817,276 1841,294 1861,318 1882,341 1899,369 1910,400 1921,432 1927,464 1926,497 1926,502 1923,505 1919,504 L 1834,463 C 1830,462 1828,456 1828,451 1828,433 1825,417 1818,404 1810,391 1800,381 1786,374 1772,368 1761,367 1754,372 1746,376 1742,384 1742,397 1742,407 1746,418 1754,431 1763,445 1779,463 1803,486 1827,509 1848,531 1863,552 1903,605 1922,661 1921,721 1920,768 1907,801 1881,816 1856,831 1822,829 1780,809 1751,795 1724,775 1700,748 1676,721 1658,690 1646,657 1634,624 1629,589 1629,554 1630,549 1632,546 1636,548 Z"/>
       </g>
      </g>
      <g class="com.sun.star.drawing.ClosedBezierShape">
       <g id="id17">
        <rect class="BoundingBox" stroke="none" fill="none" x="2029" y="1" width="519" height="1060"/>
        <path fill="rgb(255,255,255)" stroke="none" d="M 2029,1060 L 2547,920 2547,1 2029,141 2029,1060 Z M 2102,347 C 2102,343 2106,338 2110,337 L 2432,247 C 2437,245 2441,248 2441,253 L 2441,339 C 2441,344 2437,349 2432,350 L 2231,406 2231,488 2400,441 C 2404,440 2408,442 2408,447 L 2408,530 C 2408,535 2404,540 2400,541 L 2231,588 2231,683 2432,627 C 2436,625 2440,628 2440,633 L 2440,719 C 2440,724 2436,728 2432,730 L 2110,820 C 2106,821 2102,818 2102,814 L 2102,347 Z"/>
       </g>
      </g>
      <g class="com.sun.star.drawing.ClosedBezierShape">
       <g id="id18">
        <rect class="BoundingBox" stroke="none" fill="none" x="2587" y="1" width="414" height="1060"/>
        <path fill="rgb(255,255,255)" stroke="none" d="M 2588,1 L 2588,920 3000,1060 3000,141 2588,1 Z M 2932,504 L 2847,464 C 2843,462 2841,457 2841,452 2841,433 2838,418 2830,405 2823,391 2812,381 2799,375 2785,368 2774,367 2766,372 2759,377 2755,385 2755,397 2755,407 2759,418 2766,431 2775,445 2792,464 2815,486 2840,509 2860,532 2876,553 2916,605 2935,662 2934,721 2933,769 2919,801 2894,816 2869,832 2835,829 2793,810 2763,796 2736,775 2713,749 2689,721 2671,691 2659,658 2647,625 2641,590 2642,554 2642,549 2645,546 2649,548 L 2734,589 C 2738,590 2741,596 2741,601 2740,625 2744,646 2752,661 2760,676 2775,689 2795,698 2808,704 2818,705 2825,701 2832,697 2835,689 2836,676 2836,660 2833,647 2825,635 2817,622 2803,605 2781,585 2759,563 2741,544 2727,527 2679,470 2656,411 2657,350 2658,320 2665,295 2678,278 2690,261 2708,251 2730,248 2752,246 2776,251 2803,264 2830,276 2853,295 2874,318 2895,342 2911,370 2923,401 2934,432 2939,465 2939,498 2938,503 2936,506 2932,504 Z"/>
       </g>
      </g>
     </g>
    </g>
   </g>
  </g>
 </g>
</svg>